<?xml version="1.0" encoding="UTF-8" standalone="no"?>
<!DOCTYPE svg PUBLIC "-//W3C//DTD SVG 1.1//EN"
 "http://www.w3.org/Graphics/SVG/1.1/DTD/svg11.dtd">
<!-- Generated by graphviz version 2.38.0 (20140413.2041)
 -->
<!-- Title: %3 Pages: 1 -->
<svg width="1620pt" height="118pt"
 viewBox="0.00 0.00 1619.77 117.54" xmlns="http://www.w3.org/2000/svg" xmlns:xlink="http://www.w3.org/1999/xlink">
<g id="graph0" class="graph" transform="scale(1 1) rotate(0) translate(4 113.539)">
<title>%3</title>
<polygon fill="white" stroke="none" points="-4,4 -4,-113.539 1615.77,-113.539 1615.77,4 -4,4"/>
<!-- 0 -->
<g id="node1" class="node"><title>0</title>
<polygon fill="lightgrey" stroke="black" points="28.8848,-100.154 7.88478,-100.154 7.88478,-82.1543 28.8848,-82.1543 28.8848,-100.154"/>
<text text-anchor="middle" x="18.3848" y="-88.9543" font-family="Times New Roman,serif" font-size="9.00">0</text>
</g>
<!-- 44 -->
<g id="node45" class="node"><title>44</title>
<ellipse fill="lightblue" stroke="lightblue" cx="18.3848" cy="-18.3848" rx="18.2703" ry="18.2703"/>
<text text-anchor="middle" x="18.3848" y="-16.1848" font-family="Times New Roman,serif" font-size="9.00">44</text>
</g>
<!-- 0&#45;&gt;44 -->
<g id="edge11" class="edge"><title>0&#45;&gt;44</title>
<path fill="none" stroke="green" stroke-width="1.36926" d="M18.3848,-82.0362C18.3848,-73.4701 18.3848,-59.4947 18.3848,-46.9144"/>
<polygon fill="green" stroke="green" stroke-width="1.36926" points="21.8849,-46.8244 18.3848,-36.8245 14.8849,-46.8245 21.8849,-46.8244"/>
</g>
<!-- 1 -->
<g id="node2" class="node"><title>1</title>
<polygon fill="lightgrey" stroke="black" points="83.8848,-100.154 62.8848,-100.154 62.8848,-82.1543 83.8848,-82.1543 83.8848,-100.154"/>
<text text-anchor="middle" x="73.3848" y="-88.9543" font-family="Times New Roman,serif" font-size="9.00">1</text>
</g>
<!-- 33 -->
<g id="node34" class="node"><title>33</title>
<ellipse fill="lightblue" stroke="lightblue" cx="73.3848" cy="-18.3848" rx="18.2703" ry="18.2703"/>
<text text-anchor="middle" x="73.3848" y="-16.1848" font-family="Times New Roman,serif" font-size="9.00">33</text>
</g>
<!-- 1&#45;&gt;33 -->
<g id="edge7" class="edge"><title>1&#45;&gt;33</title>
<path fill="none" stroke="green" stroke-width="1.43457" d="M73.3848,-82.0362C73.3848,-73.4701 73.3848,-59.4947 73.3848,-46.9144"/>
<polygon fill="green" stroke="green" stroke-width="1.43457" points="76.8849,-46.8244 73.3848,-36.8245 69.8849,-46.8245 76.8849,-46.8244"/>
</g>
<!-- 2 -->
<g id="node3" class="node"><title>2</title>
<polygon fill="lightgrey" stroke="black" points="122.885,-100.154 101.885,-100.154 101.885,-82.1543 122.885,-82.1543 122.885,-100.154"/>
<text text-anchor="middle" x="112.385" y="-88.9543" font-family="Times New Roman,serif" font-size="9.00">2</text>
</g>
<!-- 3 -->
<g id="node4" class="node"><title>3</title>
<polygon fill="lightgrey" stroke="black" points="161.885,-100.154 140.885,-100.154 140.885,-82.1543 161.885,-82.1543 161.885,-100.154"/>
<text text-anchor="middle" x="151.385" y="-88.9543" font-family="Times New Roman,serif" font-size="9.00">3</text>
</g>
<!-- 4 -->
<g id="node5" class="node"><title>4</title>
<polygon fill="lightgrey" stroke="black" points="200.885,-100.154 179.885,-100.154 179.885,-82.1543 200.885,-82.1543 200.885,-100.154"/>
<text text-anchor="middle" x="190.385" y="-88.9543" font-family="Times New Roman,serif" font-size="9.00">4</text>
</g>
<!-- 5 -->
<g id="node6" class="node"><title>5</title>
<polygon fill="lightgrey" stroke="black" points="239.885,-100.154 218.885,-100.154 218.885,-82.1543 239.885,-82.1543 239.885,-100.154"/>
<text text-anchor="middle" x="229.385" y="-88.9543" font-family="Times New Roman,serif" font-size="9.00">5</text>
</g>
<!-- 6 -->
<g id="node7" class="node"><title>6</title>
<polygon fill="lightgrey" stroke="black" points="278.885,-100.154 257.885,-100.154 257.885,-82.1543 278.885,-82.1543 278.885,-100.154"/>
<text text-anchor="middle" x="268.385" y="-88.9543" font-family="Times New Roman,serif" font-size="9.00">6</text>
</g>
<!-- 7 -->
<g id="node8" class="node"><title>7</title>
<polygon fill="lightgrey" stroke="black" points="317.885,-100.154 296.885,-100.154 296.885,-82.1543 317.885,-82.1543 317.885,-100.154"/>
<text text-anchor="middle" x="307.385" y="-88.9543" font-family="Times New Roman,serif" font-size="9.00">7</text>
</g>
<!-- 35 -->
<g id="node36" class="node"><title>35</title>
<ellipse fill="lightblue" stroke="lightblue" cx="328.385" cy="-18.3848" rx="18.2703" ry="18.2703"/>
<text text-anchor="middle" x="328.385" y="-16.1848" font-family="Times New Roman,serif" font-size="9.00">35</text>
</g>
<!-- 7&#45;&gt;35 -->
<g id="edge18" class="edge"><title>7&#45;&gt;35</title>
<path fill="none" stroke="green" stroke-width="1.12887" d="M309.794,-82.0362C312.395,-73.2699 316.677,-58.8384 320.477,-46.0345"/>
<polygon fill="green" stroke="green" stroke-width="1.12887" points="323.889,-46.8369 323.379,-36.2544 317.179,-44.8455 323.889,-46.8369"/>
</g>
<!-- 8 -->
<g id="node9" class="node"><title>8</title>
<polygon fill="lightgrey" stroke="black" points="401.885,-100.154 380.885,-100.154 380.885,-82.1543 401.885,-82.1543 401.885,-100.154"/>
<text text-anchor="middle" x="391.385" y="-88.9543" font-family="Times New Roman,serif" font-size="9.00">8</text>
</g>
<!-- 9 -->
<g id="node10" class="node"><title>9</title>
<polygon fill="lightgrey" stroke="black" points="492.885,-100.154 471.885,-100.154 471.885,-82.1543 492.885,-82.1543 492.885,-100.154"/>
<text text-anchor="middle" x="482.385" y="-88.9543" font-family="Times New Roman,serif" font-size="9.00">9</text>
</g>
<!-- 38 -->
<g id="node39" class="node"><title>38</title>
<ellipse fill="lightblue" stroke="lightblue" cx="433.385" cy="-18.3848" rx="18.2703" ry="18.2703"/>
<text text-anchor="middle" x="433.385" y="-16.1848" font-family="Times New Roman,serif" font-size="9.00">38</text>
</g>
<!-- 9&#45;&gt;38 -->
<g id="edge19" class="edge"><title>9&#45;&gt;38</title>
<path fill="none" stroke="green" stroke-width="0.19705" d="M476.764,-82.0362C470.124,-72.4462 458.79,-56.0763 449.372,-42.4744"/>
<polygon fill="green" stroke="green" stroke-width="0.19705" points="452.098,-40.2641 443.528,-34.0349 446.343,-44.2489 452.098,-40.2641"/>
</g>
<!-- 45 -->
<g id="node46" class="node"><title>45</title>
<ellipse fill="lightblue" stroke="lightblue" cx="488.385" cy="-18.3848" rx="18.2703" ry="18.2703"/>
<text text-anchor="middle" x="488.385" y="-16.1848" font-family="Times New Roman,serif" font-size="9.00">45</text>
</g>
<!-- 9&#45;&gt;45 -->
<g id="edge1" class="edge"><title>9&#45;&gt;45</title>
<path fill="none" stroke="red" stroke-width="0.523923" d="M483.073,-82.0362C483.799,-73.4701 484.984,-59.4947 486.051,-46.9144"/>
<polygon fill="red" stroke="red" stroke-width="0.523923" points="489.549,-47.0844 486.906,-36.8245 482.574,-46.493 489.549,-47.0844"/>
</g>
<!-- 10 -->
<g id="node11" class="node"><title>10</title>
<polygon fill="lightgrey" stroke="black" points="836.385,-100.154 810.385,-100.154 810.385,-82.1543 836.385,-82.1543 836.385,-100.154"/>
<text text-anchor="middle" x="823.385" y="-88.9543" font-family="Times New Roman,serif" font-size="9.00">10</text>
</g>
<!-- 11 -->
<g id="node12" class="node"><title>11</title>
<polygon fill="lightgrey" stroke="black" points="880.385,-100.154 854.385,-100.154 854.385,-82.1543 880.385,-82.1543 880.385,-100.154"/>
<text text-anchor="middle" x="867.385" y="-88.9543" font-family="Times New Roman,serif" font-size="9.00">11</text>
</g>
<!-- 12 -->
<g id="node13" class="node"><title>12</title>
<polygon fill="lightgrey" stroke="black" points="924.385,-100.154 898.385,-100.154 898.385,-82.1543 924.385,-82.1543 924.385,-100.154"/>
<text text-anchor="middle" x="911.385" y="-88.9543" font-family="Times New Roman,serif" font-size="9.00">12</text>
</g>
<!-- 13 -->
<g id="node14" class="node"><title>13</title>
<polygon fill="lightgrey" stroke="black" points="660.385,-100.154 634.385,-100.154 634.385,-82.1543 660.385,-82.1543 660.385,-100.154"/>
<text text-anchor="middle" x="647.385" y="-88.9543" font-family="Times New Roman,serif" font-size="9.00">13</text>
</g>
<!-- 42 -->
<g id="node43" class="node"><title>42</title>
<ellipse fill="lightblue" stroke="lightblue" cx="653.385" cy="-18.3848" rx="18.2703" ry="18.2703"/>
<text text-anchor="middle" x="653.385" y="-16.1848" font-family="Times New Roman,serif" font-size="9.00">42</text>
</g>
<!-- 13&#45;&gt;42 -->
<g id="edge23" class="edge"><title>13&#45;&gt;42</title>
<path fill="none" stroke="green" stroke-width="1.20656" d="M648.073,-82.0362C648.799,-73.4701 649.984,-59.4947 651.051,-46.9144"/>
<polygon fill="green" stroke="green" stroke-width="1.20656" points="654.549,-47.0844 651.906,-36.8245 647.574,-46.493 654.549,-47.0844"/>
</g>
<!-- 14 -->
<g id="node15" class="node"><title>14</title>
<polygon fill="lightgrey" stroke="black" points="611.385,-100.154 585.385,-100.154 585.385,-82.1543 611.385,-82.1543 611.385,-100.154"/>
<text text-anchor="middle" x="598.385" y="-88.9543" font-family="Times New Roman,serif" font-size="9.00">14</text>
</g>
<!-- 30 -->
<g id="node31" class="node"><title>30</title>
<ellipse fill="lightblue" stroke="lightblue" cx="598.385" cy="-18.3848" rx="18.2703" ry="18.2703"/>
<text text-anchor="middle" x="598.385" y="-16.1848" font-family="Times New Roman,serif" font-size="9.00">30</text>
</g>
<!-- 14&#45;&gt;30 -->
<g id="edge3" class="edge"><title>14&#45;&gt;30</title>
<path fill="none" stroke="red" stroke-width="0.517297" d="M598.385,-82.0362C598.385,-73.4701 598.385,-59.4947 598.385,-46.9144"/>
<polygon fill="red" stroke="red" stroke-width="0.517297" points="601.885,-46.8244 598.385,-36.8245 594.885,-46.8245 601.885,-46.8244"/>
</g>
<!-- 34 -->
<g id="node35" class="node"><title>34</title>
<ellipse fill="lightblue" stroke="lightblue" cx="543.385" cy="-18.3848" rx="18.2703" ry="18.2703"/>
<text text-anchor="middle" x="543.385" y="-16.1848" font-family="Times New Roman,serif" font-size="9.00">34</text>
</g>
<!-- 14&#45;&gt;34 -->
<g id="edge12" class="edge"><title>14&#45;&gt;34</title>
<path fill="none" stroke="red" stroke-width="0.727309" d="M592.076,-82.0362C584.458,-72.2346 571.336,-55.3506 560.633,-41.5782"/>
<polygon fill="red" stroke="red" stroke-width="0.727309" points="563.252,-39.2443 554.352,-33.4962 557.725,-43.5398 563.252,-39.2443"/>
</g>
<!-- 14&#45;&gt;42 -->
<g id="edge8" class="edge"><title>14&#45;&gt;42</title>
<path fill="none" stroke="red" stroke-width="1.7552" d="M604.694,-82.0362C612.311,-72.2346 625.433,-55.3506 636.137,-41.5782"/>
<polygon fill="red" stroke="red" stroke-width="1.7552" points="639.045,-43.5398 642.418,-33.4962 633.518,-39.2443 639.045,-43.5398"/>
</g>
<!-- 15 -->
<g id="node16" class="node"><title>15</title>
<polygon fill="lightgrey" stroke="black" points="968.385,-100.154 942.385,-100.154 942.385,-82.1543 968.385,-82.1543 968.385,-100.154"/>
<text text-anchor="middle" x="955.385" y="-88.9543" font-family="Times New Roman,serif" font-size="9.00">15</text>
</g>
<!-- 48 -->
<g id="node49" class="node"><title>48</title>
<ellipse fill="lightblue" stroke="lightblue" cx="955.385" cy="-18.3848" rx="18.2703" ry="18.2703"/>
<text text-anchor="middle" x="955.385" y="-16.1848" font-family="Times New Roman,serif" font-size="9.00">48</text>
</g>
<!-- 15&#45;&gt;48 -->
<g id="edge16" class="edge"><title>15&#45;&gt;48</title>
<path fill="none" stroke="red" stroke-width="0.849009" d="M955.385,-82.0362C955.385,-73.4701 955.385,-59.4947 955.385,-46.9144"/>
<polygon fill="red" stroke="red" stroke-width="0.849009" points="958.885,-46.8244 955.385,-36.8245 951.885,-46.8245 958.885,-46.8244"/>
</g>
<!-- 16 -->
<g id="node17" class="node"><title>16</title>
<polygon fill="lightgrey" stroke="black" points="1023.38,-100.154 997.385,-100.154 997.385,-82.1543 1023.38,-82.1543 1023.38,-100.154"/>
<text text-anchor="middle" x="1010.38" y="-88.9543" font-family="Times New Roman,serif" font-size="9.00">16</text>
</g>
<!-- 47 -->
<g id="node48" class="node"><title>47</title>
<ellipse fill="lightblue" stroke="lightblue" cx="1010.38" cy="-18.3848" rx="18.2703" ry="18.2703"/>
<text text-anchor="middle" x="1010.38" y="-16.1848" font-family="Times New Roman,serif" font-size="9.00">47</text>
</g>
<!-- 16&#45;&gt;47 -->
<g id="edge5" class="edge"><title>16&#45;&gt;47</title>
<path fill="none" stroke="red" stroke-width="0.5389" d="M1010.38,-82.0362C1010.38,-73.4701 1010.38,-59.4947 1010.38,-46.9144"/>
<polygon fill="red" stroke="red" stroke-width="0.5389" points="1013.88,-46.8244 1010.38,-36.8245 1006.88,-46.8245 1013.88,-46.8244"/>
</g>
<!-- 17 -->
<g id="node18" class="node"><title>17</title>
<polygon fill="lightgrey" stroke="black" points="1067.38,-100.154 1041.38,-100.154 1041.38,-82.1543 1067.38,-82.1543 1067.38,-100.154"/>
<text text-anchor="middle" x="1054.38" y="-88.9543" font-family="Times New Roman,serif" font-size="9.00">17</text>
</g>
<!-- 18 -->
<g id="node19" class="node"><title>18</title>
<polygon fill="lightgrey" stroke="black" points="1111.38,-100.154 1085.38,-100.154 1085.38,-82.1543 1111.38,-82.1543 1111.38,-100.154"/>
<text text-anchor="middle" x="1098.38" y="-88.9543" font-family="Times New Roman,serif" font-size="9.00">18</text>
</g>
<!-- 36 -->
<g id="node37" class="node"><title>36</title>
<ellipse fill="lightblue" stroke="lightblue" cx="1098.38" cy="-18.3848" rx="18.2703" ry="18.2703"/>
<text text-anchor="middle" x="1098.38" y="-16.1848" font-family="Times New Roman,serif" font-size="9.00">36</text>
</g>
<!-- 18&#45;&gt;36 -->
<g id="edge20" class="edge"><title>18&#45;&gt;36</title>
<path fill="none" stroke="green" stroke-width="1.58496" d="M1098.38,-82.0362C1098.38,-73.4701 1098.38,-59.4947 1098.38,-46.9144"/>
<polygon fill="green" stroke="green" stroke-width="1.58496" points="1101.88,-46.8244 1098.38,-36.8245 1094.88,-46.8245 1101.88,-46.8244"/>
</g>
<!-- 19 -->
<g id="node20" class="node"><title>19</title>
<polygon fill="lightgrey" stroke="black" points="792.385,-100.154 766.385,-100.154 766.385,-82.1543 792.385,-82.1543 792.385,-100.154"/>
<text text-anchor="middle" x="779.385" y="-88.9543" font-family="Times New Roman,serif" font-size="9.00">19</text>
</g>
<!-- 41 -->
<g id="node42" class="node"><title>41</title>
<ellipse fill="lightblue" stroke="lightblue" cx="774.385" cy="-18.3848" rx="18.2703" ry="18.2703"/>
<text text-anchor="middle" x="774.385" y="-16.1848" font-family="Times New Roman,serif" font-size="9.00">41</text>
</g>
<!-- 19&#45;&gt;41 -->
<g id="edge2" class="edge"><title>19&#45;&gt;41</title>
<path fill="none" stroke="green" stroke-width="0.878082" d="M778.811,-82.0362C778.206,-73.4701 777.219,-59.4947 776.33,-46.9144"/>
<polygon fill="green" stroke="green" stroke-width="0.878082" points="779.813,-46.5529 775.617,-36.8245 772.83,-47.0463 779.813,-46.5529"/>
</g>
<!-- 20 -->
<g id="node21" class="node"><title>20</title>
<polygon fill="lightgrey" stroke="black" points="1161.38,-100.154 1135.38,-100.154 1135.38,-82.1543 1161.38,-82.1543 1161.38,-100.154"/>
<text text-anchor="middle" x="1148.38" y="-88.9543" font-family="Times New Roman,serif" font-size="9.00">20</text>
</g>
<!-- 43 -->
<g id="node44" class="node"><title>43</title>
<ellipse fill="lightblue" stroke="lightblue" cx="1153.38" cy="-18.3848" rx="18.2703" ry="18.2703"/>
<text text-anchor="middle" x="1153.38" y="-16.1848" font-family="Times New Roman,serif" font-size="9.00">43</text>
</g>
<!-- 20&#45;&gt;43 -->
<g id="edge4" class="edge"><title>20&#45;&gt;43</title>
<path fill="none" stroke="red" stroke-width="0.320465" d="M1148.96,-82.0362C1149.56,-73.4701 1150.55,-59.4947 1151.44,-46.9144"/>
<polygon fill="red" stroke="red" stroke-width="0.320465" points="1154.94,-47.0463 1152.15,-36.8245 1147.96,-46.5529 1154.94,-47.0463"/>
</g>
<!-- 21 -->
<g id="node22" class="node"><title>21</title>
<polygon fill="lightgrey" stroke="black" points="1249.38,-100.154 1223.38,-100.154 1223.38,-82.1543 1249.38,-82.1543 1249.38,-100.154"/>
<text text-anchor="middle" x="1236.38" y="-88.9543" font-family="Times New Roman,serif" font-size="9.00">21</text>
</g>
<!-- 22 -->
<g id="node23" class="node"><title>22</title>
<polygon fill="lightgrey" stroke="black" points="555.385,-100.154 529.385,-100.154 529.385,-82.1543 555.385,-82.1543 555.385,-100.154"/>
<text text-anchor="middle" x="542.385" y="-88.9543" font-family="Times New Roman,serif" font-size="9.00">22</text>
</g>
<!-- 22&#45;&gt;30 -->
<g id="edge22" class="edge"><title>22&#45;&gt;30</title>
<path fill="none" stroke="green" stroke-width="0.384254" d="M548.809,-82.0362C556.612,-72.1744 570.089,-55.1432 581.023,-41.3251"/>
<polygon fill="green" stroke="green" stroke-width="0.384254" points="583.969,-43.2432 587.429,-33.2294 578.48,-38.8995 583.969,-43.2432"/>
</g>
<!-- 22&#45;&gt;45 -->
<g id="edge9" class="edge"><title>22&#45;&gt;45</title>
<path fill="none" stroke="green" stroke-width="0.928012" d="M536.19,-82.0362C528.711,-72.2346 515.828,-55.3506 505.319,-41.5782"/>
<polygon fill="green" stroke="green" stroke-width="0.928012" points="508.001,-39.323 499.152,-33.4962 502.436,-43.5693 508.001,-39.323"/>
</g>
<!-- 23 -->
<g id="node24" class="node"><title>23</title>
<polygon fill="lightgrey" stroke="black" points="446.385,-100.154 420.385,-100.154 420.385,-82.1543 446.385,-82.1543 446.385,-100.154"/>
<text text-anchor="middle" x="433.385" y="-88.9543" font-family="Times New Roman,serif" font-size="9.00">23</text>
</g>
<!-- 23&#45;&gt;38 -->
<g id="edge15" class="edge"><title>23&#45;&gt;38</title>
<path fill="none" stroke="green" stroke-width="2.188" d="M433.385,-82.0362C433.385,-73.4701 433.385,-59.4947 433.385,-46.9144"/>
<polygon fill="green" stroke="green" stroke-width="2.188" points="436.885,-46.8244 433.385,-36.8245 429.885,-46.8245 436.885,-46.8244"/>
</g>
<!-- 24 -->
<g id="node25" class="node"><title>24</title>
<polygon fill="lightgrey" stroke="black" points="1293.38,-100.154 1267.38,-100.154 1267.38,-82.1543 1293.38,-82.1543 1293.38,-100.154"/>
<text text-anchor="middle" x="1280.38" y="-88.9543" font-family="Times New Roman,serif" font-size="9.00">24</text>
</g>
<!-- 25 -->
<g id="node26" class="node"><title>25</title>
<polygon fill="lightgrey" stroke="black" points="1337.38,-100.154 1311.38,-100.154 1311.38,-82.1543 1337.38,-82.1543 1337.38,-100.154"/>
<text text-anchor="middle" x="1324.38" y="-88.9543" font-family="Times New Roman,serif" font-size="9.00">25</text>
</g>
<!-- 26 -->
<g id="node27" class="node"><title>26</title>
<polygon fill="lightgrey" stroke="black" points="704.385,-100.154 678.385,-100.154 678.385,-82.1543 704.385,-82.1543 704.385,-100.154"/>
<text text-anchor="middle" x="691.385" y="-88.9543" font-family="Times New Roman,serif" font-size="9.00">26</text>
</g>
<!-- 26&#45;&gt;30 -->
<g id="edge14" class="edge"><title>26&#45;&gt;30</title>
<path fill="none" stroke="green" stroke-width="1.01754" d="M681.128,-81.9662C677.441,-79.0445 673.24,-75.7416 669.385,-72.7696 653.302,-60.3718 634.981,-46.6046 620.978,-36.1564"/>
<polygon fill="green" stroke="green" stroke-width="1.01754" points="622.986,-33.2884 612.876,-30.1218 618.805,-38.9023 622.986,-33.2884"/>
</g>
<!-- 31 -->
<g id="node32" class="node"><title>31</title>
<ellipse fill="lightblue" stroke="lightblue" cx="713.385" cy="-18.3848" rx="18.2703" ry="18.2703"/>
<text text-anchor="middle" x="713.385" y="-16.1848" font-family="Times New Roman,serif" font-size="9.00">31</text>
</g>
<!-- 26&#45;&gt;31 -->
<g id="edge21" class="edge"><title>26&#45;&gt;31</title>
<path fill="none" stroke="green" stroke-width="0.203064" d="M693.908,-82.0362C696.634,-73.2699 701.12,-58.8384 705.1,-46.0345"/>
<polygon fill="green" stroke="green" stroke-width="0.203064" points="708.514,-46.8426 708.141,-36.2544 701.83,-44.7646 708.514,-46.8426"/>
</g>
<!-- 26&#45;&gt;41 -->
<g id="edge10" class="edge"><title>26&#45;&gt;41</title>
<path fill="none" stroke="green" stroke-width="2.0611" d="M700.906,-82.0362C713.567,-71.2407 736.305,-51.8537 753.144,-37.4952"/>
<polygon fill="green" stroke="green" stroke-width="2.0611" points="755.529,-40.0617 760.868,-30.9102 750.987,-34.735 755.529,-40.0617"/>
</g>
<!-- 27 -->
<g id="node28" class="node"><title>27</title>
<polygon fill="lightgrey" stroke="black" points="362.385,-100.154 336.385,-100.154 336.385,-82.1543 362.385,-82.1543 362.385,-100.154"/>
<text text-anchor="middle" x="349.385" y="-88.9543" font-family="Times New Roman,serif" font-size="9.00">27</text>
</g>
<!-- 27&#45;&gt;35 -->
<g id="edge17" class="edge"><title>27&#45;&gt;35</title>
<path fill="none" stroke="red" stroke-width="0.963822" d="M346.976,-82.0362C344.375,-73.2699 340.092,-58.8384 336.293,-46.0345"/>
<polygon fill="red" stroke="red" stroke-width="0.963822" points="339.591,-44.8455 333.391,-36.2544 332.88,-46.8369 339.591,-44.8455"/>
</g>
<!-- 28 -->
<g id="node29" class="node"><title>28</title>
<polygon fill="lightgrey" stroke="black" points="748.385,-100.154 722.385,-100.154 722.385,-82.1543 748.385,-82.1543 748.385,-100.154"/>
<text text-anchor="middle" x="735.385" y="-88.9543" font-family="Times New Roman,serif" font-size="9.00">28</text>
</g>
<!-- 28&#45;&gt;31 -->
<g id="edge13" class="edge"><title>28&#45;&gt;31</title>
<path fill="none" stroke="green" stroke-width="0.19158" d="M732.861,-82.0362C730.136,-73.2699 725.65,-58.8384 721.669,-46.0345"/>
<polygon fill="green" stroke="green" stroke-width="0.19158" points="724.94,-44.7646 718.629,-36.2544 718.255,-46.8426 724.94,-44.7646"/>
</g>
<!-- 29 -->
<g id="node30" class="node"><title>29</title>
<polygon fill="lightgrey" stroke="black" points="1205.38,-100.154 1179.38,-100.154 1179.38,-82.1543 1205.38,-82.1543 1205.38,-100.154"/>
<text text-anchor="middle" x="1192.38" y="-88.9543" font-family="Times New Roman,serif" font-size="9.00">29</text>
</g>
<!-- 29&#45;&gt;43 -->
<g id="edge6" class="edge"><title>29&#45;&gt;43</title>
<path fill="none" stroke="green" stroke-width="1.08759" d="M1187.91,-82.0362C1182.77,-72.7145 1174.11,-56.987 1166.74,-43.6225"/>
<polygon fill="green" stroke="green" stroke-width="1.08759" points="1169.8,-41.9242 1161.91,-34.8553 1163.67,-45.3028 1169.8,-41.9242"/>
</g>
<!-- 32 -->
<g id="node33" class="node"><title>32</title>
<ellipse fill="lightblue" stroke="lightblue" cx="1373.38" cy="-91.1543" rx="18.2703" ry="18.2703"/>
<text text-anchor="middle" x="1373.38" y="-88.9543" font-family="Times New Roman,serif" font-size="9.00">32</text>
</g>
<!-- 37 -->
<g id="node38" class="node"><title>37</title>
<ellipse fill="lightblue" stroke="lightblue" cx="1428.38" cy="-91.1543" rx="18.2703" ry="18.2703"/>
<text text-anchor="middle" x="1428.38" y="-88.9543" font-family="Times New Roman,serif" font-size="9.00">37</text>
</g>
<!-- 39 -->
<g id="node40" class="node"><title>39</title>
<ellipse fill="lightblue" stroke="lightblue" cx="1483.38" cy="-91.1543" rx="18.2703" ry="18.2703"/>
<text text-anchor="middle" x="1483.38" y="-88.9543" font-family="Times New Roman,serif" font-size="9.00">39</text>
</g>
<!-- 40 -->
<g id="node41" class="node"><title>40</title>
<ellipse fill="lightblue" stroke="lightblue" cx="1538.38" cy="-91.1543" rx="18.2703" ry="18.2703"/>
<text text-anchor="middle" x="1538.38" y="-88.9543" font-family="Times New Roman,serif" font-size="9.00">40</text>
</g>
<!-- 46 -->
<g id="node47" class="node"><title>46</title>
<ellipse fill="lightblue" stroke="lightblue" cx="1593.38" cy="-91.1543" rx="18.2703" ry="18.2703"/>
<text text-anchor="middle" x="1593.38" y="-88.9543" font-family="Times New Roman,serif" font-size="9.00">46</text>
</g>
</g>
</svg>
