<?xml version="1.0" encoding="UTF-8" standalone="no"?>
<!DOCTYPE svg PUBLIC "-//W3C//DTD SVG 1.1//EN"
 "http://www.w3.org/Graphics/SVG/1.1/DTD/svg11.dtd">
<!-- Generated by graphviz version 2.38.0 (20140413.2041)
 -->
<!-- Title: %3 Pages: 1 -->
<svg width="1392pt" height="118pt"
 viewBox="0.00 0.00 1391.77 117.54" xmlns="http://www.w3.org/2000/svg" xmlns:xlink="http://www.w3.org/1999/xlink">
<g id="graph0" class="graph" transform="scale(1 1) rotate(0) translate(4 113.539)">
<title>%3</title>
<polygon fill="white" stroke="none" points="-4,4 -4,-113.539 1387.77,-113.539 1387.77,4 -4,4"/>
<!-- 0 -->
<g id="node1" class="node"><title>0</title>
<polygon fill="lightgrey" stroke="black" points="28.8848,-100.154 7.88478,-100.154 7.88478,-82.1543 28.8848,-82.1543 28.8848,-100.154"/>
<text text-anchor="middle" x="18.3848" y="-88.9543" font-family="Times New Roman,serif" font-size="9.00">0</text>
</g>
<!-- 44 -->
<g id="node45" class="node"><title>44</title>
<ellipse fill="lightblue" stroke="lightblue" cx="18.3848" cy="-18.3848" rx="18.2703" ry="18.2703"/>
<text text-anchor="middle" x="18.3848" y="-16.1848" font-family="Times New Roman,serif" font-size="9.00">44</text>
</g>
<!-- 0&#45;&gt;44 -->
<g id="edge18" class="edge"><title>0&#45;&gt;44</title>
<path fill="none" stroke="green" stroke-width="1.36926" d="M18.3848,-82.0362C18.3848,-73.4701 18.3848,-59.4947 18.3848,-46.9144"/>
<polygon fill="green" stroke="green" stroke-width="1.36926" points="21.8849,-46.8244 18.3848,-36.8245 14.8849,-46.8245 21.8849,-46.8244"/>
</g>
<!-- 1 -->
<g id="node2" class="node"><title>1</title>
<polygon fill="lightgrey" stroke="black" points="239.885,-100.154 218.885,-100.154 218.885,-82.1543 239.885,-82.1543 239.885,-100.154"/>
<text text-anchor="middle" x="229.385" y="-88.9543" font-family="Times New Roman,serif" font-size="9.00">1</text>
</g>
<!-- 33 -->
<g id="node34" class="node"><title>33</title>
<ellipse fill="lightblue" stroke="lightblue" cx="99.3848" cy="-18.3848" rx="18.2703" ry="18.2703"/>
<text text-anchor="middle" x="99.3848" y="-16.1848" font-family="Times New Roman,serif" font-size="9.00">33</text>
</g>
<!-- 1&#45;&gt;33 -->
<g id="edge10" class="edge"><title>1&#45;&gt;33</title>
<path fill="none" stroke="green" stroke-width="1.43457" d="M221.269,-82.1071C217.798,-78.9378 213.582,-75.4283 209.385,-72.7696 175.76,-51.4716 162.603,-55.3137 127.385,-36.7696 126.056,-36.0698 124.705,-35.3307 123.351,-34.5678"/>
<polygon fill="green" stroke="green" stroke-width="1.43457" points="124.946,-31.4444 114.56,-29.35 121.373,-37.4639 124.946,-31.4444"/>
</g>
<!-- 45 -->
<g id="node46" class="node"><title>45</title>
<ellipse fill="lightblue" stroke="lightblue" cx="483.385" cy="-18.3848" rx="18.2703" ry="18.2703"/>
<text text-anchor="middle" x="483.385" y="-16.1848" font-family="Times New Roman,serif" font-size="9.00">45</text>
</g>
<!-- 1&#45;&gt;45 -->
<g id="edge39" class="edge"><title>1&#45;&gt;45</title>
<path fill="none" stroke="red" stroke-width="1.08012" stroke-dasharray="1,5" d="M236.834,-81.9428C240.323,-78.5886 244.732,-74.9842 249.385,-72.7696 333.305,-32.8215 368.542,-69.8867 455.385,-36.7696 456.822,-36.2216 458.265,-35.5971 459.699,-34.9182"/>
<polygon fill="red" stroke="red" stroke-width="1.08012" points="461.76,-37.7784 468.824,-29.8823 458.378,-31.6497 461.76,-37.7784"/>
</g>
<!-- 2 -->
<g id="node3" class="node"><title>2</title>
<polygon fill="lightgrey" stroke="black" points="67.8848,-100.154 46.8848,-100.154 46.8848,-82.1543 67.8848,-82.1543 67.8848,-100.154"/>
<text text-anchor="middle" x="57.3848" y="-88.9543" font-family="Times New Roman,serif" font-size="9.00">2</text>
</g>
<!-- 2&#45;&gt;33 -->
<g id="edge35" class="edge"><title>2&#45;&gt;33</title>
<path fill="none" stroke="green" stroke-width="1.06353" stroke-dasharray="1,5" d="M62.2027,-82.0362C67.7699,-72.6555 77.187,-56.7877 85.1507,-43.369"/>
<polygon fill="green" stroke="green" stroke-width="1.06353" points="88.2728,-44.9661 90.3667,-34.5802 82.2531,-41.3935 88.2728,-44.9661"/>
</g>
<!-- 3 -->
<g id="node4" class="node"><title>3</title>
<polygon fill="lightgrey" stroke="black" points="535.885,-100.154 514.885,-100.154 514.885,-82.1543 535.885,-82.1543 535.885,-100.154"/>
<text text-anchor="middle" x="525.385" y="-88.9543" font-family="Times New Roman,serif" font-size="9.00">3</text>
</g>
<!-- 30 -->
<g id="node31" class="node"><title>30</title>
<ellipse fill="lightblue" stroke="lightblue" cx="547.385" cy="-18.3848" rx="18.2703" ry="18.2703"/>
<text text-anchor="middle" x="547.385" y="-16.1848" font-family="Times New Roman,serif" font-size="9.00">30</text>
</g>
<!-- 3&#45;&gt;30 -->
<g id="edge24" class="edge"><title>3&#45;&gt;30</title>
<path fill="none" stroke="green" stroke-width="0.825268" stroke-dasharray="1,5" d="M527.908,-82.0362C530.634,-73.2699 535.12,-58.8384 539.1,-46.0345"/>
<polygon fill="green" stroke="green" stroke-width="0.825268" points="542.514,-46.8426 542.141,-36.2544 535.83,-44.7646 542.514,-46.8426"/>
</g>
<!-- 4 -->
<g id="node5" class="node"><title>4</title>
<polygon fill="lightgrey" stroke="black" points="1007.88,-100.154 986.885,-100.154 986.885,-82.1543 1007.88,-82.1543 1007.88,-100.154"/>
<text text-anchor="middle" x="997.385" y="-88.9543" font-family="Times New Roman,serif" font-size="9.00">4</text>
</g>
<!-- 32 -->
<g id="node33" class="node"><title>32</title>
<ellipse fill="lightblue" stroke="lightblue" cx="990.385" cy="-18.3848" rx="18.2703" ry="18.2703"/>
<text text-anchor="middle" x="990.385" y="-16.1848" font-family="Times New Roman,serif" font-size="9.00">32</text>
</g>
<!-- 4&#45;&gt;32 -->
<g id="edge43" class="edge"><title>4&#45;&gt;32</title>
<path fill="none" stroke="red" stroke-width="1.33851" stroke-dasharray="1,5" d="M996.582,-82.0362C995.734,-73.4701 994.352,-59.4947 993.108,-46.9144"/>
<polygon fill="red" stroke="red" stroke-width="1.33851" points="996.577,-46.4314 992.11,-36.8245 989.611,-47.1204 996.577,-46.4314"/>
</g>
<!-- 47 -->
<g id="node48" class="node"><title>47</title>
<ellipse fill="lightblue" stroke="lightblue" cx="1045.38" cy="-18.3848" rx="18.2703" ry="18.2703"/>
<text text-anchor="middle" x="1045.38" y="-16.1848" font-family="Times New Roman,serif" font-size="9.00">47</text>
</g>
<!-- 4&#45;&gt;47 -->
<g id="edge23" class="edge"><title>4&#45;&gt;47</title>
<path fill="none" stroke="green" stroke-width="1.6887" stroke-dasharray="1,5" d="M1002.89,-82.0362C1009.4,-72.4462 1020.5,-56.0763 1029.72,-42.4744"/>
<polygon fill="green" stroke="green" stroke-width="1.6887" points="1032.73,-44.2755 1035.45,-34.0349 1026.94,-40.3462 1032.73,-44.2755"/>
</g>
<!-- 5 -->
<g id="node6" class="node"><title>5</title>
<polygon fill="lightgrey" stroke="black" points="451.885,-100.154 430.885,-100.154 430.885,-82.1543 451.885,-82.1543 451.885,-100.154"/>
<text text-anchor="middle" x="441.385" y="-88.9543" font-family="Times New Roman,serif" font-size="9.00">5</text>
</g>
<!-- 36 -->
<g id="node37" class="node"><title>36</title>
<ellipse fill="lightblue" stroke="lightblue" cx="428.385" cy="-18.3848" rx="18.2703" ry="18.2703"/>
<text text-anchor="middle" x="428.385" y="-16.1848" font-family="Times New Roman,serif" font-size="9.00">36</text>
</g>
<!-- 5&#45;&gt;36 -->
<g id="edge12" class="edge"><title>5&#45;&gt;36</title>
<path fill="none" stroke="red" stroke-width="0.503629" stroke-dasharray="1,5" d="M439.894,-82.0362C438.31,-73.4134 435.719,-59.3094 433.396,-46.6647"/>
<polygon fill="red" stroke="red" stroke-width="0.503629" points="436.785,-45.7417 431.536,-36.5387 429.9,-47.0065 436.785,-45.7417"/>
</g>
<!-- 5&#45;&gt;45 -->
<g id="edge5" class="edge"><title>5&#45;&gt;45</title>
<path fill="none" stroke="green" stroke-width="0.224126" stroke-dasharray="1,5" d="M446.203,-82.0362C451.77,-72.6555 461.187,-56.7877 469.151,-43.369"/>
<polygon fill="green" stroke="green" stroke-width="0.224126" points="472.273,-44.9661 474.367,-34.5802 466.253,-41.3935 472.273,-44.9661"/>
</g>
<!-- 6 -->
<g id="node7" class="node"><title>6</title>
<polygon fill="lightgrey" stroke="black" points="1097.88,-100.154 1076.88,-100.154 1076.88,-82.1543 1097.88,-82.1543 1097.88,-100.154"/>
<text text-anchor="middle" x="1087.38" y="-88.9543" font-family="Times New Roman,serif" font-size="9.00">6</text>
</g>
<!-- 7 -->
<g id="node8" class="node"><title>7</title>
<polygon fill="lightgrey" stroke="black" points="367.885,-100.154 346.885,-100.154 346.885,-82.1543 367.885,-82.1543 367.885,-100.154"/>
<text text-anchor="middle" x="357.385" y="-88.9543" font-family="Times New Roman,serif" font-size="9.00">7</text>
</g>
<!-- 35 -->
<g id="node36" class="node"><title>35</title>
<ellipse fill="lightblue" stroke="lightblue" cx="228.385" cy="-18.3848" rx="18.2703" ry="18.2703"/>
<text text-anchor="middle" x="228.385" y="-16.1848" font-family="Times New Roman,serif" font-size="9.00">35</text>
</g>
<!-- 7&#45;&gt;35 -->
<g id="edge30" class="edge"><title>7&#45;&gt;35</title>
<path fill="none" stroke="green" stroke-width="1.12887" d="M348.823,-81.8423C345.421,-78.7785 341.372,-75.4136 337.385,-72.7696 310.766,-55.1203 277.458,-39.6563 254.713,-29.9769"/>
<polygon fill="green" stroke="green" stroke-width="1.12887" points="255.941,-26.697 245.365,-26.0714 253.243,-33.156 255.941,-26.697"/>
</g>
<!-- 39 -->
<g id="node40" class="node"><title>39</title>
<ellipse fill="lightblue" stroke="lightblue" cx="363.385" cy="-18.3848" rx="18.2703" ry="18.2703"/>
<text text-anchor="middle" x="363.385" y="-16.1848" font-family="Times New Roman,serif" font-size="9.00">39</text>
</g>
<!-- 7&#45;&gt;39 -->
<g id="edge27" class="edge"><title>7&#45;&gt;39</title>
<path fill="none" stroke="green" stroke-width="0.254223" stroke-dasharray="1,5" d="M358.073,-82.0362C358.799,-73.4701 359.984,-59.4947 361.051,-46.9144"/>
<polygon fill="green" stroke="green" stroke-width="0.254223" points="364.549,-47.0844 361.906,-36.8245 357.574,-46.493 364.549,-47.0844"/>
</g>
<!-- 43 -->
<g id="node44" class="node"><title>43</title>
<ellipse fill="lightblue" stroke="lightblue" cx="308.385" cy="-18.3848" rx="18.2703" ry="18.2703"/>
<text text-anchor="middle" x="308.385" y="-16.1848" font-family="Times New Roman,serif" font-size="9.00">43</text>
</g>
<!-- 7&#45;&gt;43 -->
<g id="edge40" class="edge"><title>7&#45;&gt;43</title>
<path fill="none" stroke="green" stroke-width="0.438239" stroke-dasharray="1,5" d="M351.764,-82.0362C345.124,-72.4462 333.79,-56.0763 324.372,-42.4744"/>
<polygon fill="green" stroke="green" stroke-width="0.438239" points="327.098,-40.2641 318.528,-34.0349 321.343,-44.2489 327.098,-40.2641"/>
</g>
<!-- 8 -->
<g id="node9" class="node"><title>8</title>
<polygon fill="lightgrey" stroke="black" points="707.885,-100.154 686.885,-100.154 686.885,-82.1543 707.885,-82.1543 707.885,-100.154"/>
<text text-anchor="middle" x="697.385" y="-88.9543" font-family="Times New Roman,serif" font-size="9.00">8</text>
</g>
<!-- 31 -->
<g id="node32" class="node"><title>31</title>
<ellipse fill="lightblue" stroke="lightblue" cx="678.385" cy="-18.3848" rx="18.2703" ry="18.2703"/>
<text text-anchor="middle" x="678.385" y="-16.1848" font-family="Times New Roman,serif" font-size="9.00">31</text>
</g>
<!-- 8&#45;&gt;31 -->
<g id="edge7" class="edge"><title>8&#45;&gt;31</title>
<path fill="none" stroke="red" stroke-width="0.14386" stroke-dasharray="1,5" d="M695.205,-82.0362C692.852,-73.2699 688.977,-58.8384 685.54,-46.0345"/>
<polygon fill="red" stroke="red" stroke-width="0.14386" points="688.887,-45.0048 682.914,-36.2544 682.127,-46.8199 688.887,-45.0048"/>
</g>
<!-- 9 -->
<g id="node10" class="node"><title>9</title>
<polygon fill="lightgrey" stroke="black" points="923.885,-100.154 902.885,-100.154 902.885,-82.1543 923.885,-82.1543 923.885,-100.154"/>
<text text-anchor="middle" x="913.385" y="-88.9543" font-family="Times New Roman,serif" font-size="9.00">9</text>
</g>
<!-- 38 -->
<g id="node39" class="node"><title>38</title>
<ellipse fill="lightblue" stroke="lightblue" cx="924.385" cy="-18.3848" rx="18.2703" ry="18.2703"/>
<text text-anchor="middle" x="924.385" y="-16.1848" font-family="Times New Roman,serif" font-size="9.00">38</text>
</g>
<!-- 9&#45;&gt;38 -->
<g id="edge33" class="edge"><title>9&#45;&gt;38</title>
<path fill="none" stroke="green" stroke-width="0.19705" d="M914.647,-82.0362C915.978,-73.4701 918.15,-59.4947 920.106,-46.9144"/>
<polygon fill="green" stroke="green" stroke-width="0.19705" points="923.597,-47.2434 921.674,-36.8245 916.68,-46.1682 923.597,-47.2434"/>
</g>
<!-- 42 -->
<g id="node43" class="node"><title>42</title>
<ellipse fill="lightblue" stroke="lightblue" cx="853.385" cy="-18.3848" rx="18.2703" ry="18.2703"/>
<text text-anchor="middle" x="853.385" y="-16.1848" font-family="Times New Roman,serif" font-size="9.00">42</text>
</g>
<!-- 9&#45;&gt;42 -->
<g id="edge11" class="edge"><title>9&#45;&gt;42</title>
<path fill="none" stroke="green" stroke-width="0.10948" stroke-dasharray="1,5" d="M906.502,-82.0362C898.011,-72.0207 883.25,-54.6104 871.44,-40.6812"/>
<polygon fill="green" stroke="green" stroke-width="0.10948" points="874.034,-38.3286 864.898,-32.9644 868.695,-42.8554 874.034,-38.3286"/>
</g>
<!-- 9&#45;&gt;45 -->
<g id="edge1" class="edge"><title>9&#45;&gt;45</title>
<path fill="none" stroke="red" stroke-width="0.523923" d="M906.382,-82.1337C902.854,-78.6437 898.288,-74.8767 893.385,-72.7696 740.368,-7.01069 680.999,-80.8288 520.385,-36.7696 516.417,-35.6812 512.349,-34.1943 508.43,-32.5452"/>
<polygon fill="red" stroke="red" stroke-width="0.523923" points="509.68,-29.2674 499.135,-28.2462 506.742,-35.6208 509.68,-29.2674"/>
</g>
<!-- 10 -->
<g id="node11" class="node"><title>10</title>
<polygon fill="lightgrey" stroke="black" points="1142.38,-100.154 1116.38,-100.154 1116.38,-82.1543 1142.38,-82.1543 1142.38,-100.154"/>
<text text-anchor="middle" x="1129.38" y="-88.9543" font-family="Times New Roman,serif" font-size="9.00">10</text>
</g>
<!-- 11 -->
<g id="node12" class="node"><title>11</title>
<polygon fill="lightgrey" stroke="black" points="1186.38,-100.154 1160.38,-100.154 1160.38,-82.1543 1186.38,-82.1543 1186.38,-100.154"/>
<text text-anchor="middle" x="1173.38" y="-88.9543" font-family="Times New Roman,serif" font-size="9.00">11</text>
</g>
<!-- 12 -->
<g id="node13" class="node"><title>12</title>
<polygon fill="lightgrey" stroke="black" points="112.385,-100.154 86.3848,-100.154 86.3848,-82.1543 112.385,-82.1543 112.385,-100.154"/>
<text text-anchor="middle" x="99.3848" y="-88.9543" font-family="Times New Roman,serif" font-size="9.00">12</text>
</g>
<!-- 12&#45;&gt;33 -->
<g id="edge14" class="edge"><title>12&#45;&gt;33</title>
<path fill="none" stroke="red" stroke-width="0.208416" stroke-dasharray="1,5" d="M99.3848,-82.0362C99.3848,-73.4701 99.3848,-59.4947 99.3848,-46.9144"/>
<polygon fill="red" stroke="red" stroke-width="0.208416" points="102.885,-46.8244 99.3848,-36.8245 95.8849,-46.8245 102.885,-46.8244"/>
</g>
<!-- 13 -->
<g id="node14" class="node"><title>13</title>
<polygon fill="lightgrey" stroke="black" points="840.385,-100.154 814.385,-100.154 814.385,-82.1543 840.385,-82.1543 840.385,-100.154"/>
<text text-anchor="middle" x="827.385" y="-88.9543" font-family="Times New Roman,serif" font-size="9.00">13</text>
</g>
<!-- 13&#45;&gt;42 -->
<g id="edge42" class="edge"><title>13&#45;&gt;42</title>
<path fill="none" stroke="green" stroke-width="1.20656" d="M830.367,-82.0362C833.641,-73.1252 839.065,-58.3605 843.826,-45.402"/>
<polygon fill="green" stroke="green" stroke-width="1.20656" points="847.128,-46.5651 847.291,-35.9715 840.557,-44.1511 847.128,-46.5651"/>
</g>
<!-- 14 -->
<g id="node15" class="node"><title>14</title>
<polygon fill="lightgrey" stroke="black" points="624.385,-100.154 598.385,-100.154 598.385,-82.1543 624.385,-82.1543 624.385,-100.154"/>
<text text-anchor="middle" x="611.385" y="-88.9543" font-family="Times New Roman,serif" font-size="9.00">14</text>
</g>
<!-- 14&#45;&gt;30 -->
<g id="edge3" class="edge"><title>14&#45;&gt;30</title>
<path fill="none" stroke="red" stroke-width="0.517297" d="M604.043,-82.0362C594.931,-71.96 579.05,-54.3991 566.415,-40.4284"/>
<polygon fill="red" stroke="red" stroke-width="0.517297" points="568.731,-37.7705 559.427,-32.7012 563.539,-42.4657 568.731,-37.7705"/>
</g>
<!-- 34 -->
<g id="node35" class="node"><title>34</title>
<ellipse fill="lightblue" stroke="lightblue" cx="611.385" cy="-18.3848" rx="18.2703" ry="18.2703"/>
<text text-anchor="middle" x="611.385" y="-16.1848" font-family="Times New Roman,serif" font-size="9.00">34</text>
</g>
<!-- 14&#45;&gt;34 -->
<g id="edge20" class="edge"><title>14&#45;&gt;34</title>
<path fill="none" stroke="red" stroke-width="0.727309" d="M611.385,-82.0362C611.385,-73.4701 611.385,-59.4947 611.385,-46.9144"/>
<polygon fill="red" stroke="red" stroke-width="0.727309" points="614.885,-46.8244 611.385,-36.8245 607.885,-46.8245 614.885,-46.8244"/>
</g>
<!-- 14&#45;&gt;42 -->
<g id="edge13" class="edge"><title>14&#45;&gt;42</title>
<path fill="none" stroke="red" stroke-width="1.7552" d="M619.737,-82.0075C623.604,-78.6653 628.434,-75.0524 633.385,-72.7696 708.265,-38.2451 736.914,-62.0942 815.385,-36.7696 819.579,-35.4159 823.923,-33.7258 828.108,-31.935"/>
<polygon fill="red" stroke="red" stroke-width="1.7552" points="829.793,-35.0137 837.444,-27.685 826.893,-28.6427 829.793,-35.0137"/>
</g>
<!-- 15 -->
<g id="node16" class="node"><title>15</title>
<polygon fill="lightgrey" stroke="black" points="156.385,-100.154 130.385,-100.154 130.385,-82.1543 156.385,-82.1543 156.385,-100.154"/>
<text text-anchor="middle" x="143.385" y="-88.9543" font-family="Times New Roman,serif" font-size="9.00">15</text>
</g>
<!-- 15&#45;&gt;33 -->
<g id="edge36" class="edge"><title>15&#45;&gt;33</title>
<path fill="none" stroke="red" stroke-width="0.803459" stroke-dasharray="1,5" d="M138.337,-82.0362C132.468,-72.5965 122.515,-56.5879 114.139,-43.1161"/>
<polygon fill="red" stroke="red" stroke-width="0.803459" points="116.915,-40.9511 108.662,-34.3067 110.97,-44.6472 116.915,-40.9511"/>
</g>
<!-- 15&#45;&gt;35 -->
<g id="edge16" class="edge"><title>15&#45;&gt;35</title>
<path fill="none" stroke="green" stroke-width="0.335715" stroke-dasharray="1,5" d="M153.135,-82.0362C166.102,-71.2407 189.387,-51.8537 206.633,-37.4952"/>
<polygon fill="green" stroke="green" stroke-width="0.335715" points="209.096,-39.9984 214.542,-30.9102 204.617,-34.6189 209.096,-39.9984"/>
</g>
<!-- 48 -->
<g id="node49" class="node"><title>48</title>
<ellipse fill="lightblue" stroke="lightblue" cx="154.385" cy="-18.3848" rx="18.2703" ry="18.2703"/>
<text text-anchor="middle" x="154.385" y="-16.1848" font-family="Times New Roman,serif" font-size="9.00">48</text>
</g>
<!-- 15&#45;&gt;48 -->
<g id="edge28" class="edge"><title>15&#45;&gt;48</title>
<path fill="none" stroke="red" stroke-width="0.849009" d="M144.647,-82.0362C145.978,-73.4701 148.15,-59.4947 150.106,-46.9144"/>
<polygon fill="red" stroke="red" stroke-width="0.849009" points="153.597,-47.2434 151.674,-36.8245 146.68,-46.1682 153.597,-47.2434"/>
</g>
<!-- 16 -->
<g id="node17" class="node"><title>16</title>
<polygon fill="lightgrey" stroke="black" points="1058.38,-100.154 1032.38,-100.154 1032.38,-82.1543 1058.38,-82.1543 1058.38,-100.154"/>
<text text-anchor="middle" x="1045.38" y="-88.9543" font-family="Times New Roman,serif" font-size="9.00">16</text>
</g>
<!-- 16&#45;&gt;47 -->
<g id="edge8" class="edge"><title>16&#45;&gt;47</title>
<path fill="none" stroke="red" stroke-width="0.5389" d="M1045.38,-82.0362C1045.38,-73.4701 1045.38,-59.4947 1045.38,-46.9144"/>
<polygon fill="red" stroke="red" stroke-width="0.5389" points="1048.88,-46.8244 1045.38,-36.8245 1041.88,-46.8245 1048.88,-46.8244"/>
</g>
<!-- 17 -->
<g id="node18" class="node"><title>17</title>
<polygon fill="lightgrey" stroke="black" points="1230.38,-100.154 1204.38,-100.154 1204.38,-82.1543 1230.38,-82.1543 1230.38,-100.154"/>
<text text-anchor="middle" x="1217.38" y="-88.9543" font-family="Times New Roman,serif" font-size="9.00">17</text>
</g>
<!-- 18 -->
<g id="node19" class="node"><title>18</title>
<polygon fill="lightgrey" stroke="black" points="412.385,-100.154 386.385,-100.154 386.385,-82.1543 412.385,-82.1543 412.385,-100.154"/>
<text text-anchor="middle" x="399.385" y="-88.9543" font-family="Times New Roman,serif" font-size="9.00">18</text>
</g>
<!-- 18&#45;&gt;36 -->
<g id="edge34" class="edge"><title>18&#45;&gt;36</title>
<path fill="none" stroke="green" stroke-width="1.58496" d="M402.711,-82.0362C406.387,-73.0673 412.492,-58.1685 417.827,-45.1498"/>
<polygon fill="green" stroke="green" stroke-width="1.58496" points="421.15,-46.2705 421.703,-35.6901 414.673,-43.6162 421.15,-46.2705"/>
</g>
<!-- 19 -->
<g id="node20" class="node"><title>19</title>
<polygon fill="lightgrey" stroke="black" points="796.385,-100.154 770.385,-100.154 770.385,-82.1543 796.385,-82.1543 796.385,-100.154"/>
<text text-anchor="middle" x="783.385" y="-88.9543" font-family="Times New Roman,serif" font-size="9.00">19</text>
</g>
<!-- 41 -->
<g id="node42" class="node"><title>41</title>
<ellipse fill="lightblue" stroke="lightblue" cx="788.385" cy="-18.3848" rx="18.2703" ry="18.2703"/>
<text text-anchor="middle" x="788.385" y="-16.1848" font-family="Times New Roman,serif" font-size="9.00">41</text>
</g>
<!-- 19&#45;&gt;41 -->
<g id="edge2" class="edge"><title>19&#45;&gt;41</title>
<path fill="none" stroke="green" stroke-width="0.878082" d="M783.958,-82.0362C784.564,-73.4701 785.551,-59.4947 786.44,-46.9144"/>
<polygon fill="green" stroke="green" stroke-width="0.878082" points="789.939,-47.0463 787.153,-36.8245 782.956,-46.5529 789.939,-47.0463"/>
</g>
<!-- 20 -->
<g id="node21" class="node"><title>20</title>
<polygon fill="lightgrey" stroke="black" points="284.385,-100.154 258.385,-100.154 258.385,-82.1543 284.385,-82.1543 284.385,-100.154"/>
<text text-anchor="middle" x="271.385" y="-88.9543" font-family="Times New Roman,serif" font-size="9.00">20</text>
</g>
<!-- 20&#45;&gt;35 -->
<g id="edge31" class="edge"><title>20&#45;&gt;35</title>
<path fill="none" stroke="green" stroke-width="0.338423" stroke-dasharray="1,5" d="M266.452,-82.0362C260.752,-72.6555 251.111,-56.7877 242.958,-43.369"/>
<polygon fill="green" stroke="green" stroke-width="0.338423" points="245.801,-41.3089 237.618,-34.5802 239.819,-44.9438 245.801,-41.3089"/>
</g>
<!-- 20&#45;&gt;43 -->
<g id="edge4" class="edge"><title>20&#45;&gt;43</title>
<path fill="none" stroke="red" stroke-width="0.320465" d="M275.629,-82.0362C280.425,-72.8626 288.465,-57.4851 295.379,-44.2611"/>
<polygon fill="red" stroke="red" stroke-width="0.320465" points="298.62,-45.6156 300.152,-35.132 292.417,-42.3723 298.62,-45.6156"/>
</g>
<!-- 21 -->
<g id="node22" class="node"><title>21</title>
<polygon fill="lightgrey" stroke="black" points="1274.38,-100.154 1248.38,-100.154 1248.38,-82.1543 1274.38,-82.1543 1274.38,-100.154"/>
<text text-anchor="middle" x="1261.38" y="-88.9543" font-family="Times New Roman,serif" font-size="9.00">21</text>
</g>
<!-- 22 -->
<g id="node23" class="node"><title>22</title>
<polygon fill="lightgrey" stroke="black" points="496.385,-100.154 470.385,-100.154 470.385,-82.1543 496.385,-82.1543 496.385,-100.154"/>
<text text-anchor="middle" x="483.385" y="-88.9543" font-family="Times New Roman,serif" font-size="9.00">22</text>
</g>
<!-- 22&#45;&gt;30 -->
<g id="edge41" class="edge"><title>22&#45;&gt;30</title>
<path fill="none" stroke="green" stroke-width="0.384254" d="M490.726,-82.0362C499.839,-71.96 515.72,-54.3991 528.354,-40.4284"/>
<polygon fill="green" stroke="green" stroke-width="0.384254" points="531.231,-42.4657 535.342,-32.7012 526.039,-37.7705 531.231,-42.4657"/>
</g>
<!-- 22&#45;&gt;36 -->
<g id="edge38" class="edge"><title>22&#45;&gt;36</title>
<path fill="none" stroke="red" stroke-width="0.551513" stroke-dasharray="1,5" d="M477.076,-82.0362C469.458,-72.2346 456.336,-55.3506 445.633,-41.5782"/>
<polygon fill="red" stroke="red" stroke-width="0.551513" points="448.252,-39.2443 439.352,-33.4962 442.725,-43.5398 448.252,-39.2443"/>
</g>
<!-- 22&#45;&gt;45 -->
<g id="edge15" class="edge"><title>22&#45;&gt;45</title>
<path fill="none" stroke="green" stroke-width="0.928012" d="M483.385,-82.0362C483.385,-73.4701 483.385,-59.4947 483.385,-46.9144"/>
<polygon fill="green" stroke="green" stroke-width="0.928012" points="486.885,-46.8244 483.385,-36.8245 479.885,-46.8245 486.885,-46.8244"/>
</g>
<!-- 23 -->
<g id="node24" class="node"><title>23</title>
<polygon fill="lightgrey" stroke="black" points="968.385,-100.154 942.385,-100.154 942.385,-82.1543 968.385,-82.1543 968.385,-100.154"/>
<text text-anchor="middle" x="955.385" y="-88.9543" font-family="Times New Roman,serif" font-size="9.00">23</text>
</g>
<!-- 23&#45;&gt;38 -->
<g id="edge26" class="edge"><title>23&#45;&gt;38</title>
<path fill="none" stroke="green" stroke-width="2.188" d="M951.829,-82.0362C947.875,-73.0095 941.289,-57.976 935.561,-44.8981"/>
<polygon fill="green" stroke="green" stroke-width="2.188" points="938.623,-43.1657 931.405,-35.4103 932.211,-45.9744 938.623,-43.1657"/>
</g>
<!-- 24 -->
<g id="node25" class="node"><title>24</title>
<polygon fill="lightgrey" stroke="black" points="580.385,-100.154 554.385,-100.154 554.385,-82.1543 580.385,-82.1543 580.385,-100.154"/>
<text text-anchor="middle" x="567.385" y="-88.9543" font-family="Times New Roman,serif" font-size="9.00">24</text>
</g>
<!-- 24&#45;&gt;34 -->
<g id="edge19" class="edge"><title>24&#45;&gt;34</title>
<path fill="none" stroke="red" stroke-width="0.320554" stroke-dasharray="1,5" d="M572.432,-82.0362C578.301,-72.5965 588.254,-56.5879 596.63,-43.1161"/>
<polygon fill="red" stroke="red" stroke-width="0.320554" points="599.8,-44.6472 602.107,-34.3067 593.855,-40.9511 599.8,-44.6472"/>
</g>
<!-- 25 -->
<g id="node26" class="node"><title>25</title>
<polygon fill="lightgrey" stroke="black" points="884.385,-100.154 858.385,-100.154 858.385,-82.1543 884.385,-82.1543 884.385,-100.154"/>
<text text-anchor="middle" x="871.385" y="-88.9543" font-family="Times New Roman,serif" font-size="9.00">25</text>
</g>
<!-- 25&#45;&gt;42 -->
<g id="edge21" class="edge"><title>25&#45;&gt;42</title>
<path fill="none" stroke="red" stroke-width="0.944069" stroke-dasharray="1,5" d="M869.32,-82.0362C867.105,-73.3272 863.468,-59.0268 860.227,-46.2858"/>
<polygon fill="red" stroke="red" stroke-width="0.944069" points="863.605,-45.3673 857.748,-36.5387 856.821,-47.0929 863.605,-45.3673"/>
</g>
<!-- 26 -->
<g id="node27" class="node"><title>26</title>
<polygon fill="lightgrey" stroke="black" points="752.385,-100.154 726.385,-100.154 726.385,-82.1543 752.385,-82.1543 752.385,-100.154"/>
<text text-anchor="middle" x="739.385" y="-88.9543" font-family="Times New Roman,serif" font-size="9.00">26</text>
</g>
<!-- 26&#45;&gt;30 -->
<g id="edge25" class="edge"><title>26&#45;&gt;30</title>
<path fill="none" stroke="green" stroke-width="1.01754" d="M730.076,-81.8318C726.088,-78.6203 721.236,-75.1537 716.385,-72.7696 661.809,-45.9508 641.45,-57.7779 584.385,-36.7696 580.524,-35.3482 576.514,-33.6791 572.621,-31.9474"/>
<polygon fill="green" stroke="green" stroke-width="1.01754" points="573.878,-28.6717 563.336,-27.6191 570.921,-35.0163 573.878,-28.6717"/>
</g>
<!-- 26&#45;&gt;31 -->
<g id="edge37" class="edge"><title>26&#45;&gt;31</title>
<path fill="none" stroke="green" stroke-width="0.203064" d="M732.387,-82.0362C723.754,-72.0207 708.748,-54.6104 696.741,-40.6812"/>
<polygon fill="green" stroke="green" stroke-width="0.203064" points="699.27,-38.2539 690.09,-32.9644 693.968,-42.8241 699.27,-38.2539"/>
</g>
<!-- 40 -->
<g id="node41" class="node"><title>40</title>
<ellipse fill="lightblue" stroke="lightblue" cx="733.385" cy="-18.3848" rx="18.2703" ry="18.2703"/>
<text text-anchor="middle" x="733.385" y="-16.1848" font-family="Times New Roman,serif" font-size="9.00">40</text>
</g>
<!-- 26&#45;&gt;40 -->
<g id="edge6" class="edge"><title>26&#45;&gt;40</title>
<path fill="none" stroke="green" stroke-width="0.55627" stroke-dasharray="1,5" d="M738.697,-82.0362C737.97,-73.4701 736.785,-59.4947 735.719,-46.9144"/>
<polygon fill="green" stroke="green" stroke-width="0.55627" points="739.196,-46.493 734.863,-36.8245 732.221,-47.0844 739.196,-46.493"/>
</g>
<!-- 26&#45;&gt;41 -->
<g id="edge17" class="edge"><title>26&#45;&gt;41</title>
<path fill="none" stroke="green" stroke-width="2.0611" d="M745.006,-82.0362C751.646,-72.4462 762.98,-56.0763 772.398,-42.4744"/>
<polygon fill="green" stroke="green" stroke-width="2.0611" points="775.426,-44.2489 778.241,-34.0349 769.671,-40.2641 775.426,-44.2489"/>
</g>
<!-- 27 -->
<g id="node28" class="node"><title>27</title>
<polygon fill="lightgrey" stroke="black" points="200.385,-100.154 174.385,-100.154 174.385,-82.1543 200.385,-82.1543 200.385,-100.154"/>
<text text-anchor="middle" x="187.385" y="-88.9543" font-family="Times New Roman,serif" font-size="9.00">27</text>
</g>
<!-- 27&#45;&gt;35 -->
<g id="edge29" class="edge"><title>27&#45;&gt;35</title>
<path fill="none" stroke="red" stroke-width="0.963822" d="M192.088,-82.0362C197.523,-72.6555 206.716,-56.7877 214.49,-43.369"/>
<polygon fill="red" stroke="red" stroke-width="0.963822" points="217.597,-44.9875 219.581,-34.5802 211.54,-41.4784 217.597,-44.9875"/>
</g>
<!-- 28 -->
<g id="node29" class="node"><title>28</title>
<polygon fill="lightgrey" stroke="black" points="668.385,-100.154 642.385,-100.154 642.385,-82.1543 668.385,-82.1543 668.385,-100.154"/>
<text text-anchor="middle" x="655.385" y="-88.9543" font-family="Times New Roman,serif" font-size="9.00">28</text>
</g>
<!-- 28&#45;&gt;31 -->
<g id="edge22" class="edge"><title>28&#45;&gt;31</title>
<path fill="none" stroke="green" stroke-width="0.19158" d="M658.023,-82.0362C660.891,-73.2126 665.624,-58.6495 669.805,-45.7837"/>
<polygon fill="green" stroke="green" stroke-width="0.19158" points="673.232,-46.5637 672.994,-35.9715 666.575,-44.4 673.232,-46.5637"/>
</g>
<!-- 28&#45;&gt;34 -->
<g id="edge32" class="edge"><title>28&#45;&gt;34</title>
<path fill="none" stroke="green" stroke-width="0.669538" stroke-dasharray="1,5" d="M650.337,-82.0362C644.468,-72.5965 634.515,-56.5879 626.139,-43.1161"/>
<polygon fill="green" stroke="green" stroke-width="0.669538" points="628.915,-40.9511 620.662,-34.3067 622.97,-44.6472 628.915,-40.9511"/>
</g>
<!-- 29 -->
<g id="node30" class="node"><title>29</title>
<polygon fill="lightgrey" stroke="black" points="328.385,-100.154 302.385,-100.154 302.385,-82.1543 328.385,-82.1543 328.385,-100.154"/>
<text text-anchor="middle" x="315.385" y="-88.9543" font-family="Times New Roman,serif" font-size="9.00">29</text>
</g>
<!-- 29&#45;&gt;43 -->
<g id="edge9" class="edge"><title>29&#45;&gt;43</title>
<path fill="none" stroke="green" stroke-width="1.08759" d="M314.582,-82.0362C313.734,-73.4701 312.352,-59.4947 311.108,-46.9144"/>
<polygon fill="green" stroke="green" stroke-width="1.08759" points="314.577,-46.4314 310.11,-36.8245 307.611,-47.1204 314.577,-46.4314"/>
</g>
<!-- 37 -->
<g id="node38" class="node"><title>37</title>
<ellipse fill="lightblue" stroke="lightblue" cx="1310.38" cy="-91.1543" rx="18.2703" ry="18.2703"/>
<text text-anchor="middle" x="1310.38" y="-88.9543" font-family="Times New Roman,serif" font-size="9.00">37</text>
</g>
<!-- 46 -->
<g id="node47" class="node"><title>46</title>
<ellipse fill="lightblue" stroke="lightblue" cx="1365.38" cy="-91.1543" rx="18.2703" ry="18.2703"/>
<text text-anchor="middle" x="1365.38" y="-88.9543" font-family="Times New Roman,serif" font-size="9.00">46</text>
</g>
</g>
</svg>
