<?xml version="1.0" encoding="UTF-8" standalone="no"?>
<!DOCTYPE svg PUBLIC "-//W3C//DTD SVG 1.1//EN"
 "http://www.w3.org/Graphics/SVG/1.1/DTD/svg11.dtd">
<!-- Generated by graphviz version 2.38.0 (20140413.2041)
 -->
<!-- Title: %3 Pages: 1 -->
<svg width="1417pt" height="263pt"
 viewBox="0.00 0.00 1417.38 263.08" xmlns="http://www.w3.org/2000/svg" xmlns:xlink="http://www.w3.org/1999/xlink">
<g id="graph0" class="graph" transform="scale(1 1) rotate(0) translate(4 259.078)">
<title>%3</title>
<polygon fill="white" stroke="none" points="-4,4 -4,-259.078 1413.38,-259.078 1413.38,4 -4,4"/>
<!-- 0 -->
<g id="node1" class="node"><title>0</title>
<polygon fill="lightgrey" stroke="black" points="119.5,-172.924 98.5,-172.924 98.5,-154.924 119.5,-154.924 119.5,-172.924"/>
<text text-anchor="middle" x="109" y="-161.724" font-family="Times New Roman,serif" font-size="9.00">0</text>
</g>
<!-- 48 -->
<g id="node49" class="node"><title>48</title>
<ellipse fill="lightblue" stroke="lightblue" cx="68" cy="-91.1543" rx="18.2703" ry="18.2703"/>
<text text-anchor="middle" x="68" y="-88.9543" font-family="Times New Roman,serif" font-size="9.00">48</text>
</g>
<!-- 0&#45;&gt;48 -->
<g id="edge42" class="edge"><title>0&#45;&gt;48</title>
<path fill="none" stroke="green" stroke-width="0.13541" d="M104.297,-154.806C98.8621,-145.425 89.6692,-129.557 81.8951,-116.139"/>
<polygon fill="green" stroke="green" stroke-width="0.13541" points="84.8449,-114.248 76.8034,-107.35 78.7879,-117.757 84.8449,-114.248"/>
</g>
<!-- 1 -->
<g id="node2" class="node"><title>1</title>
<polygon fill="lightgrey" stroke="black" points="457.5,-172.924 436.5,-172.924 436.5,-154.924 457.5,-154.924 457.5,-172.924"/>
<text text-anchor="middle" x="447" y="-161.724" font-family="Times New Roman,serif" font-size="9.00">1</text>
</g>
<!-- 31 -->
<g id="node32" class="node"><title>31</title>
<ellipse fill="lightblue" stroke="lightblue" cx="427" cy="-91.1543" rx="18.2703" ry="18.2703"/>
<text text-anchor="middle" x="427" y="-88.9543" font-family="Times New Roman,serif" font-size="9.00">31</text>
</g>
<!-- 1&#45;&gt;31 -->
<g id="edge37" class="edge"><title>1&#45;&gt;31</title>
<path fill="none" stroke="green" stroke-width="0.103594" d="M444.706,-154.806C442.228,-146.039 438.15,-131.608 434.531,-118.804"/>
<polygon fill="green" stroke="green" stroke-width="0.103594" points="437.855,-117.695 431.767,-109.024 431.119,-119.599 437.855,-117.695"/>
</g>
<!-- 44 -->
<g id="node45" class="node"><title>44</title>
<ellipse fill="lightblue" stroke="lightblue" cx="343" cy="-91.1543" rx="18.2703" ry="18.2703"/>
<text text-anchor="middle" x="343" y="-88.9543" font-family="Times New Roman,serif" font-size="9.00">44</text>
</g>
<!-- 1&#45;&gt;44 -->
<g id="edge30" class="edge"><title>1&#45;&gt;44</title>
<path fill="none" stroke="green" stroke-width="0.26764" d="M438.277,-154.841C434.855,-151.805 430.835,-148.4 427,-145.539 407.717,-131.157 384.565,-116.629 367.454,-106.368"/>
<polygon fill="green" stroke="green" stroke-width="0.26764" points="369.019,-103.226 358.633,-101.134 365.447,-109.247 369.019,-103.226"/>
</g>
<!-- 45 -->
<g id="node46" class="node"><title>45</title>
<ellipse fill="lightblue" stroke="lightblue" cx="669" cy="-91.1543" rx="18.2703" ry="18.2703"/>
<text text-anchor="middle" x="669" y="-88.9543" font-family="Times New Roman,serif" font-size="9.00">45</text>
</g>
<!-- 1&#45;&gt;45 -->
<g id="edge16" class="edge"><title>1&#45;&gt;45</title>
<path fill="none" stroke="red" stroke-width="0.112111" d="M454.482,-154.781C457.977,-151.439 462.382,-147.826 467,-145.539 537.77,-110.495 567.657,-138.818 641,-109.539 642.428,-108.969 643.865,-108.327 645.293,-107.634"/>
<polygon fill="red" stroke="red" stroke-width="0.112111" points="647.371,-110.483 654.403,-102.558 643.964,-104.369 647.371,-110.483"/>
</g>
<!-- 2 -->
<g id="node3" class="node"><title>2</title>
<polygon fill="lightgrey" stroke="black" points="704.5,-245.693 683.5,-245.693 683.5,-227.693 704.5,-227.693 704.5,-245.693"/>
<text text-anchor="middle" x="694" y="-234.493" font-family="Times New Roman,serif" font-size="9.00">2</text>
</g>
<!-- 40 -->
<g id="node41" class="node"><title>40</title>
<ellipse fill="lightblue" stroke="lightblue" cx="856" cy="-163.924" rx="18.2703" ry="18.2703"/>
<text text-anchor="middle" x="856" y="-161.724" font-family="Times New Roman,serif" font-size="9.00">40</text>
</g>
<!-- 2&#45;&gt;40 -->
<g id="edge39" class="edge"><title>2&#45;&gt;40</title>
<path fill="none" stroke="green" stroke-width="0.17225" d="M704.813,-232.224C728.126,-224.571 784.606,-205.101 829,-182.309 830.144,-181.721 831.301,-181.099 832.459,-180.452"/>
<polygon fill="green" stroke="green" stroke-width="0.17225" points="834.41,-183.363 841.172,-175.206 830.8,-177.366 834.41,-183.363"/>
</g>
<!-- 52 -->
<g id="node52" class="node"><title>52</title>
<ellipse fill="none" stroke="black" cx="62" cy="-163.924" rx="18.2703" ry="18.2703"/>
<text text-anchor="middle" x="62" y="-161.724" font-family="Times New Roman,serif" font-size="9.00">52</text>
</g>
<!-- 2&#45;&gt;52 -->
<g id="edge19" class="edge"><title>2&#45;&gt;52</title>
<path fill="none" stroke="green" stroke-width="0.3" d="M683.395,-234.634C655.501,-231.855 577.766,-224.168 513,-218.309 324.647,-201.268 268.017,-243.303 89,-182.309 87.7533,-181.884 86.5067,-181.389 85.2708,-180.842"/>
<polygon fill="green" stroke="green" stroke-width="0.3" points="86.6372,-177.6 76.1836,-175.876 83.2807,-183.743 86.6372,-177.6"/>
</g>
<!-- 3 -->
<g id="node4" class="node"><title>3</title>
<polygon fill="lightgrey" stroke="black" points="1011.5,-245.693 990.5,-245.693 990.5,-227.693 1011.5,-227.693 1011.5,-245.693"/>
<text text-anchor="middle" x="1001" y="-234.493" font-family="Times New Roman,serif" font-size="9.00">3</text>
</g>
<!-- 42 -->
<g id="node43" class="node"><title>42</title>
<ellipse fill="lightblue" stroke="lightblue" cx="1040" cy="-163.924" rx="18.2703" ry="18.2703"/>
<text text-anchor="middle" x="1040" y="-161.724" font-family="Times New Roman,serif" font-size="9.00">42</text>
</g>
<!-- 3&#45;&gt;42 -->
<g id="edge4" class="edge"><title>3&#45;&gt;42</title>
<path fill="none" stroke="red" stroke-width="0.137928" d="M1005.47,-227.575C1010.61,-218.254 1019.28,-202.526 1026.64,-189.162"/>
<polygon fill="red" stroke="red" stroke-width="0.137928" points="1029.71,-190.842 1031.47,-180.394 1023.58,-187.463 1029.71,-190.842"/>
</g>
<!-- 4 -->
<g id="node5" class="node"><title>4</title>
<polygon fill="lightgrey" stroke="black" points="418.5,-172.924 397.5,-172.924 397.5,-154.924 418.5,-154.924 418.5,-172.924"/>
<text text-anchor="middle" x="408" y="-161.724" font-family="Times New Roman,serif" font-size="9.00">4</text>
</g>
<!-- 4&#45;&gt;31 -->
<g id="edge10" class="edge"><title>4&#45;&gt;31</title>
<path fill="none" stroke="green" stroke-width="0.262738" d="M410.18,-154.806C412.533,-146.039 416.408,-131.608 419.845,-118.804"/>
<polygon fill="green" stroke="green" stroke-width="0.262738" points="423.258,-119.589 422.471,-109.024 416.498,-117.774 423.258,-119.589"/>
</g>
<!-- 5 -->
<g id="node6" class="node"><title>5</title>
<polygon fill="lightgrey" stroke="black" points="1050.5,-245.693 1029.5,-245.693 1029.5,-227.693 1050.5,-227.693 1050.5,-245.693"/>
<text text-anchor="middle" x="1040" y="-234.493" font-family="Times New Roman,serif" font-size="9.00">5</text>
</g>
<!-- 5&#45;&gt;42 -->
<g id="edge28" class="edge"><title>5&#45;&gt;42</title>
<path fill="none" stroke="green" stroke-width="0.259263" d="M1040,-227.575C1040,-219.009 1040,-205.034 1040,-192.454"/>
<polygon fill="green" stroke="green" stroke-width="0.259263" points="1043.5,-192.364 1040,-182.364 1036.5,-192.364 1043.5,-192.364"/>
</g>
<!-- 6 -->
<g id="node7" class="node"><title>6</title>
<polygon fill="lightgrey" stroke="black" points="1134.5,-245.693 1113.5,-245.693 1113.5,-227.693 1134.5,-227.693 1134.5,-245.693"/>
<text text-anchor="middle" x="1124" y="-234.493" font-family="Times New Roman,serif" font-size="9.00">6</text>
</g>
<!-- 7 -->
<g id="node8" class="node"><title>7</title>
<polygon fill="lightgrey" stroke="black" points="379.5,-172.924 358.5,-172.924 358.5,-154.924 379.5,-154.924 379.5,-172.924"/>
<text text-anchor="middle" x="369" y="-161.724" font-family="Times New Roman,serif" font-size="9.00">7</text>
</g>
<!-- 7&#45;&gt;31 -->
<g id="edge35" class="edge"><title>7&#45;&gt;31</title>
<path fill="none" stroke="green" stroke-width="0.307327" d="M375.653,-154.806C383.736,-144.944 397.694,-127.913 409.019,-114.095"/>
<polygon fill="green" stroke="green" stroke-width="0.307327" points="412.022,-115.952 415.653,-105.999 406.608,-111.515 412.022,-115.952"/>
</g>
<!-- 8 -->
<g id="node9" class="node"><title>8</title>
<polygon fill="lightgrey" stroke="black" points="504.5,-245.693 483.5,-245.693 483.5,-227.693 504.5,-227.693 504.5,-245.693"/>
<text text-anchor="middle" x="494" y="-234.493" font-family="Times New Roman,serif" font-size="9.00">8</text>
</g>
<!-- 49 -->
<g id="node51" class="node"><title>49</title>
<ellipse fill="none" stroke="black" cx="494" cy="-163.924" rx="18.2703" ry="18.2703"/>
<text text-anchor="middle" x="494" y="-161.724" font-family="Times New Roman,serif" font-size="9.00">49</text>
</g>
<!-- 8&#45;&gt;49 -->
<g id="edge44" class="edge"><title>8&#45;&gt;49</title>
<path fill="none" stroke="green" stroke-width="0.517198" d="M494,-227.575C494,-219.009 494,-205.034 494,-192.454"/>
<polygon fill="green" stroke="green" stroke-width="0.517198" points="497.5,-192.364 494,-182.364 490.5,-192.364 497.5,-192.364"/>
</g>
<!-- 9 -->
<g id="node10" class="node"><title>9</title>
<polygon fill="lightgrey" stroke="black" points="921.5,-245.693 900.5,-245.693 900.5,-227.693 921.5,-227.693 921.5,-245.693"/>
<text text-anchor="middle" x="911" y="-234.493" font-family="Times New Roman,serif" font-size="9.00">9</text>
</g>
<!-- 30 -->
<g id="node31" class="node"><title>30</title>
<ellipse fill="lightblue" stroke="lightblue" cx="911" cy="-163.924" rx="18.2703" ry="18.2703"/>
<text text-anchor="middle" x="911" y="-161.724" font-family="Times New Roman,serif" font-size="9.00">30</text>
</g>
<!-- 9&#45;&gt;30 -->
<g id="edge23" class="edge"><title>9&#45;&gt;30</title>
<path fill="none" stroke="green" stroke-width="0.638118" d="M911,-227.575C911,-219.009 911,-205.034 911,-192.454"/>
<polygon fill="green" stroke="green" stroke-width="0.638118" points="914.5,-192.364 911,-182.364 907.5,-192.364 914.5,-192.364"/>
</g>
<!-- 36 -->
<g id="node37" class="node"><title>36</title>
<ellipse fill="lightblue" stroke="lightblue" cx="966" cy="-163.924" rx="18.2703" ry="18.2703"/>
<text text-anchor="middle" x="966" y="-161.724" font-family="Times New Roman,serif" font-size="9.00">36</text>
</g>
<!-- 9&#45;&gt;36 -->
<g id="edge22" class="edge"><title>9&#45;&gt;36</title>
<path fill="none" stroke="red" stroke-width="0.112572" d="M917.309,-227.575C924.927,-217.774 938.048,-200.89 948.752,-187.117"/>
<polygon fill="red" stroke="red" stroke-width="0.112572" points="951.66,-189.079 955.033,-179.035 946.133,-184.783 951.66,-189.079"/>
</g>
<!-- 9&#45;&gt;40 -->
<g id="edge17" class="edge"><title>9&#45;&gt;40</title>
<path fill="none" stroke="green" stroke-width="0.675358" d="M904.691,-227.575C897.073,-217.774 883.952,-200.89 873.248,-187.117"/>
<polygon fill="green" stroke="green" stroke-width="0.675358" points="875.867,-184.783 866.967,-179.035 870.34,-189.079 875.867,-184.783"/>
</g>
<!-- 10 -->
<g id="node11" class="node"><title>10</title>
<polygon fill="lightgrey" stroke="black" points="972,-245.693 946,-245.693 946,-227.693 972,-227.693 972,-245.693"/>
<text text-anchor="middle" x="959" y="-234.493" font-family="Times New Roman,serif" font-size="9.00">10</text>
</g>
<!-- 10&#45;&gt;30 -->
<g id="edge14" class="edge"><title>10&#45;&gt;30</title>
<path fill="none" stroke="green" stroke-width="0.122624" d="M953.494,-227.575C946.989,-217.985 935.886,-201.615 926.661,-188.014"/>
<polygon fill="green" stroke="green" stroke-width="0.122624" points="929.446,-185.885 920.937,-179.574 923.653,-189.815 929.446,-185.885"/>
</g>
<!-- 10&#45;&gt;36 -->
<g id="edge38" class="edge"><title>10&#45;&gt;36</title>
<path fill="none" stroke="green" stroke-width="0.189534" d="M959.803,-227.575C960.65,-219.009 962.033,-205.034 963.277,-192.454"/>
<polygon fill="green" stroke="green" stroke-width="0.189534" points="966.774,-192.66 964.275,-182.364 959.808,-191.97 966.774,-192.66"/>
</g>
<!-- 11 -->
<g id="node12" class="node"><title>11</title>
<polygon fill="lightgrey" stroke="black" points="340,-172.924 314,-172.924 314,-154.924 340,-154.924 340,-172.924"/>
<text text-anchor="middle" x="327" y="-161.724" font-family="Times New Roman,serif" font-size="9.00">11</text>
</g>
<!-- 11&#45;&gt;44 -->
<g id="edge46" class="edge"><title>11&#45;&gt;44</title>
<path fill="none" stroke="green" stroke-width="0.123845" d="M328.835,-154.806C330.785,-146.183 333.974,-132.079 336.832,-119.434"/>
<polygon fill="green" stroke="green" stroke-width="0.123845" points="340.33,-119.834 339.122,-109.308 333.503,-118.29 340.33,-119.834"/>
</g>
<!-- 12 -->
<g id="node13" class="node"><title>12</title>
<polygon fill="lightgrey" stroke="black" points="688,-172.924 662,-172.924 662,-154.924 688,-154.924 688,-172.924"/>
<text text-anchor="middle" x="675" y="-161.724" font-family="Times New Roman,serif" font-size="9.00">12</text>
</g>
<!-- 12&#45;&gt;45 -->
<g id="edge31" class="edge"><title>12&#45;&gt;45</title>
<path fill="none" stroke="green" stroke-width="0.501338" d="M674.312,-154.806C673.585,-146.24 672.401,-132.264 671.334,-119.684"/>
<polygon fill="green" stroke="green" stroke-width="0.501338" points="674.811,-119.263 670.479,-109.594 667.836,-119.854 674.811,-119.263"/>
</g>
<!-- 13 -->
<g id="node14" class="node"><title>13</title>
<polygon fill="lightgrey" stroke="black" points="252,-172.924 226,-172.924 226,-154.924 252,-154.924 252,-172.924"/>
<text text-anchor="middle" x="239" y="-161.724" font-family="Times New Roman,serif" font-size="9.00">13</text>
</g>
<!-- 38 -->
<g id="node39" class="node"><title>38</title>
<ellipse fill="lightblue" stroke="lightblue" cx="233" cy="-91.1543" rx="18.2703" ry="18.2703"/>
<text text-anchor="middle" x="233" y="-88.9543" font-family="Times New Roman,serif" font-size="9.00">38</text>
</g>
<!-- 13&#45;&gt;38 -->
<g id="edge40" class="edge"><title>13&#45;&gt;38</title>
<path fill="none" stroke="green" stroke-width="0.150691" d="M238.312,-154.806C237.585,-146.24 236.401,-132.264 235.334,-119.684"/>
<polygon fill="green" stroke="green" stroke-width="0.150691" points="238.811,-119.263 234.479,-109.594 231.836,-119.854 238.811,-119.263"/>
</g>
<!-- 14 -->
<g id="node15" class="node"><title>14</title>
<polygon fill="lightgrey" stroke="black" points="164,-172.924 138,-172.924 138,-154.924 164,-154.924 164,-172.924"/>
<text text-anchor="middle" x="151" y="-161.724" font-family="Times New Roman,serif" font-size="9.00">14</text>
</g>
<!-- 37 -->
<g id="node38" class="node"><title>37</title>
<ellipse fill="lightblue" stroke="lightblue" cx="123" cy="-91.1543" rx="18.2703" ry="18.2703"/>
<text text-anchor="middle" x="123" y="-88.9543" font-family="Times New Roman,serif" font-size="9.00">37</text>
</g>
<!-- 14&#45;&gt;37 -->
<g id="edge2" class="edge"><title>14&#45;&gt;37</title>
<path fill="none" stroke="red" stroke-width="0.245579" d="M147.788,-154.806C144.24,-145.837 138.345,-130.938 133.194,-117.919"/>
<polygon fill="red" stroke="red" stroke-width="0.245579" points="136.385,-116.471 129.451,-108.46 129.876,-119.046 136.385,-116.471"/>
</g>
<!-- 43 -->
<g id="node44" class="node"><title>43</title>
<ellipse fill="lightblue" stroke="lightblue" cx="178" cy="-91.1543" rx="18.2703" ry="18.2703"/>
<text text-anchor="middle" x="178" y="-88.9543" font-family="Times New Roman,serif" font-size="9.00">43</text>
</g>
<!-- 14&#45;&gt;43 -->
<g id="edge26" class="edge"><title>14&#45;&gt;43</title>
<path fill="none" stroke="red" stroke-width="0.482029" d="M154.097,-154.806C157.519,-145.837 163.203,-130.938 168.17,-117.919"/>
<polygon fill="red" stroke="red" stroke-width="0.482029" points="171.485,-119.05 171.779,-108.46 164.944,-116.555 171.485,-119.05"/>
</g>
<!-- 14&#45;&gt;48 -->
<g id="edge29" class="edge"><title>14&#45;&gt;48</title>
<path fill="none" stroke="red" stroke-width="0.676098" d="M141.479,-154.806C128.818,-144.01 106.08,-124.623 89.2403,-110.265"/>
<polygon fill="red" stroke="red" stroke-width="0.676098" points="91.3976,-107.505 81.5172,-103.68 86.8558,-112.831 91.3976,-107.505"/>
</g>
<!-- 15 -->
<g id="node16" class="node"><title>15</title>
<polygon fill="lightgrey" stroke="black" points="208,-172.924 182,-172.924 182,-154.924 208,-154.924 208,-172.924"/>
<text text-anchor="middle" x="195" y="-161.724" font-family="Times New Roman,serif" font-size="9.00">15</text>
</g>
<!-- 35 -->
<g id="node36" class="node"><title>35</title>
<ellipse fill="lightblue" stroke="lightblue" cx="288" cy="-91.1543" rx="18.2703" ry="18.2703"/>
<text text-anchor="middle" x="288" y="-88.9543" font-family="Times New Roman,serif" font-size="9.00">35</text>
</g>
<!-- 15&#45;&gt;35 -->
<g id="edge21" class="edge"><title>15&#45;&gt;35</title>
<path fill="none" stroke="red" stroke-width="0.612055" d="M205.257,-154.736C208.944,-151.814 213.145,-148.511 217,-145.539 233.083,-133.141 251.404,-119.374 265.407,-108.926"/>
<polygon fill="red" stroke="red" stroke-width="0.612055" points="267.58,-111.672 273.509,-102.891 263.398,-106.058 267.58,-111.672"/>
</g>
<!-- 15&#45;&gt;38 -->
<g id="edge32" class="edge"><title>15&#45;&gt;38</title>
<path fill="none" stroke="red" stroke-width="0.443816" d="M199.359,-154.806C204.316,-145.574 212.647,-130.058 219.778,-116.778"/>
<polygon fill="red" stroke="red" stroke-width="0.443816" points="223.046,-118.091 224.693,-107.625 216.879,-114.779 223.046,-118.091"/>
</g>
<!-- 15&#45;&gt;43 -->
<g id="edge6" class="edge"><title>15&#45;&gt;43</title>
<path fill="none" stroke="red" stroke-width="0.254092" d="M193.05,-154.806C190.958,-146.097 187.523,-131.796 184.462,-119.055"/>
<polygon fill="red" stroke="red" stroke-width="0.254092" points="187.86,-118.214 182.121,-109.308 181.053,-119.849 187.86,-118.214"/>
</g>
<!-- 16 -->
<g id="node17" class="node"><title>16</title>
<polygon fill="lightgrey" stroke="black" points="776,-172.924 750,-172.924 750,-154.924 776,-154.924 776,-172.924"/>
<text text-anchor="middle" x="763" y="-161.724" font-family="Times New Roman,serif" font-size="9.00">16</text>
</g>
<!-- 39 -->
<g id="node40" class="node"><title>39</title>
<ellipse fill="lightblue" stroke="lightblue" cx="795" cy="-91.1543" rx="18.2703" ry="18.2703"/>
<text text-anchor="middle" x="795" y="-88.9543" font-family="Times New Roman,serif" font-size="9.00">39</text>
</g>
<!-- 16&#45;&gt;39 -->
<g id="edge41" class="edge"><title>16&#45;&gt;39</title>
<path fill="none" stroke="red" stroke-width="0.504836" d="M766.671,-154.806C770.752,-145.779 777.55,-130.746 783.464,-117.668"/>
<polygon fill="red" stroke="red" stroke-width="0.504836" points="786.823,-118.734 787.754,-108.18 780.444,-115.85 786.823,-118.734"/>
</g>
<!-- 50 -->
<g id="node50" class="node"><title>50</title>
<ellipse fill="none" stroke="black" cx="724" cy="-91.1543" rx="18.2703" ry="18.2703"/>
<text text-anchor="middle" x="724" y="-88.9543" font-family="Times New Roman,serif" font-size="9.00">50</text>
</g>
<!-- 16&#45;&gt;50 -->
<g id="edge11" class="edge"><title>16&#45;&gt;50</title>
<path fill="none" stroke="red" stroke-width="0.463002" d="M758.526,-154.806C753.389,-145.484 744.722,-129.757 737.357,-116.392"/>
<polygon fill="red" stroke="red" stroke-width="0.463002" points="740.417,-114.694 732.526,-107.625 734.287,-118.072 740.417,-114.694"/>
</g>
<!-- 17 -->
<g id="node18" class="node"><title>17</title>
<polygon fill="lightgrey" stroke="black" points="26,-172.924 0,-172.924 0,-154.924 26,-154.924 26,-172.924"/>
<text text-anchor="middle" x="13" y="-161.724" font-family="Times New Roman,serif" font-size="9.00">17</text>
</g>
<!-- 17&#45;&gt;48 -->
<g id="edge45" class="edge"><title>17&#45;&gt;48</title>
<path fill="none" stroke="green" stroke-width="0.260348" d="M19.3092,-154.806C26.9267,-145.004 40.0484,-128.12 50.7519,-114.348"/>
<polygon fill="green" stroke="green" stroke-width="0.260348" points="53.6601,-116.309 57.033,-106.266 48.133,-112.014 53.6601,-116.309"/>
</g>
<!-- 18 -->
<g id="node19" class="node"><title>18</title>
<polygon fill="lightgrey" stroke="black" points="732,-172.924 706,-172.924 706,-154.924 732,-154.924 732,-172.924"/>
<text text-anchor="middle" x="719" y="-161.724" font-family="Times New Roman,serif" font-size="9.00">18</text>
</g>
<!-- 18&#45;&gt;45 -->
<g id="edge13" class="edge"><title>18&#45;&gt;45</title>
<path fill="none" stroke="green" stroke-width="0.503984" d="M713.264,-154.806C706.447,-145.156 694.779,-128.642 685.134,-114.991"/>
<polygon fill="green" stroke="green" stroke-width="0.503984" points="687.789,-112.682 679.16,-106.534 682.071,-116.721 687.789,-112.682"/>
</g>
<!-- 18&#45;&gt;50 -->
<g id="edge27" class="edge"><title>18&#45;&gt;50</title>
<path fill="none" stroke="green" stroke-width="0.472809" d="M719.574,-154.806C720.179,-146.24 721.166,-132.264 722.055,-119.684"/>
<polygon fill="green" stroke="green" stroke-width="0.472809" points="725.554,-119.816 722.768,-109.594 718.572,-119.322 725.554,-119.816"/>
</g>
<!-- 19 -->
<g id="node20" class="node"><title>19</title>
<polygon fill="lightgrey" stroke="black" points="1179,-245.693 1153,-245.693 1153,-227.693 1179,-227.693 1179,-245.693"/>
<text text-anchor="middle" x="1166" y="-234.493" font-family="Times New Roman,serif" font-size="9.00">19</text>
</g>
<!-- 20 -->
<g id="node21" class="node"><title>20</title>
<polygon fill="lightgrey" stroke="black" points="1223,-245.693 1197,-245.693 1197,-227.693 1223,-227.693 1223,-245.693"/>
<text text-anchor="middle" x="1210" y="-234.493" font-family="Times New Roman,serif" font-size="9.00">20</text>
</g>
<!-- 21 -->
<g id="node22" class="node"><title>21</title>
<polygon fill="lightgrey" stroke="black" points="1267,-245.693 1241,-245.693 1241,-227.693 1267,-227.693 1267,-245.693"/>
<text text-anchor="middle" x="1254" y="-234.493" font-family="Times New Roman,serif" font-size="9.00">21</text>
</g>
<!-- 22 -->
<g id="node23" class="node"><title>22</title>
<polygon fill="lightgrey" stroke="black" points="820,-172.924 794,-172.924 794,-154.924 820,-154.924 820,-172.924"/>
<text text-anchor="middle" x="807" y="-161.724" font-family="Times New Roman,serif" font-size="9.00">22</text>
</g>
<!-- 22&#45;&gt;39 -->
<g id="edge34" class="edge"><title>22&#45;&gt;39</title>
<path fill="none" stroke="red" stroke-width="0.231165" d="M805.623,-154.806C804.161,-146.183 801.77,-132.079 799.626,-119.434"/>
<polygon fill="red" stroke="red" stroke-width="0.231165" points="803.031,-118.582 797.909,-109.308 796.13,-119.753 803.031,-118.582"/>
</g>
<!-- 23 -->
<g id="node24" class="node"><title>23</title>
<polygon fill="lightgrey" stroke="black" points="1311,-245.693 1285,-245.693 1285,-227.693 1311,-227.693 1311,-245.693"/>
<text text-anchor="middle" x="1298" y="-234.493" font-family="Times New Roman,serif" font-size="9.00">23</text>
</g>
<!-- 24 -->
<g id="node25" class="node"><title>24</title>
<polygon fill="lightgrey" stroke="black" points="556,-172.924 530,-172.924 530,-154.924 556,-154.924 556,-172.924"/>
<text text-anchor="middle" x="543" y="-161.724" font-family="Times New Roman,serif" font-size="9.00">24</text>
</g>
<!-- 33 -->
<g id="node34" class="node"><title>33</title>
<ellipse fill="lightblue" stroke="lightblue" cx="504" cy="-91.1543" rx="18.2703" ry="18.2703"/>
<text text-anchor="middle" x="504" y="-88.9543" font-family="Times New Roman,serif" font-size="9.00">33</text>
</g>
<!-- 24&#45;&gt;33 -->
<g id="edge9" class="edge"><title>24&#45;&gt;33</title>
<path fill="none" stroke="green" stroke-width="0.155363" d="M538.526,-154.806C533.389,-145.484 524.722,-129.757 517.357,-116.392"/>
<polygon fill="green" stroke="green" stroke-width="0.155363" points="520.417,-114.694 512.526,-107.625 514.287,-118.072 520.417,-114.694"/>
</g>
<!-- 25 -->
<g id="node26" class="node"><title>25</title>
<polygon fill="lightgrey" stroke="black" points="600,-172.924 574,-172.924 574,-154.924 600,-154.924 600,-172.924"/>
<text text-anchor="middle" x="587" y="-161.724" font-family="Times New Roman,serif" font-size="9.00">25</text>
</g>
<!-- 25&#45;&gt;31 -->
<g id="edge3" class="edge"><title>25&#45;&gt;31</title>
<path fill="none" stroke="red" stroke-width="0.139897" d="M578.02,-154.825C574.194,-151.648 569.565,-148.147 565,-145.539 545.51,-134.407 488.325,-113.597 453.989,-101.509"/>
<polygon fill="red" stroke="red" stroke-width="0.139897" points="455.142,-98.2049 444.547,-98.2024 452.828,-104.811 455.142,-98.2049"/>
</g>
<!-- 25&#45;&gt;33 -->
<g id="edge43" class="edge"><title>25&#45;&gt;33</title>
<path fill="none" stroke="red" stroke-width="0.170562" d="M577.479,-154.806C564.818,-144.01 542.08,-124.623 525.24,-110.265"/>
<polygon fill="red" stroke="red" stroke-width="0.170562" points="527.398,-107.505 517.517,-103.68 522.856,-112.831 527.398,-107.505"/>
</g>
<!-- 34 -->
<g id="node35" class="node"><title>34</title>
<ellipse fill="lightblue" stroke="lightblue" cx="614" cy="-91.1543" rx="18.2703" ry="18.2703"/>
<text text-anchor="middle" x="614" y="-88.9543" font-family="Times New Roman,serif" font-size="9.00">34</text>
</g>
<!-- 25&#45;&gt;34 -->
<g id="edge36" class="edge"><title>25&#45;&gt;34</title>
<path fill="none" stroke="green" stroke-width="0.378339" d="M590.097,-154.806C593.519,-145.837 599.203,-130.938 604.17,-117.919"/>
<polygon fill="green" stroke="green" stroke-width="0.378339" points="607.485,-119.05 607.779,-108.46 600.944,-116.555 607.485,-119.05"/>
</g>
<!-- 47 -->
<g id="node48" class="node"><title>47</title>
<ellipse fill="lightblue" stroke="lightblue" cx="559" cy="-91.1543" rx="18.2703" ry="18.2703"/>
<text text-anchor="middle" x="559" y="-88.9543" font-family="Times New Roman,serif" font-size="9.00">47</text>
</g>
<!-- 25&#45;&gt;47 -->
<g id="edge8" class="edge"><title>25&#45;&gt;47</title>
<path fill="none" stroke="red" stroke-width="0.214534" d="M583.788,-154.806C580.24,-145.837 574.345,-130.938 569.194,-117.919"/>
<polygon fill="red" stroke="red" stroke-width="0.214534" points="572.385,-116.471 565.451,-108.46 565.876,-119.046 572.385,-116.471"/>
</g>
<!-- 26 -->
<g id="node27" class="node"><title>26</title>
<polygon fill="lightgrey" stroke="black" points="296,-172.924 270,-172.924 270,-154.924 296,-154.924 296,-172.924"/>
<text text-anchor="middle" x="283" y="-161.724" font-family="Times New Roman,serif" font-size="9.00">26</text>
</g>
<!-- 26&#45;&gt;35 -->
<g id="edge5" class="edge"><title>26&#45;&gt;35</title>
<path fill="none" stroke="red" stroke-width="0.188682" d="M283.574,-154.806C284.179,-146.24 285.166,-132.264 286.055,-119.684"/>
<polygon fill="red" stroke="red" stroke-width="0.188682" points="289.554,-119.816 286.768,-109.594 282.572,-119.322 289.554,-119.816"/>
</g>
<!-- 26&#45;&gt;44 -->
<g id="edge20" class="edge"><title>26&#45;&gt;44</title>
<path fill="none" stroke="red" stroke-width="0.121358" d="M289.883,-154.806C298.374,-144.79 313.135,-127.38 324.944,-113.451"/>
<polygon fill="red" stroke="red" stroke-width="0.121358" points="327.69,-115.625 331.487,-105.734 322.35,-111.098 327.69,-115.625"/>
</g>
<!-- 27 -->
<g id="node28" class="node"><title>27</title>
<polygon fill="lightgrey" stroke="black" points="1095,-245.693 1069,-245.693 1069,-227.693 1095,-227.693 1095,-245.693"/>
<text text-anchor="middle" x="1082" y="-234.493" font-family="Times New Roman,serif" font-size="9.00">27</text>
</g>
<!-- 27&#45;&gt;42 -->
<g id="edge7" class="edge"><title>27&#45;&gt;42</title>
<path fill="none" stroke="red" stroke-width="0.441298" d="M1077.18,-227.575C1071.61,-218.195 1062.2,-202.327 1054.23,-188.908"/>
<polygon fill="red" stroke="red" stroke-width="0.441298" points="1057.13,-186.933 1049.02,-180.119 1051.11,-190.505 1057.13,-186.933"/>
</g>
<!-- 28 -->
<g id="node29" class="node"><title>28</title>
<polygon fill="lightgrey" stroke="black" points="1355,-245.693 1329,-245.693 1329,-227.693 1355,-227.693 1355,-245.693"/>
<text text-anchor="middle" x="1342" y="-234.493" font-family="Times New Roman,serif" font-size="9.00">28</text>
</g>
<!-- 32 -->
<g id="node33" class="node"><title>32</title>
<ellipse fill="lightblue" stroke="lightblue" cx="1342" cy="-163.924" rx="18.2703" ry="18.2703"/>
<text text-anchor="middle" x="1342" y="-161.724" font-family="Times New Roman,serif" font-size="9.00">32</text>
</g>
<!-- 28&#45;&gt;32 -->
<g id="edge15" class="edge"><title>28&#45;&gt;32</title>
<path fill="none" stroke="red" stroke-width="0.25352" d="M1342,-227.575C1342,-219.009 1342,-205.034 1342,-192.454"/>
<polygon fill="red" stroke="red" stroke-width="0.25352" points="1345.5,-192.364 1342,-182.364 1338.5,-192.364 1345.5,-192.364"/>
</g>
<!-- 29 -->
<g id="node30" class="node"><title>29</title>
<polygon fill="lightgrey" stroke="black" points="644,-172.924 618,-172.924 618,-154.924 644,-154.924 644,-172.924"/>
<text text-anchor="middle" x="631" y="-161.724" font-family="Times New Roman,serif" font-size="9.00">29</text>
</g>
<!-- 29&#45;&gt;45 -->
<g id="edge25" class="edge"><title>29&#45;&gt;45</title>
<path fill="none" stroke="green" stroke-width="0.150121" d="M635.359,-154.806C640.316,-145.574 648.647,-130.058 655.778,-116.778"/>
<polygon fill="green" stroke="green" stroke-width="0.150121" points="659.046,-118.091 660.693,-107.625 652.879,-114.779 659.046,-118.091"/>
</g>
<!-- 29&#45;&gt;48 -->
<g id="edge24" class="edge"><title>29&#45;&gt;48</title>
<path fill="none" stroke="green" stroke-width="0.505271" d="M623.182,-154.842C619.277,-151.339 614.266,-147.578 609,-145.539 395.857,-63.0151 313.467,-179.883 96,-109.539 94.5369,-109.066 93.0724,-108.5 91.6229,-107.867"/>
<polygon fill="green" stroke="green" stroke-width="0.505271" points="92.9191,-104.592 82.4494,-102.968 89.6214,-110.766 92.9191,-104.592"/>
</g>
<!-- 29&#45;&gt;50 -->
<g id="edge1" class="edge"><title>29&#45;&gt;50</title>
<path fill="none" stroke="green" stroke-width="0.420846" d="M641.257,-154.736C644.944,-151.814 649.145,-148.511 653,-145.539 669.083,-133.141 687.404,-119.374 701.407,-108.926"/>
<polygon fill="green" stroke="green" stroke-width="0.420846" points="703.58,-111.672 709.509,-102.891 699.398,-106.058 703.58,-111.672"/>
</g>
<!-- 41 -->
<g id="node42" class="node"><title>41</title>
<ellipse fill="lightblue" stroke="lightblue" cx="1391" cy="-236.693" rx="18.2703" ry="18.2703"/>
<text text-anchor="middle" x="1391" y="-234.493" font-family="Times New Roman,serif" font-size="9.00">41</text>
</g>
<!-- 46 -->
<g id="node47" class="node"><title>46</title>
<ellipse fill="lightblue" stroke="lightblue" cx="724" cy="-18.3848" rx="18.2703" ry="18.2703"/>
<text text-anchor="middle" x="724" y="-16.1848" font-family="Times New Roman,serif" font-size="9.00">46</text>
</g>
<!-- 50&#45;&gt;46 -->
<g id="edge18" class="edge"><title>50&#45;&gt;46</title>
<path fill="none" stroke="green" stroke-width="0.667363" d="M724,-72.6607C724,-64.9784 724,-55.7693 724,-47.185"/>
<polygon fill="green" stroke="green" stroke-width="0.667363" points="727.5,-47.1687 724,-37.1687 720.5,-47.1687 727.5,-47.1687"/>
</g>
<!-- 49&#45;&gt;35 -->
<g id="edge33" class="edge"><title>49&#45;&gt;35</title>
<path fill="none" stroke="green" stroke-width="0.348188" d="M479.364,-152.615C475.191,-150.02 470.541,-147.435 466,-145.539 402.735,-119.119 379.265,-135.959 316,-109.539 314.581,-108.947 313.151,-108.287 311.729,-107.58"/>
<polygon fill="green" stroke="green" stroke-width="0.348188" points="313.067,-104.318 302.636,-102.463 309.634,-110.418 313.067,-104.318"/>
</g>
<!-- 49&#45;&gt;50 -->
<g id="edge12" class="edge"><title>49&#45;&gt;50</title>
<path fill="none" stroke="green" stroke-width="0.101888" d="M508.315,-152.322C512.267,-149.789 516.664,-147.309 521,-145.539 594.52,-115.535 622.236,-138.938 696,-109.539 697.428,-108.97 698.866,-108.328 700.294,-107.636"/>
<polygon fill="green" stroke="green" stroke-width="0.101888" points="702.371,-110.486 709.404,-102.561 698.965,-104.37 702.371,-110.486"/>
</g>
<!-- 52&#45;&gt;48 -->
<g id="edge47" class="edge"><title>52&#45;&gt;48</title>
<path fill="none" stroke="green" stroke-width="0.168805" d="M63.4831,-145.43C64.1345,-137.748 64.9152,-128.539 65.643,-119.955"/>
<polygon fill="green" stroke="green" stroke-width="0.168805" points="69.1348,-120.198 66.4922,-109.938 62.1599,-119.607 69.1348,-120.198"/>
</g>
</g>
</svg>
