<?xml version="1.0" encoding="UTF-8" standalone="no"?>
<!DOCTYPE svg PUBLIC "-//W3C//DTD SVG 1.1//EN"
 "http://www.w3.org/Graphics/SVG/1.1/DTD/svg11.dtd">
<!-- Generated by graphviz version 2.38.0 (20140413.2041)
 -->
<!-- Title: %3 Pages: 1 -->
<svg width="1539pt" height="244pt"
 viewBox="0.00 0.00 1538.80 244.31" xmlns="http://www.w3.org/2000/svg" xmlns:xlink="http://www.w3.org/1999/xlink">
<g id="graph0" class="graph" transform="scale(1 1) rotate(0) translate(4 240.309)">
<title>%3</title>
<polygon fill="white" stroke="none" points="-4,4 -4,-240.309 1534.8,-240.309 1534.8,4 -4,4"/>
<!-- 0 -->
<g id="node1" class="node"><title>0</title>
<polygon fill="lightgrey" stroke="black" points="281,-172.924 260,-172.924 260,-154.924 281,-154.924 281,-172.924"/>
<text text-anchor="middle" x="270.5" y="-161.724" font-family="Times New Roman,serif" font-size="9.00">0</text>
</g>
<!-- 48 -->
<g id="node49" class="node"><title>48</title>
<ellipse fill="lightblue" stroke="lightblue" cx="250.5" cy="-91.1543" rx="18.2703" ry="18.2703"/>
<text text-anchor="middle" x="250.5" y="-88.9543" font-family="Times New Roman,serif" font-size="9.00">48</text>
</g>
<!-- 0&#45;&gt;48 -->
<g id="edge67" class="edge"><title>0&#45;&gt;48</title>
<path fill="none" stroke="green" stroke-width="0.13541" d="M268.206,-154.806C265.728,-146.039 261.65,-131.608 258.031,-118.804"/>
<polygon fill="green" stroke="green" stroke-width="0.13541" points="261.355,-117.695 255.267,-109.024 254.619,-119.599 261.355,-117.695"/>
</g>
<!-- 1 -->
<g id="node2" class="node"><title>1</title>
<polygon fill="lightgrey" stroke="black" points="953,-172.924 932,-172.924 932,-154.924 953,-154.924 953,-172.924"/>
<text text-anchor="middle" x="942.5" y="-161.724" font-family="Times New Roman,serif" font-size="9.00">1</text>
</g>
<!-- 31 -->
<g id="node32" class="node"><title>31</title>
<ellipse fill="lightblue" stroke="lightblue" cx="669.5" cy="-91.1543" rx="18.2703" ry="18.2703"/>
<text text-anchor="middle" x="669.5" y="-88.9543" font-family="Times New Roman,serif" font-size="9.00">31</text>
</g>
<!-- 1&#45;&gt;31 -->
<g id="edge56" class="edge"><title>1&#45;&gt;31</title>
<path fill="none" stroke="green" stroke-width="0.103594" d="M935.066,-154.681C931.58,-151.321 927.168,-147.72 922.5,-145.539 830.75,-102.669 792.382,-144.944 697.5,-109.539 696.059,-109.002 694.612,-108.385 693.177,-107.713"/>
<polygon fill="green" stroke="green" stroke-width="0.103594" points="694.494,-104.443 684.044,-102.696 691.124,-110.578 694.494,-104.443"/>
</g>
<!-- 44 -->
<g id="node45" class="node"><title>44</title>
<ellipse fill="lightblue" stroke="lightblue" cx="1021.5" cy="-91.1543" rx="18.2703" ry="18.2703"/>
<text text-anchor="middle" x="1021.5" y="-88.9543" font-family="Times New Roman,serif" font-size="9.00">44</text>
</g>
<!-- 1&#45;&gt;44 -->
<g id="edge42" class="edge"><title>1&#45;&gt;44</title>
<path fill="none" stroke="green" stroke-width="0.26764" d="M951.562,-154.806C963.366,-144.232 984.37,-125.416 1000.29,-111.156"/>
<polygon fill="green" stroke="green" stroke-width="0.26764" points="1002.96,-113.461 1008.07,-104.182 998.29,-108.247 1002.96,-113.461"/>
</g>
<!-- 45 -->
<g id="node46" class="node"><title>45</title>
<ellipse fill="lightblue" stroke="lightblue" cx="848.5" cy="-91.1543" rx="18.2703" ry="18.2703"/>
<text text-anchor="middle" x="848.5" y="-88.9543" font-family="Times New Roman,serif" font-size="9.00">45</text>
</g>
<!-- 1&#45;&gt;45 -->
<g id="edge24" class="edge"><title>1&#45;&gt;45</title>
<path fill="none" stroke="red" stroke-width="0.112111" d="M933.287,-154.608C929.946,-151.675 926.105,-148.397 922.5,-145.539 905.948,-132.419 886.565,-118.485 871.789,-108.143"/>
<polygon fill="red" stroke="red" stroke-width="0.112111" points="873.46,-105.042 863.251,-102.208 869.464,-110.79 873.46,-105.042"/>
</g>
<!-- 2 -->
<g id="node3" class="node"><title>2</title>
<polygon fill="lightgrey" stroke="black" points="242,-236.309 221,-236.309 221,-218.309 242,-218.309 242,-236.309"/>
<text text-anchor="middle" x="231.5" y="-225.109" font-family="Times New Roman,serif" font-size="9.00">2</text>
</g>
<!-- 40 -->
<g id="node41" class="node"><title>40</title>
<ellipse fill="lightblue" stroke="lightblue" cx="395.5" cy="-91.1543" rx="18.2703" ry="18.2703"/>
<text text-anchor="middle" x="395.5" y="-88.9543" font-family="Times New Roman,serif" font-size="9.00">40</text>
</g>
<!-- 2&#45;&gt;40 -->
<g id="edge60" class="edge"><title>2&#45;&gt;40</title>
<path fill="none" stroke="green" stroke-width="0.17225" d="M242.328,-218.376C254.083,-209.698 273.342,-195.292 289.5,-182.309 319.426,-158.262 353.042,-129.332 374.237,-110.846"/>
<polygon fill="green" stroke="green" stroke-width="0.17225" points="376.759,-113.289 381.983,-104.072 372.151,-108.02 376.759,-113.289"/>
</g>
<!-- 2&#45;&gt;48 -->
<g id="edge19" class="edge"><title>2&#45;&gt;48</title>
<path fill="none" stroke="green" stroke-width="0.168805" stroke-dasharray="1,5" d="M232.689,-217.917C235.421,-198.623 242.25,-150.406 246.614,-119.592"/>
<polygon fill="green" stroke="green" stroke-width="0.168805" points="250.107,-119.887 248.044,-109.495 243.176,-118.905 250.107,-119.887"/>
</g>
<!-- 52 -->
<g id="node53" class="node"><title>52</title>
<ellipse fill="none" stroke="black" cx="185.5" cy="-163.924" rx="18.2703" ry="18.2703"/>
<text text-anchor="middle" x="185.5" y="-161.724" font-family="Times New Roman,serif" font-size="9.00">52</text>
</g>
<!-- 2&#45;&gt;52 -->
<g id="edge28" class="edge"><title>2&#45;&gt;52</title>
<path fill="none" stroke="green" stroke-width="0.3" d="M225.486,-218.284C219.645,-210.488 210.5,-198.285 202.429,-187.515"/>
<polygon fill="green" stroke="green" stroke-width="0.3" points="205.068,-185.2 196.27,-179.297 199.466,-189.398 205.068,-185.2"/>
</g>
<!-- 3 -->
<g id="node4" class="node"><title>3</title>
<polygon fill="lightgrey" stroke="black" points="1475,-172.924 1454,-172.924 1454,-154.924 1475,-154.924 1475,-172.924"/>
<text text-anchor="middle" x="1464.5" y="-161.724" font-family="Times New Roman,serif" font-size="9.00">3</text>
</g>
<!-- 33 -->
<g id="node34" class="node"><title>33</title>
<ellipse fill="lightblue" stroke="lightblue" cx="1195.5" cy="-91.1543" rx="18.2703" ry="18.2703"/>
<text text-anchor="middle" x="1195.5" y="-88.9543" font-family="Times New Roman,serif" font-size="9.00">33</text>
</g>
<!-- 3&#45;&gt;33 -->
<g id="edge44" class="edge"><title>3&#45;&gt;33</title>
<path fill="none" stroke="green" stroke-width="0.31014" stroke-dasharray="1,5" d="M1457.06,-154.697C1453.57,-151.34 1449.16,-147.737 1444.5,-145.539 1356.87,-104.208 1321.49,-139.95 1229.5,-109.539 1226.35,-108.499 1223.14,-107.201 1220,-105.787"/>
<polygon fill="green" stroke="green" stroke-width="0.31014" points="1221.49,-102.621 1210.98,-101.335 1218.4,-108.898 1221.49,-102.621"/>
</g>
<!-- 34 -->
<g id="node35" class="node"><title>34</title>
<ellipse fill="lightblue" stroke="lightblue" cx="1477.5" cy="-91.1543" rx="18.2703" ry="18.2703"/>
<text text-anchor="middle" x="1477.5" y="-88.9543" font-family="Times New Roman,serif" font-size="9.00">34</text>
</g>
<!-- 3&#45;&gt;34 -->
<g id="edge45" class="edge"><title>3&#45;&gt;34</title>
<path fill="none" stroke="red" stroke-width="0.248467" stroke-dasharray="1,5" d="M1465.99,-154.806C1467.58,-146.183 1470.17,-132.079 1472.49,-119.434"/>
<polygon fill="red" stroke="red" stroke-width="0.248467" points="1475.98,-119.776 1474.35,-109.308 1469.1,-118.511 1475.98,-119.776"/>
</g>
<!-- 42 -->
<g id="node43" class="node"><title>42</title>
<ellipse fill="lightblue" stroke="lightblue" cx="1422.5" cy="-91.1543" rx="18.2703" ry="18.2703"/>
<text text-anchor="middle" x="1422.5" y="-88.9543" font-family="Times New Roman,serif" font-size="9.00">42</text>
</g>
<!-- 3&#45;&gt;42 -->
<g id="edge7" class="edge"><title>3&#45;&gt;42</title>
<path fill="none" stroke="red" stroke-width="0.137928" d="M1459.68,-154.806C1454.11,-145.425 1444.7,-129.557 1436.73,-116.139"/>
<polygon fill="red" stroke="red" stroke-width="0.137928" points="1439.63,-114.163 1431.52,-107.35 1433.61,-117.736 1439.63,-114.163"/>
</g>
<!-- 4 -->
<g id="node5" class="node"><title>4</title>
<polygon fill="lightgrey" stroke="black" points="693,-172.924 672,-172.924 672,-154.924 693,-154.924 693,-172.924"/>
<text text-anchor="middle" x="682.5" y="-161.724" font-family="Times New Roman,serif" font-size="9.00">4</text>
</g>
<!-- 4&#45;&gt;31 -->
<g id="edge15" class="edge"><title>4&#45;&gt;31</title>
<path fill="none" stroke="green" stroke-width="0.262738" d="M681.009,-154.806C679.425,-146.183 676.834,-132.079 674.511,-119.434"/>
<polygon fill="green" stroke="green" stroke-width="0.262738" points="677.9,-118.511 672.651,-109.308 671.015,-119.776 677.9,-118.511"/>
</g>
<!-- 5 -->
<g id="node6" class="node"><title>5</title>
<polygon fill="lightgrey" stroke="black" points="1514,-172.924 1493,-172.924 1493,-154.924 1514,-154.924 1514,-172.924"/>
<text text-anchor="middle" x="1503.5" y="-161.724" font-family="Times New Roman,serif" font-size="9.00">5</text>
</g>
<!-- 38 -->
<g id="node39" class="node"><title>38</title>
<ellipse fill="lightblue" stroke="lightblue" cx="1256.5" cy="-91.1543" rx="18.2703" ry="18.2703"/>
<text text-anchor="middle" x="1256.5" y="-88.9543" font-family="Times New Roman,serif" font-size="9.00">38</text>
</g>
<!-- 5&#45;&gt;38 -->
<g id="edge59" class="edge"><title>5&#45;&gt;38</title>
<path fill="none" stroke="red" stroke-width="0.419469" stroke-dasharray="1,5" d="M1496.47,-154.757C1493.16,-151.411 1488.97,-147.801 1484.5,-145.539 1411.32,-108.49 1382.43,-131.836 1303.5,-109.539 1296.64,-107.601 1289.35,-105.121 1282.62,-102.646"/>
<polygon fill="red" stroke="red" stroke-width="0.419469" points="1283.85,-99.3694 1273.26,-99.0858 1281.36,-105.912 1283.85,-99.3694"/>
</g>
<!-- 5&#45;&gt;42 -->
<g id="edge40" class="edge"><title>5&#45;&gt;42</title>
<path fill="none" stroke="green" stroke-width="0.259263" d="M1494.66,-154.731C1491.47,-151.809 1487.84,-148.507 1484.5,-145.539 1471.21,-133.74 1456.1,-120.722 1444.12,-110.495"/>
<polygon fill="green" stroke="green" stroke-width="0.259263" points="1446.28,-107.731 1436.39,-103.91 1441.74,-113.059 1446.28,-107.731"/>
</g>
<!-- 46 -->
<g id="node47" class="node"><title>46</title>
<ellipse fill="lightblue" stroke="lightblue" cx="1067.5" cy="-18.3848" rx="18.2703" ry="18.2703"/>
<text text-anchor="middle" x="1067.5" y="-16.1848" font-family="Times New Roman,serif" font-size="9.00">46</text>
</g>
<!-- 5&#45;&gt;46 -->
<g id="edge47" class="edge"><title>5&#45;&gt;46</title>
<path fill="none" stroke="red" stroke-width="0.221422" stroke-dasharray="1,5" d="M1506.79,-154.711C1513.21,-137.215 1525.04,-95.9752 1504.5,-72.7696 1477.33,-42.0797 1188.87,-25.3392 1096.08,-20.7188"/>
<polygon fill="red" stroke="red" stroke-width="0.221422" points="1096.16,-17.2189 1086,-20.2269 1095.82,-24.2105 1096.16,-17.2189"/>
</g>
<!-- 6 -->
<g id="node7" class="node"><title>6</title>
<polygon fill="lightgrey" stroke="black" points="21,-172.924 0,-172.924 0,-154.924 21,-154.924 21,-172.924"/>
<text text-anchor="middle" x="10.5" y="-161.724" font-family="Times New Roman,serif" font-size="9.00">6</text>
</g>
<!-- 30 -->
<g id="node31" class="node"><title>30</title>
<ellipse fill="lightblue" stroke="lightblue" cx="60.5" cy="-91.1543" rx="18.2703" ry="18.2703"/>
<text text-anchor="middle" x="60.5" y="-88.9543" font-family="Times New Roman,serif" font-size="9.00">30</text>
</g>
<!-- 6&#45;&gt;30 -->
<g id="edge46" class="edge"><title>6&#45;&gt;30</title>
<path fill="none" stroke="green" stroke-width="0.570817" stroke-dasharray="1,5" d="M16.2356,-154.806C23.0532,-145.156 34.7206,-128.642 44.3656,-114.991"/>
<polygon fill="green" stroke="green" stroke-width="0.570817" points="47.4285,-116.721 50.3403,-106.534 41.7115,-112.682 47.4285,-116.721"/>
</g>
<!-- 7 -->
<g id="node8" class="node"><title>7</title>
<polygon fill="lightgrey" stroke="black" points="615,-172.924 594,-172.924 594,-154.924 615,-154.924 615,-172.924"/>
<text text-anchor="middle" x="604.5" y="-161.724" font-family="Times New Roman,serif" font-size="9.00">7</text>
</g>
<!-- 7&#45;&gt;31 -->
<g id="edge52" class="edge"><title>7&#45;&gt;31</title>
<path fill="none" stroke="green" stroke-width="0.307327" d="M611.956,-154.806C621.267,-144.669 637.535,-126.957 650.404,-112.946"/>
<polygon fill="green" stroke="green" stroke-width="0.307327" points="653.323,-114.942 657.509,-105.209 648.167,-110.207 653.323,-114.942"/>
</g>
<!-- 39 -->
<g id="node40" class="node"><title>39</title>
<ellipse fill="lightblue" stroke="lightblue" cx="501.5" cy="-18.3848" rx="18.2703" ry="18.2703"/>
<text text-anchor="middle" x="501.5" y="-16.1848" font-family="Times New Roman,serif" font-size="9.00">39</text>
</g>
<!-- 7&#45;&gt;39 -->
<g id="edge63" class="edge"><title>7&#45;&gt;39</title>
<path fill="none" stroke="red" stroke-width="0.117216" stroke-dasharray="1,5" d="M598.667,-154.795C583.341,-133.437 541.5,-75.1282 518.028,-42.4184"/>
<polygon fill="red" stroke="red" stroke-width="0.117216" points="520.606,-40.0076 511.933,-33.9234 514.919,-44.0887 520.606,-40.0076"/>
</g>
<!-- 8 -->
<g id="node9" class="node"><title>8</title>
<polygon fill="lightgrey" stroke="black" points="515,-236.309 494,-236.309 494,-218.309 515,-218.309 515,-236.309"/>
<text text-anchor="middle" x="504.5" y="-225.109" font-family="Times New Roman,serif" font-size="9.00">8</text>
</g>
<!-- 35 -->
<g id="node36" class="node"><title>35</title>
<ellipse fill="lightblue" stroke="lightblue" cx="613.5" cy="-91.1543" rx="18.2703" ry="18.2703"/>
<text text-anchor="middle" x="613.5" y="-88.9543" font-family="Times New Roman,serif" font-size="9.00">35</text>
</g>
<!-- 8&#45;&gt;35 -->
<g id="edge2" class="edge"><title>8&#45;&gt;35</title>
<path fill="none" stroke="green" stroke-width="0.348188" stroke-dasharray="1,5" d="M511.318,-217.917C528.018,-197.363 571.389,-143.984 595.921,-113.79"/>
<polygon fill="green" stroke="green" stroke-width="0.348188" points="598.713,-115.904 602.303,-105.935 593.281,-111.49 598.713,-115.904"/>
</g>
<!-- 49 -->
<g id="node52" class="node"><title>49</title>
<ellipse fill="none" stroke="black" cx="481.5" cy="-163.924" rx="18.2703" ry="18.2703"/>
<text text-anchor="middle" x="481.5" y="-161.724" font-family="Times New Roman,serif" font-size="9.00">49</text>
</g>
<!-- 8&#45;&gt;49 -->
<g id="edge72" class="edge"><title>8&#45;&gt;49</title>
<path fill="none" stroke="green" stroke-width="0.517198" d="M501.493,-218.284C498.881,-211.313 494.949,-200.817 491.261,-190.974"/>
<polygon fill="green" stroke="green" stroke-width="0.517198" points="494.498,-189.639 487.712,-181.503 487.943,-192.095 494.498,-189.639"/>
</g>
<!-- 9 -->
<g id="node10" class="node"><title>9</title>
<polygon fill="lightgrey" stroke="black" points="149,-172.924 128,-172.924 128,-154.924 149,-154.924 149,-172.924"/>
<text text-anchor="middle" x="138.5" y="-161.724" font-family="Times New Roman,serif" font-size="9.00">9</text>
</g>
<!-- 9&#45;&gt;30 -->
<g id="edge35" class="edge"><title>9&#45;&gt;30</title>
<path fill="none" stroke="green" stroke-width="0.638118" d="M129.552,-154.806C117.898,-144.232 97.1603,-125.416 81.4432,-111.156"/>
<polygon fill="green" stroke="green" stroke-width="0.638118" points="83.5143,-108.309 73.7565,-104.182 78.8107,-113.494 83.5143,-108.309"/>
</g>
<!-- 36 -->
<g id="node37" class="node"><title>36</title>
<ellipse fill="lightblue" stroke="lightblue" cx="130.5" cy="-91.1543" rx="18.2703" ry="18.2703"/>
<text text-anchor="middle" x="130.5" y="-88.9543" font-family="Times New Roman,serif" font-size="9.00">36</text>
</g>
<!-- 9&#45;&gt;36 -->
<g id="edge33" class="edge"><title>9&#45;&gt;36</title>
<path fill="none" stroke="red" stroke-width="0.112572" d="M137.582,-154.806C136.614,-146.24 135.034,-132.264 133.612,-119.684"/>
<polygon fill="red" stroke="red" stroke-width="0.112572" points="137.073,-119.138 132.471,-109.594 130.117,-119.924 137.073,-119.138"/>
</g>
<!-- 9&#45;&gt;40 -->
<g id="edge25" class="edge"><title>9&#45;&gt;40</title>
<path fill="none" stroke="green" stroke-width="0.675358" d="M146.001,-154.819C149.5,-151.484 153.903,-147.866 158.5,-145.539 195.102,-127.013 312.928,-105.816 367.401,-96.7055"/>
<polygon fill="green" stroke="green" stroke-width="0.675358" points="368.114,-100.135 377.408,-95.0488 366.97,-93.2292 368.114,-100.135"/>
</g>
<!-- 10 -->
<g id="node11" class="node"><title>10</title>
<polygon fill="lightgrey" stroke="black" points="65.5,-172.924 39.5,-172.924 39.5,-154.924 65.5,-154.924 65.5,-172.924"/>
<text text-anchor="middle" x="52.5" y="-161.724" font-family="Times New Roman,serif" font-size="9.00">10</text>
</g>
<!-- 10&#45;&gt;30 -->
<g id="edge21" class="edge"><title>10&#45;&gt;30</title>
<path fill="none" stroke="green" stroke-width="0.122624" d="M53.4177,-154.806C54.386,-146.24 55.9659,-132.264 57.388,-119.684"/>
<polygon fill="green" stroke="green" stroke-width="0.122624" points="60.8831,-119.924 58.5286,-109.594 53.9274,-119.138 60.8831,-119.924"/>
</g>
<!-- 10&#45;&gt;36 -->
<g id="edge57" class="edge"><title>10&#45;&gt;36</title>
<path fill="none" stroke="green" stroke-width="0.189534" d="M61.4476,-154.806C73.1016,-144.232 93.8397,-125.416 109.557,-111.156"/>
<polygon fill="green" stroke="green" stroke-width="0.189534" points="112.189,-113.494 117.244,-104.182 107.486,-108.309 112.189,-113.494"/>
</g>
<!-- 11 -->
<g id="node12" class="node"><title>11</title>
<polygon fill="lightgrey" stroke="black" points="1035.5,-172.924 1009.5,-172.924 1009.5,-154.924 1035.5,-154.924 1035.5,-172.924"/>
<text text-anchor="middle" x="1022.5" y="-161.724" font-family="Times New Roman,serif" font-size="9.00">11</text>
</g>
<!-- 11&#45;&gt;44 -->
<g id="edge75" class="edge"><title>11&#45;&gt;44</title>
<path fill="none" stroke="green" stroke-width="0.123845" d="M1022.39,-154.806C1022.26,-146.24 1022.07,-132.264 1021.89,-119.684"/>
<polygon fill="green" stroke="green" stroke-width="0.123845" points="1025.39,-119.544 1021.75,-109.594 1018.39,-119.642 1025.39,-119.544"/>
</g>
<!-- 12 -->
<g id="node13" class="node"><title>12</title>
<polygon fill="lightgrey" stroke="black" points="825.5,-172.924 799.5,-172.924 799.5,-154.924 825.5,-154.924 825.5,-172.924"/>
<text text-anchor="middle" x="812.5" y="-161.724" font-family="Times New Roman,serif" font-size="9.00">12</text>
</g>
<!-- 43 -->
<g id="node44" class="node"><title>43</title>
<ellipse fill="lightblue" stroke="lightblue" cx="779.5" cy="-91.1543" rx="18.2703" ry="18.2703"/>
<text text-anchor="middle" x="779.5" y="-88.9543" font-family="Times New Roman,serif" font-size="9.00">43</text>
</g>
<!-- 12&#45;&gt;43 -->
<g id="edge70" class="edge"><title>12&#45;&gt;43</title>
<path fill="none" stroke="red" stroke-width="0.298682" stroke-dasharray="1,5" d="M808.714,-154.806C804.464,-145.691 797.357,-130.45 791.218,-117.284"/>
<polygon fill="red" stroke="red" stroke-width="0.298682" points="794.371,-115.764 786.973,-108.18 788.027,-118.722 794.371,-115.764"/>
</g>
<!-- 12&#45;&gt;45 -->
<g id="edge43" class="edge"><title>12&#45;&gt;45</title>
<path fill="none" stroke="green" stroke-width="0.501338" d="M816.63,-154.806C821.296,-145.632 829.119,-130.255 835.846,-117.031"/>
<polygon fill="green" stroke="green" stroke-width="0.501338" points="839.075,-118.402 840.489,-107.902 832.836,-115.228 839.075,-118.402"/>
</g>
<!-- 13 -->
<g id="node14" class="node"><title>13</title>
<polygon fill="lightgrey" stroke="black" points="1391.5,-172.924 1365.5,-172.924 1365.5,-154.924 1391.5,-154.924 1391.5,-172.924"/>
<text text-anchor="middle" x="1378.5" y="-161.724" font-family="Times New Roman,serif" font-size="9.00">13</text>
</g>
<!-- 13&#45;&gt;38 -->
<g id="edge64" class="edge"><title>13&#45;&gt;38</title>
<path fill="none" stroke="green" stroke-width="0.150691" d="M1368.92,-154.748C1365.16,-151.701 1360.74,-148.312 1356.5,-145.539 1332.19,-129.629 1302.67,-114.316 1282.02,-104.202"/>
<polygon fill="green" stroke="green" stroke-width="0.150691" points="1283.47,-101.012 1272.94,-99.8068 1280.42,-107.313 1283.47,-101.012"/>
</g>
<!-- 14 -->
<g id="node15" class="node"><title>14</title>
<polygon fill="lightgrey" stroke="black" points="737.5,-172.924 711.5,-172.924 711.5,-154.924 737.5,-154.924 737.5,-172.924"/>
<text text-anchor="middle" x="724.5" y="-161.724" font-family="Times New Roman,serif" font-size="9.00">14</text>
</g>
<!-- 14&#45;&gt;33 -->
<g id="edge53" class="edge"><title>14&#45;&gt;33</title>
<path fill="none" stroke="green" stroke-width="0.38325" stroke-dasharray="1,5" d="M732.334,-154.884C736.243,-151.39 741.252,-147.625 746.5,-145.539 916.08,-78.1466 978.642,-154.49 1155.5,-109.539 1160.38,-108.299 1165.42,-106.53 1170.22,-104.59"/>
<polygon fill="green" stroke="green" stroke-width="0.38325" points="1171.82,-107.709 1179.57,-100.485 1169.01,-101.299 1171.82,-107.709"/>
</g>
<!-- 37 -->
<g id="node38" class="node"><title>37</title>
<ellipse fill="lightblue" stroke="lightblue" cx="724.5" cy="-91.1543" rx="18.2703" ry="18.2703"/>
<text text-anchor="middle" x="724.5" y="-88.9543" font-family="Times New Roman,serif" font-size="9.00">37</text>
</g>
<!-- 14&#45;&gt;37 -->
<g id="edge5" class="edge"><title>14&#45;&gt;37</title>
<path fill="none" stroke="red" stroke-width="0.245579" d="M724.5,-154.806C724.5,-146.24 724.5,-132.264 724.5,-119.684"/>
<polygon fill="red" stroke="red" stroke-width="0.245579" points="728,-119.594 724.5,-109.594 721,-119.594 728,-119.594"/>
</g>
<!-- 14&#45;&gt;43 -->
<g id="edge38" class="edge"><title>14&#45;&gt;43</title>
<path fill="none" stroke="red" stroke-width="0.482029" d="M730.809,-154.806C738.427,-145.004 751.548,-128.12 762.252,-114.348"/>
<polygon fill="red" stroke="red" stroke-width="0.482029" points="765.16,-116.309 768.533,-106.266 759.633,-112.014 765.16,-116.309"/>
</g>
<!-- 14&#45;&gt;48 -->
<g id="edge41" class="edge"><title>14&#45;&gt;48</title>
<path fill="none" stroke="red" stroke-width="0.676098" d="M715.802,-154.571C711.765,-151.191 706.711,-147.605 701.5,-145.539 563.117,-90.6736 516.164,-128.391 368.5,-109.539 337.863,-105.628 302.869,-100.372 278.996,-96.6673"/>
<polygon fill="red" stroke="red" stroke-width="0.676098" points="279.285,-93.1702 268.865,-95.0843 278.205,-100.086 279.285,-93.1702"/>
</g>
<!-- 15 -->
<g id="node16" class="node"><title>15</title>
<polygon fill="lightgrey" stroke="black" points="781.5,-172.924 755.5,-172.924 755.5,-154.924 781.5,-154.924 781.5,-172.924"/>
<text text-anchor="middle" x="768.5" y="-161.724" font-family="Times New Roman,serif" font-size="9.00">15</text>
</g>
<!-- 15&#45;&gt;35 -->
<g id="edge31" class="edge"><title>15&#45;&gt;35</title>
<path fill="none" stroke="red" stroke-width="0.612055" d="M759.567,-154.743C755.747,-151.553 751.111,-148.064 746.5,-145.539 703.598,-122.046 686.824,-130.224 642.5,-109.539 640.891,-108.788 639.257,-107.972 637.627,-107.116"/>
<polygon fill="red" stroke="red" stroke-width="0.612055" points="638.955,-103.846 628.528,-101.966 635.506,-109.938 638.955,-103.846"/>
</g>
<!-- 15&#45;&gt;38 -->
<g id="edge49" class="edge"><title>15&#45;&gt;38</title>
<path fill="none" stroke="red" stroke-width="0.443816" d="M776.33,-154.873C780.238,-151.376 785.247,-147.612 790.5,-145.539 969.71,-74.8018 1037.23,-162.394 1222.5,-109.539 1225.69,-108.63 1228.93,-107.412 1232.08,-106.042"/>
<polygon fill="red" stroke="red" stroke-width="0.443816" points="1233.66,-109.162 1241.11,-101.627 1230.59,-102.872 1233.66,-109.162"/>
</g>
<!-- 15&#45;&gt;40 -->
<g id="edge76" class="edge"><title>15&#45;&gt;40</title>
<path fill="none" stroke="green" stroke-width="0.29444" stroke-dasharray="1,5" d="M760.215,-154.626C756.36,-151.256 751.521,-147.663 746.5,-145.539 634.191,-98.0334 594.6,-130.662 474.5,-109.539 457.306,-106.515 438.182,-102.329 423.057,-98.8217"/>
<polygon fill="green" stroke="green" stroke-width="0.29444" points="423.834,-95.4088 413.298,-96.525 422.23,-102.223 423.834,-95.4088"/>
</g>
<!-- 15&#45;&gt;43 -->
<g id="edge10" class="edge"><title>15&#45;&gt;43</title>
<path fill="none" stroke="red" stroke-width="0.254092" d="M769.762,-154.806C771.093,-146.24 773.266,-132.264 775.221,-119.684"/>
<polygon fill="red" stroke="red" stroke-width="0.254092" points="778.712,-120.013 776.789,-109.594 771.795,-118.938 778.712,-120.013"/>
</g>
<!-- 16 -->
<g id="node17" class="node"><title>16</title>
<polygon fill="lightgrey" stroke="black" points="401.5,-172.924 375.5,-172.924 375.5,-154.924 401.5,-154.924 401.5,-172.924"/>
<text text-anchor="middle" x="388.5" y="-161.724" font-family="Times New Roman,serif" font-size="9.00">16</text>
</g>
<!-- 16&#45;&gt;39 -->
<g id="edge65" class="edge"><title>16&#45;&gt;39</title>
<path fill="none" stroke="red" stroke-width="0.504836" d="M394.899,-154.795C411.871,-133.237 458.479,-74.0321 484.086,-41.5056"/>
<polygon fill="red" stroke="red" stroke-width="0.504836" points="486.975,-43.4932 490.411,-33.4708 481.475,-39.1632 486.975,-43.4932"/>
</g>
<!-- 50 -->
<g id="node50" class="node"><title>50</title>
<ellipse fill="none" stroke="black" cx="501.5" cy="-91.1543" rx="18.2703" ry="18.2703"/>
<text text-anchor="middle" x="501.5" y="-88.9543" font-family="Times New Roman,serif" font-size="9.00">50</text>
</g>
<!-- 16&#45;&gt;50 -->
<g id="edge17" class="edge"><title>16&#45;&gt;50</title>
<path fill="none" stroke="red" stroke-width="0.463002" d="M398.137,-154.837C401.906,-151.801 406.321,-148.396 410.5,-145.539 432.132,-130.751 458.006,-115.819 476.625,-105.522"/>
<polygon fill="red" stroke="red" stroke-width="0.463002" points="478.549,-108.459 485.639,-100.586 475.187,-102.319 478.549,-108.459"/>
</g>
<!-- 17 -->
<g id="node18" class="node"><title>17</title>
<polygon fill="lightgrey" stroke="black" points="109.5,-172.924 83.5,-172.924 83.5,-154.924 109.5,-154.924 109.5,-172.924"/>
<text text-anchor="middle" x="96.5" y="-161.724" font-family="Times New Roman,serif" font-size="9.00">17</text>
</g>
<!-- 17&#45;&gt;30 -->
<g id="edge62" class="edge"><title>17&#45;&gt;30</title>
<path fill="none" stroke="red" stroke-width="0.265353" stroke-dasharray="1,5" d="M92.3703,-154.806C87.7038,-145.632 79.8814,-130.255 73.1544,-117.031"/>
<polygon fill="red" stroke="red" stroke-width="0.265353" points="76.1642,-115.228 68.5105,-107.902 69.925,-118.402 76.1642,-115.228"/>
</g>
<!-- 17&#45;&gt;48 -->
<g id="edge73" class="edge"><title>17&#45;&gt;48</title>
<path fill="none" stroke="green" stroke-width="0.260348" d="M105.5,-154.86C109.329,-151.688 113.955,-148.181 118.5,-145.539 152.801,-125.601 195.975,-109.68 223.415,-100.576"/>
<polygon fill="green" stroke="green" stroke-width="0.260348" points="224.681,-103.845 233.11,-97.4259 222.518,-97.1871 224.681,-103.845"/>
</g>
<!-- 18 -->
<g id="node19" class="node"><title>18</title>
<polygon fill="lightgrey" stroke="black" points="869.5,-172.924 843.5,-172.924 843.5,-154.924 869.5,-154.924 869.5,-172.924"/>
<text text-anchor="middle" x="856.5" y="-161.724" font-family="Times New Roman,serif" font-size="9.00">18</text>
</g>
<!-- 18&#45;&gt;33 -->
<g id="edge77" class="edge"><title>18&#45;&gt;33</title>
<path fill="none" stroke="red" stroke-width="0.319396" stroke-dasharray="1,5" d="M864.783,-154.621C868.637,-151.25 873.476,-147.657 878.5,-145.539 992.895,-97.3093 1035.84,-142.607 1155.5,-109.539 1160.35,-108.198 1165.38,-106.38 1170.17,-104.425"/>
<polygon fill="red" stroke="red" stroke-width="0.319396" points="1171.77,-107.544 1179.53,-100.324 1168.96,-101.133 1171.77,-107.544"/>
</g>
<!-- 18&#45;&gt;45 -->
<g id="edge20" class="edge"><title>18&#45;&gt;45</title>
<path fill="none" stroke="green" stroke-width="0.503984" d="M855.582,-154.806C854.614,-146.24 853.034,-132.264 851.612,-119.684"/>
<polygon fill="green" stroke="green" stroke-width="0.503984" points="855.073,-119.138 850.471,-109.594 848.117,-119.924 855.073,-119.138"/>
</g>
<!-- 18&#45;&gt;50 -->
<g id="edge39" class="edge"><title>18&#45;&gt;50</title>
<path fill="none" stroke="green" stroke-width="0.472809" d="M848.202,-154.656C844.345,-151.292 839.508,-147.695 834.5,-145.539 732.196,-101.506 696.216,-128.706 586.5,-109.539 567.391,-106.201 545.996,-101.821 529.451,-98.2934"/>
<polygon fill="green" stroke="green" stroke-width="0.472809" points="529.865,-94.8023 519.352,-96.1174 528.391,-101.645 529.865,-94.8023"/>
</g>
<!-- 19 -->
<g id="node20" class="node"><title>19</title>
<polygon fill="lightgrey" stroke="black" points="1347.5,-172.924 1321.5,-172.924 1321.5,-154.924 1347.5,-154.924 1347.5,-172.924"/>
<text text-anchor="middle" x="1334.5" y="-161.724" font-family="Times New Roman,serif" font-size="9.00">19</text>
</g>
<!-- 19&#45;&gt;33 -->
<g id="edge16" class="edge"><title>19&#45;&gt;33</title>
<path fill="none" stroke="green" stroke-width="0.279862" stroke-dasharray="1,5" d="M1325.47,-154.917C1321.63,-151.753 1317.01,-148.238 1312.5,-145.539 1277.99,-124.901 1265.86,-126.701 1229.5,-109.539 1226.65,-108.196 1223.69,-106.753 1220.76,-105.294"/>
<polygon fill="green" stroke="green" stroke-width="0.279862" points="1222.15,-102.076 1211.65,-100.678 1218.99,-108.32 1222.15,-102.076"/>
</g>
<!-- 41 -->
<g id="node42" class="node"><title>41</title>
<ellipse fill="lightblue" stroke="lightblue" cx="1330.5" cy="-91.1543" rx="18.2703" ry="18.2703"/>
<text text-anchor="middle" x="1330.5" y="-88.9543" font-family="Times New Roman,serif" font-size="9.00">41</text>
</g>
<!-- 19&#45;&gt;41 -->
<g id="edge3" class="edge"><title>19&#45;&gt;41</title>
<path fill="none" stroke="red" stroke-width="0.193522" stroke-dasharray="1,5" d="M1334.04,-154.806C1333.56,-146.24 1332.77,-132.264 1332.06,-119.684"/>
<polygon fill="red" stroke="red" stroke-width="0.193522" points="1335.54,-119.381 1331.49,-109.594 1328.56,-119.776 1335.54,-119.381"/>
</g>
<!-- 20 -->
<g id="node21" class="node"><title>20</title>
<polygon fill="lightgrey" stroke="black" points="1127.5,-236.309 1101.5,-236.309 1101.5,-218.309 1127.5,-218.309 1127.5,-236.309"/>
<text text-anchor="middle" x="1114.5" y="-225.109" font-family="Times New Roman,serif" font-size="9.00">20</text>
</g>
<!-- 21 -->
<g id="node22" class="node"><title>21</title>
<polygon fill="lightgrey" stroke="black" points="1259.5,-172.924 1233.5,-172.924 1233.5,-154.924 1259.5,-154.924 1259.5,-172.924"/>
<text text-anchor="middle" x="1246.5" y="-161.724" font-family="Times New Roman,serif" font-size="9.00">21</text>
</g>
<!-- 21&#45;&gt;31 -->
<g id="edge32" class="edge"><title>21&#45;&gt;31</title>
<path fill="none" stroke="green" stroke-width="0.147604" stroke-dasharray="1,5" d="M1233.34,-158.25C1221.31,-154.184 1202.94,-148.492 1186.5,-145.539 972.012,-107.006 904.729,-176.964 697.5,-109.539 696.038,-109.063 694.574,-108.496 693.125,-107.861"/>
<polygon fill="green" stroke="green" stroke-width="0.147604" points="694.422,-104.586 683.953,-102.957 691.121,-110.759 694.422,-104.586"/>
</g>
<!-- 21&#45;&gt;38 -->
<g id="edge34" class="edge"><title>21&#45;&gt;38</title>
<path fill="none" stroke="green" stroke-width="0.238241" stroke-dasharray="1,5" d="M1247.65,-154.806C1248.86,-146.24 1250.83,-132.264 1252.61,-119.684"/>
<polygon fill="green" stroke="green" stroke-width="0.238241" points="1256.1,-119.985 1254.04,-109.594 1249.17,-119.006 1256.1,-119.985"/>
</g>
<!-- 22 -->
<g id="node23" class="node"><title>22</title>
<polygon fill="lightgrey" stroke="black" points="417.5,-236.309 391.5,-236.309 391.5,-218.309 417.5,-218.309 417.5,-236.309"/>
<text text-anchor="middle" x="404.5" y="-225.109" font-family="Times New Roman,serif" font-size="9.00">22</text>
</g>
<!-- 22&#45;&gt;39 -->
<g id="edge51" class="edge"><title>22&#45;&gt;39</title>
<path fill="none" stroke="red" stroke-width="0.231165" d="M394.148,-218.168C384.9,-210.177 371.99,-197.066 366.5,-182.309 360.103,-165.114 358.95,-86.4832 368.5,-72.7696 392.157,-38.7975 441.244,-26.4341 472.712,-21.9413"/>
<polygon fill="red" stroke="red" stroke-width="0.231165" points="473.546,-25.3647 483.038,-20.6579 472.682,-18.4182 473.546,-25.3647"/>
</g>
<!-- 22&#45;&gt;49 -->
<g id="edge61" class="edge"><title>22&#45;&gt;49</title>
<path fill="none" stroke="green" stroke-width="0.10804" stroke-dasharray="1,5" d="M414.566,-218.284C425.88,-209.264 444.595,-194.345 459.363,-182.571"/>
<polygon fill="green" stroke="green" stroke-width="0.10804" points="461.879,-185.042 467.517,-176.071 457.516,-179.568 461.879,-185.042"/>
</g>
<!-- 23 -->
<g id="node24" class="node"><title>23</title>
<polygon fill="lightgrey" stroke="black" points="1079.5,-172.924 1053.5,-172.924 1053.5,-154.924 1079.5,-154.924 1079.5,-172.924"/>
<text text-anchor="middle" x="1066.5" y="-161.724" font-family="Times New Roman,serif" font-size="9.00">23</text>
</g>
<!-- 32 -->
<g id="node33" class="node"><title>32</title>
<ellipse fill="lightblue" stroke="lightblue" cx="1128.5" cy="-91.1543" rx="18.2703" ry="18.2703"/>
<text text-anchor="middle" x="1128.5" y="-88.9543" font-family="Times New Roman,serif" font-size="9.00">32</text>
</g>
<!-- 23&#45;&gt;32 -->
<g id="edge12" class="edge"><title>23&#45;&gt;32</title>
<path fill="none" stroke="red" stroke-width="0.199457" stroke-dasharray="1,5" d="M1073.61,-154.806C1082.44,-144.73 1097.82,-127.169 1110.06,-113.198"/>
<polygon fill="red" stroke="red" stroke-width="0.199457" points="1112.88,-115.299 1116.83,-105.471 1107.61,-110.686 1112.88,-115.299"/>
</g>
<!-- 23&#45;&gt;40 -->
<g id="edge27" class="edge"><title>23&#45;&gt;40</title>
<path fill="none" stroke="green" stroke-width="0.172312" stroke-dasharray="1,5" d="M1058.69,-154.825C1054.78,-151.318 1049.77,-147.56 1044.5,-145.539 925.983,-100.127 600.18,-127.23 474.5,-109.539 457.213,-107.106 438.086,-102.936 422.983,-99.2905"/>
<polygon fill="green" stroke="green" stroke-width="0.172312" points="423.79,-95.8848 413.242,-96.878 422.107,-102.679 423.79,-95.8848"/>
</g>
<!-- 23&#45;&gt;44 -->
<g id="edge48" class="edge"><title>23&#45;&gt;44</title>
<path fill="none" stroke="red" stroke-width="0.106193" stroke-dasharray="1,5" d="M1061.34,-154.806C1055.34,-145.366 1045.16,-129.357 1036.59,-115.886"/>
<polygon fill="red" stroke="red" stroke-width="0.106193" points="1039.31,-113.637 1030.99,-107.076 1033.4,-117.393 1039.31,-113.637"/>
</g>
<!-- 23&#45;&gt;46 -->
<g id="edge66" class="edge"><title>23&#45;&gt;46</title>
<path fill="none" stroke="red" stroke-width="0.448713" stroke-dasharray="1,5" d="M1066.56,-154.795C1066.7,-134.46 1067.07,-80.6291 1067.31,-47.2879"/>
<polygon fill="red" stroke="red" stroke-width="0.448713" points="1070.81,-47.2755 1067.38,-37.2513 1063.81,-47.2266 1070.81,-47.2755"/>
</g>
<!-- 24 -->
<g id="node25" class="node"><title>24</title>
<polygon fill="lightgrey" stroke="black" points="1123.5,-172.924 1097.5,-172.924 1097.5,-154.924 1123.5,-154.924 1123.5,-172.924"/>
<text text-anchor="middle" x="1110.5" y="-161.724" font-family="Times New Roman,serif" font-size="9.00">24</text>
</g>
<!-- 24&#45;&gt;33 -->
<g id="edge14" class="edge"><title>24&#45;&gt;33</title>
<path fill="none" stroke="green" stroke-width="0.155363" d="M1120.25,-154.806C1133.22,-144.01 1156.5,-124.623 1173.75,-110.265"/>
<polygon fill="green" stroke="green" stroke-width="0.155363" points="1176.21,-112.768 1181.66,-103.68 1171.73,-107.388 1176.21,-112.768"/>
</g>
<!-- 24&#45;&gt;44 -->
<g id="edge54" class="edge"><title>24&#45;&gt;44</title>
<path fill="none" stroke="red" stroke-width="0.138337" stroke-dasharray="1,5" d="M1100.29,-154.806C1086.64,-143.948 1062.05,-124.399 1043.96,-110.016"/>
<polygon fill="red" stroke="red" stroke-width="0.138337" points="1045.69,-106.916 1035.68,-103.432 1041.33,-112.395 1045.69,-106.916"/>
</g>
<!-- 25 -->
<g id="node26" class="node"><title>25</title>
<polygon fill="lightgrey" stroke="black" points="1083.5,-236.309 1057.5,-236.309 1057.5,-218.309 1083.5,-218.309 1083.5,-236.309"/>
<text text-anchor="middle" x="1070.5" y="-225.109" font-family="Times New Roman,serif" font-size="9.00">25</text>
</g>
<!-- 25&#45;&gt;31 -->
<g id="edge6" class="edge"><title>25&#45;&gt;31</title>
<path fill="none" stroke="red" stroke-width="0.139897" d="M1057.46,-225.915C990.741,-223.77 689.572,-212.458 662.5,-182.309 646.977,-165.022 651.741,-137.592 658.525,-117.524"/>
<polygon fill="red" stroke="red" stroke-width="0.139897" points="661.836,-118.66 662.047,-108.067 655.277,-116.216 661.836,-118.66"/>
</g>
<!-- 25&#45;&gt;33 -->
<g id="edge69" class="edge"><title>25&#45;&gt;33</title>
<path fill="none" stroke="red" stroke-width="0.170562" d="M1083.59,-221.549C1113.58,-210.614 1184.85,-184.467 1186.5,-182.309 1200.06,-164.611 1201.36,-138.871 1199.83,-119.421"/>
<polygon fill="red" stroke="red" stroke-width="0.170562" points="1203.29,-118.92 1198.74,-109.354 1196.33,-119.672 1203.29,-118.92"/>
</g>
<!-- 25&#45;&gt;34 -->
<g id="edge55" class="edge"><title>25&#45;&gt;34</title>
<path fill="none" stroke="green" stroke-width="0.378339" d="M1083.83,-220.823C1086.65,-219.843 1089.64,-218.936 1092.5,-218.309 1139.44,-208.007 1490.96,-217.675 1523.5,-182.309 1543.02,-161.095 1518.63,-130.05 1498.6,-110.484"/>
<polygon fill="green" stroke="green" stroke-width="0.378339" points="1500.92,-107.868 1491.23,-103.591 1496.14,-112.979 1500.92,-107.868"/>
</g>
<!-- 47 -->
<g id="node48" class="node"><title>47</title>
<ellipse fill="lightblue" stroke="lightblue" cx="908.5" cy="-91.1543" rx="18.2703" ry="18.2703"/>
<text text-anchor="middle" x="908.5" y="-88.9543" font-family="Times New Roman,serif" font-size="9.00">47</text>
</g>
<!-- 25&#45;&gt;47 -->
<g id="edge13" class="edge"><title>25&#45;&gt;47</title>
<path fill="none" stroke="red" stroke-width="0.214534" d="M1057.3,-219.145C1042.8,-211.02 1019.09,-196.983 1000.5,-182.309 992.864,-176.281 953.107,-136.798 928.42,-112.123"/>
<polygon fill="red" stroke="red" stroke-width="0.214534" points="930.84,-109.593 921.295,-104.994 925.889,-114.541 930.84,-109.593"/>
</g>
<!-- 25&#45;&gt;50 -->
<g id="edge23" class="edge"><title>25&#45;&gt;50</title>
<path fill="none" stroke="green" stroke-width="0.324934" stroke-dasharray="1,5" d="M1057.44,-226.379C988.947,-226.561 671.106,-225.055 584.5,-182.309 554.787,-167.643 530.506,-137.452 516.046,-116.055"/>
<polygon fill="green" stroke="green" stroke-width="0.324934" points="518.857,-113.959 510.463,-107.495 512.994,-117.783 518.857,-113.959"/>
</g>
<!-- 51 -->
<g id="node51" class="node"><title>51</title>
<ellipse fill="none" stroke="black" cx="1159.5" cy="-163.924" rx="18.2703" ry="18.2703"/>
<text text-anchor="middle" x="1159.5" y="-161.724" font-family="Times New Roman,serif" font-size="9.00">51</text>
</g>
<!-- 25&#45;&gt;51 -->
<g id="edge8" class="edge"><title>25&#45;&gt;51</title>
<path fill="none" stroke="green" stroke-width="0.3" d="M1082.14,-218.284C1095.78,-208.874 1118.73,-193.043 1136.1,-181.063"/>
<polygon fill="green" stroke="green" stroke-width="0.3" points="1138.35,-183.762 1144.6,-175.203 1134.38,-177.999 1138.35,-183.762"/>
</g>
<!-- 26 -->
<g id="node27" class="node"><title>26</title>
<polygon fill="lightgrey" stroke="black" points="913.5,-172.924 887.5,-172.924 887.5,-154.924 913.5,-154.924 913.5,-172.924"/>
<text text-anchor="middle" x="900.5" y="-161.724" font-family="Times New Roman,serif" font-size="9.00">26</text>
</g>
<!-- 26&#45;&gt;35 -->
<g id="edge9" class="edge"><title>26&#45;&gt;35</title>
<path fill="none" stroke="red" stroke-width="0.188682" d="M892.195,-154.673C888.336,-151.312 883.5,-147.713 878.5,-145.539 781.194,-103.24 742.325,-145.493 642.5,-109.539 640.829,-108.937 639.149,-108.235 637.483,-107.465"/>
<polygon fill="red" stroke="red" stroke-width="0.188682" points="638.762,-104.178 628.296,-102.527 635.448,-110.344 638.762,-104.178"/>
</g>
<!-- 26&#45;&gt;44 -->
<g id="edge29" class="edge"><title>26&#45;&gt;44</title>
<path fill="none" stroke="red" stroke-width="0.121358" d="M910.084,-154.757C913.846,-151.711 918.27,-148.321 922.5,-145.539 946.586,-129.702 975.813,-114.378 996.243,-104.242"/>
<polygon fill="red" stroke="red" stroke-width="0.121358" points="997.794,-107.38 1005.23,-99.8348 994.713,-101.094 997.794,-107.38"/>
</g>
<!-- 26&#45;&gt;47 -->
<g id="edge1" class="edge"><title>26&#45;&gt;47</title>
<path fill="none" stroke="green" stroke-width="0.289989" stroke-dasharray="1,5" d="M901.418,-154.806C902.386,-146.24 903.966,-132.264 905.388,-119.684"/>
<polygon fill="green" stroke="green" stroke-width="0.289989" points="908.883,-119.924 906.529,-109.594 901.927,-119.138 908.883,-119.924"/>
</g>
<!-- 27 -->
<g id="node28" class="node"><title>27</title>
<polygon fill="lightgrey" stroke="black" points="1435.5,-172.924 1409.5,-172.924 1409.5,-154.924 1435.5,-154.924 1435.5,-172.924"/>
<text text-anchor="middle" x="1422.5" y="-161.724" font-family="Times New Roman,serif" font-size="9.00">27</text>
</g>
<!-- 27&#45;&gt;39 -->
<g id="edge58" class="edge"><title>27&#45;&gt;39</title>
<path fill="none" stroke="red" stroke-width="0.202971" stroke-dasharray="1,5" d="M1417.85,-154.753C1406.08,-134.388 1374.82,-82.3246 1357.5,-72.7696 1320.49,-52.3504 675.595,-26.1508 530.38,-20.4927"/>
<polygon fill="red" stroke="red" stroke-width="0.202971" points="530.196,-16.983 520.068,-20.0927 529.924,-23.9777 530.196,-16.983"/>
</g>
<!-- 27&#45;&gt;42 -->
<g id="edge11" class="edge"><title>27&#45;&gt;42</title>
<path fill="none" stroke="red" stroke-width="0.441298" d="M1422.5,-154.806C1422.5,-146.24 1422.5,-132.264 1422.5,-119.684"/>
<polygon fill="red" stroke="red" stroke-width="0.441298" points="1426,-119.594 1422.5,-109.594 1419,-119.594 1426,-119.594"/>
</g>
<!-- 28 -->
<g id="node29" class="node"><title>28</title>
<polygon fill="lightgrey" stroke="black" points="1303.5,-172.924 1277.5,-172.924 1277.5,-154.924 1303.5,-154.924 1303.5,-172.924"/>
<text text-anchor="middle" x="1290.5" y="-161.724" font-family="Times New Roman,serif" font-size="9.00">28</text>
</g>
<!-- 28&#45;&gt;32 -->
<g id="edge22" class="edge"><title>28&#45;&gt;32</title>
<path fill="none" stroke="red" stroke-width="0.25352" d="M1281.55,-154.771C1277.73,-151.586 1273.1,-148.093 1268.5,-145.539 1227.21,-122.597 1212.41,-126.962 1168.5,-109.539 1163.9,-107.715 1159.05,-105.69 1154.37,-103.685"/>
<polygon fill="red" stroke="red" stroke-width="0.25352" points="1155.7,-100.45 1145.14,-99.6704 1152.91,-106.869 1155.7,-100.45"/>
</g>
<!-- 28&#45;&gt;33 -->
<g id="edge68" class="edge"><title>28&#45;&gt;33</title>
<path fill="none" stroke="red" stroke-width="0.501375" stroke-dasharray="1,5" d="M1280.27,-154.707C1276.58,-151.783 1272.38,-148.485 1268.5,-145.539 1251.94,-132.948 1232.97,-119.089 1218.51,-108.648"/>
<polygon fill="red" stroke="red" stroke-width="0.501375" points="1220.32,-105.637 1210.16,-102.631 1216.23,-111.316 1220.32,-105.637"/>
</g>
<!-- 28&#45;&gt;42 -->
<g id="edge71" class="edge"><title>28&#45;&gt;42</title>
<path fill="none" stroke="red" stroke-width="0.145488" stroke-dasharray="1,5" d="M1300.02,-154.661C1303.78,-151.603 1308.21,-148.23 1312.5,-145.539 1339.76,-128.441 1373.3,-112.875 1396.13,-103.021"/>
<polygon fill="red" stroke="red" stroke-width="0.145488" points="1397.67,-106.169 1405.5,-99.0355 1394.93,-99.7267 1397.67,-106.169"/>
</g>
<!-- 29 -->
<g id="node30" class="node"><title>29</title>
<polygon fill="lightgrey" stroke="black" points="445.5,-172.924 419.5,-172.924 419.5,-154.924 445.5,-154.924 445.5,-172.924"/>
<text text-anchor="middle" x="432.5" y="-161.724" font-family="Times New Roman,serif" font-size="9.00">29</text>
</g>
<!-- 29&#45;&gt;45 -->
<g id="edge37" class="edge"><title>29&#45;&gt;45</title>
<path fill="none" stroke="green" stroke-width="0.150121" d="M440.347,-154.917C444.259,-151.43 449.267,-147.662 454.5,-145.539 600.229,-86.43 654.019,-148.017 806.5,-109.539 811.816,-108.198 817.339,-106.304 822.566,-104.257"/>
<polygon fill="green" stroke="green" stroke-width="0.150121" points="824.261,-107.341 832.12,-100.235 821.545,-100.889 824.261,-107.341"/>
</g>
<!-- 29&#45;&gt;48 -->
<g id="edge36" class="edge"><title>29&#45;&gt;48</title>
<path fill="none" stroke="green" stroke-width="0.505271" d="M423.581,-154.717C419.764,-151.523 415.125,-148.038 410.5,-145.539 367.028,-122.05 311.351,-106.332 278.445,-98.3463"/>
<polygon fill="green" stroke="green" stroke-width="0.505271" points="279.142,-94.9148 268.605,-96.0251 277.534,-101.728 279.142,-94.9148"/>
</g>
<!-- 29&#45;&gt;50 -->
<g id="edge4" class="edge"><title>29&#45;&gt;50</title>
<path fill="none" stroke="green" stroke-width="0.420846" d="M440.415,-154.806C450.451,-144.513 468.101,-126.41 481.856,-112.302"/>
<polygon fill="green" stroke="green" stroke-width="0.420846" points="484.55,-114.553 489.025,-104.95 479.538,-109.666 484.55,-114.553"/>
</g>
<!-- 50&#45;&gt;39 -->
<g id="edge30" class="edge"><title>50&#45;&gt;39</title>
<path fill="none" stroke="red" stroke-width="0.241984" stroke-dasharray="1,5" d="M501.5,-72.6607C501.5,-64.9784 501.5,-55.7693 501.5,-47.185"/>
<polygon fill="red" stroke="red" stroke-width="0.241984" points="505,-47.1687 501.5,-37.1687 498,-47.1687 505,-47.1687"/>
</g>
<!-- 50&#45;&gt;46 -->
<g id="edge26" class="edge"><title>50&#45;&gt;46</title>
<path fill="none" stroke="green" stroke-width="0.667363" d="M519.323,-86.0153C536.463,-82.1525 563.14,-76.447 586.5,-72.7696 757.371,-45.8708 964.494,-27.7101 1039.05,-21.6296"/>
<polygon fill="green" stroke="green" stroke-width="0.667363" points="1039.38,-25.1142 1049.07,-20.8205 1038.82,-18.1369 1039.38,-25.1142"/>
</g>
<!-- 51&#45;&gt;33 -->
<g id="edge74" class="edge"><title>51&#45;&gt;33</title>
<path fill="none" stroke="red" stroke-width="0.170562" stroke-dasharray="1,5" d="M1167.49,-147.218C1172.01,-138.33 1177.77,-127.015 1182.88,-116.955"/>
<polygon fill="red" stroke="red" stroke-width="0.170562" points="1186.12,-118.316 1187.53,-107.816 1179.88,-115.143 1186.12,-118.316"/>
</g>
<!-- 49&#45;&gt;35 -->
<g id="edge50" class="edge"><title>49&#45;&gt;35</title>
<path fill="none" stroke="green" stroke-width="0.348188" d="M497.439,-154.235C502.563,-151.45 508.267,-148.357 513.5,-145.539 539.079,-131.764 568.41,-116.124 588.66,-105.35"/>
<polygon fill="green" stroke="green" stroke-width="0.348188" points="590.361,-108.41 597.547,-100.625 587.074,-102.23 590.361,-108.41"/>
</g>
<!-- 49&#45;&gt;50 -->
<g id="edge18" class="edge"><title>49&#45;&gt;50</title>
<path fill="none" stroke="green" stroke-width="0.101888" d="M486.24,-146.152C488.523,-138.075 491.317,-128.188 493.887,-119.092"/>
<polygon fill="green" stroke="green" stroke-width="0.101888" points="497.304,-119.872 496.655,-109.297 490.568,-117.968 497.304,-119.872"/>
</g>
<!-- 52&#45;&gt;48 -->
<g id="edge78" class="edge"><title>52&#45;&gt;48</title>
<path fill="none" stroke="green" stroke-width="0.168805" d="M197.726,-149.613C207.168,-139.333 220.411,-124.914 231.269,-113.092"/>
<polygon fill="green" stroke="green" stroke-width="0.168805" points="234.142,-115.138 238.329,-105.406 228.987,-110.403 234.142,-115.138"/>
</g>
</g>
</svg>
