<?xml version="1.0" encoding="UTF-8" standalone="no"?>
<!DOCTYPE svg PUBLIC "-//W3C//DTD SVG 1.1//EN"
 "http://www.w3.org/Graphics/SVG/1.1/DTD/svg11.dtd">
<!-- Generated by graphviz version 2.38.0 (20140413.2041)
 -->
<!-- Title: %3 Pages: 1 -->
<svg width="1421pt" height="263pt"
 viewBox="0.00 0.00 1421.38 263.08" xmlns="http://www.w3.org/2000/svg" xmlns:xlink="http://www.w3.org/1999/xlink">
<g id="graph0" class="graph" transform="scale(1 1) rotate(0) translate(4 259.078)">
<title>%3</title>
<polygon fill="white" stroke="none" points="-4,4 -4,-259.078 1417.38,-259.078 1417.38,4 -4,4"/>
<!-- 0 -->
<g id="node1" class="node"><title>0</title>
<polygon fill="lightgrey" stroke="black" points="119.5,-172.924 98.5,-172.924 98.5,-154.924 119.5,-154.924 119.5,-172.924"/>
<text text-anchor="middle" x="109" y="-161.724" font-family="Times New Roman,serif" font-size="9.00">0</text>
</g>
<!-- 48 -->
<g id="node49" class="node"><title>48</title>
<ellipse fill="lightblue" stroke="lightblue" cx="68" cy="-91.1543" rx="18.2703" ry="18.2703"/>
<text text-anchor="middle" x="68" y="-88.9543" font-family="Times New Roman,serif" font-size="9.00">48</text>
</g>
<!-- 0&#45;&gt;48 -->
<g id="edge43" class="edge"><title>0&#45;&gt;48</title>
<path fill="none" stroke="green" stroke-width="0.13541" d="M104.297,-154.806C98.8621,-145.425 89.6692,-129.557 81.8951,-116.139"/>
<polygon fill="green" stroke="green" stroke-width="0.13541" points="84.8449,-114.248 76.8034,-107.35 78.7879,-117.757 84.8449,-114.248"/>
</g>
<!-- 1 -->
<g id="node2" class="node"><title>1</title>
<polygon fill="lightgrey" stroke="black" points="457.5,-172.924 436.5,-172.924 436.5,-154.924 457.5,-154.924 457.5,-172.924"/>
<text text-anchor="middle" x="447" y="-161.724" font-family="Times New Roman,serif" font-size="9.00">1</text>
</g>
<!-- 31 -->
<g id="node32" class="node"><title>31</title>
<ellipse fill="lightblue" stroke="lightblue" cx="408" cy="-91.1543" rx="18.2703" ry="18.2703"/>
<text text-anchor="middle" x="408" y="-88.9543" font-family="Times New Roman,serif" font-size="9.00">31</text>
</g>
<!-- 1&#45;&gt;31 -->
<g id="edge38" class="edge"><title>1&#45;&gt;31</title>
<path fill="none" stroke="green" stroke-width="0.103594" d="M442.526,-154.806C437.389,-145.484 428.722,-129.757 421.357,-116.392"/>
<polygon fill="green" stroke="green" stroke-width="0.103594" points="424.417,-114.694 416.526,-107.625 418.287,-118.072 424.417,-114.694"/>
</g>
<!-- 44 -->
<g id="node45" class="node"><title>44</title>
<ellipse fill="lightblue" stroke="lightblue" cx="343" cy="-91.1543" rx="18.2703" ry="18.2703"/>
<text text-anchor="middle" x="343" y="-88.9543" font-family="Times New Roman,serif" font-size="9.00">44</text>
</g>
<!-- 1&#45;&gt;44 -->
<g id="edge31" class="edge"><title>1&#45;&gt;44</title>
<path fill="none" stroke="green" stroke-width="0.26764" d="M438.277,-154.841C434.855,-151.805 430.835,-148.4 427,-145.539 407.717,-131.157 384.565,-116.629 367.454,-106.368"/>
<polygon fill="green" stroke="green" stroke-width="0.26764" points="369.019,-103.226 358.633,-101.134 365.447,-109.247 369.019,-103.226"/>
</g>
<!-- 45 -->
<g id="node46" class="node"><title>45</title>
<ellipse fill="lightblue" stroke="lightblue" cx="683" cy="-91.1543" rx="18.2703" ry="18.2703"/>
<text text-anchor="middle" x="683" y="-88.9543" font-family="Times New Roman,serif" font-size="9.00">45</text>
</g>
<!-- 1&#45;&gt;45 -->
<g id="edge17" class="edge"><title>1&#45;&gt;45</title>
<path fill="none" stroke="red" stroke-width="0.112111" d="M454.466,-154.748C457.958,-151.4 462.366,-147.791 467,-145.539 543.516,-108.353 575.758,-140.495 655,-109.539 656.432,-108.98 657.873,-108.346 659.303,-107.66"/>
<polygon fill="red" stroke="red" stroke-width="0.112111" points="661.373,-110.514 668.42,-102.603 657.978,-104.393 661.373,-110.514"/>
</g>
<!-- 2 -->
<g id="node3" class="node"><title>2</title>
<polygon fill="lightgrey" stroke="black" points="708.5,-245.693 687.5,-245.693 687.5,-227.693 708.5,-227.693 708.5,-245.693"/>
<text text-anchor="middle" x="698" y="-234.493" font-family="Times New Roman,serif" font-size="9.00">2</text>
</g>
<!-- 40 -->
<g id="node41" class="node"><title>40</title>
<ellipse fill="lightblue" stroke="lightblue" cx="860" cy="-163.924" rx="18.2703" ry="18.2703"/>
<text text-anchor="middle" x="860" y="-161.724" font-family="Times New Roman,serif" font-size="9.00">40</text>
</g>
<!-- 2&#45;&gt;40 -->
<g id="edge40" class="edge"><title>2&#45;&gt;40</title>
<path fill="none" stroke="green" stroke-width="0.17225" d="M708.813,-232.224C732.126,-224.571 788.606,-205.101 833,-182.309 834.144,-181.721 835.301,-181.099 836.459,-180.452"/>
<polygon fill="green" stroke="green" stroke-width="0.17225" points="838.41,-183.363 845.172,-175.206 834.8,-177.366 838.41,-183.363"/>
</g>
<!-- 52 -->
<g id="node53" class="node"><title>52</title>
<ellipse fill="none" stroke="black" cx="62" cy="-163.924" rx="18.2703" ry="18.2703"/>
<text text-anchor="middle" x="62" y="-161.724" font-family="Times New Roman,serif" font-size="9.00">52</text>
</g>
<!-- 2&#45;&gt;52 -->
<g id="edge20" class="edge"><title>2&#45;&gt;52</title>
<path fill="none" stroke="green" stroke-width="0.3" d="M687.16,-234.64C658.647,-231.878 579.19,-224.229 513,-218.309 324.629,-201.461 268.017,-243.303 89,-182.309 87.7533,-181.884 86.5067,-181.389 85.2708,-180.842"/>
<polygon fill="green" stroke="green" stroke-width="0.3" points="86.6372,-177.6 76.1836,-175.876 83.2807,-183.743 86.6372,-177.6"/>
</g>
<!-- 3 -->
<g id="node4" class="node"><title>3</title>
<polygon fill="lightgrey" stroke="black" points="1015.5,-245.693 994.5,-245.693 994.5,-227.693 1015.5,-227.693 1015.5,-245.693"/>
<text text-anchor="middle" x="1005" y="-234.493" font-family="Times New Roman,serif" font-size="9.00">3</text>
</g>
<!-- 42 -->
<g id="node43" class="node"><title>42</title>
<ellipse fill="lightblue" stroke="lightblue" cx="1044" cy="-163.924" rx="18.2703" ry="18.2703"/>
<text text-anchor="middle" x="1044" y="-161.724" font-family="Times New Roman,serif" font-size="9.00">42</text>
</g>
<!-- 3&#45;&gt;42 -->
<g id="edge4" class="edge"><title>3&#45;&gt;42</title>
<path fill="none" stroke="red" stroke-width="0.137928" d="M1009.47,-227.575C1014.61,-218.254 1023.28,-202.526 1030.64,-189.162"/>
<polygon fill="red" stroke="red" stroke-width="0.137928" points="1033.71,-190.842 1035.47,-180.394 1027.58,-187.463 1033.71,-190.842"/>
</g>
<!-- 4 -->
<g id="node5" class="node"><title>4</title>
<polygon fill="lightgrey" stroke="black" points="418.5,-172.924 397.5,-172.924 397.5,-154.924 418.5,-154.924 418.5,-172.924"/>
<text text-anchor="middle" x="408" y="-161.724" font-family="Times New Roman,serif" font-size="9.00">4</text>
</g>
<!-- 4&#45;&gt;31 -->
<g id="edge11" class="edge"><title>4&#45;&gt;31</title>
<path fill="none" stroke="green" stroke-width="0.262738" d="M408,-154.806C408,-146.24 408,-132.264 408,-119.684"/>
<polygon fill="green" stroke="green" stroke-width="0.262738" points="411.5,-119.594 408,-109.594 404.5,-119.594 411.5,-119.594"/>
</g>
<!-- 5 -->
<g id="node6" class="node"><title>5</title>
<polygon fill="lightgrey" stroke="black" points="1054.5,-245.693 1033.5,-245.693 1033.5,-227.693 1054.5,-227.693 1054.5,-245.693"/>
<text text-anchor="middle" x="1044" y="-234.493" font-family="Times New Roman,serif" font-size="9.00">5</text>
</g>
<!-- 5&#45;&gt;42 -->
<g id="edge29" class="edge"><title>5&#45;&gt;42</title>
<path fill="none" stroke="green" stroke-width="0.259263" d="M1044,-227.575C1044,-219.009 1044,-205.034 1044,-192.454"/>
<polygon fill="green" stroke="green" stroke-width="0.259263" points="1047.5,-192.364 1044,-182.364 1040.5,-192.364 1047.5,-192.364"/>
</g>
<!-- 6 -->
<g id="node7" class="node"><title>6</title>
<polygon fill="lightgrey" stroke="black" points="1138.5,-245.693 1117.5,-245.693 1117.5,-227.693 1138.5,-227.693 1138.5,-245.693"/>
<text text-anchor="middle" x="1128" y="-234.493" font-family="Times New Roman,serif" font-size="9.00">6</text>
</g>
<!-- 7 -->
<g id="node8" class="node"><title>7</title>
<polygon fill="lightgrey" stroke="black" points="379.5,-172.924 358.5,-172.924 358.5,-154.924 379.5,-154.924 379.5,-172.924"/>
<text text-anchor="middle" x="369" y="-161.724" font-family="Times New Roman,serif" font-size="9.00">7</text>
</g>
<!-- 7&#45;&gt;31 -->
<g id="edge36" class="edge"><title>7&#45;&gt;31</title>
<path fill="none" stroke="green" stroke-width="0.307327" d="M373.474,-154.806C378.611,-145.484 387.278,-129.757 394.643,-116.392"/>
<polygon fill="green" stroke="green" stroke-width="0.307327" points="397.713,-118.072 399.474,-107.625 391.583,-114.694 397.713,-118.072"/>
</g>
<!-- 8 -->
<g id="node9" class="node"><title>8</title>
<polygon fill="lightgrey" stroke="black" points="504.5,-245.693 483.5,-245.693 483.5,-227.693 504.5,-227.693 504.5,-245.693"/>
<text text-anchor="middle" x="494" y="-234.493" font-family="Times New Roman,serif" font-size="9.00">8</text>
</g>
<!-- 49 -->
<g id="node52" class="node"><title>49</title>
<ellipse fill="none" stroke="black" cx="494" cy="-163.924" rx="18.2703" ry="18.2703"/>
<text text-anchor="middle" x="494" y="-161.724" font-family="Times New Roman,serif" font-size="9.00">49</text>
</g>
<!-- 8&#45;&gt;49 -->
<g id="edge45" class="edge"><title>8&#45;&gt;49</title>
<path fill="none" stroke="green" stroke-width="0.517198" d="M494,-227.575C494,-219.009 494,-205.034 494,-192.454"/>
<polygon fill="green" stroke="green" stroke-width="0.517198" points="497.5,-192.364 494,-182.364 490.5,-192.364 497.5,-192.364"/>
</g>
<!-- 9 -->
<g id="node10" class="node"><title>9</title>
<polygon fill="lightgrey" stroke="black" points="925.5,-245.693 904.5,-245.693 904.5,-227.693 925.5,-227.693 925.5,-245.693"/>
<text text-anchor="middle" x="915" y="-234.493" font-family="Times New Roman,serif" font-size="9.00">9</text>
</g>
<!-- 30 -->
<g id="node31" class="node"><title>30</title>
<ellipse fill="lightblue" stroke="lightblue" cx="915" cy="-163.924" rx="18.2703" ry="18.2703"/>
<text text-anchor="middle" x="915" y="-161.724" font-family="Times New Roman,serif" font-size="9.00">30</text>
</g>
<!-- 9&#45;&gt;30 -->
<g id="edge24" class="edge"><title>9&#45;&gt;30</title>
<path fill="none" stroke="green" stroke-width="0.638118" d="M915,-227.575C915,-219.009 915,-205.034 915,-192.454"/>
<polygon fill="green" stroke="green" stroke-width="0.638118" points="918.5,-192.364 915,-182.364 911.5,-192.364 918.5,-192.364"/>
</g>
<!-- 36 -->
<g id="node37" class="node"><title>36</title>
<ellipse fill="lightblue" stroke="lightblue" cx="970" cy="-163.924" rx="18.2703" ry="18.2703"/>
<text text-anchor="middle" x="970" y="-161.724" font-family="Times New Roman,serif" font-size="9.00">36</text>
</g>
<!-- 9&#45;&gt;36 -->
<g id="edge23" class="edge"><title>9&#45;&gt;36</title>
<path fill="none" stroke="red" stroke-width="0.112572" d="M921.309,-227.575C928.927,-217.774 942.048,-200.89 952.752,-187.117"/>
<polygon fill="red" stroke="red" stroke-width="0.112572" points="955.66,-189.079 959.033,-179.035 950.133,-184.783 955.66,-189.079"/>
</g>
<!-- 9&#45;&gt;40 -->
<g id="edge18" class="edge"><title>9&#45;&gt;40</title>
<path fill="none" stroke="green" stroke-width="0.675358" d="M908.691,-227.575C901.073,-217.774 887.952,-200.89 877.248,-187.117"/>
<polygon fill="green" stroke="green" stroke-width="0.675358" points="879.867,-184.783 870.967,-179.035 874.34,-189.079 879.867,-184.783"/>
</g>
<!-- 10 -->
<g id="node11" class="node"><title>10</title>
<polygon fill="lightgrey" stroke="black" points="976,-245.693 950,-245.693 950,-227.693 976,-227.693 976,-245.693"/>
<text text-anchor="middle" x="963" y="-234.493" font-family="Times New Roman,serif" font-size="9.00">10</text>
</g>
<!-- 10&#45;&gt;30 -->
<g id="edge15" class="edge"><title>10&#45;&gt;30</title>
<path fill="none" stroke="green" stroke-width="0.122624" d="M957.494,-227.575C950.989,-217.985 939.886,-201.615 930.661,-188.014"/>
<polygon fill="green" stroke="green" stroke-width="0.122624" points="933.446,-185.885 924.937,-179.574 927.653,-189.815 933.446,-185.885"/>
</g>
<!-- 10&#45;&gt;36 -->
<g id="edge39" class="edge"><title>10&#45;&gt;36</title>
<path fill="none" stroke="green" stroke-width="0.189534" d="M963.803,-227.575C964.65,-219.009 966.033,-205.034 967.277,-192.454"/>
<polygon fill="green" stroke="green" stroke-width="0.189534" points="970.774,-192.66 968.275,-182.364 963.808,-191.97 970.774,-192.66"/>
</g>
<!-- 11 -->
<g id="node12" class="node"><title>11</title>
<polygon fill="lightgrey" stroke="black" points="340,-172.924 314,-172.924 314,-154.924 340,-154.924 340,-172.924"/>
<text text-anchor="middle" x="327" y="-161.724" font-family="Times New Roman,serif" font-size="9.00">11</text>
</g>
<!-- 11&#45;&gt;44 -->
<g id="edge47" class="edge"><title>11&#45;&gt;44</title>
<path fill="none" stroke="green" stroke-width="0.123845" d="M328.835,-154.806C330.785,-146.183 333.974,-132.079 336.832,-119.434"/>
<polygon fill="green" stroke="green" stroke-width="0.123845" points="340.33,-119.834 339.122,-109.308 333.503,-118.29 340.33,-119.834"/>
</g>
<!-- 12 -->
<g id="node13" class="node"><title>12</title>
<polygon fill="lightgrey" stroke="black" points="692,-172.924 666,-172.924 666,-154.924 692,-154.924 692,-172.924"/>
<text text-anchor="middle" x="679" y="-161.724" font-family="Times New Roman,serif" font-size="9.00">12</text>
</g>
<!-- 12&#45;&gt;45 -->
<g id="edge32" class="edge"><title>12&#45;&gt;45</title>
<path fill="none" stroke="green" stroke-width="0.501338" d="M679.459,-154.806C679.943,-146.24 680.733,-132.264 681.444,-119.684"/>
<polygon fill="green" stroke="green" stroke-width="0.501338" points="684.944,-119.776 682.014,-109.594 677.955,-119.381 684.944,-119.776"/>
</g>
<!-- 13 -->
<g id="node14" class="node"><title>13</title>
<polygon fill="lightgrey" stroke="black" points="252,-172.924 226,-172.924 226,-154.924 252,-154.924 252,-172.924"/>
<text text-anchor="middle" x="239" y="-161.724" font-family="Times New Roman,serif" font-size="9.00">13</text>
</g>
<!-- 38 -->
<g id="node39" class="node"><title>38</title>
<ellipse fill="lightblue" stroke="lightblue" cx="233" cy="-91.1543" rx="18.2703" ry="18.2703"/>
<text text-anchor="middle" x="233" y="-88.9543" font-family="Times New Roman,serif" font-size="9.00">38</text>
</g>
<!-- 13&#45;&gt;38 -->
<g id="edge41" class="edge"><title>13&#45;&gt;38</title>
<path fill="none" stroke="green" stroke-width="0.150691" d="M238.312,-154.806C237.585,-146.24 236.401,-132.264 235.334,-119.684"/>
<polygon fill="green" stroke="green" stroke-width="0.150691" points="238.811,-119.263 234.479,-109.594 231.836,-119.854 238.811,-119.263"/>
</g>
<!-- 14 -->
<g id="node15" class="node"><title>14</title>
<polygon fill="lightgrey" stroke="black" points="164,-172.924 138,-172.924 138,-154.924 164,-154.924 164,-172.924"/>
<text text-anchor="middle" x="151" y="-161.724" font-family="Times New Roman,serif" font-size="9.00">14</text>
</g>
<!-- 37 -->
<g id="node38" class="node"><title>37</title>
<ellipse fill="lightblue" stroke="lightblue" cx="123" cy="-91.1543" rx="18.2703" ry="18.2703"/>
<text text-anchor="middle" x="123" y="-88.9543" font-family="Times New Roman,serif" font-size="9.00">37</text>
</g>
<!-- 14&#45;&gt;37 -->
<g id="edge2" class="edge"><title>14&#45;&gt;37</title>
<path fill="none" stroke="red" stroke-width="0.245579" d="M147.788,-154.806C144.24,-145.837 138.345,-130.938 133.194,-117.919"/>
<polygon fill="red" stroke="red" stroke-width="0.245579" points="136.385,-116.471 129.451,-108.46 129.876,-119.046 136.385,-116.471"/>
</g>
<!-- 43 -->
<g id="node44" class="node"><title>43</title>
<ellipse fill="lightblue" stroke="lightblue" cx="178" cy="-91.1543" rx="18.2703" ry="18.2703"/>
<text text-anchor="middle" x="178" y="-88.9543" font-family="Times New Roman,serif" font-size="9.00">43</text>
</g>
<!-- 14&#45;&gt;43 -->
<g id="edge27" class="edge"><title>14&#45;&gt;43</title>
<path fill="none" stroke="red" stroke-width="0.482029" d="M154.097,-154.806C157.519,-145.837 163.203,-130.938 168.17,-117.919"/>
<polygon fill="red" stroke="red" stroke-width="0.482029" points="171.485,-119.05 171.779,-108.46 164.944,-116.555 171.485,-119.05"/>
</g>
<!-- 14&#45;&gt;48 -->
<g id="edge30" class="edge"><title>14&#45;&gt;48</title>
<path fill="none" stroke="red" stroke-width="0.676098" d="M141.479,-154.806C128.818,-144.01 106.08,-124.623 89.2403,-110.265"/>
<polygon fill="red" stroke="red" stroke-width="0.676098" points="91.3976,-107.505 81.5172,-103.68 86.8558,-112.831 91.3976,-107.505"/>
</g>
<!-- 15 -->
<g id="node16" class="node"><title>15</title>
<polygon fill="lightgrey" stroke="black" points="208,-172.924 182,-172.924 182,-154.924 208,-154.924 208,-172.924"/>
<text text-anchor="middle" x="195" y="-161.724" font-family="Times New Roman,serif" font-size="9.00">15</text>
</g>
<!-- 35 -->
<g id="node36" class="node"><title>35</title>
<ellipse fill="lightblue" stroke="lightblue" cx="288" cy="-91.1543" rx="18.2703" ry="18.2703"/>
<text text-anchor="middle" x="288" y="-88.9543" font-family="Times New Roman,serif" font-size="9.00">35</text>
</g>
<!-- 15&#45;&gt;35 -->
<g id="edge22" class="edge"><title>15&#45;&gt;35</title>
<path fill="none" stroke="red" stroke-width="0.612055" d="M205.257,-154.736C208.944,-151.814 213.145,-148.511 217,-145.539 233.083,-133.141 251.404,-119.374 265.407,-108.926"/>
<polygon fill="red" stroke="red" stroke-width="0.612055" points="267.58,-111.672 273.509,-102.891 263.398,-106.058 267.58,-111.672"/>
</g>
<!-- 15&#45;&gt;38 -->
<g id="edge33" class="edge"><title>15&#45;&gt;38</title>
<path fill="none" stroke="red" stroke-width="0.443816" d="M199.359,-154.806C204.316,-145.574 212.647,-130.058 219.778,-116.778"/>
<polygon fill="red" stroke="red" stroke-width="0.443816" points="223.046,-118.091 224.693,-107.625 216.879,-114.779 223.046,-118.091"/>
</g>
<!-- 15&#45;&gt;43 -->
<g id="edge7" class="edge"><title>15&#45;&gt;43</title>
<path fill="none" stroke="red" stroke-width="0.254092" d="M193.05,-154.806C190.958,-146.097 187.523,-131.796 184.462,-119.055"/>
<polygon fill="red" stroke="red" stroke-width="0.254092" points="187.86,-118.214 182.121,-109.308 181.053,-119.849 187.86,-118.214"/>
</g>
<!-- 16 -->
<g id="node17" class="node"><title>16</title>
<polygon fill="lightgrey" stroke="black" points="780,-172.924 754,-172.924 754,-154.924 780,-154.924 780,-172.924"/>
<text text-anchor="middle" x="767" y="-161.724" font-family="Times New Roman,serif" font-size="9.00">16</text>
</g>
<!-- 39 -->
<g id="node40" class="node"><title>39</title>
<ellipse fill="lightblue" stroke="lightblue" cx="804" cy="-91.1543" rx="18.2703" ry="18.2703"/>
<text text-anchor="middle" x="804" y="-88.9543" font-family="Times New Roman,serif" font-size="9.00">39</text>
</g>
<!-- 16&#45;&gt;39 -->
<g id="edge42" class="edge"><title>16&#45;&gt;39</title>
<path fill="none" stroke="red" stroke-width="0.504836" d="M771.244,-154.806C776.041,-145.632 784.08,-130.255 790.994,-117.031"/>
<polygon fill="red" stroke="red" stroke-width="0.504836" points="794.235,-118.385 795.767,-107.902 788.032,-115.142 794.235,-118.385"/>
</g>
<!-- 50 -->
<g id="node50" class="node"><title>50</title>
<ellipse fill="none" stroke="black" cx="738" cy="-91.1543" rx="18.2703" ry="18.2703"/>
<text text-anchor="middle" x="738" y="-88.9543" font-family="Times New Roman,serif" font-size="9.00">50</text>
</g>
<!-- 16&#45;&gt;50 -->
<g id="edge12" class="edge"><title>16&#45;&gt;50</title>
<path fill="none" stroke="red" stroke-width="0.463002" d="M763.673,-154.806C759.998,-145.837 753.893,-130.938 748.558,-117.919"/>
<polygon fill="red" stroke="red" stroke-width="0.463002" points="751.712,-116.386 744.682,-108.46 745.235,-119.04 751.712,-116.386"/>
</g>
<!-- 17 -->
<g id="node18" class="node"><title>17</title>
<polygon fill="lightgrey" stroke="black" points="26,-172.924 0,-172.924 0,-154.924 26,-154.924 26,-172.924"/>
<text text-anchor="middle" x="13" y="-161.724" font-family="Times New Roman,serif" font-size="9.00">17</text>
</g>
<!-- 17&#45;&gt;48 -->
<g id="edge46" class="edge"><title>17&#45;&gt;48</title>
<path fill="none" stroke="green" stroke-width="0.260348" d="M19.3092,-154.806C26.9267,-145.004 40.0484,-128.12 50.7519,-114.348"/>
<polygon fill="green" stroke="green" stroke-width="0.260348" points="53.6601,-116.309 57.033,-106.266 48.133,-112.014 53.6601,-116.309"/>
</g>
<!-- 18 -->
<g id="node19" class="node"><title>18</title>
<polygon fill="lightgrey" stroke="black" points="736,-172.924 710,-172.924 710,-154.924 736,-154.924 736,-172.924"/>
<text text-anchor="middle" x="723" y="-161.724" font-family="Times New Roman,serif" font-size="9.00">18</text>
</g>
<!-- 18&#45;&gt;45 -->
<g id="edge14" class="edge"><title>18&#45;&gt;45</title>
<path fill="none" stroke="green" stroke-width="0.503984" d="M718.411,-154.806C713.143,-145.484 704.253,-129.757 696.699,-116.392"/>
<polygon fill="green" stroke="green" stroke-width="0.503984" points="699.712,-114.608 691.744,-107.625 693.618,-118.053 699.712,-114.608"/>
</g>
<!-- 18&#45;&gt;50 -->
<g id="edge28" class="edge"><title>18&#45;&gt;50</title>
<path fill="none" stroke="green" stroke-width="0.472809" d="M724.721,-154.806C726.548,-146.183 729.538,-132.079 732.218,-119.434"/>
<polygon fill="green" stroke="green" stroke-width="0.472809" points="735.715,-119.817 734.364,-109.308 728.867,-118.365 735.715,-119.817"/>
</g>
<!-- 19 -->
<g id="node20" class="node"><title>19</title>
<polygon fill="lightgrey" stroke="black" points="1183,-245.693 1157,-245.693 1157,-227.693 1183,-227.693 1183,-245.693"/>
<text text-anchor="middle" x="1170" y="-234.493" font-family="Times New Roman,serif" font-size="9.00">19</text>
</g>
<!-- 20 -->
<g id="node21" class="node"><title>20</title>
<polygon fill="lightgrey" stroke="black" points="1227,-245.693 1201,-245.693 1201,-227.693 1227,-227.693 1227,-245.693"/>
<text text-anchor="middle" x="1214" y="-234.493" font-family="Times New Roman,serif" font-size="9.00">20</text>
</g>
<!-- 21 -->
<g id="node22" class="node"><title>21</title>
<polygon fill="lightgrey" stroke="black" points="1271,-245.693 1245,-245.693 1245,-227.693 1271,-227.693 1271,-245.693"/>
<text text-anchor="middle" x="1258" y="-234.493" font-family="Times New Roman,serif" font-size="9.00">21</text>
</g>
<!-- 22 -->
<g id="node23" class="node"><title>22</title>
<polygon fill="lightgrey" stroke="black" points="824,-172.924 798,-172.924 798,-154.924 824,-154.924 824,-172.924"/>
<text text-anchor="middle" x="811" y="-161.724" font-family="Times New Roman,serif" font-size="9.00">22</text>
</g>
<!-- 22&#45;&gt;39 -->
<g id="edge35" class="edge"><title>22&#45;&gt;39</title>
<path fill="none" stroke="red" stroke-width="0.231165" d="M810.197,-154.806C809.35,-146.24 807.967,-132.264 806.723,-119.684"/>
<polygon fill="red" stroke="red" stroke-width="0.231165" points="810.192,-119.201 805.725,-109.594 803.226,-119.89 810.192,-119.201"/>
</g>
<!-- 23 -->
<g id="node24" class="node"><title>23</title>
<polygon fill="lightgrey" stroke="black" points="1315,-245.693 1289,-245.693 1289,-227.693 1315,-227.693 1315,-245.693"/>
<text text-anchor="middle" x="1302" y="-234.493" font-family="Times New Roman,serif" font-size="9.00">23</text>
</g>
<!-- 24 -->
<g id="node25" class="node"><title>24</title>
<polygon fill="lightgrey" stroke="black" points="556,-172.924 530,-172.924 530,-154.924 556,-154.924 556,-172.924"/>
<text text-anchor="middle" x="543" y="-161.724" font-family="Times New Roman,serif" font-size="9.00">24</text>
</g>
<!-- 33 -->
<g id="node34" class="node"><title>33</title>
<ellipse fill="lightblue" stroke="lightblue" cx="463" cy="-91.1543" rx="18.2703" ry="18.2703"/>
<text text-anchor="middle" x="463" y="-88.9543" font-family="Times New Roman,serif" font-size="9.00">33</text>
</g>
<!-- 24&#45;&gt;33 -->
<g id="edge10" class="edge"><title>24&#45;&gt;33</title>
<path fill="none" stroke="green" stroke-width="0.155363" d="M533.823,-154.806C521.8,-144.17 500.351,-125.196 484.198,-110.906"/>
<polygon fill="green" stroke="green" stroke-width="0.155363" points="486.12,-107.934 476.311,-103.93 481.482,-113.177 486.12,-107.934"/>
</g>
<!-- 25 -->
<g id="node26" class="node"><title>25</title>
<polygon fill="lightgrey" stroke="black" points="600,-172.924 574,-172.924 574,-154.924 600,-154.924 600,-172.924"/>
<text text-anchor="middle" x="587" y="-161.724" font-family="Times New Roman,serif" font-size="9.00">25</text>
</g>
<!-- 25&#45;&gt;31 -->
<g id="edge3" class="edge"><title>25&#45;&gt;31</title>
<path fill="none" stroke="red" stroke-width="0.139897" d="M578.142,-154.6C574.334,-151.389 569.686,-147.922 565,-145.539 511.942,-118.558 490.498,-133.478 436,-109.539 434.592,-108.921 433.171,-108.24 431.756,-107.518"/>
<polygon fill="red" stroke="red" stroke-width="0.139897" points="433.105,-104.259 422.683,-102.353 429.642,-110.342 433.105,-104.259"/>
</g>
<!-- 25&#45;&gt;33 -->
<g id="edge44" class="edge"><title>25&#45;&gt;33</title>
<path fill="none" stroke="red" stroke-width="0.170562" d="M577.477,-154.663C573.722,-151.606 569.287,-148.232 565,-145.539 534.027,-126.088 523.023,-127.209 491,-109.539 489.685,-108.813 488.345,-108.054 487,-107.275"/>
<polygon fill="red" stroke="red" stroke-width="0.170562" points="488.609,-104.159 478.235,-102.008 485.004,-110.159 488.609,-104.159"/>
</g>
<!-- 34 -->
<g id="node35" class="node"><title>34</title>
<ellipse fill="lightblue" stroke="lightblue" cx="518" cy="-91.1543" rx="18.2703" ry="18.2703"/>
<text text-anchor="middle" x="518" y="-88.9543" font-family="Times New Roman,serif" font-size="9.00">34</text>
</g>
<!-- 25&#45;&gt;34 -->
<g id="edge37" class="edge"><title>25&#45;&gt;34</title>
<path fill="none" stroke="green" stroke-width="0.378339" d="M579.085,-154.806C569.049,-144.513 551.399,-126.41 537.644,-112.302"/>
<polygon fill="green" stroke="green" stroke-width="0.378339" points="539.962,-109.666 530.475,-104.95 534.95,-114.553 539.962,-109.666"/>
</g>
<!-- 47 -->
<g id="node48" class="node"><title>47</title>
<ellipse fill="lightblue" stroke="lightblue" cx="573" cy="-91.1543" rx="18.2703" ry="18.2703"/>
<text text-anchor="middle" x="573" y="-88.9543" font-family="Times New Roman,serif" font-size="9.00">47</text>
</g>
<!-- 25&#45;&gt;47 -->
<g id="edge9" class="edge"><title>25&#45;&gt;47</title>
<path fill="none" stroke="red" stroke-width="0.214534" d="M585.394,-154.806C583.688,-146.183 580.898,-132.079 578.397,-119.434"/>
<polygon fill="red" stroke="red" stroke-width="0.214534" points="581.768,-118.439 576.393,-109.308 574.901,-119.797 581.768,-118.439"/>
</g>
<!-- 51 -->
<g id="node51" class="node"><title>51</title>
<ellipse fill="none" stroke="black" cx="628" cy="-91.1543" rx="18.2703" ry="18.2703"/>
<text text-anchor="middle" x="628" y="-88.9543" font-family="Times New Roman,serif" font-size="9.00">51</text>
</g>
<!-- 25&#45;&gt;51 -->
<g id="edge5" class="edge"><title>25&#45;&gt;51</title>
<path fill="none" stroke="green" stroke-width="0.3" d="M591.703,-154.806C597.138,-145.425 606.331,-129.557 614.105,-116.139"/>
<polygon fill="green" stroke="green" stroke-width="0.3" points="617.212,-117.757 619.197,-107.35 611.155,-114.248 617.212,-117.757"/>
</g>
<!-- 26 -->
<g id="node27" class="node"><title>26</title>
<polygon fill="lightgrey" stroke="black" points="296,-172.924 270,-172.924 270,-154.924 296,-154.924 296,-172.924"/>
<text text-anchor="middle" x="283" y="-161.724" font-family="Times New Roman,serif" font-size="9.00">26</text>
</g>
<!-- 26&#45;&gt;35 -->
<g id="edge6" class="edge"><title>26&#45;&gt;35</title>
<path fill="none" stroke="red" stroke-width="0.188682" d="M283.574,-154.806C284.179,-146.24 285.166,-132.264 286.055,-119.684"/>
<polygon fill="red" stroke="red" stroke-width="0.188682" points="289.554,-119.816 286.768,-109.594 282.572,-119.322 289.554,-119.816"/>
</g>
<!-- 26&#45;&gt;44 -->
<g id="edge21" class="edge"><title>26&#45;&gt;44</title>
<path fill="none" stroke="red" stroke-width="0.121358" d="M289.883,-154.806C298.374,-144.79 313.135,-127.38 324.944,-113.451"/>
<polygon fill="red" stroke="red" stroke-width="0.121358" points="327.69,-115.625 331.487,-105.734 322.35,-111.098 327.69,-115.625"/>
</g>
<!-- 27 -->
<g id="node28" class="node"><title>27</title>
<polygon fill="lightgrey" stroke="black" points="1099,-245.693 1073,-245.693 1073,-227.693 1099,-227.693 1099,-245.693"/>
<text text-anchor="middle" x="1086" y="-234.493" font-family="Times New Roman,serif" font-size="9.00">27</text>
</g>
<!-- 27&#45;&gt;42 -->
<g id="edge8" class="edge"><title>27&#45;&gt;42</title>
<path fill="none" stroke="red" stroke-width="0.441298" d="M1081.18,-227.575C1075.61,-218.195 1066.2,-202.327 1058.23,-188.908"/>
<polygon fill="red" stroke="red" stroke-width="0.441298" points="1061.13,-186.933 1053.02,-180.119 1055.11,-190.505 1061.13,-186.933"/>
</g>
<!-- 28 -->
<g id="node29" class="node"><title>28</title>
<polygon fill="lightgrey" stroke="black" points="1359,-245.693 1333,-245.693 1333,-227.693 1359,-227.693 1359,-245.693"/>
<text text-anchor="middle" x="1346" y="-234.493" font-family="Times New Roman,serif" font-size="9.00">28</text>
</g>
<!-- 32 -->
<g id="node33" class="node"><title>32</title>
<ellipse fill="lightblue" stroke="lightblue" cx="1346" cy="-163.924" rx="18.2703" ry="18.2703"/>
<text text-anchor="middle" x="1346" y="-161.724" font-family="Times New Roman,serif" font-size="9.00">32</text>
</g>
<!-- 28&#45;&gt;32 -->
<g id="edge16" class="edge"><title>28&#45;&gt;32</title>
<path fill="none" stroke="red" stroke-width="0.25352" d="M1346,-227.575C1346,-219.009 1346,-205.034 1346,-192.454"/>
<polygon fill="red" stroke="red" stroke-width="0.25352" points="1349.5,-192.364 1346,-182.364 1342.5,-192.364 1349.5,-192.364"/>
</g>
<!-- 29 -->
<g id="node30" class="node"><title>29</title>
<polygon fill="lightgrey" stroke="black" points="648,-172.924 622,-172.924 622,-154.924 648,-154.924 648,-172.924"/>
<text text-anchor="middle" x="635" y="-161.724" font-family="Times New Roman,serif" font-size="9.00">29</text>
</g>
<!-- 29&#45;&gt;45 -->
<g id="edge26" class="edge"><title>29&#45;&gt;45</title>
<path fill="none" stroke="green" stroke-width="0.150121" d="M640.506,-154.806C647.011,-145.216 658.114,-128.846 667.339,-115.244"/>
<polygon fill="green" stroke="green" stroke-width="0.150121" points="670.347,-117.045 673.063,-106.804 664.554,-113.116 670.347,-117.045"/>
</g>
<!-- 29&#45;&gt;48 -->
<g id="edge25" class="edge"><title>29&#45;&gt;48</title>
<path fill="none" stroke="green" stroke-width="0.505271" d="M625.524,-154.842C620.857,-151.339 614.959,-147.578 609,-145.539 392.751,-71.537 313.467,-179.883 96,-109.539 94.5369,-109.066 93.0724,-108.5 91.6229,-107.867"/>
<polygon fill="green" stroke="green" stroke-width="0.505271" points="92.9191,-104.592 82.4494,-102.968 89.6214,-110.766 92.9191,-104.592"/>
</g>
<!-- 29&#45;&gt;50 -->
<g id="edge1" class="edge"><title>29&#45;&gt;50</title>
<path fill="none" stroke="green" stroke-width="0.420846" d="M645.156,-154.601C648.834,-151.667 653.054,-148.39 657,-145.539 675.715,-132.016 697.615,-117.667 713.921,-107.254"/>
<polygon fill="green" stroke="green" stroke-width="0.420846" points="716.241,-109.928 722.81,-101.615 712.491,-104.017 716.241,-109.928"/>
</g>
<!-- 41 -->
<g id="node42" class="node"><title>41</title>
<ellipse fill="lightblue" stroke="lightblue" cx="1395" cy="-236.693" rx="18.2703" ry="18.2703"/>
<text text-anchor="middle" x="1395" y="-234.493" font-family="Times New Roman,serif" font-size="9.00">41</text>
</g>
<!-- 46 -->
<g id="node47" class="node"><title>46</title>
<ellipse fill="lightblue" stroke="lightblue" cx="738" cy="-18.3848" rx="18.2703" ry="18.2703"/>
<text text-anchor="middle" x="738" y="-16.1848" font-family="Times New Roman,serif" font-size="9.00">46</text>
</g>
<!-- 50&#45;&gt;46 -->
<g id="edge19" class="edge"><title>50&#45;&gt;46</title>
<path fill="none" stroke="green" stroke-width="0.667363" d="M738,-72.6607C738,-64.9784 738,-55.7693 738,-47.185"/>
<polygon fill="green" stroke="green" stroke-width="0.667363" points="741.5,-47.1687 738,-37.1687 734.5,-47.1687 741.5,-47.1687"/>
</g>
<!-- 49&#45;&gt;35 -->
<g id="edge34" class="edge"><title>49&#45;&gt;35</title>
<path fill="none" stroke="green" stroke-width="0.348188" d="M479.364,-152.615C475.191,-150.02 470.541,-147.435 466,-145.539 402.735,-119.119 379.265,-135.959 316,-109.539 314.581,-108.947 313.151,-108.287 311.729,-107.58"/>
<polygon fill="green" stroke="green" stroke-width="0.348188" points="313.067,-104.318 302.636,-102.463 309.634,-110.418 313.067,-104.318"/>
</g>
<!-- 49&#45;&gt;50 -->
<g id="edge13" class="edge"><title>49&#45;&gt;50</title>
<path fill="none" stroke="green" stroke-width="0.101888" d="M508.297,-152.279C512.249,-149.746 516.651,-147.277 521,-145.539 600.406,-113.81 630.336,-140.615 710,-109.539 711.433,-108.98 712.873,-108.347 714.304,-107.662"/>
<polygon fill="green" stroke="green" stroke-width="0.101888" points="716.373,-110.516 723.422,-102.606 712.979,-104.394 716.373,-110.516"/>
</g>
<!-- 52&#45;&gt;48 -->
<g id="edge48" class="edge"><title>52&#45;&gt;48</title>
<path fill="none" stroke="green" stroke-width="0.168805" d="M63.4831,-145.43C64.1345,-137.748 64.9152,-128.539 65.643,-119.955"/>
<polygon fill="green" stroke="green" stroke-width="0.168805" points="69.1348,-120.198 66.4922,-109.938 62.1599,-119.607 69.1348,-120.198"/>
</g>
</g>
</svg>
