<?xml version="1.0" encoding="UTF-8" standalone="no"?>
<!DOCTYPE svg PUBLIC "-//W3C//DTD SVG 1.1//EN"
 "http://www.w3.org/Graphics/SVG/1.1/DTD/svg11.dtd">
<!-- Generated by graphviz version 2.38.0 (20140413.2041)
 -->
<!-- Title: %3 Pages: 1 -->
<svg width="1317pt" height="118pt"
 viewBox="0.00 0.00 1316.88 117.54" xmlns="http://www.w3.org/2000/svg" xmlns:xlink="http://www.w3.org/1999/xlink">
<g id="graph0" class="graph" transform="scale(1 1) rotate(0) translate(4 113.539)">
<title>%3</title>
<polygon fill="white" stroke="none" points="-4,4 -4,-113.539 1312.88,-113.539 1312.88,4 -4,4"/>
<!-- 0 -->
<g id="node1" class="node"><title>0</title>
<polygon fill="lightgrey" stroke="black" points="21,-100.154 0,-100.154 0,-82.1543 21,-82.1543 21,-100.154"/>
<text text-anchor="middle" x="10.5" y="-88.9543" font-family="Times New Roman,serif" font-size="9.00">0</text>
</g>
<!-- 34 -->
<g id="node35" class="node"><title>34</title>
<ellipse fill="lightblue" stroke="lightblue" cx="70.5" cy="-18.3848" rx="18.2703" ry="18.2703"/>
<text text-anchor="middle" x="70.5" y="-16.1848" font-family="Times New Roman,serif" font-size="9.00">34</text>
</g>
<!-- 0&#45;&gt;34 -->
<g id="edge9" class="edge"><title>0&#45;&gt;34</title>
<path fill="none" stroke="green" stroke-width="0.306403" d="M17.3828,-82.0362C25.8741,-72.0207 40.6349,-54.6104 52.4444,-40.6812"/>
<polygon fill="green" stroke="green" stroke-width="0.306403" points="55.1897,-42.8554 58.9869,-32.9644 49.8503,-38.3286 55.1897,-42.8554"/>
</g>
<!-- 1 -->
<g id="node2" class="node"><title>1</title>
<polygon fill="lightgrey" stroke="black" points="355,-100.154 334,-100.154 334,-82.1543 355,-82.1543 355,-100.154"/>
<text text-anchor="middle" x="344.5" y="-88.9543" font-family="Times New Roman,serif" font-size="9.00">1</text>
</g>
<!-- 2 -->
<g id="node3" class="node"><title>2</title>
<polygon fill="lightgrey" stroke="black" points="60,-100.154 39,-100.154 39,-82.1543 60,-82.1543 60,-100.154"/>
<text text-anchor="middle" x="49.5" y="-88.9543" font-family="Times New Roman,serif" font-size="9.00">2</text>
</g>
<!-- 2&#45;&gt;34 -->
<g id="edge5" class="edge"><title>2&#45;&gt;34</title>
<path fill="none" stroke="green" stroke-width="0.130484" d="M51.909,-82.0362C54.5103,-73.2699 58.7926,-58.8384 62.592,-46.0345"/>
<polygon fill="green" stroke="green" stroke-width="0.130484" points="66.0047,-46.8369 65.4942,-36.2544 59.2939,-44.8455 66.0047,-46.8369"/>
</g>
<!-- 3 -->
<g id="node4" class="node"><title>3</title>
<polygon fill="lightgrey" stroke="black" points="188,-100.154 167,-100.154 167,-82.1543 188,-82.1543 188,-100.154"/>
<text text-anchor="middle" x="177.5" y="-88.9543" font-family="Times New Roman,serif" font-size="9.00">3</text>
</g>
<!-- 33 -->
<g id="node34" class="node"><title>33</title>
<ellipse fill="lightblue" stroke="lightblue" cx="192.5" cy="-18.3848" rx="18.2703" ry="18.2703"/>
<text text-anchor="middle" x="192.5" y="-16.1848" font-family="Times New Roman,serif" font-size="9.00">33</text>
</g>
<!-- 3&#45;&gt;33 -->
<g id="edge8" class="edge"><title>3&#45;&gt;33</title>
<path fill="none" stroke="red" stroke-width="0.319045" d="M179.221,-82.0362C181.048,-73.4134 184.038,-59.3094 186.718,-46.6647"/>
<polygon fill="red" stroke="red" stroke-width="0.319045" points="190.215,-47.0471 188.864,-36.5387 183.367,-45.5956 190.215,-47.0471"/>
</g>
<!-- 4 -->
<g id="node5" class="node"><title>4</title>
<polygon fill="lightgrey" stroke="black" points="394,-100.154 373,-100.154 373,-82.1543 394,-82.1543 394,-100.154"/>
<text text-anchor="middle" x="383.5" y="-88.9543" font-family="Times New Roman,serif" font-size="9.00">4</text>
</g>
<!-- 5 -->
<g id="node6" class="node"><title>5</title>
<polygon fill="lightgrey" stroke="black" points="433,-100.154 412,-100.154 412,-82.1543 433,-82.1543 433,-100.154"/>
<text text-anchor="middle" x="422.5" y="-88.9543" font-family="Times New Roman,serif" font-size="9.00">5</text>
</g>
<!-- 6 -->
<g id="node7" class="node"><title>6</title>
<polygon fill="lightgrey" stroke="black" points="316,-100.154 295,-100.154 295,-82.1543 316,-82.1543 316,-100.154"/>
<text text-anchor="middle" x="305.5" y="-88.9543" font-family="Times New Roman,serif" font-size="9.00">6</text>
</g>
<!-- 31 -->
<g id="node32" class="node"><title>31</title>
<ellipse fill="lightblue" stroke="lightblue" cx="284.5" cy="-18.3848" rx="18.2703" ry="18.2703"/>
<text text-anchor="middle" x="284.5" y="-16.1848" font-family="Times New Roman,serif" font-size="9.00">31</text>
</g>
<!-- 6&#45;&gt;31 -->
<g id="edge10" class="edge"><title>6&#45;&gt;31</title>
<path fill="none" stroke="green" stroke-width="1.00412" d="M303.091,-82.0362C300.49,-73.2699 296.207,-58.8384 292.408,-46.0345"/>
<polygon fill="green" stroke="green" stroke-width="1.00412" points="295.706,-44.8455 289.506,-36.2544 288.995,-46.8369 295.706,-44.8455"/>
</g>
<!-- 7 -->
<g id="node8" class="node"><title>7</title>
<polygon fill="lightgrey" stroke="black" points="472,-100.154 451,-100.154 451,-82.1543 472,-82.1543 472,-100.154"/>
<text text-anchor="middle" x="461.5" y="-88.9543" font-family="Times New Roman,serif" font-size="9.00">7</text>
</g>
<!-- 8 -->
<g id="node9" class="node"><title>8</title>
<polygon fill="lightgrey" stroke="black" points="511,-100.154 490,-100.154 490,-82.1543 511,-82.1543 511,-100.154"/>
<text text-anchor="middle" x="500.5" y="-88.9543" font-family="Times New Roman,serif" font-size="9.00">8</text>
</g>
<!-- 9 -->
<g id="node10" class="node"><title>9</title>
<polygon fill="lightgrey" stroke="black" points="550,-100.154 529,-100.154 529,-82.1543 550,-82.1543 550,-100.154"/>
<text text-anchor="middle" x="539.5" y="-88.9543" font-family="Times New Roman,serif" font-size="9.00">9</text>
</g>
<!-- 10 -->
<g id="node11" class="node"><title>10</title>
<polygon fill="lightgrey" stroke="black" points="594.5,-100.154 568.5,-100.154 568.5,-82.1543 594.5,-82.1543 594.5,-100.154"/>
<text text-anchor="middle" x="581.5" y="-88.9543" font-family="Times New Roman,serif" font-size="9.00">10</text>
</g>
<!-- 11 -->
<g id="node12" class="node"><title>11</title>
<polygon fill="lightgrey" stroke="black" points="638.5,-100.154 612.5,-100.154 612.5,-82.1543 638.5,-82.1543 638.5,-100.154"/>
<text text-anchor="middle" x="625.5" y="-88.9543" font-family="Times New Roman,serif" font-size="9.00">11</text>
</g>
<!-- 12 -->
<g id="node13" class="node"><title>12</title>
<polygon fill="lightgrey" stroke="black" points="682.5,-100.154 656.5,-100.154 656.5,-82.1543 682.5,-82.1543 682.5,-100.154"/>
<text text-anchor="middle" x="669.5" y="-88.9543" font-family="Times New Roman,serif" font-size="9.00">12</text>
</g>
<!-- 32 -->
<g id="node33" class="node"><title>32</title>
<ellipse fill="lightblue" stroke="lightblue" cx="669.5" cy="-18.3848" rx="18.2703" ry="18.2703"/>
<text text-anchor="middle" x="669.5" y="-16.1848" font-family="Times New Roman,serif" font-size="9.00">32</text>
</g>
<!-- 12&#45;&gt;32 -->
<g id="edge1" class="edge"><title>12&#45;&gt;32</title>
<path fill="none" stroke="red" stroke-width="0.248653" d="M669.5,-82.0362C669.5,-73.4701 669.5,-59.4947 669.5,-46.9144"/>
<polygon fill="red" stroke="red" stroke-width="0.248653" points="673,-46.8244 669.5,-36.8245 666,-46.8245 673,-46.8244"/>
</g>
<!-- 13 -->
<g id="node14" class="node"><title>13</title>
<polygon fill="lightgrey" stroke="black" points="726.5,-100.154 700.5,-100.154 700.5,-82.1543 726.5,-82.1543 726.5,-100.154"/>
<text text-anchor="middle" x="713.5" y="-88.9543" font-family="Times New Roman,serif" font-size="9.00">13</text>
</g>
<!-- 14 -->
<g id="node15" class="node"><title>14</title>
<polygon fill="lightgrey" stroke="black" points="148.5,-100.154 122.5,-100.154 122.5,-82.1543 148.5,-82.1543 148.5,-100.154"/>
<text text-anchor="middle" x="135.5" y="-88.9543" font-family="Times New Roman,serif" font-size="9.00">14</text>
</g>
<!-- 14&#45;&gt;33 -->
<g id="edge4" class="edge"><title>14&#45;&gt;33</title>
<path fill="none" stroke="red" stroke-width="1.12334" d="M142.039,-82.0362C149.982,-72.1744 163.699,-55.1432 174.829,-41.3251"/>
<polygon fill="red" stroke="red" stroke-width="1.12334" points="177.802,-43.2129 181.349,-33.2294 172.351,-38.822 177.802,-43.2129"/>
</g>
<!-- 14&#45;&gt;34 -->
<g id="edge7" class="edge"><title>14&#45;&gt;34</title>
<path fill="none" stroke="red" stroke-width="0.413015" d="M128.044,-82.0362C118.733,-71.8993 102.465,-54.1873 89.5965,-40.1763"/>
<polygon fill="red" stroke="red" stroke-width="0.413015" points="91.8329,-37.4371 82.4906,-32.4397 86.6774,-42.1722 91.8329,-37.4371"/>
</g>
<!-- 15 -->
<g id="node16" class="node"><title>15</title>
<polygon fill="lightgrey" stroke="black" points="276.5,-100.154 250.5,-100.154 250.5,-82.1543 276.5,-82.1543 276.5,-100.154"/>
<text text-anchor="middle" x="263.5" y="-88.9543" font-family="Times New Roman,serif" font-size="9.00">15</text>
</g>
<!-- 15&#45;&gt;31 -->
<g id="edge3" class="edge"><title>15&#45;&gt;31</title>
<path fill="none" stroke="red" stroke-width="0.173061" d="M265.909,-82.0362C268.51,-73.2699 272.793,-58.8384 276.592,-46.0345"/>
<polygon fill="red" stroke="red" stroke-width="0.173061" points="280.005,-46.8369 279.494,-36.2544 273.294,-44.8455 280.005,-46.8369"/>
</g>
<!-- 15&#45;&gt;33 -->
<g id="edge11" class="edge"><title>15&#45;&gt;33</title>
<path fill="none" stroke="red" stroke-width="1.08186" d="M255.355,-82.0362C244.968,-71.682 226.651,-53.4245 212.461,-39.2806"/>
<polygon fill="red" stroke="red" stroke-width="1.08186" points="214.632,-36.503 205.078,-31.9223 209.69,-41.4608 214.632,-36.503"/>
</g>
<!-- 16 -->
<g id="node17" class="node"><title>16</title>
<polygon fill="lightgrey" stroke="black" points="770.5,-100.154 744.5,-100.154 744.5,-82.1543 770.5,-82.1543 770.5,-100.154"/>
<text text-anchor="middle" x="757.5" y="-88.9543" font-family="Times New Roman,serif" font-size="9.00">16</text>
</g>
<!-- 17 -->
<g id="node18" class="node"><title>17</title>
<polygon fill="lightgrey" stroke="black" points="814.5,-100.154 788.5,-100.154 788.5,-82.1543 814.5,-82.1543 814.5,-100.154"/>
<text text-anchor="middle" x="801.5" y="-88.9543" font-family="Times New Roman,serif" font-size="9.00">17</text>
</g>
<!-- 18 -->
<g id="node19" class="node"><title>18</title>
<polygon fill="lightgrey" stroke="black" points="104.5,-100.154 78.5,-100.154 78.5,-82.1543 104.5,-82.1543 104.5,-100.154"/>
<text text-anchor="middle" x="91.5" y="-88.9543" font-family="Times New Roman,serif" font-size="9.00">18</text>
</g>
<!-- 18&#45;&gt;34 -->
<g id="edge6" class="edge"><title>18&#45;&gt;34</title>
<path fill="none" stroke="red" stroke-width="0.397647" d="M89.091,-82.0362C86.4897,-73.2699 82.2074,-58.8384 78.408,-46.0345"/>
<polygon fill="red" stroke="red" stroke-width="0.397647" points="81.7061,-44.8455 75.5058,-36.2544 74.9953,-46.8369 81.7061,-44.8455"/>
</g>
<!-- 19 -->
<g id="node20" class="node"><title>19</title>
<polygon fill="lightgrey" stroke="black" points="858.5,-100.154 832.5,-100.154 832.5,-82.1543 858.5,-82.1543 858.5,-100.154"/>
<text text-anchor="middle" x="845.5" y="-88.9543" font-family="Times New Roman,serif" font-size="9.00">19</text>
</g>
<!-- 20 -->
<g id="node21" class="node"><title>20</title>
<polygon fill="lightgrey" stroke="black" points="232.5,-100.154 206.5,-100.154 206.5,-82.1543 232.5,-82.1543 232.5,-100.154"/>
<text text-anchor="middle" x="219.5" y="-88.9543" font-family="Times New Roman,serif" font-size="9.00">20</text>
</g>
<!-- 20&#45;&gt;33 -->
<g id="edge2" class="edge"><title>20&#45;&gt;33</title>
<path fill="none" stroke="green" stroke-width="0.964557" d="M216.403,-82.0362C212.981,-73.0673 207.297,-58.1685 202.33,-45.1498"/>
<polygon fill="green" stroke="green" stroke-width="0.964557" points="205.556,-43.7856 198.721,-35.6901 199.015,-46.2809 205.556,-43.7856"/>
</g>
<!-- 21 -->
<g id="node22" class="node"><title>21</title>
<polygon fill="lightgrey" stroke="black" points="902.5,-100.154 876.5,-100.154 876.5,-82.1543 902.5,-82.1543 902.5,-100.154"/>
<text text-anchor="middle" x="889.5" y="-88.9543" font-family="Times New Roman,serif" font-size="9.00">21</text>
</g>
<!-- 22 -->
<g id="node23" class="node"><title>22</title>
<polygon fill="lightgrey" stroke="black" points="946.5,-100.154 920.5,-100.154 920.5,-82.1543 946.5,-82.1543 946.5,-100.154"/>
<text text-anchor="middle" x="933.5" y="-88.9543" font-family="Times New Roman,serif" font-size="9.00">22</text>
</g>
<!-- 23 -->
<g id="node24" class="node"><title>23</title>
<polygon fill="lightgrey" stroke="black" points="990.5,-100.154 964.5,-100.154 964.5,-82.1543 990.5,-82.1543 990.5,-100.154"/>
<text text-anchor="middle" x="977.5" y="-88.9543" font-family="Times New Roman,serif" font-size="9.00">23</text>
</g>
<!-- 24 -->
<g id="node25" class="node"><title>24</title>
<polygon fill="lightgrey" stroke="black" points="1034.5,-100.154 1008.5,-100.154 1008.5,-82.1543 1034.5,-82.1543 1034.5,-100.154"/>
<text text-anchor="middle" x="1021.5" y="-88.9543" font-family="Times New Roman,serif" font-size="9.00">24</text>
</g>
<!-- 25 -->
<g id="node26" class="node"><title>25</title>
<polygon fill="lightgrey" stroke="black" points="1078.5,-100.154 1052.5,-100.154 1052.5,-82.1543 1078.5,-82.1543 1078.5,-100.154"/>
<text text-anchor="middle" x="1065.5" y="-88.9543" font-family="Times New Roman,serif" font-size="9.00">25</text>
</g>
<!-- 26 -->
<g id="node27" class="node"><title>26</title>
<polygon fill="lightgrey" stroke="black" points="1122.5,-100.154 1096.5,-100.154 1096.5,-82.1543 1122.5,-82.1543 1122.5,-100.154"/>
<text text-anchor="middle" x="1109.5" y="-88.9543" font-family="Times New Roman,serif" font-size="9.00">26</text>
</g>
<!-- 27 -->
<g id="node28" class="node"><title>27</title>
<polygon fill="lightgrey" stroke="black" points="1166.5,-100.154 1140.5,-100.154 1140.5,-82.1543 1166.5,-82.1543 1166.5,-100.154"/>
<text text-anchor="middle" x="1153.5" y="-88.9543" font-family="Times New Roman,serif" font-size="9.00">27</text>
</g>
<!-- 28 -->
<g id="node29" class="node"><title>28</title>
<polygon fill="lightgrey" stroke="black" points="1210.5,-100.154 1184.5,-100.154 1184.5,-82.1543 1210.5,-82.1543 1210.5,-100.154"/>
<text text-anchor="middle" x="1197.5" y="-88.9543" font-family="Times New Roman,serif" font-size="9.00">28</text>
</g>
<!-- 29 -->
<g id="node30" class="node"><title>29</title>
<polygon fill="lightgrey" stroke="black" points="1254.5,-100.154 1228.5,-100.154 1228.5,-82.1543 1254.5,-82.1543 1254.5,-100.154"/>
<text text-anchor="middle" x="1241.5" y="-88.9543" font-family="Times New Roman,serif" font-size="9.00">29</text>
</g>
<!-- 30 -->
<g id="node31" class="node"><title>30</title>
<ellipse fill="lightblue" stroke="lightblue" cx="1290.5" cy="-91.1543" rx="18.2703" ry="18.2703"/>
<text text-anchor="middle" x="1290.5" y="-88.9543" font-family="Times New Roman,serif" font-size="9.00">30</text>
</g>
</g>
</svg>
