<?xml version="1.0" encoding="UTF-8" standalone="no"?>
<!DOCTYPE svg PUBLIC "-//W3C//DTD SVG 1.1//EN"
 "http://www.w3.org/Graphics/SVG/1.1/DTD/svg11.dtd">
<!-- Generated by graphviz version 2.38.0 (20140413.2041)
 -->
<!-- Title: %3 Pages: 1 -->
<svg width="1189pt" height="172pt"
 viewBox="0.00 0.00 1188.50 171.54" xmlns="http://www.w3.org/2000/svg" xmlns:xlink="http://www.w3.org/1999/xlink">
<g id="graph0" class="graph" transform="scale(1 1) rotate(0) translate(4 167.539)">
<title>%3</title>
<polygon fill="white" stroke="none" points="-4,4 -4,-167.539 1184.5,-167.539 1184.5,4 -4,4"/>
<!-- 0 -->
<g id="node1" class="node"><title>0</title>
<polygon fill="lightgrey" stroke="black" points="26,-163.539 5,-163.539 5,-145.539 26,-145.539 26,-163.539"/>
<text text-anchor="middle" x="15.5" y="-152.339" font-family="Times New Roman,serif" font-size="9.00">0</text>
</g>
<!-- 1 -->
<g id="node2" class="node"><title>1</title>
<polygon fill="lightgrey" stroke="black" points="65,-163.539 44,-163.539 44,-145.539 65,-145.539 65,-163.539"/>
<text text-anchor="middle" x="54.5" y="-152.339" font-family="Times New Roman,serif" font-size="9.00">1</text>
</g>
<!-- 2 -->
<g id="node3" class="node"><title>2</title>
<polygon fill="lightgrey" stroke="black" points="21,-100.154 0,-100.154 0,-82.1543 21,-82.1543 21,-100.154"/>
<text text-anchor="middle" x="10.5" y="-88.9543" font-family="Times New Roman,serif" font-size="9.00">2</text>
</g>
<!-- 30 -->
<g id="node31" class="node"><title>30</title>
<ellipse fill="lightblue" stroke="lightblue" cx="49.5" cy="-18.3848" rx="18.2703" ry="18.2703"/>
<text text-anchor="middle" x="49.5" y="-16.1848" font-family="Times New Roman,serif" font-size="9.00">30</text>
</g>
<!-- 2&#45;&gt;30 -->
<g id="edge1" class="edge"><title>2&#45;&gt;30</title>
<path fill="none" stroke="green" stroke-width="0.937404" d="M14.9738,-82.0362C20.1108,-72.7145 28.778,-56.987 36.143,-43.6225"/>
<polygon fill="green" stroke="green" stroke-width="0.937404" points="39.2133,-45.3028 40.9744,-34.8553 33.0825,-41.9242 39.2133,-45.3028"/>
</g>
<!-- 3 -->
<g id="node4" class="node"><title>3</title>
<polygon fill="lightgrey" stroke="black" points="149,-163.539 128,-163.539 128,-145.539 149,-145.539 149,-163.539"/>
<text text-anchor="middle" x="138.5" y="-152.339" font-family="Times New Roman,serif" font-size="9.00">3</text>
</g>
<!-- 4 -->
<g id="node5" class="node"><title>4</title>
<polygon fill="lightgrey" stroke="black" points="188,-163.539 167,-163.539 167,-145.539 188,-145.539 188,-163.539"/>
<text text-anchor="middle" x="177.5" y="-152.339" font-family="Times New Roman,serif" font-size="9.00">4</text>
</g>
<!-- 5 -->
<g id="node6" class="node"><title>5</title>
<polygon fill="lightgrey" stroke="black" points="227,-163.539 206,-163.539 206,-145.539 227,-145.539 227,-163.539"/>
<text text-anchor="middle" x="216.5" y="-152.339" font-family="Times New Roman,serif" font-size="9.00">5</text>
</g>
<!-- 6 -->
<g id="node7" class="node"><title>6</title>
<polygon fill="lightgrey" stroke="black" points="266,-163.539 245,-163.539 245,-145.539 266,-145.539 266,-163.539"/>
<text text-anchor="middle" x="255.5" y="-152.339" font-family="Times New Roman,serif" font-size="9.00">6</text>
</g>
<!-- 7 -->
<g id="node8" class="node"><title>7</title>
<polygon fill="lightgrey" stroke="black" points="305,-163.539 284,-163.539 284,-145.539 305,-145.539 305,-163.539"/>
<text text-anchor="middle" x="294.5" y="-152.339" font-family="Times New Roman,serif" font-size="9.00">7</text>
</g>
<!-- 8 -->
<g id="node9" class="node"><title>8</title>
<polygon fill="lightgrey" stroke="black" points="60,-100.154 39,-100.154 39,-82.1543 60,-82.1543 60,-100.154"/>
<text text-anchor="middle" x="49.5" y="-88.9543" font-family="Times New Roman,serif" font-size="9.00">8</text>
</g>
<!-- 8&#45;&gt;30 -->
<g id="edge3" class="edge"><title>8&#45;&gt;30</title>
<path fill="none" stroke="green" stroke-width="0.760749" d="M49.5,-82.0362C49.5,-73.4701 49.5,-59.4947 49.5,-46.9144"/>
<polygon fill="green" stroke="green" stroke-width="0.760749" points="53.0001,-46.8244 49.5,-36.8245 46.0001,-46.8245 53.0001,-46.8244"/>
</g>
<!-- 9 -->
<g id="node10" class="node"><title>9</title>
<polygon fill="lightgrey" stroke="black" points="344,-163.539 323,-163.539 323,-145.539 344,-145.539 344,-163.539"/>
<text text-anchor="middle" x="333.5" y="-152.339" font-family="Times New Roman,serif" font-size="9.00">9</text>
</g>
<!-- 10 -->
<g id="node11" class="node"><title>10</title>
<polygon fill="lightgrey" stroke="black" points="388.5,-163.539 362.5,-163.539 362.5,-145.539 388.5,-145.539 388.5,-163.539"/>
<text text-anchor="middle" x="375.5" y="-152.339" font-family="Times New Roman,serif" font-size="9.00">10</text>
</g>
<!-- 11 -->
<g id="node12" class="node"><title>11</title>
<polygon fill="lightgrey" stroke="black" points="432.5,-163.539 406.5,-163.539 406.5,-145.539 432.5,-145.539 432.5,-163.539"/>
<text text-anchor="middle" x="419.5" y="-152.339" font-family="Times New Roman,serif" font-size="9.00">11</text>
</g>
<!-- 12 -->
<g id="node13" class="node"><title>12</title>
<polygon fill="lightgrey" stroke="black" points="476.5,-163.539 450.5,-163.539 450.5,-145.539 476.5,-145.539 476.5,-163.539"/>
<text text-anchor="middle" x="463.5" y="-152.339" font-family="Times New Roman,serif" font-size="9.00">12</text>
</g>
<!-- 13 -->
<g id="node14" class="node"><title>13</title>
<polygon fill="lightgrey" stroke="black" points="520.5,-163.539 494.5,-163.539 494.5,-145.539 520.5,-145.539 520.5,-163.539"/>
<text text-anchor="middle" x="507.5" y="-152.339" font-family="Times New Roman,serif" font-size="9.00">13</text>
</g>
<!-- 14 -->
<g id="node15" class="node"><title>14</title>
<polygon fill="lightgrey" stroke="black" points="564.5,-163.539 538.5,-163.539 538.5,-145.539 564.5,-145.539 564.5,-163.539"/>
<text text-anchor="middle" x="551.5" y="-152.339" font-family="Times New Roman,serif" font-size="9.00">14</text>
</g>
<!-- 15 -->
<g id="node16" class="node"><title>15</title>
<polygon fill="lightgrey" stroke="black" points="608.5,-163.539 582.5,-163.539 582.5,-145.539 608.5,-145.539 608.5,-163.539"/>
<text text-anchor="middle" x="595.5" y="-152.339" font-family="Times New Roman,serif" font-size="9.00">15</text>
</g>
<!-- 16 -->
<g id="node17" class="node"><title>16</title>
<polygon fill="lightgrey" stroke="black" points="652.5,-163.539 626.5,-163.539 626.5,-145.539 652.5,-145.539 652.5,-163.539"/>
<text text-anchor="middle" x="639.5" y="-152.339" font-family="Times New Roman,serif" font-size="9.00">16</text>
</g>
<!-- 17 -->
<g id="node18" class="node"><title>17</title>
<polygon fill="lightgrey" stroke="black" points="109.5,-163.539 83.5,-163.539 83.5,-145.539 109.5,-145.539 109.5,-163.539"/>
<text text-anchor="middle" x="96.5" y="-152.339" font-family="Times New Roman,serif" font-size="9.00">17</text>
</g>
<!-- 31 -->
<g id="node32" class="node"><title>31</title>
<ellipse fill="none" stroke="black" cx="96.5" cy="-91.1543" rx="18.2703" ry="18.2703"/>
<text text-anchor="middle" x="96.5" y="-88.9543" font-family="Times New Roman,serif" font-size="9.00">31</text>
</g>
<!-- 17&#45;&gt;31 -->
<g id="edge2" class="edge"><title>17&#45;&gt;31</title>
<path fill="none" stroke="green" stroke-width="0.224916" d="M96.5,-145.514C96.5,-138.95 96.5,-129.261 96.5,-119.933"/>
<polygon fill="green" stroke="green" stroke-width="0.224916" points="100,-119.742 96.5,-109.742 93.0001,-119.742 100,-119.742"/>
</g>
<!-- 18 -->
<g id="node19" class="node"><title>18</title>
<polygon fill="lightgrey" stroke="black" points="696.5,-163.539 670.5,-163.539 670.5,-145.539 696.5,-145.539 696.5,-163.539"/>
<text text-anchor="middle" x="683.5" y="-152.339" font-family="Times New Roman,serif" font-size="9.00">18</text>
</g>
<!-- 19 -->
<g id="node20" class="node"><title>19</title>
<polygon fill="lightgrey" stroke="black" points="740.5,-163.539 714.5,-163.539 714.5,-145.539 740.5,-145.539 740.5,-163.539"/>
<text text-anchor="middle" x="727.5" y="-152.339" font-family="Times New Roman,serif" font-size="9.00">19</text>
</g>
<!-- 20 -->
<g id="node21" class="node"><title>20</title>
<polygon fill="lightgrey" stroke="black" points="784.5,-163.539 758.5,-163.539 758.5,-145.539 784.5,-145.539 784.5,-163.539"/>
<text text-anchor="middle" x="771.5" y="-152.339" font-family="Times New Roman,serif" font-size="9.00">20</text>
</g>
<!-- 21 -->
<g id="node22" class="node"><title>21</title>
<polygon fill="lightgrey" stroke="black" points="828.5,-163.539 802.5,-163.539 802.5,-145.539 828.5,-145.539 828.5,-163.539"/>
<text text-anchor="middle" x="815.5" y="-152.339" font-family="Times New Roman,serif" font-size="9.00">21</text>
</g>
<!-- 22 -->
<g id="node23" class="node"><title>22</title>
<polygon fill="lightgrey" stroke="black" points="872.5,-163.539 846.5,-163.539 846.5,-145.539 872.5,-145.539 872.5,-163.539"/>
<text text-anchor="middle" x="859.5" y="-152.339" font-family="Times New Roman,serif" font-size="9.00">22</text>
</g>
<!-- 23 -->
<g id="node24" class="node"><title>23</title>
<polygon fill="lightgrey" stroke="black" points="916.5,-163.539 890.5,-163.539 890.5,-145.539 916.5,-145.539 916.5,-163.539"/>
<text text-anchor="middle" x="903.5" y="-152.339" font-family="Times New Roman,serif" font-size="9.00">23</text>
</g>
<!-- 24 -->
<g id="node25" class="node"><title>24</title>
<polygon fill="lightgrey" stroke="black" points="960.5,-163.539 934.5,-163.539 934.5,-145.539 960.5,-145.539 960.5,-163.539"/>
<text text-anchor="middle" x="947.5" y="-152.339" font-family="Times New Roman,serif" font-size="9.00">24</text>
</g>
<!-- 25 -->
<g id="node26" class="node"><title>25</title>
<polygon fill="lightgrey" stroke="black" points="1004.5,-163.539 978.5,-163.539 978.5,-145.539 1004.5,-145.539 1004.5,-163.539"/>
<text text-anchor="middle" x="991.5" y="-152.339" font-family="Times New Roman,serif" font-size="9.00">25</text>
</g>
<!-- 26 -->
<g id="node27" class="node"><title>26</title>
<polygon fill="lightgrey" stroke="black" points="1048.5,-163.539 1022.5,-163.539 1022.5,-145.539 1048.5,-145.539 1048.5,-163.539"/>
<text text-anchor="middle" x="1035.5" y="-152.339" font-family="Times New Roman,serif" font-size="9.00">26</text>
</g>
<!-- 27 -->
<g id="node28" class="node"><title>27</title>
<polygon fill="lightgrey" stroke="black" points="1092.5,-163.539 1066.5,-163.539 1066.5,-145.539 1092.5,-145.539 1092.5,-163.539"/>
<text text-anchor="middle" x="1079.5" y="-152.339" font-family="Times New Roman,serif" font-size="9.00">27</text>
</g>
<!-- 28 -->
<g id="node29" class="node"><title>28</title>
<polygon fill="lightgrey" stroke="black" points="1136.5,-163.539 1110.5,-163.539 1110.5,-145.539 1136.5,-145.539 1136.5,-163.539"/>
<text text-anchor="middle" x="1123.5" y="-152.339" font-family="Times New Roman,serif" font-size="9.00">28</text>
</g>
<!-- 29 -->
<g id="node30" class="node"><title>29</title>
<polygon fill="lightgrey" stroke="black" points="1180.5,-163.539 1154.5,-163.539 1154.5,-145.539 1180.5,-145.539 1180.5,-163.539"/>
<text text-anchor="middle" x="1167.5" y="-152.339" font-family="Times New Roman,serif" font-size="9.00">29</text>
</g>
<!-- 31&#45;&gt;30 -->
<g id="edge4" class="edge"><title>31&#45;&gt;30</title>
<path fill="none" stroke="red" stroke-width="0.587168" d="M86.7616,-75.4908C80.4597,-66.0019 72.1193,-53.4435 64.9272,-42.6141"/>
<polygon fill="red" stroke="red" stroke-width="0.587168" points="67.6739,-40.4234 59.226,-34.0295 61.8428,-44.2961 67.6739,-40.4234"/>
</g>
</g>
</svg>
