<?xml version="1.0" encoding="UTF-8" standalone="no"?>
<!DOCTYPE svg PUBLIC "-//W3C//DTD SVG 1.1//EN"
 "http://www.w3.org/Graphics/SVG/1.1/DTD/svg11.dtd">
<!-- Generated by graphviz version 2.38.0 (20140413.2041)
 -->
<!-- Title: %3 Pages: 1 -->
<svg width="1711pt" height="118pt"
 viewBox="0.00 0.00 1710.77 117.54" xmlns="http://www.w3.org/2000/svg" xmlns:xlink="http://www.w3.org/1999/xlink">
<g id="graph0" class="graph" transform="scale(1 1) rotate(0) translate(4 113.539)">
<title>%3</title>
<polygon fill="white" stroke="none" points="-4,4 -4,-113.539 1706.77,-113.539 1706.77,4 -4,4"/>
<!-- 0 -->
<g id="node1" class="node"><title>0</title>
<polygon fill="lightgrey" stroke="black" points="270.885,-100.154 249.885,-100.154 249.885,-82.1543 270.885,-82.1543 270.885,-100.154"/>
<text text-anchor="middle" x="260.385" y="-88.9543" font-family="Times New Roman,serif" font-size="9.00">0</text>
</g>
<!-- 33 -->
<g id="node34" class="node"><title>33</title>
<ellipse fill="lightblue" stroke="lightblue" cx="238.385" cy="-18.3848" rx="18.2703" ry="18.2703"/>
<text text-anchor="middle" x="238.385" y="-16.1848" font-family="Times New Roman,serif" font-size="9.00">33</text>
</g>
<!-- 0&#45;&gt;33 -->
<g id="edge24" class="edge"><title>0&#45;&gt;33</title>
<path fill="none" stroke="red" stroke-width="0.74623" d="M257.861,-82.0362C255.136,-73.2699 250.65,-58.8384 246.669,-46.0345"/>
<polygon fill="red" stroke="red" stroke-width="0.74623" points="249.94,-44.7646 243.629,-36.2544 243.255,-46.8426 249.94,-44.7646"/>
</g>
<!-- 37 -->
<g id="node38" class="node"><title>37</title>
<ellipse fill="lightblue" stroke="lightblue" cx="293.385" cy="-18.3848" rx="18.2703" ry="18.2703"/>
<text text-anchor="middle" x="293.385" y="-16.1848" font-family="Times New Roman,serif" font-size="9.00">37</text>
</g>
<!-- 0&#45;&gt;37 -->
<g id="edge2" class="edge"><title>0&#45;&gt;37</title>
<path fill="none" stroke="red" stroke-width="0.203352" d="M264.17,-82.0362C268.421,-72.921 275.527,-57.6807 281.667,-44.514"/>
<polygon fill="red" stroke="red" stroke-width="0.203352" points="284.858,-45.9526 285.912,-35.4103 278.514,-42.9943 284.858,-45.9526"/>
</g>
<!-- 1 -->
<g id="node2" class="node"><title>1</title>
<polygon fill="lightgrey" stroke="black" points="665.885,-100.154 644.885,-100.154 644.885,-82.1543 665.885,-82.1543 665.885,-100.154"/>
<text text-anchor="middle" x="655.385" y="-88.9543" font-family="Times New Roman,serif" font-size="9.00">1</text>
</g>
<!-- 2 -->
<g id="node3" class="node"><title>2</title>
<polygon fill="lightgrey" stroke="black" points="704.885,-100.154 683.885,-100.154 683.885,-82.1543 704.885,-82.1543 704.885,-100.154"/>
<text text-anchor="middle" x="694.385" y="-88.9543" font-family="Times New Roman,serif" font-size="9.00">2</text>
</g>
<!-- 3 -->
<g id="node4" class="node"><title>3</title>
<polygon fill="lightgrey" stroke="black" points="743.885,-100.154 722.885,-100.154 722.885,-82.1543 743.885,-82.1543 743.885,-100.154"/>
<text text-anchor="middle" x="733.385" y="-88.9543" font-family="Times New Roman,serif" font-size="9.00">3</text>
</g>
<!-- 4 -->
<g id="node5" class="node"><title>4</title>
<polygon fill="lightgrey" stroke="black" points="782.885,-100.154 761.885,-100.154 761.885,-82.1543 782.885,-82.1543 782.885,-100.154"/>
<text text-anchor="middle" x="772.385" y="-88.9543" font-family="Times New Roman,serif" font-size="9.00">4</text>
</g>
<!-- 5 -->
<g id="node6" class="node"><title>5</title>
<polygon fill="lightgrey" stroke="black" points="821.885,-100.154 800.885,-100.154 800.885,-82.1543 821.885,-82.1543 821.885,-100.154"/>
<text text-anchor="middle" x="811.385" y="-88.9543" font-family="Times New Roman,serif" font-size="9.00">5</text>
</g>
<!-- 6 -->
<g id="node7" class="node"><title>6</title>
<polygon fill="lightgrey" stroke="black" points="468.885,-100.154 447.885,-100.154 447.885,-82.1543 468.885,-82.1543 468.885,-100.154"/>
<text text-anchor="middle" x="458.385" y="-88.9543" font-family="Times New Roman,serif" font-size="9.00">6</text>
</g>
<!-- 44 -->
<g id="node45" class="node"><title>44</title>
<ellipse fill="lightblue" stroke="lightblue" cx="458.385" cy="-18.3848" rx="18.2703" ry="18.2703"/>
<text text-anchor="middle" x="458.385" y="-16.1848" font-family="Times New Roman,serif" font-size="9.00">44</text>
</g>
<!-- 6&#45;&gt;44 -->
<g id="edge17" class="edge"><title>6&#45;&gt;44</title>
<path fill="none" stroke="green" stroke-width="0.539127" d="M458.385,-82.0362C458.385,-73.4701 458.385,-59.4947 458.385,-46.9144"/>
<polygon fill="green" stroke="green" stroke-width="0.539127" points="461.885,-46.8244 458.385,-36.8245 454.885,-46.8245 461.885,-46.8244"/>
</g>
<!-- 7 -->
<g id="node8" class="node"><title>7</title>
<polygon fill="lightgrey" stroke="black" points="860.885,-100.154 839.885,-100.154 839.885,-82.1543 860.885,-82.1543 860.885,-100.154"/>
<text text-anchor="middle" x="850.385" y="-88.9543" font-family="Times New Roman,serif" font-size="9.00">7</text>
</g>
<!-- 8 -->
<g id="node9" class="node"><title>8</title>
<polygon fill="lightgrey" stroke="black" points="899.885,-100.154 878.885,-100.154 878.885,-82.1543 899.885,-82.1543 899.885,-100.154"/>
<text text-anchor="middle" x="889.385" y="-88.9543" font-family="Times New Roman,serif" font-size="9.00">8</text>
</g>
<!-- 9 -->
<g id="node10" class="node"><title>9</title>
<polygon fill="lightgrey" stroke="black" points="309.885,-100.154 288.885,-100.154 288.885,-82.1543 309.885,-82.1543 309.885,-100.154"/>
<text text-anchor="middle" x="299.385" y="-88.9543" font-family="Times New Roman,serif" font-size="9.00">9</text>
</g>
<!-- 9&#45;&gt;37 -->
<g id="edge6" class="edge"><title>9&#45;&gt;37</title>
<path fill="none" stroke="red" stroke-width="0.829878" d="M298.697,-82.0362C297.97,-73.4701 296.785,-59.4947 295.719,-46.9144"/>
<polygon fill="red" stroke="red" stroke-width="0.829878" points="299.196,-46.493 294.863,-36.8245 292.221,-47.0844 299.196,-46.493"/>
</g>
<!-- 10 -->
<g id="node11" class="node"><title>10</title>
<polygon fill="lightgrey" stroke="black" points="944.385,-100.154 918.385,-100.154 918.385,-82.1543 944.385,-82.1543 944.385,-100.154"/>
<text text-anchor="middle" x="931.385" y="-88.9543" font-family="Times New Roman,serif" font-size="9.00">10</text>
</g>
<!-- 11 -->
<g id="node12" class="node"><title>11</title>
<polygon fill="lightgrey" stroke="black" points="519.385,-100.154 493.385,-100.154 493.385,-82.1543 519.385,-82.1543 519.385,-100.154"/>
<text text-anchor="middle" x="506.385" y="-88.9543" font-family="Times New Roman,serif" font-size="9.00">11</text>
</g>
<!-- 34 -->
<g id="node35" class="node"><title>34</title>
<ellipse fill="lightblue" stroke="lightblue" cx="513.385" cy="-18.3848" rx="18.2703" ry="18.2703"/>
<text text-anchor="middle" x="513.385" y="-16.1848" font-family="Times New Roman,serif" font-size="9.00">34</text>
</g>
<!-- 11&#45;&gt;34 -->
<g id="edge12" class="edge"><title>11&#45;&gt;34</title>
<path fill="none" stroke="green" stroke-width="0.454001" d="M507.188,-82.0362C508.035,-73.4701 509.417,-59.4947 510.662,-46.9144"/>
<polygon fill="green" stroke="green" stroke-width="0.454001" points="514.158,-47.1204 511.66,-36.8245 507.192,-46.4314 514.158,-47.1204"/>
</g>
<!-- 11&#45;&gt;44 -->
<g id="edge26" class="edge"><title>11&#45;&gt;44</title>
<path fill="none" stroke="red" stroke-width="0.432989" d="M500.879,-82.0362C494.374,-72.4462 483.271,-56.0763 474.046,-42.4744"/>
<polygon fill="red" stroke="red" stroke-width="0.432989" points="476.831,-40.3462 468.321,-34.0349 471.038,-44.2755 476.831,-40.3462"/>
</g>
<!-- 12 -->
<g id="node13" class="node"><title>12</title>
<polygon fill="lightgrey" stroke="black" points="988.385,-100.154 962.385,-100.154 962.385,-82.1543 988.385,-82.1543 988.385,-100.154"/>
<text text-anchor="middle" x="975.385" y="-88.9543" font-family="Times New Roman,serif" font-size="9.00">12</text>
</g>
<!-- 13 -->
<g id="node14" class="node"><title>13</title>
<polygon fill="lightgrey" stroke="black" points="91.3848,-100.154 65.3848,-100.154 65.3848,-82.1543 91.3848,-82.1543 91.3848,-100.154"/>
<text text-anchor="middle" x="78.3848" y="-88.9543" font-family="Times New Roman,serif" font-size="9.00">13</text>
</g>
<!-- 13&#45;&gt;33 -->
<g id="edge1" class="edge"><title>13&#45;&gt;33</title>
<path fill="none" stroke="red" stroke-width="0.2875" d="M90.0451,-82.1053C94.9503,-78.9358 100.805,-75.4265 106.385,-72.7696 150.546,-51.7393 166.223,-57.7998 210.385,-36.7696 211.773,-36.1084 213.179,-35.3945 214.582,-34.6461"/>
<polygon fill="red" stroke="red" stroke-width="0.2875" points="216.726,-37.4489 223.619,-29.403 213.213,-31.3942 216.726,-37.4489"/>
</g>
<!-- 39 -->
<g id="node40" class="node"><title>39</title>
<ellipse fill="lightblue" stroke="lightblue" cx="18.3848" cy="-18.3848" rx="18.2703" ry="18.2703"/>
<text text-anchor="middle" x="18.3848" y="-16.1848" font-family="Times New Roman,serif" font-size="9.00">39</text>
</g>
<!-- 13&#45;&gt;39 -->
<g id="edge22" class="edge"><title>13&#45;&gt;39</title>
<path fill="none" stroke="green" stroke-width="0.482937" d="M71.502,-82.0362C63.0107,-72.0207 48.2499,-54.6104 36.4404,-40.6812"/>
<polygon fill="green" stroke="green" stroke-width="0.482937" points="39.0344,-38.3286 29.8979,-32.9644 33.6951,-42.8554 39.0344,-38.3286"/>
</g>
<!-- 41 -->
<g id="node42" class="node"><title>41</title>
<ellipse fill="lightblue" stroke="lightblue" cx="73.3848" cy="-18.3848" rx="18.2703" ry="18.2703"/>
<text text-anchor="middle" x="73.3848" y="-16.1848" font-family="Times New Roman,serif" font-size="9.00">41</text>
</g>
<!-- 13&#45;&gt;41 -->
<g id="edge8" class="edge"><title>13&#45;&gt;41</title>
<path fill="none" stroke="green" stroke-width="0.425427" d="M77.8112,-82.0362C77.206,-73.4701 76.2186,-59.4947 75.3298,-46.9144"/>
<polygon fill="green" stroke="green" stroke-width="0.425427" points="78.8131,-46.5529 74.6169,-36.8245 71.8305,-47.0463 78.8131,-46.5529"/>
</g>
<!-- 46 -->
<g id="node47" class="node"><title>46</title>
<ellipse fill="lightblue" stroke="lightblue" cx="128.385" cy="-18.3848" rx="18.2703" ry="18.2703"/>
<text text-anchor="middle" x="128.385" y="-16.1848" font-family="Times New Roman,serif" font-size="9.00">46</text>
</g>
<!-- 13&#45;&gt;46 -->
<g id="edge3" class="edge"><title>13&#45;&gt;46</title>
<path fill="none" stroke="green" stroke-width="0.291236" d="M84.1204,-82.0362C90.938,-72.3866 102.605,-55.8727 112.25,-42.2213"/>
<polygon fill="green" stroke="green" stroke-width="0.291236" points="115.313,-43.9515 118.225,-33.7647 109.596,-39.9123 115.313,-43.9515"/>
</g>
<!-- 14 -->
<g id="node15" class="node"><title>14</title>
<polygon fill="lightgrey" stroke="black" points="572.385,-100.154 546.385,-100.154 546.385,-82.1543 572.385,-82.1543 572.385,-100.154"/>
<text text-anchor="middle" x="559.385" y="-88.9543" font-family="Times New Roman,serif" font-size="9.00">14</text>
</g>
<!-- 14&#45;&gt;34 -->
<g id="edge18" class="edge"><title>14&#45;&gt;34</title>
<path fill="none" stroke="red" stroke-width="0.724885" d="M554.108,-82.0362C547.913,-72.5057 537.366,-56.2794 528.558,-42.7282"/>
<polygon fill="red" stroke="red" stroke-width="0.724885" points="531.468,-40.7837 523.084,-34.3067 525.599,-44.5986 531.468,-40.7837"/>
</g>
<!-- 42 -->
<g id="node43" class="node"><title>42</title>
<ellipse fill="lightblue" stroke="lightblue" cx="623.385" cy="-18.3848" rx="18.2703" ry="18.2703"/>
<text text-anchor="middle" x="623.385" y="-16.1848" font-family="Times New Roman,serif" font-size="9.00">42</text>
</g>
<!-- 14&#45;&gt;42 -->
<g id="edge10" class="edge"><title>14&#45;&gt;42</title>
<path fill="none" stroke="red" stroke-width="1.56291" d="M566.726,-82.0362C575.839,-71.96 591.72,-54.3991 604.354,-40.4284"/>
<polygon fill="red" stroke="red" stroke-width="1.56291" points="607.231,-42.4657 611.342,-32.7012 602.039,-37.7705 607.231,-42.4657"/>
</g>
<!-- 43 -->
<g id="node44" class="node"><title>43</title>
<ellipse fill="lightblue" stroke="lightblue" cx="568.385" cy="-18.3848" rx="18.2703" ry="18.2703"/>
<text text-anchor="middle" x="568.385" y="-16.1848" font-family="Times New Roman,serif" font-size="9.00">43</text>
</g>
<!-- 14&#45;&gt;43 -->
<g id="edge19" class="edge"><title>14&#45;&gt;43</title>
<path fill="none" stroke="red" stroke-width="0.886823" d="M560.417,-82.0362C561.507,-73.4701 563.284,-59.4947 564.884,-46.9144"/>
<polygon fill="red" stroke="red" stroke-width="0.886823" points="568.377,-47.1861 566.167,-36.8245 561.433,-46.303 568.377,-47.1861"/>
</g>
<!-- 47 -->
<g id="node48" class="node"><title>47</title>
<ellipse fill="lightblue" stroke="lightblue" cx="403.385" cy="-18.3848" rx="18.2703" ry="18.2703"/>
<text text-anchor="middle" x="403.385" y="-16.1848" font-family="Times New Roman,serif" font-size="9.00">47</text>
</g>
<!-- 14&#45;&gt;47 -->
<g id="edge15" class="edge"><title>14&#45;&gt;47</title>
<path fill="none" stroke="red" stroke-width="0.942807" d="M546.346,-82.2464C540.896,-79.0985 534.433,-75.5672 528.385,-72.7696 486.649,-53.4648 472.681,-56.9989 431.385,-36.7696 430.004,-36.0931 428.604,-35.367 427.205,-34.6093"/>
<polygon fill="red" stroke="red" stroke-width="0.942807" points="428.582,-31.3602 418.182,-29.3381 425.051,-37.4044 428.582,-31.3602"/>
</g>
<!-- 15 -->
<g id="node16" class="node"><title>15</title>
<polygon fill="lightgrey" stroke="black" points="1032.38,-100.154 1006.38,-100.154 1006.38,-82.1543 1032.38,-82.1543 1032.38,-100.154"/>
<text text-anchor="middle" x="1019.38" y="-88.9543" font-family="Times New Roman,serif" font-size="9.00">15</text>
</g>
<!-- 16 -->
<g id="node17" class="node"><title>16</title>
<polygon fill="lightgrey" stroke="black" points="1076.38,-100.154 1050.38,-100.154 1050.38,-82.1543 1076.38,-82.1543 1076.38,-100.154"/>
<text text-anchor="middle" x="1063.38" y="-88.9543" font-family="Times New Roman,serif" font-size="9.00">16</text>
</g>
<!-- 17 -->
<g id="node18" class="node"><title>17</title>
<polygon fill="lightgrey" stroke="black" points="1120.38,-100.154 1094.38,-100.154 1094.38,-82.1543 1120.38,-82.1543 1120.38,-100.154"/>
<text text-anchor="middle" x="1107.38" y="-88.9543" font-family="Times New Roman,serif" font-size="9.00">17</text>
</g>
<!-- 18 -->
<g id="node19" class="node"><title>18</title>
<polygon fill="lightgrey" stroke="black" points="416.385,-100.154 390.385,-100.154 390.385,-82.1543 416.385,-82.1543 416.385,-100.154"/>
<text text-anchor="middle" x="403.385" y="-88.9543" font-family="Times New Roman,serif" font-size="9.00">18</text>
</g>
<!-- 18&#45;&gt;47 -->
<g id="edge25" class="edge"><title>18&#45;&gt;47</title>
<path fill="none" stroke="green" stroke-width="0.247588" d="M403.385,-82.0362C403.385,-73.4701 403.385,-59.4947 403.385,-46.9144"/>
<polygon fill="green" stroke="green" stroke-width="0.247588" points="406.885,-46.8244 403.385,-36.8245 399.885,-46.8245 406.885,-46.8244"/>
</g>
<!-- 19 -->
<g id="node20" class="node"><title>19</title>
<polygon fill="lightgrey" stroke="black" points="231.385,-100.154 205.385,-100.154 205.385,-82.1543 231.385,-82.1543 231.385,-100.154"/>
<text text-anchor="middle" x="218.385" y="-88.9543" font-family="Times New Roman,serif" font-size="9.00">19</text>
</g>
<!-- 19&#45;&gt;33 -->
<g id="edge9" class="edge"><title>19&#45;&gt;33</title>
<path fill="none" stroke="green" stroke-width="1.60173" d="M220.679,-82.0362C223.156,-73.2699 227.235,-58.8384 230.853,-46.0345"/>
<polygon fill="green" stroke="green" stroke-width="1.60173" points="234.266,-46.8293 233.617,-36.2544 227.53,-44.9256 234.266,-46.8293"/>
</g>
<!-- 36 -->
<g id="node37" class="node"><title>36</title>
<ellipse fill="lightblue" stroke="lightblue" cx="183.385" cy="-18.3848" rx="18.2703" ry="18.2703"/>
<text text-anchor="middle" x="183.385" y="-16.1848" font-family="Times New Roman,serif" font-size="9.00">36</text>
</g>
<!-- 19&#45;&gt;36 -->
<g id="edge4" class="edge"><title>19&#45;&gt;36</title>
<path fill="none" stroke="red" stroke-width="0.469275" d="M214.37,-82.0362C209.833,-72.8626 202.228,-57.4851 195.688,-44.2611"/>
<polygon fill="red" stroke="red" stroke-width="0.469275" points="198.743,-42.5441 191.173,-35.132 192.469,-45.6473 198.743,-42.5441"/>
</g>
<!-- 19&#45;&gt;47 -->
<g id="edge11" class="edge"><title>19&#45;&gt;47</title>
<path fill="none" stroke="green" stroke-width="0.61492" d="M227.229,-81.8036C231.035,-78.5878 235.685,-75.1256 240.385,-72.7696 295.897,-44.942 318.388,-61.4147 375.385,-36.7696 376.796,-36.1592 378.22,-35.4855 379.638,-34.7683"/>
<polygon fill="green" stroke="green" stroke-width="0.61492" points="381.746,-37.5966 388.717,-29.6182 378.292,-31.5079 381.746,-37.5966"/>
</g>
<!-- 20 -->
<g id="node21" class="node"><title>20</title>
<polygon fill="lightgrey" stroke="black" points="1164.38,-100.154 1138.38,-100.154 1138.38,-82.1543 1164.38,-82.1543 1164.38,-100.154"/>
<text text-anchor="middle" x="1151.38" y="-88.9543" font-family="Times New Roman,serif" font-size="9.00">20</text>
</g>
<!-- 21 -->
<g id="node22" class="node"><title>21</title>
<polygon fill="lightgrey" stroke="black" points="1208.38,-100.154 1182.38,-100.154 1182.38,-82.1543 1208.38,-82.1543 1208.38,-100.154"/>
<text text-anchor="middle" x="1195.38" y="-88.9543" font-family="Times New Roman,serif" font-size="9.00">21</text>
</g>
<!-- 22 -->
<g id="node23" class="node"><title>22</title>
<polygon fill="lightgrey" stroke="black" points="1252.38,-100.154 1226.38,-100.154 1226.38,-82.1543 1252.38,-82.1543 1252.38,-100.154"/>
<text text-anchor="middle" x="1239.38" y="-88.9543" font-family="Times New Roman,serif" font-size="9.00">22</text>
</g>
<!-- 23 -->
<g id="node24" class="node"><title>23</title>
<polygon fill="lightgrey" stroke="black" points="1296.38,-100.154 1270.38,-100.154 1270.38,-82.1543 1296.38,-82.1543 1296.38,-100.154"/>
<text text-anchor="middle" x="1283.38" y="-88.9543" font-family="Times New Roman,serif" font-size="9.00">23</text>
</g>
<!-- 32 -->
<g id="node33" class="node"><title>32</title>
<ellipse fill="lightblue" stroke="lightblue" cx="1255.38" cy="-18.3848" rx="18.2703" ry="18.2703"/>
<text text-anchor="middle" x="1255.38" y="-16.1848" font-family="Times New Roman,serif" font-size="9.00">32</text>
</g>
<!-- 23&#45;&gt;32 -->
<g id="edge5" class="edge"><title>23&#45;&gt;32</title>
<path fill="none" stroke="green" stroke-width="0.593211" d="M1280.17,-82.0362C1276.62,-73.0673 1270.73,-58.1685 1265.58,-45.1498"/>
<polygon fill="green" stroke="green" stroke-width="0.593211" points="1268.77,-43.7011 1261.84,-35.6901 1262.26,-46.2765 1268.77,-43.7011"/>
</g>
<!-- 40 -->
<g id="node41" class="node"><title>40</title>
<ellipse fill="lightblue" stroke="lightblue" cx="1310.38" cy="-18.3848" rx="18.2703" ry="18.2703"/>
<text text-anchor="middle" x="1310.38" y="-16.1848" font-family="Times New Roman,serif" font-size="9.00">40</text>
</g>
<!-- 23&#45;&gt;40 -->
<g id="edge13" class="edge"><title>23&#45;&gt;40</title>
<path fill="none" stroke="green" stroke-width="1.12169" d="M1286.48,-82.0362C1289.9,-73.0673 1295.59,-58.1685 1300.55,-45.1498"/>
<polygon fill="green" stroke="green" stroke-width="1.12169" points="1303.87,-46.2809 1304.16,-35.6901 1297.33,-43.7856 1303.87,-46.2809"/>
</g>
<!-- 24 -->
<g id="node25" class="node"><title>24</title>
<polygon fill="lightgrey" stroke="black" points="361.385,-100.154 335.385,-100.154 335.385,-82.1543 361.385,-82.1543 361.385,-100.154"/>
<text text-anchor="middle" x="348.385" y="-88.9543" font-family="Times New Roman,serif" font-size="9.00">24</text>
</g>
<!-- 24&#45;&gt;33 -->
<g id="edge7" class="edge"><title>24&#45;&gt;33</title>
<path fill="none" stroke="green" stroke-width="1.45008" d="M335.766,-82.0362C317.911,-70.5486 284.934,-49.3326 262.344,-34.7993"/>
<polygon fill="green" stroke="green" stroke-width="1.45008" points="263.969,-31.6828 253.665,-29.2157 260.182,-37.5697 263.969,-31.6828"/>
</g>
<!-- 24&#45;&gt;44 -->
<g id="edge23" class="edge"><title>24&#45;&gt;44</title>
<path fill="none" stroke="red" stroke-width="0.22857" d="M361.003,-82.0362C378.859,-70.5486 411.836,-49.3326 434.425,-34.7993"/>
<polygon fill="red" stroke="red" stroke-width="0.22857" points="436.588,-37.5697 443.104,-29.2157 432.801,-31.6828 436.588,-37.5697"/>
</g>
<!-- 48 -->
<g id="node49" class="node"><title>48</title>
<ellipse fill="lightblue" stroke="lightblue" cx="348.385" cy="-18.3848" rx="18.2703" ry="18.2703"/>
<text text-anchor="middle" x="348.385" y="-16.1848" font-family="Times New Roman,serif" font-size="9.00">48</text>
</g>
<!-- 24&#45;&gt;48 -->
<g id="edge20" class="edge"><title>24&#45;&gt;48</title>
<path fill="none" stroke="green" stroke-width="0.975423" d="M348.385,-82.0362C348.385,-73.4701 348.385,-59.4947 348.385,-46.9144"/>
<polygon fill="green" stroke="green" stroke-width="0.975423" points="351.885,-46.8244 348.385,-36.8245 344.885,-46.8245 351.885,-46.8244"/>
</g>
<!-- 25 -->
<g id="node26" class="node"><title>25</title>
<polygon fill="lightgrey" stroke="black" points="1340.38,-100.154 1314.38,-100.154 1314.38,-82.1543 1340.38,-82.1543 1340.38,-100.154"/>
<text text-anchor="middle" x="1327.38" y="-88.9543" font-family="Times New Roman,serif" font-size="9.00">25</text>
</g>
<!-- 26 -->
<g id="node27" class="node"><title>26</title>
<polygon fill="lightgrey" stroke="black" points="1384.38,-100.154 1358.38,-100.154 1358.38,-82.1543 1384.38,-82.1543 1384.38,-100.154"/>
<text text-anchor="middle" x="1371.38" y="-88.9543" font-family="Times New Roman,serif" font-size="9.00">26</text>
</g>
<!-- 27 -->
<g id="node28" class="node"><title>27</title>
<polygon fill="lightgrey" stroke="black" points="1428.38,-100.154 1402.38,-100.154 1402.38,-82.1543 1428.38,-82.1543 1428.38,-100.154"/>
<text text-anchor="middle" x="1415.38" y="-88.9543" font-family="Times New Roman,serif" font-size="9.00">27</text>
</g>
<!-- 28 -->
<g id="node29" class="node"><title>28</title>
<polygon fill="lightgrey" stroke="black" points="141.385,-100.154 115.385,-100.154 115.385,-82.1543 141.385,-82.1543 141.385,-100.154"/>
<text text-anchor="middle" x="128.385" y="-88.9543" font-family="Times New Roman,serif" font-size="9.00">28</text>
</g>
<!-- 28&#45;&gt;46 -->
<g id="edge16" class="edge"><title>28&#45;&gt;46</title>
<path fill="none" stroke="red" stroke-width="0.268049" d="M128.385,-82.0362C128.385,-73.4701 128.385,-59.4947 128.385,-46.9144"/>
<polygon fill="red" stroke="red" stroke-width="0.268049" points="131.885,-46.8244 128.385,-36.8245 124.885,-46.8245 131.885,-46.8244"/>
</g>
<!-- 29 -->
<g id="node30" class="node"><title>29</title>
<polygon fill="lightgrey" stroke="black" points="626.385,-100.154 600.385,-100.154 600.385,-82.1543 626.385,-82.1543 626.385,-100.154"/>
<text text-anchor="middle" x="613.385" y="-88.9543" font-family="Times New Roman,serif" font-size="9.00">29</text>
</g>
<!-- 29&#45;&gt;42 -->
<g id="edge21" class="edge"><title>29&#45;&gt;42</title>
<path fill="none" stroke="green" stroke-width="0.619405" d="M614.532,-82.0362C615.742,-73.4701 617.717,-59.4947 619.495,-46.9144"/>
<polygon fill="green" stroke="green" stroke-width="0.619405" points="622.987,-47.2158 620.92,-36.8245 616.056,-46.2364 622.987,-47.2158"/>
</g>
<!-- 29&#45;&gt;43 -->
<g id="edge14" class="edge"><title>29&#45;&gt;43</title>
<path fill="none" stroke="green" stroke-width="0.287819" d="M608.223,-82.0362C602.22,-72.5965 592.041,-56.5879 583.475,-43.1161"/>
<polygon fill="green" stroke="green" stroke-width="0.287819" points="586.192,-40.8672 577.873,-34.3067 580.285,-44.6233 586.192,-40.8672"/>
</g>
<!-- 30 -->
<g id="node31" class="node"><title>30</title>
<ellipse fill="lightblue" stroke="lightblue" cx="1464.38" cy="-91.1543" rx="18.2703" ry="18.2703"/>
<text text-anchor="middle" x="1464.38" y="-88.9543" font-family="Times New Roman,serif" font-size="9.00">30</text>
</g>
<!-- 31 -->
<g id="node32" class="node"><title>31</title>
<ellipse fill="lightblue" stroke="lightblue" cx="1519.38" cy="-91.1543" rx="18.2703" ry="18.2703"/>
<text text-anchor="middle" x="1519.38" y="-88.9543" font-family="Times New Roman,serif" font-size="9.00">31</text>
</g>
<!-- 35 -->
<g id="node36" class="node"><title>35</title>
<ellipse fill="lightblue" stroke="lightblue" cx="1574.38" cy="-91.1543" rx="18.2703" ry="18.2703"/>
<text text-anchor="middle" x="1574.38" y="-88.9543" font-family="Times New Roman,serif" font-size="9.00">35</text>
</g>
<!-- 38 -->
<g id="node39" class="node"><title>38</title>
<ellipse fill="lightblue" stroke="lightblue" cx="1629.38" cy="-91.1543" rx="18.2703" ry="18.2703"/>
<text text-anchor="middle" x="1629.38" y="-88.9543" font-family="Times New Roman,serif" font-size="9.00">38</text>
</g>
<!-- 45 -->
<g id="node46" class="node"><title>45</title>
<ellipse fill="lightblue" stroke="lightblue" cx="1684.38" cy="-91.1543" rx="18.2703" ry="18.2703"/>
<text text-anchor="middle" x="1684.38" y="-88.9543" font-family="Times New Roman,serif" font-size="9.00">45</text>
</g>
</g>
</svg>
