<?xml version="1.0" encoding="UTF-8" standalone="no"?>
<!DOCTYPE svg PUBLIC "-//W3C//DTD SVG 1.1//EN"
 "http://www.w3.org/Graphics/SVG/1.1/DTD/svg11.dtd">
<!-- Generated by graphviz version 2.38.0 (20140413.2041)
 -->
<!-- Title: %3 Pages: 1 -->
<svg width="1378pt" height="172pt"
 viewBox="0.00 0.00 1378.00 171.54" xmlns="http://www.w3.org/2000/svg" xmlns:xlink="http://www.w3.org/1999/xlink">
<g id="graph0" class="graph" transform="scale(1 1) rotate(0) translate(4 167.539)">
<title>%3</title>
<polygon fill="white" stroke="none" points="-4,4 -4,-167.539 1374,-167.539 1374,4 -4,4"/>
<!-- 0 -->
<g id="node1" class="node"><title>0</title>
<polygon fill="lightgrey" stroke="black" points="138,-163.539 117,-163.539 117,-145.539 138,-145.539 138,-163.539"/>
<text text-anchor="middle" x="127.5" y="-152.339" font-family="Times New Roman,serif" font-size="9.00">0</text>
</g>
<!-- 30 -->
<g id="node31" class="node"><title>30</title>
<ellipse fill="lightblue" stroke="lightblue" cx="134.5" cy="-91.1543" rx="18.2703" ry="18.2703"/>
<text text-anchor="middle" x="134.5" y="-88.9543" font-family="Times New Roman,serif" font-size="9.00">30</text>
</g>
<!-- 0&#45;&gt;30 -->
<g id="edge51" class="edge"><title>0&#45;&gt;30</title>
<path fill="none" stroke="green" stroke-width="0.315735" stroke-dasharray="1,5" d="M128.415,-145.514C129.177,-138.832 130.309,-128.91 131.39,-119.429"/>
<polygon fill="green" stroke="green" stroke-width="0.315735" points="134.868,-119.821 132.523,-109.488 127.913,-119.027 134.868,-119.821"/>
</g>
<!-- 31 -->
<g id="node32" class="node"><title>31</title>
<ellipse fill="lightblue" stroke="lightblue" cx="284.5" cy="-18.3848" rx="18.2703" ry="18.2703"/>
<text text-anchor="middle" x="284.5" y="-16.1848" font-family="Times New Roman,serif" font-size="9.00">31</text>
</g>
<!-- 0&#45;&gt;31 -->
<g id="edge71" class="edge"><title>0&#45;&gt;31</title>
<path fill="none" stroke="green" stroke-width="0.426506" stroke-dasharray="1,5" d="M121.274,-145.094C110.48,-129.335 90.9598,-95.0344 107.5,-72.7696 141.938,-26.4129 215.399,-18.8473 256.019,-18.4446"/>
<polygon fill="green" stroke="green" stroke-width="0.426506" points="256.057,-21.9447 266.071,-18.4857 256.086,-14.9448 256.057,-21.9447"/>
</g>
<!-- 36 -->
<g id="node37" class="node"><title>36</title>
<ellipse fill="lightblue" stroke="lightblue" cx="815.5" cy="-91.1543" rx="18.2703" ry="18.2703"/>
<text text-anchor="middle" x="815.5" y="-88.9543" font-family="Times New Roman,serif" font-size="9.00">36</text>
</g>
<!-- 0&#45;&gt;36 -->
<g id="edge12" class="edge"><title>0&#45;&gt;36</title>
<path fill="none" stroke="red" stroke-width="0.223424" d="M138.138,-148.31C140.809,-147.208 143.71,-146.184 146.5,-145.539 424.498,-81.2353 515.406,-195.461 787.5,-109.539 788.966,-109.076 790.433,-108.519 791.885,-107.892"/>
<polygon fill="red" stroke="red" stroke-width="0.223424" points="793.878,-110.796 801.064,-103.011 790.592,-104.615 793.878,-110.796"/>
</g>
<!-- 1 -->
<g id="node2" class="node"><title>1</title>
<polygon fill="lightgrey" stroke="black" points="994,-163.539 973,-163.539 973,-145.539 994,-145.539 994,-163.539"/>
<text text-anchor="middle" x="983.5" y="-152.339" font-family="Times New Roman,serif" font-size="9.00">1</text>
</g>
<!-- 38 -->
<g id="node39" class="node"><title>38</title>
<ellipse fill="lightblue" stroke="lightblue" cx="443.5" cy="-18.3848" rx="18.2703" ry="18.2703"/>
<text text-anchor="middle" x="443.5" y="-16.1848" font-family="Times New Roman,serif" font-size="9.00">38</text>
</g>
<!-- 1&#45;&gt;38 -->
<g id="edge33" class="edge"><title>1&#45;&gt;38</title>
<path fill="none" stroke="green" stroke-width="0.347779" stroke-dasharray="1,5" d="M974.587,-145.501C964.9,-136.733 948.996,-122.25 935.5,-109.539 918.392,-93.4265 918.732,-82.8432 897.5,-72.7696 859.006,-54.506 565.623,-29.3176 472.069,-21.674"/>
<polygon fill="green" stroke="green" stroke-width="0.347779" points="472.175,-18.1712 461.925,-20.8501 471.608,-25.1482 472.175,-18.1712"/>
</g>
<!-- 48 -->
<g id="node49" class="node"><title>48</title>
<ellipse fill="lightblue" stroke="lightblue" cx="1088.5" cy="-91.1543" rx="18.2703" ry="18.2703"/>
<text text-anchor="middle" x="1088.5" y="-88.9543" font-family="Times New Roman,serif" font-size="9.00">48</text>
</g>
<!-- 1&#45;&gt;48 -->
<g id="edge5" class="edge"><title>1&#45;&gt;48</title>
<path fill="none" stroke="green" stroke-width="0.306903" d="M994.341,-147.201C1010.66,-137.659 1041.98,-119.352 1064,-106.478"/>
<polygon fill="green" stroke="green" stroke-width="0.306903" points="1065.93,-109.402 1072.8,-101.334 1062.4,-103.359 1065.93,-109.402"/>
</g>
<!-- 2 -->
<g id="node3" class="node"><title>2</title>
<polygon fill="lightgrey" stroke="black" points="846,-163.539 825,-163.539 825,-145.539 846,-145.539 846,-163.539"/>
<text text-anchor="middle" x="835.5" y="-152.339" font-family="Times New Roman,serif" font-size="9.00">2</text>
</g>
<!-- 2&#45;&gt;36 -->
<g id="edge53" class="edge"><title>2&#45;&gt;36</title>
<path fill="none" stroke="green" stroke-width="0.194779" stroke-dasharray="1,5" d="M832.885,-145.514C830.638,-138.616 827.266,-128.266 824.088,-118.512"/>
<polygon fill="green" stroke="green" stroke-width="0.194779" points="827.327,-117.157 820.902,-108.733 820.672,-119.325 827.327,-117.157"/>
</g>
<!-- 3 -->
<g id="node4" class="node"><title>3</title>
<polygon fill="lightgrey" stroke="black" points="398,-163.539 377,-163.539 377,-145.539 398,-145.539 398,-163.539"/>
<text text-anchor="middle" x="387.5" y="-152.339" font-family="Times New Roman,serif" font-size="9.00">3</text>
</g>
<!-- 32 -->
<g id="node33" class="node"><title>32</title>
<ellipse fill="lightblue" stroke="lightblue" cx="411.5" cy="-91.1543" rx="18.2703" ry="18.2703"/>
<text text-anchor="middle" x="411.5" y="-88.9543" font-family="Times New Roman,serif" font-size="9.00">32</text>
</g>
<!-- 3&#45;&gt;32 -->
<g id="edge61" class="edge"><title>3&#45;&gt;32</title>
<path fill="none" stroke="green" stroke-width="0.430243" d="M390.638,-145.514C393.382,-138.495 397.524,-127.901 401.396,-117.998"/>
<polygon fill="green" stroke="green" stroke-width="0.430243" points="404.734,-119.071 405.116,-108.483 398.215,-116.522 404.734,-119.071"/>
</g>
<!-- 33 -->
<g id="node34" class="node"><title>33</title>
<ellipse fill="lightblue" stroke="lightblue" cx="650.5" cy="-91.1543" rx="18.2703" ry="18.2703"/>
<text text-anchor="middle" x="650.5" y="-88.9543" font-family="Times New Roman,serif" font-size="9.00">33</text>
</g>
<!-- 3&#45;&gt;33 -->
<g id="edge43" class="edge"><title>3&#45;&gt;33</title>
<path fill="none" stroke="red" stroke-width="0.503956" d="M398.153,-152.078C438.273,-146.495 580.131,-125.99 622.5,-109.539 623.933,-108.983 625.375,-108.351 626.806,-107.667"/>
<polygon fill="red" stroke="red" stroke-width="0.503956" points="628.874,-110.523 635.925,-102.615 625.482,-104.399 628.874,-110.523"/>
</g>
<!-- 37 -->
<g id="node38" class="node"><title>37</title>
<ellipse fill="lightblue" stroke="lightblue" cx="319.5" cy="-91.1543" rx="18.2703" ry="18.2703"/>
<text text-anchor="middle" x="319.5" y="-88.9543" font-family="Times New Roman,serif" font-size="9.00">37</text>
</g>
<!-- 3&#45;&gt;37 -->
<g id="edge73" class="edge"><title>3&#45;&gt;37</title>
<path fill="none" stroke="green" stroke-width="0.107972" d="M378.61,-145.514C368.951,-136.794 353.182,-122.56 340.36,-110.985"/>
<polygon fill="green" stroke="green" stroke-width="0.107972" points="342.606,-108.298 332.838,-104.195 337.916,-113.494 342.606,-108.298"/>
</g>
<!-- 42 -->
<g id="node43" class="node"><title>42</title>
<ellipse fill="lightblue" stroke="lightblue" cx="705.5" cy="-18.3848" rx="18.2703" ry="18.2703"/>
<text text-anchor="middle" x="705.5" y="-16.1848" font-family="Times New Roman,serif" font-size="9.00">42</text>
</g>
<!-- 3&#45;&gt;42 -->
<g id="edge35" class="edge"><title>3&#45;&gt;42</title>
<path fill="none" stroke="green" stroke-width="0.170443" stroke-dasharray="1,5" d="M383.96,-145.276C377.698,-129.213 366.901,-93.5377 384.5,-72.7696 421.933,-28.5968 605.218,-20.9362 676.79,-19.6373"/>
<polygon fill="green" stroke="green" stroke-width="0.170443" points="676.949,-23.1353 686.895,-19.4834 676.843,-16.1362 676.949,-23.1353"/>
</g>
<!-- 43 -->
<g id="node44" class="node"><title>43</title>
<ellipse fill="lightblue" stroke="lightblue" cx="264.5" cy="-91.1543" rx="18.2703" ry="18.2703"/>
<text text-anchor="middle" x="264.5" y="-88.9543" font-family="Times New Roman,serif" font-size="9.00">43</text>
</g>
<!-- 3&#45;&gt;43 -->
<g id="edge64" class="edge"><title>3&#45;&gt;43</title>
<path fill="none" stroke="green" stroke-width="0.210531" d="M376.75,-149.069C358.922,-141.544 322.255,-125.59 292.5,-109.539 291.178,-108.826 289.833,-108.076 288.483,-107.305"/>
<polygon fill="green" stroke="green" stroke-width="0.210531" points="290.086,-104.186 279.706,-102.062 286.496,-110.195 290.086,-104.186"/>
</g>
<!-- 4 -->
<g id="node5" class="node"><title>4</title>
<polygon fill="lightgrey" stroke="black" points="1370,-163.539 1349,-163.539 1349,-145.539 1370,-145.539 1370,-163.539"/>
<text text-anchor="middle" x="1359.5" y="-152.339" font-family="Times New Roman,serif" font-size="9.00">4</text>
</g>
<!-- 5 -->
<g id="node6" class="node"><title>5</title>
<polygon fill="lightgrey" stroke="black" points="478,-163.539 457,-163.539 457,-145.539 478,-145.539 478,-163.539"/>
<text text-anchor="middle" x="467.5" y="-152.339" font-family="Times New Roman,serif" font-size="9.00">5</text>
</g>
<!-- 5&#45;&gt;31 -->
<g id="edge2" class="edge"><title>5&#45;&gt;31</title>
<path fill="none" stroke="green" stroke-width="0.339583" stroke-dasharray="1,5" d="M466.837,-145.198C465.108,-128.999 459.05,-93.0948 438.5,-72.7696 404.189,-38.8342 347.247,-26.421 313.055,-21.9151"/>
<polygon fill="green" stroke="green" stroke-width="0.339583" points="313.15,-18.4023 302.81,-20.7127 312.334,-25.3546 313.15,-18.4023"/>
</g>
<!-- 5&#45;&gt;32 -->
<g id="edge11" class="edge"><title>5&#45;&gt;32</title>
<path fill="none" stroke="green" stroke-width="0.302771" d="M460.179,-145.514C452.736,-137.355 440.887,-124.367 430.744,-113.248"/>
<polygon fill="green" stroke="green" stroke-width="0.302771" points="433.072,-110.607 423.746,-105.578 427.9,-115.325 433.072,-110.607"/>
</g>
<!-- 35 -->
<g id="node36" class="node"><title>35</title>
<ellipse fill="lightblue" stroke="lightblue" cx="503.5" cy="-91.1543" rx="18.2703" ry="18.2703"/>
<text text-anchor="middle" x="503.5" y="-88.9543" font-family="Times New Roman,serif" font-size="9.00">35</text>
</g>
<!-- 5&#45;&gt;35 -->
<g id="edge36" class="edge"><title>5&#45;&gt;35</title>
<path fill="none" stroke="green" stroke-width="0.174535" stroke-dasharray="1,5" d="M472.206,-145.514C476.57,-138.074 483.288,-126.619 489.382,-116.227"/>
<polygon fill="green" stroke="green" stroke-width="0.174535" points="492.463,-117.892 494.503,-107.496 486.425,-114.351 492.463,-117.892"/>
</g>
<!-- 46 -->
<g id="node47" class="node"><title>46</title>
<ellipse fill="lightblue" stroke="lightblue" cx="595.5" cy="-91.1543" rx="18.2703" ry="18.2703"/>
<text text-anchor="middle" x="595.5" y="-88.9543" font-family="Times New Roman,serif" font-size="9.00">46</text>
</g>
<!-- 5&#45;&gt;46 -->
<g id="edge45" class="edge"><title>5&#45;&gt;46</title>
<path fill="none" stroke="red" stroke-width="0.289645" d="M478.413,-148.305C498.531,-138.658 541.957,-117.832 569.896,-104.433"/>
<polygon fill="red" stroke="red" stroke-width="0.289645" points="571.566,-107.514 579.069,-100.034 568.539,-101.202 571.566,-107.514"/>
</g>
<!-- 6 -->
<g id="node7" class="node"><title>6</title>
<polygon fill="lightgrey" stroke="black" points="21,-163.539 0,-163.539 0,-145.539 21,-145.539 21,-163.539"/>
<text text-anchor="middle" x="10.5" y="-152.339" font-family="Times New Roman,serif" font-size="9.00">6</text>
</g>
<!-- 6&#45;&gt;38 -->
<g id="edge60" class="edge"><title>6&#45;&gt;38</title>
<path fill="none" stroke="red" stroke-width="0.281602" stroke-dasharray="1,5" d="M7.94832,-145.111C3.57377,-128.761 -3.19385,-92.6042 15.5,-72.7696 60.9474,-24.5487 245.763,-45.0958 311.5,-36.7696 347.173,-32.2512 388.235,-26.8045 414.963,-23.2262"/>
<polygon fill="red" stroke="red" stroke-width="0.281602" points="415.697,-26.6593 425.143,-21.8609 414.766,-19.7214 415.697,-26.6593"/>
</g>
<!-- 45 -->
<g id="node46" class="node"><title>45</title>
<ellipse fill="lightblue" stroke="lightblue" cx="42.5" cy="-91.1543" rx="18.2703" ry="18.2703"/>
<text text-anchor="middle" x="42.5" y="-88.9543" font-family="Times New Roman,serif" font-size="9.00">45</text>
</g>
<!-- 6&#45;&gt;45 -->
<g id="edge49" class="edge"><title>6&#45;&gt;45</title>
<path fill="none" stroke="green" stroke-width="0.217152" d="M14.6834,-145.514C18.4709,-138.249 24.2543,-127.155 29.5685,-116.961"/>
<polygon fill="green" stroke="green" stroke-width="0.217152" points="32.7271,-118.473 34.2462,-107.987 26.5199,-115.237 32.7271,-118.473"/>
</g>
<!-- 7 -->
<g id="node8" class="node"><title>7</title>
<polygon fill="lightgrey" stroke="black" points="314,-163.539 293,-163.539 293,-145.539 314,-145.539 314,-163.539"/>
<text text-anchor="middle" x="303.5" y="-152.339" font-family="Times New Roman,serif" font-size="9.00">7</text>
</g>
<!-- 7&#45;&gt;37 -->
<g id="edge28" class="edge"><title>7&#45;&gt;37</title>
<path fill="none" stroke="green" stroke-width="0.173237" d="M305.592,-145.514C307.365,-138.712 310.012,-128.555 312.523,-118.922"/>
<polygon fill="green" stroke="green" stroke-width="0.173237" points="315.912,-119.795 315.048,-109.236 309.139,-118.029 315.912,-119.795"/>
</g>
<!-- 8 -->
<g id="node9" class="node"><title>8</title>
<polygon fill="lightgrey" stroke="black" points="177,-163.539 156,-163.539 156,-145.539 177,-145.539 177,-163.539"/>
<text text-anchor="middle" x="166.5" y="-152.339" font-family="Times New Roman,serif" font-size="9.00">8</text>
</g>
<!-- 8&#45;&gt;30 -->
<g id="edge46" class="edge"><title>8&#45;&gt;30</title>
<path fill="none" stroke="green" stroke-width="0.263437" stroke-dasharray="1,5" d="M162.317,-145.514C158.529,-138.249 152.746,-127.155 147.432,-116.961"/>
<polygon fill="green" stroke="green" stroke-width="0.263437" points="150.48,-115.237 142.754,-107.987 144.273,-118.473 150.48,-115.237"/>
</g>
<!-- 8&#45;&gt;43 -->
<g id="edge62" class="edge"><title>8&#45;&gt;43</title>
<path fill="none" stroke="green" stroke-width="0.279215" d="M177.362,-146.735C192.488,-137.261 220.302,-119.839 240.446,-107.221"/>
<polygon fill="green" stroke="green" stroke-width="0.279215" points="242.471,-110.083 249.088,-101.808 238.755,-104.15 242.471,-110.083"/>
</g>
<!-- 9 -->
<g id="node10" class="node"><title>9</title>
<polygon fill="lightgrey" stroke="black" points="674,-163.539 653,-163.539 653,-145.539 674,-145.539 674,-163.539"/>
<text text-anchor="middle" x="663.5" y="-152.339" font-family="Times New Roman,serif" font-size="9.00">9</text>
</g>
<!-- 9&#45;&gt;33 -->
<g id="edge20" class="edge"><title>9&#45;&gt;33</title>
<path fill="none" stroke="green" stroke-width="0.259259" d="M661.8,-145.514C660.375,-138.784 658.254,-128.768 656.233,-119.226"/>
<polygon fill="green" stroke="green" stroke-width="0.259259" points="659.613,-118.293 654.117,-109.236 652.765,-119.744 659.613,-118.293"/>
</g>
<!-- 10 -->
<g id="node11" class="node"><title>10</title>
<polygon fill="lightgrey" stroke="black" points="1211.5,-163.539 1185.5,-163.539 1185.5,-145.539 1211.5,-145.539 1211.5,-163.539"/>
<text text-anchor="middle" x="1198.5" y="-152.339" font-family="Times New Roman,serif" font-size="9.00">10</text>
</g>
<!-- 47 -->
<g id="node48" class="node"><title>47</title>
<ellipse fill="lightblue" stroke="lightblue" cx="1198.5" cy="-91.1543" rx="18.2703" ry="18.2703"/>
<text text-anchor="middle" x="1198.5" y="-88.9543" font-family="Times New Roman,serif" font-size="9.00">47</text>
</g>
<!-- 10&#45;&gt;47 -->
<g id="edge18" class="edge"><title>10&#45;&gt;47</title>
<path fill="none" stroke="green" stroke-width="0.222118" stroke-dasharray="1,5" d="M1198.5,-145.514C1198.5,-138.95 1198.5,-129.261 1198.5,-119.933"/>
<polygon fill="green" stroke="green" stroke-width="0.222118" points="1202,-119.742 1198.5,-109.742 1195,-119.742 1202,-119.742"/>
</g>
<!-- 11 -->
<g id="node12" class="node"><title>11</title>
<polygon fill="lightgrey" stroke="black" points="590.5,-163.539 564.5,-163.539 564.5,-145.539 590.5,-145.539 590.5,-163.539"/>
<text text-anchor="middle" x="577.5" y="-152.339" font-family="Times New Roman,serif" font-size="9.00">11</text>
</g>
<!-- 11&#45;&gt;33 -->
<g id="edge48" class="edge"><title>11&#45;&gt;33</title>
<path fill="none" stroke="green" stroke-width="0.144127" stroke-dasharray="1,5" d="M587.043,-145.514C597.64,-136.604 615.086,-121.934 629.006,-110.229"/>
<polygon fill="green" stroke="green" stroke-width="0.144127" points="631.314,-112.86 636.716,-103.745 626.809,-107.503 631.314,-112.86"/>
</g>
<!-- 11&#45;&gt;46 -->
<g id="edge30" class="edge"><title>11&#45;&gt;46</title>
<path fill="none" stroke="green" stroke-width="0.207448" stroke-dasharray="1,5" d="M579.853,-145.514C581.862,-138.664 584.868,-128.411 587.711,-118.717"/>
<polygon fill="green" stroke="green" stroke-width="0.207448" points="591.11,-119.565 590.565,-108.984 584.393,-117.595 591.11,-119.565"/>
</g>
<!-- 12 -->
<g id="node13" class="node"><title>12</title>
<polygon fill="lightgrey" stroke="black" points="1145.5,-163.539 1119.5,-163.539 1119.5,-145.539 1145.5,-145.539 1145.5,-163.539"/>
<text text-anchor="middle" x="1132.5" y="-152.339" font-family="Times New Roman,serif" font-size="9.00">12</text>
</g>
<!-- 12&#45;&gt;48 -->
<g id="edge31" class="edge"><title>12&#45;&gt;48</title>
<path fill="none" stroke="red" stroke-width="0.326447" stroke-dasharray="1,5" d="M1126.75,-145.514C1121.16,-137.719 1112.41,-125.515 1104.69,-114.745"/>
<polygon fill="red" stroke="red" stroke-width="0.326447" points="1107.47,-112.616 1098.8,-106.527 1101.78,-116.694 1107.47,-112.616"/>
</g>
<!-- 13 -->
<g id="node14" class="node"><title>13</title>
<polygon fill="lightgrey" stroke="black" points="1057.5,-163.539 1031.5,-163.539 1031.5,-145.539 1057.5,-145.539 1057.5,-163.539"/>
<text text-anchor="middle" x="1044.5" y="-152.339" font-family="Times New Roman,serif" font-size="9.00">13</text>
</g>
<!-- 13&#45;&gt;47 -->
<g id="edge63" class="edge"><title>13&#45;&gt;47</title>
<path fill="none" stroke="green" stroke-width="0.162349" d="M1057.52,-148.768C1060.47,-147.697 1063.59,-146.572 1066.5,-145.539 1112.6,-129.181 1126.34,-130.569 1170.5,-109.539 1171.89,-108.878 1173.29,-108.164 1174.7,-107.416"/>
<polygon fill="green" stroke="green" stroke-width="0.162349" points="1176.84,-110.218 1183.73,-102.173 1173.33,-104.164 1176.84,-110.218"/>
</g>
<!-- 13&#45;&gt;48 -->
<g id="edge44" class="edge"><title>13&#45;&gt;48</title>
<path fill="none" stroke="green" stroke-width="0.155124" d="M1050.25,-145.514C1055.84,-137.719 1064.59,-125.515 1072.31,-114.745"/>
<polygon fill="green" stroke="green" stroke-width="0.155124" points="1075.22,-116.694 1078.2,-106.527 1069.53,-112.616 1075.22,-116.694"/>
</g>
<!-- 49 -->
<g id="node50" class="node"><title>49</title>
<ellipse fill="none" stroke="black" cx="705.5" cy="-91.1543" rx="18.2703" ry="18.2703"/>
<text text-anchor="middle" x="705.5" y="-88.9543" font-family="Times New Roman,serif" font-size="9.00">49</text>
</g>
<!-- 13&#45;&gt;49 -->
<g id="edge27" class="edge"><title>13&#45;&gt;49</title>
<path fill="none" stroke="green" stroke-width="0.265458" d="M1031.29,-150.83C1023.04,-149.184 1012.17,-147.106 1002.5,-145.539 883.431,-126.247 847.041,-150.258 733.5,-109.539 732.053,-109.02 730.6,-108.418 729.16,-107.757"/>
<polygon fill="green" stroke="green" stroke-width="0.265458" points="730.471,-104.485 720.016,-102.774 727.122,-110.632 730.471,-104.485"/>
</g>
<!-- 14 -->
<g id="node15" class="node"><title>14</title>
<polygon fill="lightgrey" stroke="black" points="358.5,-163.539 332.5,-163.539 332.5,-145.539 358.5,-145.539 358.5,-163.539"/>
<text text-anchor="middle" x="345.5" y="-152.339" font-family="Times New Roman,serif" font-size="9.00">14</text>
</g>
<!-- 14&#45;&gt;32 -->
<g id="edge38" class="edge"><title>14&#45;&gt;32</title>
<path fill="none" stroke="red" stroke-width="0.201687" d="M354.128,-145.514C363.301,-136.983 378.148,-123.174 390.441,-111.741"/>
<polygon fill="red" stroke="red" stroke-width="0.201687" points="393.126,-114.024 398.064,-104.65 388.358,-108.898 393.126,-114.024"/>
</g>
<!-- 14&#45;&gt;35 -->
<g id="edge66" class="edge"><title>14&#45;&gt;35</title>
<path fill="none" stroke="red" stroke-width="0.387552" d="M358.699,-148.411C384.756,-138.288 443.231,-115.57 477.366,-102.307"/>
<polygon fill="red" stroke="red" stroke-width="0.387552" points="478.656,-105.562 486.709,-98.6777 476.121,-99.0367 478.656,-105.562"/>
</g>
<!-- 14&#45;&gt;37 -->
<g id="edge3" class="edge"><title>14&#45;&gt;37</title>
<path fill="none" stroke="red" stroke-width="0.522066" d="M342.101,-145.514C339.128,-138.495 334.641,-127.901 330.446,-117.998"/>
<polygon fill="red" stroke="red" stroke-width="0.522066" points="333.539,-116.326 326.416,-108.483 327.094,-119.057 333.539,-116.326"/>
</g>
<!-- 14&#45;&gt;43 -->
<g id="edge37" class="edge"><title>14&#45;&gt;43</title>
<path fill="none" stroke="red" stroke-width="0.342659" d="M334.911,-145.514C322.826,-136.356 302.713,-121.113 287.071,-109.259"/>
<polygon fill="red" stroke="red" stroke-width="0.342659" points="289.004,-106.333 278.92,-103.082 284.776,-111.912 289.004,-106.333"/>
</g>
<!-- 15 -->
<g id="node16" class="node"><title>15</title>
<polygon fill="lightgrey" stroke="black" points="762.5,-163.539 736.5,-163.539 736.5,-145.539 762.5,-145.539 762.5,-163.539"/>
<text text-anchor="middle" x="749.5" y="-152.339" font-family="Times New Roman,serif" font-size="9.00">15</text>
</g>
<!-- 15&#45;&gt;36 -->
<g id="edge13" class="edge"><title>15&#45;&gt;36</title>
<path fill="none" stroke="red" stroke-width="0.425721" d="M758.128,-145.514C767.301,-136.983 782.148,-123.174 794.441,-111.741"/>
<polygon fill="red" stroke="red" stroke-width="0.425721" points="797.126,-114.024 802.064,-104.65 792.358,-108.898 797.126,-114.024"/>
</g>
<!-- 15&#45;&gt;37 -->
<g id="edge21" class="edge"><title>15&#45;&gt;37</title>
<path fill="none" stroke="green" stroke-width="0.474904" d="M736.161,-148.101C733.339,-147.117 730.351,-146.197 727.5,-145.539 578.139,-111.091 535.224,-137.427 384.5,-109.539 372.012,-107.229 358.408,-103.745 346.888,-100.502"/>
<polygon fill="green" stroke="green" stroke-width="0.474904" points="347.565,-97.0538 336.986,-97.6309 345.616,-103.777 347.565,-97.0538"/>
</g>
<!-- 40 -->
<g id="node41" class="node"><title>40</title>
<ellipse fill="lightblue" stroke="lightblue" cx="760.5" cy="-91.1543" rx="18.2703" ry="18.2703"/>
<text text-anchor="middle" x="760.5" y="-88.9543" font-family="Times New Roman,serif" font-size="9.00">40</text>
</g>
<!-- 15&#45;&gt;40 -->
<g id="edge69" class="edge"><title>15&#45;&gt;40</title>
<path fill="none" stroke="red" stroke-width="0.54332" d="M750.938,-145.514C752.136,-138.832 753.913,-128.91 755.612,-119.429"/>
<polygon fill="red" stroke="red" stroke-width="0.54332" points="759.075,-119.949 757.394,-109.488 752.185,-118.714 759.075,-119.949"/>
</g>
<!-- 16 -->
<g id="node17" class="node"><title>16</title>
<polygon fill="lightgrey" stroke="black" points="265.5,-163.539 239.5,-163.539 239.5,-145.539 265.5,-145.539 265.5,-163.539"/>
<text text-anchor="middle" x="252.5" y="-152.339" font-family="Times New Roman,serif" font-size="9.00">16</text>
</g>
<!-- 16&#45;&gt;30 -->
<g id="edge72" class="edge"><title>16&#45;&gt;30</title>
<path fill="none" stroke="green" stroke-width="0.338564" stroke-dasharray="1,5" d="M239.335,-146.931C222.416,-138.409 192.164,-123.073 166.5,-109.539 164.2,-108.326 161.813,-107.054 159.427,-105.774"/>
<polygon fill="green" stroke="green" stroke-width="0.338564" points="160.871,-102.576 150.41,-100.898 157.541,-108.733 160.871,-102.576"/>
</g>
<!-- 16&#45;&gt;31 -->
<g id="edge58" class="edge"><title>16&#45;&gt;31</title>
<path fill="none" stroke="red" stroke-width="0.324418" d="M239.051,-145.739C227.456,-138.16 211.51,-125.475 204.5,-109.539 197.92,-94.5805 196.792,-87.1796 204.5,-72.7696 215.767,-51.7059 239.425,-37.5126 258.106,-29.0889"/>
<polygon fill="red" stroke="red" stroke-width="0.324418" points="259.473,-32.3113 267.33,-25.204 256.755,-25.8602 259.473,-32.3113"/>
</g>
<!-- 16&#45;&gt;37 -->
<g id="edge39" class="edge"><title>16&#45;&gt;37</title>
<path fill="none" stroke="red" stroke-width="0.148987" stroke-dasharray="1,5" d="M261.259,-145.514C270.776,-136.794 286.313,-122.56 298.947,-110.985"/>
<polygon fill="red" stroke="red" stroke-width="0.148987" points="301.349,-113.531 306.358,-104.195 296.62,-108.37 301.349,-113.531"/>
</g>
<!-- 16&#45;&gt;38 -->
<g id="edge54" class="edge"><title>16&#45;&gt;38</title>
<path fill="none" stroke="red" stroke-width="0.322615" d="M247.307,-145.472C237.912,-129.753 220.566,-94.6512 237.5,-72.7696 259.19,-44.7418 364.068,-28.7405 415.265,-22.4812"/>
<polygon fill="red" stroke="red" stroke-width="0.322615" points="415.806,-25.9418 425.326,-21.2926 414.985,-18.9902 415.806,-25.9418"/>
</g>
<!-- 16&#45;&gt;49 -->
<g id="edge1" class="edge"><title>16&#45;&gt;49</title>
<path fill="none" stroke="green" stroke-width="0.3" d="M265.673,-149.638C271.144,-148.15 277.585,-146.566 283.5,-145.539 456.751,-115.472 510.774,-165.416 677.5,-109.539 678.958,-109.05 680.419,-108.473 681.865,-107.83"/>
<polygon fill="green" stroke="green" stroke-width="0.3" points="683.879,-110.721 691.029,-102.903 680.564,-104.556 683.879,-110.721"/>
</g>
<!-- 17 -->
<g id="node18" class="node"><title>17</title>
<polygon fill="lightgrey" stroke="black" points="970.5,-100.154 944.5,-100.154 944.5,-82.1543 970.5,-82.1543 970.5,-100.154"/>
<text text-anchor="middle" x="957.5" y="-88.9543" font-family="Times New Roman,serif" font-size="9.00">17</text>
</g>
<!-- 17&#45;&gt;42 -->
<g id="edge22" class="edge"><title>17&#45;&gt;42</title>
<path fill="none" stroke="green" stroke-width="0.438535" stroke-dasharray="1,5" d="M946.677,-81.9846C941.921,-78.7195 936.143,-75.1719 930.5,-72.7696 863.076,-44.0634 777.413,-29.1528 733.798,-22.9588"/>
<polygon fill="green" stroke="green" stroke-width="0.438535" points="734.035,-19.4586 723.652,-21.5688 733.085,-26.3938 734.035,-19.4586"/>
</g>
<!-- 18 -->
<g id="node19" class="node"><title>18</title>
<polygon fill="lightgrey" stroke="black" points="73.5,-163.539 47.5,-163.539 47.5,-145.539 73.5,-145.539 73.5,-163.539"/>
<text text-anchor="middle" x="60.5" y="-152.339" font-family="Times New Roman,serif" font-size="9.00">18</text>
</g>
<!-- 18&#45;&gt;30 -->
<g id="edge15" class="edge"><title>18&#45;&gt;30</title>
<path fill="none" stroke="green" stroke-width="0.165711" stroke-dasharray="1,5" d="M70.1742,-145.514C80.9815,-136.549 98.8164,-121.755 112.969,-110.015"/>
<polygon fill="green" stroke="green" stroke-width="0.165711" points="115.333,-112.601 120.795,-103.523 110.864,-107.214 115.333,-112.601"/>
</g>
<!-- 18&#45;&gt;45 -->
<g id="edge19" class="edge"><title>18&#45;&gt;45</title>
<path fill="none" stroke="green" stroke-width="0.106532" stroke-dasharray="1,5" d="M58.1468,-145.514C56.1382,-138.664 53.1315,-128.411 50.289,-118.717"/>
<polygon fill="green" stroke="green" stroke-width="0.106532" points="53.6074,-117.595 47.4349,-108.984 46.8903,-119.565 53.6074,-117.595"/>
</g>
<!-- 19 -->
<g id="node20" class="node"><title>19</title>
<polygon fill="lightgrey" stroke="black" points="890.5,-163.539 864.5,-163.539 864.5,-145.539 890.5,-145.539 890.5,-163.539"/>
<text text-anchor="middle" x="877.5" y="-152.339" font-family="Times New Roman,serif" font-size="9.00">19</text>
</g>
<!-- 34 -->
<g id="node35" class="node"><title>34</title>
<ellipse fill="lightblue" stroke="lightblue" cx="870.5" cy="-91.1543" rx="18.2703" ry="18.2703"/>
<text text-anchor="middle" x="870.5" y="-88.9543" font-family="Times New Roman,serif" font-size="9.00">34</text>
</g>
<!-- 19&#45;&gt;34 -->
<g id="edge75" class="edge"><title>19&#45;&gt;34</title>
<path fill="none" stroke="green" stroke-width="0.146154" stroke-dasharray="1,5" d="M876.585,-145.514C875.823,-138.832 874.691,-128.91 873.61,-119.429"/>
<polygon fill="green" stroke="green" stroke-width="0.146154" points="877.087,-119.027 872.477,-109.488 870.132,-119.821 877.087,-119.027"/>
</g>
<!-- 19&#45;&gt;37 -->
<g id="edge52" class="edge"><title>19&#45;&gt;37</title>
<path fill="none" stroke="green" stroke-width="0.315067" d="M864.043,-148.209C860.95,-147.167 857.645,-146.195 854.5,-145.539 649.411,-102.77 591.02,-144.755 384.5,-109.539 371.893,-107.389 358.18,-103.899 346.614,-100.607"/>
<polygon fill="green" stroke="green" stroke-width="0.315067" points="347.27,-97.1517 336.688,-97.6845 345.292,-103.867 347.27,-97.1517"/>
</g>
<!-- 39 -->
<g id="node40" class="node"><title>39</title>
<ellipse fill="lightblue" stroke="lightblue" cx="1143.5" cy="-18.3848" rx="18.2703" ry="18.2703"/>
<text text-anchor="middle" x="1143.5" y="-16.1848" font-family="Times New Roman,serif" font-size="9.00">39</text>
</g>
<!-- 19&#45;&gt;39 -->
<g id="edge42" class="edge"><title>19&#45;&gt;39</title>
<path fill="none" stroke="green" stroke-width="0.135812" stroke-dasharray="1,5" d="M890.947,-148.489C893.761,-147.478 896.718,-146.448 899.5,-145.539 954.051,-127.724 973.863,-138.339 1023.5,-109.539 1043.83,-97.7449 1043.12,-87.4189 1061.5,-72.7696 1079.88,-58.117 1102.35,-43.7072 1119.12,-33.5588"/>
<polygon fill="green" stroke="green" stroke-width="0.135812" points="1120.99,-36.5163 1127.78,-28.3847 1117.4,-30.506 1120.99,-36.5163"/>
</g>
<!-- 20 -->
<g id="node21" class="node"><title>20</title>
<polygon fill="lightgrey" stroke="black" points="221.5,-163.539 195.5,-163.539 195.5,-145.539 221.5,-145.539 221.5,-163.539"/>
<text text-anchor="middle" x="208.5" y="-152.339" font-family="Times New Roman,serif" font-size="9.00">20</text>
</g>
<!-- 20&#45;&gt;30 -->
<g id="edge24" class="edge"><title>20&#45;&gt;30</title>
<path fill="none" stroke="green" stroke-width="0.226233" d="M198.826,-145.514C188.018,-136.549 170.184,-121.755 156.031,-110.015"/>
<polygon fill="green" stroke="green" stroke-width="0.226233" points="158.136,-107.214 148.205,-103.523 153.667,-112.601 158.136,-107.214"/>
</g>
<!-- 20&#45;&gt;46 -->
<g id="edge74" class="edge"><title>20&#45;&gt;46</title>
<path fill="none" stroke="green" stroke-width="0.25064" d="M221.847,-148.134C224.668,-147.148 227.654,-146.218 230.5,-145.539 361.127,-114.388 398.637,-134.952 530.5,-109.539 542.97,-107.136 556.572,-103.638 568.095,-100.41"/>
<polygon fill="green" stroke="green" stroke-width="0.25064" points="569.359,-103.688 578.001,-97.5589 567.423,-96.961 569.359,-103.688"/>
</g>
<!-- 21 -->
<g id="node22" class="node"><title>21</title>
<polygon fill="lightgrey" stroke="black" points="531.5,-163.539 505.5,-163.539 505.5,-145.539 531.5,-145.539 531.5,-163.539"/>
<text text-anchor="middle" x="518.5" y="-152.339" font-family="Times New Roman,serif" font-size="9.00">21</text>
</g>
<!-- 21&#45;&gt;32 -->
<g id="edge59" class="edge"><title>21&#45;&gt;32</title>
<path fill="none" stroke="green" stroke-width="0.203265" stroke-dasharray="1,5" d="M505.38,-146.012C488.171,-136.14 457.637,-118.623 436.072,-106.251"/>
<polygon fill="green" stroke="green" stroke-width="0.203265" points="437.575,-103.078 427.159,-101.138 434.091,-109.15 437.575,-103.078"/>
</g>
<!-- 21&#45;&gt;35 -->
<g id="edge6" class="edge"><title>21&#45;&gt;35</title>
<path fill="none" stroke="red" stroke-width="0.229202" stroke-dasharray="1,5" d="M516.539,-145.514C514.894,-138.784 512.447,-128.768 510.115,-119.226"/>
<polygon fill="red" stroke="red" stroke-width="0.229202" points="513.448,-118.119 507.674,-109.236 506.648,-119.781 513.448,-118.119"/>
</g>
<!-- 21&#45;&gt;42 -->
<g id="edge9" class="edge"><title>21&#45;&gt;42</title>
<path fill="none" stroke="green" stroke-width="0.167863" stroke-dasharray="1,5" d="M521.55,-145.222C527.874,-129.067 543.907,-93.2344 568.5,-72.7696 600.48,-46.1576 647.27,-31.7925 677.05,-24.8668"/>
<polygon fill="green" stroke="green" stroke-width="0.167863" points="678.174,-28.2034 687.193,-22.6429 676.675,-21.3659 678.174,-28.2034"/>
</g>
<!-- 21&#45;&gt;48 -->
<g id="edge56" class="edge"><title>21&#45;&gt;48</title>
<path fill="none" stroke="green" stroke-width="0.10366" d="M531.778,-150.209C538.791,-148.568 547.566,-146.696 555.5,-145.539 761.93,-115.426 817.86,-144.639 1023.5,-109.539 1036.11,-107.387 1049.82,-103.896 1061.39,-100.605"/>
<polygon fill="green" stroke="green" stroke-width="0.10366" points="1062.71,-103.865 1071.31,-97.6829 1060.73,-97.1497 1062.71,-103.865"/>
</g>
<!-- 22 -->
<g id="node23" class="node"><title>22</title>
<polygon fill="lightgrey" stroke="black" points="718.5,-163.539 692.5,-163.539 692.5,-145.539 718.5,-145.539 718.5,-163.539"/>
<text text-anchor="middle" x="705.5" y="-152.339" font-family="Times New Roman,serif" font-size="9.00">22</text>
</g>
<!-- 22&#45;&gt;40 -->
<g id="edge10" class="edge"><title>22&#45;&gt;40</title>
<path fill="none" stroke="green" stroke-width="0.200637" stroke-dasharray="1,5" d="M712.69,-145.514C720.001,-137.355 731.638,-124.367 741.6,-113.248"/>
<polygon fill="green" stroke="green" stroke-width="0.200637" points="744.406,-115.361 748.473,-105.578 739.193,-110.69 744.406,-115.361"/>
</g>
<!-- 22&#45;&gt;49 -->
<g id="edge14" class="edge"><title>22&#45;&gt;49</title>
<path fill="none" stroke="red" stroke-width="0.470598" d="M705.5,-145.514C705.5,-138.95 705.5,-129.261 705.5,-119.933"/>
<polygon fill="red" stroke="red" stroke-width="0.470598" points="709,-119.742 705.5,-109.742 702,-119.742 709,-119.742"/>
</g>
<!-- 23 -->
<g id="node24" class="node"><title>23</title>
<polygon fill="lightgrey" stroke="black" points="1256.5,-163.539 1230.5,-163.539 1230.5,-145.539 1256.5,-145.539 1256.5,-163.539"/>
<text text-anchor="middle" x="1243.5" y="-152.339" font-family="Times New Roman,serif" font-size="9.00">23</text>
</g>
<!-- 23&#45;&gt;39 -->
<g id="edge34" class="edge"><title>23&#45;&gt;39</title>
<path fill="none" stroke="green" stroke-width="0.180035" stroke-dasharray="1,5" d="M1243.64,-145.168C1243.49,-129.535 1241.22,-95.4339 1225.5,-72.7696 1211.79,-53.0112 1188.17,-38.7808 1169.79,-30.0063"/>
<polygon fill="green" stroke="green" stroke-width="0.180035" points="1171.03,-26.7263 1160.48,-25.8036 1168.15,-33.1068 1171.03,-26.7263"/>
</g>
<!-- 44 -->
<g id="node45" class="node"><title>44</title>
<ellipse fill="lightblue" stroke="lightblue" cx="1290.5" cy="-91.1543" rx="18.2703" ry="18.2703"/>
<text text-anchor="middle" x="1290.5" y="-88.9543" font-family="Times New Roman,serif" font-size="9.00">44</text>
</g>
<!-- 23&#45;&gt;44 -->
<g id="edge32" class="edge"><title>23&#45;&gt;44</title>
<path fill="none" stroke="red" stroke-width="0.242405" stroke-dasharray="1,5" d="M1249.64,-145.514C1255.61,-137.719 1264.96,-125.515 1273.2,-114.745"/>
<polygon fill="red" stroke="red" stroke-width="0.242405" points="1276.2,-116.595 1279.5,-106.527 1270.64,-112.339 1276.2,-116.595"/>
</g>
<!-- 23&#45;&gt;46 -->
<g id="edge68" class="edge"><title>23&#45;&gt;46</title>
<path fill="none" stroke="red" stroke-width="0.242322" stroke-dasharray="1,5" d="M1230.05,-148.171C1226.96,-147.131 1223.65,-146.17 1220.5,-145.539 959.851,-93.3857 876.812,-190.105 623.5,-109.539 622.035,-109.073 620.568,-108.513 619.117,-107.884"/>
<polygon fill="red" stroke="red" stroke-width="0.242322" points="620.411,-104.608 609.94,-102.998 617.122,-110.787 620.411,-104.608"/>
</g>
<!-- 50 -->
<g id="node51" class="node"><title>50</title>
<ellipse fill="none" stroke="black" cx="1143.5" cy="-91.1543" rx="18.2703" ry="18.2703"/>
<text text-anchor="middle" x="1143.5" y="-88.9543" font-family="Times New Roman,serif" font-size="9.00">50</text>
</g>
<!-- 23&#45;&gt;50 -->
<g id="edge17" class="edge"><title>23&#45;&gt;50</title>
<path fill="none" stroke="green" stroke-width="0.3" d="M1230.48,-145.618C1216.04,-136.83 1192.08,-122.216 1171.5,-109.539 1170.22,-108.751 1168.91,-107.942 1167.59,-107.125"/>
<polygon fill="green" stroke="green" stroke-width="0.3" points="1169.24,-104.029 1158.89,-101.738 1165.55,-109.98 1169.24,-104.029"/>
</g>
<!-- 24 -->
<g id="node25" class="node"><title>24</title>
<polygon fill="lightgrey" stroke="black" points="806.5,-163.539 780.5,-163.539 780.5,-145.539 806.5,-145.539 806.5,-163.539"/>
<text text-anchor="middle" x="793.5" y="-152.339" font-family="Times New Roman,serif" font-size="9.00">24</text>
</g>
<!-- 24&#45;&gt;34 -->
<g id="edge29" class="edge"><title>24&#45;&gt;34</title>
<path fill="none" stroke="green" stroke-width="0.109832" d="M803.566,-145.514C814.88,-136.495 833.595,-121.575 848.363,-109.802"/>
<polygon fill="green" stroke="green" stroke-width="0.109832" points="850.879,-112.272 856.517,-103.302 846.516,-106.799 850.879,-112.272"/>
</g>
<!-- 24&#45;&gt;35 -->
<g id="edge47" class="edge"><title>24&#45;&gt;35</title>
<path fill="none" stroke="green" stroke-width="0.45333" stroke-dasharray="1,5" d="M780.122,-148.257C777.303,-147.262 774.326,-146.297 771.5,-145.539 683,-121.793 657.953,-129.395 568.5,-109.539 556.102,-106.787 542.511,-103.237 530.977,-100.063"/>
<polygon fill="green" stroke="green" stroke-width="0.45333" points="531.629,-96.6113 521.056,-97.2879 529.743,-103.353 531.629,-96.6113"/>
</g>
<!-- 25 -->
<g id="node26" class="node"><title>25</title>
<polygon fill="lightgrey" stroke="black" points="934.5,-163.539 908.5,-163.539 908.5,-145.539 934.5,-145.539 934.5,-163.539"/>
<text text-anchor="middle" x="921.5" y="-152.339" font-family="Times New Roman,serif" font-size="9.00">25</text>
</g>
<!-- 25&#45;&gt;33 -->
<g id="edge70" class="edge"><title>25&#45;&gt;33</title>
<path fill="none" stroke="red" stroke-width="0.121426" stroke-dasharray="1,5" d="M908.13,-148.226C905.31,-147.233 902.331,-146.278 899.5,-145.539 803.204,-120.424 771.688,-144.462 678.5,-109.539 677.06,-108.999 675.614,-108.382 674.179,-107.708"/>
<polygon fill="red" stroke="red" stroke-width="0.121426" points="675.497,-104.438 665.047,-102.687 672.124,-110.572 675.497,-104.438"/>
</g>
<!-- 25&#45;&gt;34 -->
<g id="edge50" class="edge"><title>25&#45;&gt;34</title>
<path fill="none" stroke="red" stroke-width="0.142971" d="M914.833,-145.514C908.206,-137.538 897.745,-124.947 888.649,-113.998"/>
<polygon fill="red" stroke="red" stroke-width="0.142971" points="891.127,-111.505 882.045,-106.05 885.743,-115.978 891.127,-111.505"/>
</g>
<!-- 25&#45;&gt;48 -->
<g id="edge55" class="edge"><title>25&#45;&gt;48</title>
<path fill="none" stroke="green" stroke-width="0.504787" stroke-dasharray="1,5" d="M934.826,-150.069C959.389,-143.483 1013.25,-128.15 1056.5,-109.539 1058.89,-108.511 1061.34,-107.365 1063.76,-106.165"/>
<polygon fill="green" stroke="green" stroke-width="0.504787" points="1065.6,-109.151 1072.83,-101.406 1062.35,-102.952 1065.6,-109.151"/>
</g>
<!-- 25&#45;&gt;49 -->
<g id="edge40" class="edge"><title>25&#45;&gt;49</title>
<path fill="none" stroke="red" stroke-width="0.233199" stroke-dasharray="1,5" d="M908.099,-148.34C905.281,-147.339 902.311,-146.351 899.5,-145.539 826.972,-124.592 803.478,-137.863 733.5,-109.539 732.075,-108.962 730.64,-108.315 729.213,-107.618"/>
<polygon fill="red" stroke="red" stroke-width="0.233199" points="730.546,-104.353 720.109,-102.529 727.13,-110.463 730.546,-104.353"/>
</g>
<!-- 25&#45;&gt;50 -->
<g id="edge67" class="edge"><title>25&#45;&gt;50</title>
<path fill="none" stroke="red" stroke-width="0.316685" stroke-dasharray="1,5" d="M934.641,-150.823C975.483,-142.344 1098.49,-116.52 1115.5,-109.539 1116.92,-108.955 1118.36,-108.303 1119.78,-107.602"/>
<polygon fill="red" stroke="red" stroke-width="0.316685" points="1121.87,-110.444 1128.88,-102.5 1118.45,-104.338 1121.87,-110.444"/>
</g>
<!-- 26 -->
<g id="node27" class="node"><title>26</title>
<polygon fill="lightgrey" stroke="black" points="1330.5,-163.539 1304.5,-163.539 1304.5,-145.539 1330.5,-145.539 1330.5,-163.539"/>
<text text-anchor="middle" x="1317.5" y="-152.339" font-family="Times New Roman,serif" font-size="9.00">26</text>
</g>
<!-- 41 -->
<g id="node42" class="node"><title>41</title>
<ellipse fill="lightblue" stroke="lightblue" cx="1345.5" cy="-91.1543" rx="18.2703" ry="18.2703"/>
<text text-anchor="middle" x="1345.5" y="-88.9543" font-family="Times New Roman,serif" font-size="9.00">41</text>
</g>
<!-- 26&#45;&gt;41 -->
<g id="edge25" class="edge"><title>26&#45;&gt;41</title>
<path fill="none" stroke="red" stroke-width="0.230242" stroke-dasharray="1,5" d="M1321.16,-145.514C1324.4,-138.421 1329.3,-127.68 1333.85,-117.689"/>
<polygon fill="red" stroke="red" stroke-width="0.230242" points="1337.09,-119.034 1338.05,-108.483 1330.72,-116.129 1337.09,-119.034"/>
</g>
<!-- 26&#45;&gt;44 -->
<g id="edge16" class="edge"><title>26&#45;&gt;44</title>
<path fill="none" stroke="red" stroke-width="0.58577" stroke-dasharray="1,5" d="M1313.97,-145.514C1310.85,-138.421 1306.13,-127.68 1301.73,-117.689"/>
<polygon fill="red" stroke="red" stroke-width="0.58577" points="1304.91,-116.228 1297.68,-108.483 1298.5,-119.046 1304.91,-116.228"/>
</g>
<!-- 27 -->
<g id="node28" class="node"><title>27</title>
<polygon fill="lightgrey" stroke="black" points="1101.5,-163.539 1075.5,-163.539 1075.5,-145.539 1101.5,-145.539 1101.5,-163.539"/>
<text text-anchor="middle" x="1088.5" y="-152.339" font-family="Times New Roman,serif" font-size="9.00">27</text>
</g>
<!-- 27&#45;&gt;48 -->
<g id="edge7" class="edge"><title>27&#45;&gt;48</title>
<path fill="none" stroke="red" stroke-width="0.189483" d="M1088.5,-145.514C1088.5,-138.95 1088.5,-129.261 1088.5,-119.933"/>
<polygon fill="red" stroke="red" stroke-width="0.189483" points="1092,-119.742 1088.5,-109.742 1085,-119.742 1092,-119.742"/>
</g>
<!-- 28 -->
<g id="node29" class="node"><title>28</title>
<polygon fill="lightgrey" stroke="black" points="1014.5,-100.154 988.5,-100.154 988.5,-82.1543 1014.5,-82.1543 1014.5,-100.154"/>
<text text-anchor="middle" x="1001.5" y="-88.9543" font-family="Times New Roman,serif" font-size="9.00">28</text>
</g>
<!-- 28&#45;&gt;42 -->
<g id="edge23" class="edge"><title>28&#45;&gt;42</title>
<path fill="none" stroke="red" stroke-width="0.310958" d="M993.151,-82.0008C989.285,-78.6573 984.455,-75.0453 979.5,-72.7696 895.83,-34.3372 785.439,-23.5464 734.071,-20.5368"/>
<polygon fill="red" stroke="red" stroke-width="0.310958" points="734.208,-17.0392 724.037,-20.0055 733.838,-24.0294 734.208,-17.0392"/>
</g>
<!-- 29 -->
<g id="node30" class="node"><title>29</title>
<polygon fill="lightgrey" stroke="black" points="634.5,-163.539 608.5,-163.539 608.5,-145.539 634.5,-145.539 634.5,-163.539"/>
<text text-anchor="middle" x="621.5" y="-152.339" font-family="Times New Roman,serif" font-size="9.00">29</text>
</g>
<!-- 29&#45;&gt;46 -->
<g id="edge8" class="edge"><title>29&#45;&gt;46</title>
<path fill="none" stroke="green" stroke-width="0.398258" d="M618.101,-145.514C615.128,-138.495 610.641,-127.901 606.446,-117.998"/>
<polygon fill="green" stroke="green" stroke-width="0.398258" points="609.539,-116.326 602.416,-108.483 603.094,-119.057 609.539,-116.326"/>
</g>
<!-- 29&#45;&gt;49 -->
<g id="edge41" class="edge"><title>29&#45;&gt;49</title>
<path fill="none" stroke="green" stroke-width="0.244771" stroke-dasharray="1,5" d="M632.482,-145.514C645.164,-136.246 666.373,-120.747 682.674,-108.835"/>
<polygon fill="green" stroke="green" stroke-width="0.244771" points="685.132,-111.374 691.14,-102.648 681.001,-105.722 685.132,-111.374"/>
</g>
<!-- 49&#45;&gt;31 -->
<g id="edge65" class="edge"><title>49&#45;&gt;31</title>
<path fill="none" stroke="green" stroke-width="0.261782" d="M690.982,-79.5408C686.81,-76.9438 682.13,-74.4353 677.5,-72.7696 673.171,-71.2122 401.939,-35.0181 312.653,-23.1301"/>
<polygon fill="green" stroke="green" stroke-width="0.261782" points="313.071,-19.6549 302.697,-21.8048 312.147,-26.5937 313.071,-19.6549"/>
</g>
<!-- 49&#45;&gt;38 -->
<g id="edge57" class="edge"><title>49&#45;&gt;38</title>
<path fill="none" stroke="red" stroke-width="0.208442" stroke-dasharray="1,5" d="M690.878,-79.812C686.705,-77.216 682.051,-74.6402 677.5,-72.7696 606.647,-43.6476 516.88,-28.8212 471.905,-22.7768"/>
<polygon fill="red" stroke="red" stroke-width="0.208442" points="472.097,-19.2724 461.73,-21.4576 471.197,-26.2143 472.097,-19.2724"/>
</g>
<!-- 49&#45;&gt;42 -->
<g id="edge4" class="edge"><title>49&#45;&gt;42</title>
<path fill="none" stroke="green" stroke-width="0.389555" d="M705.5,-72.6607C705.5,-64.9784 705.5,-55.7693 705.5,-47.185"/>
<polygon fill="green" stroke="green" stroke-width="0.389555" points="709,-47.1687 705.5,-37.1687 702,-47.1687 709,-47.1687"/>
</g>
<!-- 50&#45;&gt;39 -->
<g id="edge26" class="edge"><title>50&#45;&gt;39</title>
<path fill="none" stroke="green" stroke-width="0.180035" d="M1143.5,-72.6607C1143.5,-64.9784 1143.5,-55.7693 1143.5,-47.185"/>
<polygon fill="green" stroke="green" stroke-width="0.180035" points="1147,-47.1687 1143.5,-37.1687 1140,-47.1687 1147,-47.1687"/>
</g>
</g>
</svg>
