<?xml version="1.0" encoding="UTF-8" standalone="no"?>
<!DOCTYPE svg PUBLIC "-//W3C//DTD SVG 1.1//EN"
 "http://www.w3.org/Graphics/SVG/1.1/DTD/svg11.dtd">
<!-- Generated by graphviz version 2.38.0 (20140413.2041)
 -->
<!-- Title: %3 Pages: 1 -->
<svg width="1404pt" height="190pt"
 viewBox="0.00 0.00 1403.77 190.31" xmlns="http://www.w3.org/2000/svg" xmlns:xlink="http://www.w3.org/1999/xlink">
<g id="graph0" class="graph" transform="scale(1 1) rotate(0) translate(4 186.309)">
<title>%3</title>
<polygon fill="white" stroke="none" points="-4,4 -4,-186.309 1399.77,-186.309 1399.77,4 -4,4"/>
<!-- 0 -->
<g id="node1" class="node"><title>0</title>
<polygon fill="lightgrey" stroke="black" points="28.8848,-172.924 7.88478,-172.924 7.88478,-154.924 28.8848,-154.924 28.8848,-172.924"/>
<text text-anchor="middle" x="18.3848" y="-161.724" font-family="Times New Roman,serif" font-size="9.00">0</text>
</g>
<!-- 36 -->
<g id="node37" class="node"><title>36</title>
<ellipse fill="lightblue" stroke="lightblue" cx="18.3848" cy="-91.1543" rx="18.2703" ry="18.2703"/>
<text text-anchor="middle" x="18.3848" y="-88.9543" font-family="Times New Roman,serif" font-size="9.00">36</text>
</g>
<!-- 0&#45;&gt;36 -->
<g id="edge8" class="edge"><title>0&#45;&gt;36</title>
<path fill="none" stroke="red" stroke-width="0.223424" d="M18.3848,-154.806C18.3848,-146.24 18.3848,-132.264 18.3848,-119.684"/>
<polygon fill="red" stroke="red" stroke-width="0.223424" points="21.8849,-119.594 18.3848,-109.594 14.8849,-119.594 21.8849,-119.594"/>
</g>
<!-- 1 -->
<g id="node2" class="node"><title>1</title>
<polygon fill="lightgrey" stroke="black" points="514.885,-172.924 493.885,-172.924 493.885,-154.924 514.885,-154.924 514.885,-172.924"/>
<text text-anchor="middle" x="504.385" y="-161.724" font-family="Times New Roman,serif" font-size="9.00">1</text>
</g>
<!-- 48 -->
<g id="node49" class="node"><title>48</title>
<ellipse fill="lightblue" stroke="lightblue" cx="559.385" cy="-91.1543" rx="18.2703" ry="18.2703"/>
<text text-anchor="middle" x="559.385" y="-88.9543" font-family="Times New Roman,serif" font-size="9.00">48</text>
</g>
<!-- 1&#45;&gt;48 -->
<g id="edge4" class="edge"><title>1&#45;&gt;48</title>
<path fill="none" stroke="green" stroke-width="0.306903" d="M510.694,-154.806C518.311,-145.004 531.433,-128.12 542.137,-114.348"/>
<polygon fill="green" stroke="green" stroke-width="0.306903" points="545.045,-116.309 548.418,-106.266 539.518,-112.014 545.045,-116.309"/>
</g>
<!-- 2 -->
<g id="node3" class="node"><title>2</title>
<polygon fill="lightgrey" stroke="black" points="787.885,-172.924 766.885,-172.924 766.885,-154.924 787.885,-154.924 787.885,-172.924"/>
<text text-anchor="middle" x="777.385" y="-161.724" font-family="Times New Roman,serif" font-size="9.00">2</text>
</g>
<!-- 3 -->
<g id="node4" class="node"><title>3</title>
<polygon fill="lightgrey" stroke="black" points="298.885,-172.924 277.885,-172.924 277.885,-154.924 298.885,-154.924 298.885,-172.924"/>
<text text-anchor="middle" x="288.385" y="-161.724" font-family="Times New Roman,serif" font-size="9.00">3</text>
</g>
<!-- 32 -->
<g id="node33" class="node"><title>32</title>
<ellipse fill="lightblue" stroke="lightblue" cx="295.385" cy="-91.1543" rx="18.2703" ry="18.2703"/>
<text text-anchor="middle" x="295.385" y="-88.9543" font-family="Times New Roman,serif" font-size="9.00">32</text>
</g>
<!-- 3&#45;&gt;32 -->
<g id="edge31" class="edge"><title>3&#45;&gt;32</title>
<path fill="none" stroke="green" stroke-width="0.430243" d="M289.188,-154.806C290.035,-146.24 291.417,-132.264 292.662,-119.684"/>
<polygon fill="green" stroke="green" stroke-width="0.430243" points="296.158,-119.89 293.66,-109.594 289.192,-119.201 296.158,-119.89"/>
</g>
<!-- 33 -->
<g id="node34" class="node"><title>33</title>
<ellipse fill="lightblue" stroke="lightblue" cx="350.385" cy="-91.1543" rx="18.2703" ry="18.2703"/>
<text text-anchor="middle" x="350.385" y="-88.9543" font-family="Times New Roman,serif" font-size="9.00">33</text>
</g>
<!-- 3&#45;&gt;33 -->
<g id="edge22" class="edge"><title>3&#45;&gt;33</title>
<path fill="none" stroke="red" stroke-width="0.503956" d="M295.497,-154.806C304.325,-144.73 319.709,-127.169 331.949,-113.198"/>
<polygon fill="red" stroke="red" stroke-width="0.503956" points="334.761,-115.299 338.718,-105.471 329.496,-110.686 334.761,-115.299"/>
</g>
<!-- 37 -->
<g id="node38" class="node"><title>37</title>
<ellipse fill="lightblue" stroke="lightblue" cx="130.385" cy="-91.1543" rx="18.2703" ry="18.2703"/>
<text text-anchor="middle" x="130.385" y="-88.9543" font-family="Times New Roman,serif" font-size="9.00">37</text>
</g>
<!-- 3&#45;&gt;37 -->
<g id="edge38" class="edge"><title>3&#45;&gt;37</title>
<path fill="none" stroke="green" stroke-width="0.107972" d="M277.791,-155.589C272.679,-152.25 266.369,-148.411 260.385,-145.539 217.044,-124.738 201.726,-130.34 158.385,-109.539 156.998,-108.874 155.595,-108.156 154.192,-107.406"/>
<polygon fill="green" stroke="green" stroke-width="0.107972" points="155.564,-104.154 145.159,-102.155 152.046,-110.206 155.564,-104.154"/>
</g>
<!-- 43 -->
<g id="node44" class="node"><title>43</title>
<ellipse fill="lightblue" stroke="lightblue" cx="240.385" cy="-91.1543" rx="18.2703" ry="18.2703"/>
<text text-anchor="middle" x="240.385" y="-88.9543" font-family="Times New Roman,serif" font-size="9.00">43</text>
</g>
<!-- 3&#45;&gt;43 -->
<g id="edge34" class="edge"><title>3&#45;&gt;43</title>
<path fill="none" stroke="green" stroke-width="0.210531" d="M282.879,-154.806C276.374,-145.216 265.271,-128.846 256.046,-115.244"/>
<polygon fill="green" stroke="green" stroke-width="0.210531" points="258.831,-113.116 250.321,-106.804 253.038,-117.045 258.831,-113.116"/>
</g>
<!-- 4 -->
<g id="node5" class="node"><title>4</title>
<polygon fill="lightgrey" stroke="black" points="838.885,-172.924 817.885,-172.924 817.885,-154.924 838.885,-154.924 838.885,-172.924"/>
<text text-anchor="middle" x="828.385" y="-161.724" font-family="Times New Roman,serif" font-size="9.00">4</text>
</g>
<!-- 5 -->
<g id="node6" class="node"><title>5</title>
<polygon fill="lightgrey" stroke="black" points="381.885,-172.924 360.885,-172.924 360.885,-154.924 381.885,-154.924 381.885,-172.924"/>
<text text-anchor="middle" x="371.385" y="-161.724" font-family="Times New Roman,serif" font-size="9.00">5</text>
</g>
<!-- 5&#45;&gt;32 -->
<g id="edge7" class="edge"><title>5&#45;&gt;32</title>
<path fill="none" stroke="green" stroke-width="0.302771" d="M362.667,-154.806C351.378,-144.294 331.341,-125.636 316.06,-111.407"/>
<polygon fill="green" stroke="green" stroke-width="0.302771" points="318.278,-108.689 308.574,-104.436 313.507,-113.812 318.278,-108.689"/>
</g>
<!-- 46 -->
<g id="node47" class="node"><title>46</title>
<ellipse fill="lightblue" stroke="lightblue" cx="410.385" cy="-91.1543" rx="18.2703" ry="18.2703"/>
<text text-anchor="middle" x="410.385" y="-88.9543" font-family="Times New Roman,serif" font-size="9.00">46</text>
</g>
<!-- 5&#45;&gt;46 -->
<g id="edge24" class="edge"><title>5&#45;&gt;46</title>
<path fill="none" stroke="red" stroke-width="0.289645" d="M375.859,-154.806C380.996,-145.484 389.663,-129.757 397.028,-116.392"/>
<polygon fill="red" stroke="red" stroke-width="0.289645" points="400.098,-118.072 401.859,-107.625 393.967,-114.694 400.098,-118.072"/>
</g>
<!-- 6 -->
<g id="node7" class="node"><title>6</title>
<polygon fill="lightgrey" stroke="black" points="883.885,-172.924 862.885,-172.924 862.885,-154.924 883.885,-154.924 883.885,-172.924"/>
<text text-anchor="middle" x="873.385" y="-161.724" font-family="Times New Roman,serif" font-size="9.00">6</text>
</g>
<!-- 45 -->
<g id="node46" class="node"><title>45</title>
<ellipse fill="lightblue" stroke="lightblue" cx="873.385" cy="-91.1543" rx="18.2703" ry="18.2703"/>
<text text-anchor="middle" x="873.385" y="-88.9543" font-family="Times New Roman,serif" font-size="9.00">45</text>
</g>
<!-- 6&#45;&gt;45 -->
<g id="edge25" class="edge"><title>6&#45;&gt;45</title>
<path fill="none" stroke="green" stroke-width="0.217152" d="M873.385,-154.806C873.385,-146.24 873.385,-132.264 873.385,-119.684"/>
<polygon fill="green" stroke="green" stroke-width="0.217152" points="876.885,-119.594 873.385,-109.594 869.885,-119.594 876.885,-119.594"/>
</g>
<!-- 7 -->
<g id="node8" class="node"><title>7</title>
<polygon fill="lightgrey" stroke="black" points="167.885,-172.924 146.885,-172.924 146.885,-154.924 167.885,-154.924 167.885,-172.924"/>
<text text-anchor="middle" x="157.385" y="-161.724" font-family="Times New Roman,serif" font-size="9.00">7</text>
</g>
<!-- 7&#45;&gt;37 -->
<g id="edge18" class="edge"><title>7&#45;&gt;37</title>
<path fill="none" stroke="green" stroke-width="0.173237" d="M154.288,-154.806C150.866,-145.837 145.182,-130.938 140.215,-117.919"/>
<polygon fill="green" stroke="green" stroke-width="0.173237" points="143.44,-116.555 136.606,-108.46 136.9,-119.05 143.44,-116.555"/>
</g>
<!-- 8 -->
<g id="node9" class="node"><title>8</title>
<polygon fill="lightgrey" stroke="black" points="251.885,-172.924 230.885,-172.924 230.885,-154.924 251.885,-154.924 251.885,-172.924"/>
<text text-anchor="middle" x="241.385" y="-161.724" font-family="Times New Roman,serif" font-size="9.00">8</text>
</g>
<!-- 8&#45;&gt;43 -->
<g id="edge32" class="edge"><title>8&#45;&gt;43</title>
<path fill="none" stroke="green" stroke-width="0.279215" d="M241.27,-154.806C241.149,-146.24 240.952,-132.264 240.774,-119.684"/>
<polygon fill="green" stroke="green" stroke-width="0.279215" points="244.272,-119.544 240.631,-109.594 237.273,-119.642 244.272,-119.544"/>
</g>
<!-- 9 -->
<g id="node10" class="node"><title>9</title>
<polygon fill="lightgrey" stroke="black" points="342.885,-172.924 321.885,-172.924 321.885,-154.924 342.885,-154.924 342.885,-172.924"/>
<text text-anchor="middle" x="332.385" y="-161.724" font-family="Times New Roman,serif" font-size="9.00">9</text>
</g>
<!-- 9&#45;&gt;33 -->
<g id="edge12" class="edge"><title>9&#45;&gt;33</title>
<path fill="none" stroke="green" stroke-width="0.259259" d="M334.45,-154.806C336.665,-146.097 340.302,-131.796 343.543,-119.055"/>
<polygon fill="green" stroke="green" stroke-width="0.259259" points="346.949,-119.862 346.022,-109.308 340.165,-118.137 346.949,-119.862"/>
</g>
<!-- 10 -->
<g id="node11" class="node"><title>10</title>
<polygon fill="lightgrey" stroke="black" points="928.385,-172.924 902.385,-172.924 902.385,-154.924 928.385,-154.924 928.385,-172.924"/>
<text text-anchor="middle" x="915.385" y="-161.724" font-family="Times New Roman,serif" font-size="9.00">10</text>
</g>
<!-- 11 -->
<g id="node12" class="node"><title>11</title>
<polygon fill="lightgrey" stroke="black" points="972.385,-172.924 946.385,-172.924 946.385,-154.924 972.385,-154.924 972.385,-172.924"/>
<text text-anchor="middle" x="959.385" y="-161.724" font-family="Times New Roman,serif" font-size="9.00">11</text>
</g>
<!-- 12 -->
<g id="node13" class="node"><title>12</title>
<polygon fill="lightgrey" stroke="black" points="1016.38,-172.924 990.385,-172.924 990.385,-154.924 1016.38,-154.924 1016.38,-172.924"/>
<text text-anchor="middle" x="1003.38" y="-161.724" font-family="Times New Roman,serif" font-size="9.00">12</text>
</g>
<!-- 13 -->
<g id="node14" class="node"><title>13</title>
<polygon fill="lightgrey" stroke="black" points="647.385,-172.924 621.385,-172.924 621.385,-154.924 647.385,-154.924 647.385,-172.924"/>
<text text-anchor="middle" x="634.385" y="-161.724" font-family="Times New Roman,serif" font-size="9.00">13</text>
</g>
<!-- 47 -->
<g id="node48" class="node"><title>47</title>
<ellipse fill="lightblue" stroke="lightblue" cx="628.385" cy="-91.1543" rx="18.2703" ry="18.2703"/>
<text text-anchor="middle" x="628.385" y="-88.9543" font-family="Times New Roman,serif" font-size="9.00">47</text>
</g>
<!-- 13&#45;&gt;47 -->
<g id="edge33" class="edge"><title>13&#45;&gt;47</title>
<path fill="none" stroke="green" stroke-width="0.162349" d="M633.697,-154.806C632.97,-146.24 631.785,-132.264 630.719,-119.684"/>
<polygon fill="green" stroke="green" stroke-width="0.162349" points="634.196,-119.263 629.863,-109.594 627.221,-119.854 634.196,-119.263"/>
</g>
<!-- 13&#45;&gt;48 -->
<g id="edge23" class="edge"><title>13&#45;&gt;48</title>
<path fill="none" stroke="green" stroke-width="0.155124" d="M625.781,-154.806C614.641,-144.294 594.868,-125.636 579.788,-111.407"/>
<polygon fill="green" stroke="green" stroke-width="0.155124" points="582.076,-108.753 572.401,-104.436 577.272,-113.845 582.076,-108.753"/>
</g>
<!-- 49 -->
<g id="node50" class="node"><title>49</title>
<ellipse fill="none" stroke="black" cx="683.385" cy="-91.1543" rx="18.2703" ry="18.2703"/>
<text text-anchor="middle" x="683.385" y="-88.9543" font-family="Times New Roman,serif" font-size="9.00">49</text>
</g>
<!-- 13&#45;&gt;49 -->
<g id="edge17" class="edge"><title>13&#45;&gt;49</title>
<path fill="none" stroke="green" stroke-width="0.265458" d="M640.006,-154.806C646.646,-145.216 657.98,-128.846 667.398,-115.244"/>
<polygon fill="green" stroke="green" stroke-width="0.265458" points="670.426,-117.018 673.241,-106.804 664.671,-113.034 670.426,-117.018"/>
</g>
<!-- 14 -->
<g id="node15" class="node"><title>14</title>
<polygon fill="lightgrey" stroke="black" points="212.385,-172.924 186.385,-172.924 186.385,-154.924 212.385,-154.924 212.385,-172.924"/>
<text text-anchor="middle" x="199.385" y="-161.724" font-family="Times New Roman,serif" font-size="9.00">14</text>
</g>
<!-- 14&#45;&gt;32 -->
<g id="edge21" class="edge"><title>14&#45;&gt;32</title>
<path fill="none" stroke="red" stroke-width="0.201687" d="M209.609,-154.693C213.293,-151.767 217.5,-148.473 221.385,-145.539 238.239,-132.81 257.61,-118.859 272.304,-108.412"/>
<polygon fill="red" stroke="red" stroke-width="0.201687" points="274.649,-111.04 280.785,-102.403 270.602,-105.329 274.649,-111.04"/>
</g>
<!-- 35 -->
<g id="node36" class="node"><title>35</title>
<ellipse fill="lightblue" stroke="lightblue" cx="185.385" cy="-91.1543" rx="18.2703" ry="18.2703"/>
<text text-anchor="middle" x="185.385" y="-88.9543" font-family="Times New Roman,serif" font-size="9.00">35</text>
</g>
<!-- 14&#45;&gt;35 -->
<g id="edge36" class="edge"><title>14&#45;&gt;35</title>
<path fill="none" stroke="red" stroke-width="0.387552" d="M197.779,-154.806C196.073,-146.183 193.283,-132.079 190.781,-119.434"/>
<polygon fill="red" stroke="red" stroke-width="0.387552" points="194.152,-118.439 188.778,-109.308 187.286,-119.797 194.152,-118.439"/>
</g>
<!-- 14&#45;&gt;37 -->
<g id="edge2" class="edge"><title>14&#45;&gt;37</title>
<path fill="none" stroke="red" stroke-width="0.522066" d="M191.47,-154.806C181.434,-144.513 163.784,-126.41 150.028,-112.302"/>
<polygon fill="red" stroke="red" stroke-width="0.522066" points="152.347,-109.666 142.86,-104.95 147.335,-114.553 152.347,-109.666"/>
</g>
<!-- 14&#45;&gt;43 -->
<g id="edge20" class="edge"><title>14&#45;&gt;43</title>
<path fill="none" stroke="red" stroke-width="0.342659" d="M204.088,-154.806C209.523,-145.425 218.716,-129.557 226.49,-116.139"/>
<polygon fill="red" stroke="red" stroke-width="0.342659" points="229.597,-117.757 231.581,-107.35 223.54,-114.248 229.597,-117.757"/>
</g>
<!-- 15 -->
<g id="node16" class="node"><title>15</title>
<polygon fill="lightgrey" stroke="black" points="84.3848,-172.924 58.3848,-172.924 58.3848,-154.924 84.3848,-154.924 84.3848,-172.924"/>
<text text-anchor="middle" x="71.3848" y="-161.724" font-family="Times New Roman,serif" font-size="9.00">15</text>
</g>
<!-- 15&#45;&gt;36 -->
<g id="edge9" class="edge"><title>15&#45;&gt;36</title>
<path fill="none" stroke="red" stroke-width="0.425721" d="M65.305,-154.806C57.9645,-145.004 45.3199,-128.12 35.0057,-114.348"/>
<polygon fill="red" stroke="red" stroke-width="0.425721" points="37.7489,-112.172 28.953,-106.266 32.1459,-116.368 37.7489,-112.172"/>
</g>
<!-- 15&#45;&gt;37 -->
<g id="edge13" class="edge"><title>15&#45;&gt;37</title>
<path fill="none" stroke="green" stroke-width="0.474904" d="M78.1528,-154.806C86.5026,-144.79 101.017,-127.38 112.63,-113.451"/>
<polygon fill="green" stroke="green" stroke-width="0.474904" points="115.348,-115.656 119.064,-105.734 109.972,-111.174 115.348,-115.656"/>
</g>
<!-- 40 -->
<g id="node41" class="node"><title>40</title>
<ellipse fill="lightblue" stroke="lightblue" cx="73.3848" cy="-91.1543" rx="18.2703" ry="18.2703"/>
<text text-anchor="middle" x="73.3848" y="-88.9543" font-family="Times New Roman,serif" font-size="9.00">40</text>
</g>
<!-- 15&#45;&gt;40 -->
<g id="edge37" class="edge"><title>15&#45;&gt;40</title>
<path fill="none" stroke="red" stroke-width="0.54332" d="M71.6142,-154.806C71.8563,-146.24 72.2512,-132.264 72.6068,-119.684"/>
<polygon fill="red" stroke="red" stroke-width="0.54332" points="76.1079,-119.689 72.8919,-109.594 69.1107,-119.491 76.1079,-119.689"/>
</g>
<!-- 16 -->
<g id="node17" class="node"><title>16</title>
<polygon fill="lightgrey" stroke="black" points="742.385,-172.924 716.385,-172.924 716.385,-154.924 742.385,-154.924 742.385,-172.924"/>
<text text-anchor="middle" x="729.385" y="-161.724" font-family="Times New Roman,serif" font-size="9.00">16</text>
</g>
<!-- 31 -->
<g id="node32" class="node"><title>31</title>
<ellipse fill="lightblue" stroke="lightblue" cx="704.385" cy="-18.3848" rx="18.2703" ry="18.2703"/>
<text text-anchor="middle" x="704.385" y="-16.1848" font-family="Times New Roman,serif" font-size="9.00">31</text>
</g>
<!-- 16&#45;&gt;31 -->
<g id="edge30" class="edge"><title>16&#45;&gt;31</title>
<path fill="none" stroke="red" stroke-width="0.324418" d="M727.969,-154.795C724.409,-134.353 714.953,-80.0616 709.153,-46.7632"/>
<polygon fill="red" stroke="red" stroke-width="0.324418" points="712.575,-46.0104 707.411,-36.7592 705.679,-47.2115 712.575,-46.0104"/>
</g>
<!-- 38 -->
<g id="node39" class="node"><title>38</title>
<ellipse fill="lightblue" stroke="lightblue" cx="775.385" cy="-91.1543" rx="18.2703" ry="18.2703"/>
<text text-anchor="middle" x="775.385" y="-88.9543" font-family="Times New Roman,serif" font-size="9.00">38</text>
</g>
<!-- 16&#45;&gt;38 -->
<g id="edge28" class="edge"><title>16&#45;&gt;38</title>
<path fill="none" stroke="red" stroke-width="0.322615" d="M734.662,-154.806C740.856,-145.275 751.403,-129.049 760.212,-115.498"/>
<polygon fill="red" stroke="red" stroke-width="0.322615" points="763.17,-117.368 765.686,-107.076 757.301,-113.553 763.17,-117.368"/>
</g>
<!-- 16&#45;&gt;49 -->
<g id="edge1" class="edge"><title>16&#45;&gt;49</title>
<path fill="none" stroke="green" stroke-width="0.3" d="M724.108,-154.806C717.913,-145.275 707.366,-129.049 698.558,-115.498"/>
<polygon fill="green" stroke="green" stroke-width="0.3" points="701.468,-113.553 693.084,-107.076 695.599,-117.368 701.468,-113.553"/>
</g>
<!-- 17 -->
<g id="node18" class="node"><title>17</title>
<polygon fill="lightgrey" stroke="black" points="1060.38,-172.924 1034.38,-172.924 1034.38,-154.924 1060.38,-154.924 1060.38,-172.924"/>
<text text-anchor="middle" x="1047.38" y="-161.724" font-family="Times New Roman,serif" font-size="9.00">17</text>
</g>
<!-- 18 -->
<g id="node19" class="node"><title>18</title>
<polygon fill="lightgrey" stroke="black" points="1104.38,-172.924 1078.38,-172.924 1078.38,-154.924 1104.38,-154.924 1104.38,-172.924"/>
<text text-anchor="middle" x="1091.38" y="-161.724" font-family="Times New Roman,serif" font-size="9.00">18</text>
</g>
<!-- 19 -->
<g id="node20" class="node"><title>19</title>
<polygon fill="lightgrey" stroke="black" points="128.385,-172.924 102.385,-172.924 102.385,-154.924 128.385,-154.924 128.385,-172.924"/>
<text text-anchor="middle" x="115.385" y="-161.724" font-family="Times New Roman,serif" font-size="9.00">19</text>
</g>
<!-- 19&#45;&gt;37 -->
<g id="edge27" class="edge"><title>19&#45;&gt;37</title>
<path fill="none" stroke="green" stroke-width="0.315067" d="M117.105,-154.806C118.933,-146.183 121.923,-132.079 124.603,-119.434"/>
<polygon fill="green" stroke="green" stroke-width="0.315067" points="128.099,-119.817 126.749,-109.308 121.251,-118.365 128.099,-119.817"/>
</g>
<!-- 20 -->
<g id="node21" class="node"><title>20</title>
<polygon fill="lightgrey" stroke="black" points="475.385,-172.924 449.385,-172.924 449.385,-154.924 475.385,-154.924 475.385,-172.924"/>
<text text-anchor="middle" x="462.385" y="-161.724" font-family="Times New Roman,serif" font-size="9.00">20</text>
</g>
<!-- 30 -->
<g id="node31" class="node"><title>30</title>
<ellipse fill="lightblue" stroke="lightblue" cx="465.385" cy="-91.1543" rx="18.2703" ry="18.2703"/>
<text text-anchor="middle" x="465.385" y="-88.9543" font-family="Times New Roman,serif" font-size="9.00">30</text>
</g>
<!-- 20&#45;&gt;30 -->
<g id="edge15" class="edge"><title>20&#45;&gt;30</title>
<path fill="none" stroke="green" stroke-width="0.226233" d="M462.729,-154.806C463.092,-146.24 463.684,-132.264 464.218,-119.684"/>
<polygon fill="green" stroke="green" stroke-width="0.226233" points="467.719,-119.733 464.645,-109.594 460.725,-119.437 467.719,-119.733"/>
</g>
<!-- 20&#45;&gt;46 -->
<g id="edge39" class="edge"><title>20&#45;&gt;46</title>
<path fill="none" stroke="green" stroke-width="0.25064" d="M456.42,-154.806C449.262,-145.064 436.964,-128.327 426.879,-114.602"/>
<polygon fill="green" stroke="green" stroke-width="0.25064" points="429.693,-112.52 420.951,-106.534 424.052,-116.665 429.693,-112.52"/>
</g>
<!-- 21 -->
<g id="node22" class="node"><title>21</title>
<polygon fill="lightgrey" stroke="black" points="559.385,-172.924 533.385,-172.924 533.385,-154.924 559.385,-154.924 559.385,-172.924"/>
<text text-anchor="middle" x="546.385" y="-161.724" font-family="Times New Roman,serif" font-size="9.00">21</text>
</g>
<!-- 21&#45;&gt;48 -->
<g id="edge29" class="edge"><title>21&#45;&gt;48</title>
<path fill="none" stroke="green" stroke-width="0.10366" d="M547.876,-154.806C549.46,-146.183 552.051,-132.079 554.374,-119.434"/>
<polygon fill="green" stroke="green" stroke-width="0.10366" points="557.869,-119.776 556.234,-109.308 550.984,-118.511 557.869,-119.776"/>
</g>
<!-- 22 -->
<g id="node23" class="node"><title>22</title>
<polygon fill="lightgrey" stroke="black" points="696.385,-172.924 670.385,-172.924 670.385,-154.924 696.385,-154.924 696.385,-172.924"/>
<text text-anchor="middle" x="683.385" y="-161.724" font-family="Times New Roman,serif" font-size="9.00">22</text>
</g>
<!-- 22&#45;&gt;49 -->
<g id="edge10" class="edge"><title>22&#45;&gt;49</title>
<path fill="none" stroke="red" stroke-width="0.470598" d="M683.385,-154.806C683.385,-146.24 683.385,-132.264 683.385,-119.684"/>
<polygon fill="red" stroke="red" stroke-width="0.470598" points="686.885,-119.594 683.385,-109.594 679.885,-119.594 686.885,-119.594"/>
</g>
<!-- 23 -->
<g id="node24" class="node"><title>23</title>
<polygon fill="lightgrey" stroke="black" points="1148.38,-172.924 1122.38,-172.924 1122.38,-154.924 1148.38,-154.924 1148.38,-172.924"/>
<text text-anchor="middle" x="1135.38" y="-161.724" font-family="Times New Roman,serif" font-size="9.00">23</text>
</g>
<!-- 50 -->
<g id="node51" class="node"><title>50</title>
<ellipse fill="none" stroke="black" cx="1135.38" cy="-91.1543" rx="18.2703" ry="18.2703"/>
<text text-anchor="middle" x="1135.38" y="-88.9543" font-family="Times New Roman,serif" font-size="9.00">50</text>
</g>
<!-- 23&#45;&gt;50 -->
<g id="edge11" class="edge"><title>23&#45;&gt;50</title>
<path fill="none" stroke="green" stroke-width="0.3" d="M1135.38,-154.806C1135.38,-146.24 1135.38,-132.264 1135.38,-119.684"/>
<polygon fill="green" stroke="green" stroke-width="0.3" points="1138.88,-119.594 1135.38,-109.594 1131.88,-119.594 1138.88,-119.594"/>
</g>
<!-- 24 -->
<g id="node25" class="node"><title>24</title>
<polygon fill="lightgrey" stroke="black" points="1198.38,-172.924 1172.38,-172.924 1172.38,-154.924 1198.38,-154.924 1198.38,-172.924"/>
<text text-anchor="middle" x="1185.38" y="-161.724" font-family="Times New Roman,serif" font-size="9.00">24</text>
</g>
<!-- 34 -->
<g id="node35" class="node"><title>34</title>
<ellipse fill="lightblue" stroke="lightblue" cx="1190.38" cy="-91.1543" rx="18.2703" ry="18.2703"/>
<text text-anchor="middle" x="1190.38" y="-88.9543" font-family="Times New Roman,serif" font-size="9.00">34</text>
</g>
<!-- 24&#45;&gt;34 -->
<g id="edge19" class="edge"><title>24&#45;&gt;34</title>
<path fill="none" stroke="green" stroke-width="0.109832" d="M1185.96,-154.806C1186.56,-146.24 1187.55,-132.264 1188.44,-119.684"/>
<polygon fill="green" stroke="green" stroke-width="0.109832" points="1191.94,-119.816 1189.15,-109.594 1184.96,-119.322 1191.94,-119.816"/>
</g>
<!-- 25 -->
<g id="node26" class="node"><title>25</title>
<polygon fill="lightgrey" stroke="black" points="1242.38,-172.924 1216.38,-172.924 1216.38,-154.924 1242.38,-154.924 1242.38,-172.924"/>
<text text-anchor="middle" x="1229.38" y="-161.724" font-family="Times New Roman,serif" font-size="9.00">25</text>
</g>
<!-- 25&#45;&gt;34 -->
<g id="edge26" class="edge"><title>25&#45;&gt;34</title>
<path fill="none" stroke="red" stroke-width="0.142971" d="M1224.91,-154.806C1219.77,-145.484 1211.11,-129.757 1203.74,-116.392"/>
<polygon fill="red" stroke="red" stroke-width="0.142971" points="1206.8,-114.694 1198.91,-107.625 1200.67,-118.072 1206.8,-114.694"/>
</g>
<!-- 26 -->
<g id="node27" class="node"><title>26</title>
<polygon fill="lightgrey" stroke="black" points="1286.38,-172.924 1260.38,-172.924 1260.38,-154.924 1286.38,-154.924 1286.38,-172.924"/>
<text text-anchor="middle" x="1273.38" y="-161.724" font-family="Times New Roman,serif" font-size="9.00">26</text>
</g>
<!-- 27 -->
<g id="node28" class="node"><title>27</title>
<polygon fill="lightgrey" stroke="black" points="603.385,-172.924 577.385,-172.924 577.385,-154.924 603.385,-154.924 603.385,-172.924"/>
<text text-anchor="middle" x="590.385" y="-161.724" font-family="Times New Roman,serif" font-size="9.00">27</text>
</g>
<!-- 27&#45;&gt;48 -->
<g id="edge5" class="edge"><title>27&#45;&gt;48</title>
<path fill="none" stroke="red" stroke-width="0.189483" d="M586.829,-154.806C582.875,-145.779 576.289,-130.746 570.561,-117.668"/>
<polygon fill="red" stroke="red" stroke-width="0.189483" points="573.623,-115.935 566.405,-108.18 567.211,-118.744 573.623,-115.935"/>
</g>
<!-- 28 -->
<g id="node29" class="node"><title>28</title>
<polygon fill="lightgrey" stroke="black" points="837.385,-100.154 811.385,-100.154 811.385,-82.1543 837.385,-82.1543 837.385,-100.154"/>
<text text-anchor="middle" x="824.385" y="-88.9543" font-family="Times New Roman,serif" font-size="9.00">28</text>
</g>
<!-- 42 -->
<g id="node43" class="node"><title>42</title>
<ellipse fill="lightblue" stroke="lightblue" cx="802.385" cy="-18.3848" rx="18.2703" ry="18.2703"/>
<text text-anchor="middle" x="802.385" y="-16.1848" font-family="Times New Roman,serif" font-size="9.00">42</text>
</g>
<!-- 28&#45;&gt;42 -->
<g id="edge14" class="edge"><title>28&#45;&gt;42</title>
<path fill="none" stroke="red" stroke-width="0.310958" d="M821.861,-82.0362C819.136,-73.2699 814.65,-58.8384 810.669,-46.0345"/>
<polygon fill="red" stroke="red" stroke-width="0.310958" points="813.94,-44.7646 807.629,-36.2544 807.255,-46.8426 813.94,-44.7646"/>
</g>
<!-- 29 -->
<g id="node30" class="node"><title>29</title>
<polygon fill="lightgrey" stroke="black" points="426.385,-172.924 400.385,-172.924 400.385,-154.924 426.385,-154.924 426.385,-172.924"/>
<text text-anchor="middle" x="413.385" y="-161.724" font-family="Times New Roman,serif" font-size="9.00">29</text>
</g>
<!-- 29&#45;&gt;46 -->
<g id="edge6" class="edge"><title>29&#45;&gt;46</title>
<path fill="none" stroke="green" stroke-width="0.398258" d="M413.041,-154.806C412.678,-146.24 412.085,-132.264 411.552,-119.684"/>
<polygon fill="green" stroke="green" stroke-width="0.398258" points="415.045,-119.437 411.124,-109.594 408.051,-119.733 415.045,-119.437"/>
</g>
<!-- 39 -->
<g id="node40" class="node"><title>39</title>
<ellipse fill="lightblue" stroke="lightblue" cx="1135.38" cy="-18.3848" rx="18.2703" ry="18.2703"/>
<text text-anchor="middle" x="1135.38" y="-16.1848" font-family="Times New Roman,serif" font-size="9.00">39</text>
</g>
<!-- 41 -->
<g id="node42" class="node"><title>41</title>
<ellipse fill="lightblue" stroke="lightblue" cx="1322.38" cy="-163.924" rx="18.2703" ry="18.2703"/>
<text text-anchor="middle" x="1322.38" y="-161.724" font-family="Times New Roman,serif" font-size="9.00">41</text>
</g>
<!-- 44 -->
<g id="node45" class="node"><title>44</title>
<ellipse fill="lightblue" stroke="lightblue" cx="1377.38" cy="-163.924" rx="18.2703" ry="18.2703"/>
<text text-anchor="middle" x="1377.38" y="-161.724" font-family="Times New Roman,serif" font-size="9.00">44</text>
</g>
<!-- 49&#45;&gt;31 -->
<g id="edge35" class="edge"><title>49&#45;&gt;31</title>
<path fill="none" stroke="green" stroke-width="0.261782" d="M688.361,-73.3829C690.758,-65.3052 693.692,-55.4183 696.391,-46.3224"/>
<polygon fill="green" stroke="green" stroke-width="0.261782" points="699.808,-47.1099 699.298,-36.5274 693.098,-45.1185 699.808,-47.1099"/>
</g>
<!-- 49&#45;&gt;42 -->
<g id="edge3" class="edge"><title>49&#45;&gt;42</title>
<path fill="none" stroke="green" stroke-width="0.389555" d="M698.942,-80.9024C719.076,-68.9289 754.376,-47.9356 778.066,-33.8471"/>
<polygon fill="green" stroke="green" stroke-width="0.389555" points="780.018,-36.7587 786.824,-28.6389 776.44,-30.7422 780.018,-36.7587"/>
</g>
<!-- 50&#45;&gt;39 -->
<g id="edge16" class="edge"><title>50&#45;&gt;39</title>
<path fill="none" stroke="green" stroke-width="0.180035" d="M1135.38,-72.6607C1135.38,-64.9784 1135.38,-55.7693 1135.38,-47.185"/>
<polygon fill="green" stroke="green" stroke-width="0.180035" points="1138.88,-47.1687 1135.38,-37.1687 1131.88,-47.1687 1138.88,-47.1687"/>
</g>
</g>
</svg>
