<?xml version="1.0" encoding="UTF-8" standalone="no"?>
<!DOCTYPE svg PUBLIC "-//W3C//DTD SVG 1.1//EN"
 "http://www.w3.org/Graphics/SVG/1.1/DTD/svg11.dtd">
<!-- Generated by graphviz version 2.38.0 (20140413.2041)
 -->
<!-- Title: %3 Pages: 1 -->
<svg width="1275pt" height="99pt"
 viewBox="0.00 0.00 1274.50 98.77" xmlns="http://www.w3.org/2000/svg" xmlns:xlink="http://www.w3.org/1999/xlink">
<g id="graph0" class="graph" transform="scale(1 1) rotate(0) translate(4 94.7696)">
<title>%3</title>
<polygon fill="white" stroke="none" points="-4,4 -4,-94.7696 1270.5,-94.7696 1270.5,4 -4,4"/>
<!-- 0 -->
<g id="node1" class="node"><title>0</title>
<polygon fill="lightgrey" stroke="black" points="21,-90.7696 0,-90.7696 0,-72.7696 21,-72.7696 21,-90.7696"/>
<text text-anchor="middle" x="10.5" y="-79.5696" font-family="Times New Roman,serif" font-size="9.00">0</text>
</g>
<!-- 1 -->
<g id="node2" class="node"><title>1</title>
<polygon fill="lightgrey" stroke="black" points="60,-90.7696 39,-90.7696 39,-72.7696 60,-72.7696 60,-90.7696"/>
<text text-anchor="middle" x="49.5" y="-79.5696" font-family="Times New Roman,serif" font-size="9.00">1</text>
</g>
<!-- 32 -->
<g id="node33" class="node"><title>32</title>
<ellipse fill="lightblue" stroke="lightblue" cx="63.5" cy="-18.3848" rx="18.2703" ry="18.2703"/>
<text text-anchor="middle" x="63.5" y="-16.1848" font-family="Times New Roman,serif" font-size="9.00">32</text>
</g>
<!-- 1&#45;&gt;32 -->
<g id="edge2" class="edge"><title>1&#45;&gt;32</title>
<path fill="none" stroke="green" stroke-width="0.517664" d="M51.3303,-72.7446C52.8652,-66.0144 55.1495,-55.9988 57.3257,-46.4566"/>
<polygon fill="green" stroke="green" stroke-width="0.517664" points="60.793,-46.994 59.6043,-36.466 53.9682,-45.4374 60.793,-46.994"/>
</g>
<!-- 2 -->
<g id="node3" class="node"><title>2</title>
<polygon fill="lightgrey" stroke="black" points="144,-90.7696 123,-90.7696 123,-72.7696 144,-72.7696 144,-90.7696"/>
<text text-anchor="middle" x="133.5" y="-79.5696" font-family="Times New Roman,serif" font-size="9.00">2</text>
</g>
<!-- 33 -->
<g id="node34" class="node"><title>33</title>
<ellipse fill="lightblue" stroke="lightblue" cx="133.5" cy="-18.3848" rx="18.2703" ry="18.2703"/>
<text text-anchor="middle" x="133.5" y="-16.1848" font-family="Times New Roman,serif" font-size="9.00">33</text>
</g>
<!-- 2&#45;&gt;33 -->
<g id="edge9" class="edge"><title>2&#45;&gt;33</title>
<path fill="none" stroke="red" stroke-width="0.775037" d="M133.5,-72.7446C133.5,-66.1804 133.5,-56.491 133.5,-47.1637"/>
<polygon fill="red" stroke="red" stroke-width="0.775037" points="137,-46.9726 133.5,-36.9726 130,-46.9727 137,-46.9726"/>
</g>
<!-- 3 -->
<g id="node4" class="node"><title>3</title>
<polygon fill="lightgrey" stroke="black" points="194,-90.7696 173,-90.7696 173,-72.7696 194,-72.7696 194,-90.7696"/>
<text text-anchor="middle" x="183.5" y="-79.5696" font-family="Times New Roman,serif" font-size="9.00">3</text>
</g>
<!-- 30 -->
<g id="node31" class="node"><title>30</title>
<ellipse fill="lightblue" stroke="lightblue" cx="195.5" cy="-18.3848" rx="18.2703" ry="18.2703"/>
<text text-anchor="middle" x="195.5" y="-16.1848" font-family="Times New Roman,serif" font-size="9.00">30</text>
</g>
<!-- 3&#45;&gt;30 -->
<g id="edge5" class="edge"><title>3&#45;&gt;30</title>
<path fill="none" stroke="green" stroke-width="0.288583" d="M185.069,-72.7446C186.384,-66.0144 188.342,-55.9988 190.208,-46.4566"/>
<polygon fill="green" stroke="green" stroke-width="0.288583" points="193.677,-46.9518 192.161,-36.466 186.807,-45.6087 193.677,-46.9518"/>
</g>
<!-- 4 -->
<g id="node5" class="node"><title>4</title>
<polygon fill="lightgrey" stroke="black" points="567,-90.7696 546,-90.7696 546,-72.7696 567,-72.7696 567,-90.7696"/>
<text text-anchor="middle" x="556.5" y="-79.5696" font-family="Times New Roman,serif" font-size="9.00">4</text>
</g>
<!-- 5 -->
<g id="node6" class="node"><title>5</title>
<polygon fill="lightgrey" stroke="black" points="450,-90.7696 429,-90.7696 429,-72.7696 450,-72.7696 450,-90.7696"/>
<text text-anchor="middle" x="439.5" y="-79.5696" font-family="Times New Roman,serif" font-size="9.00">5</text>
</g>
<!-- 34 -->
<g id="node35" class="node"><title>34</title>
<ellipse fill="lightblue" stroke="lightblue" cx="439.5" cy="-18.3848" rx="18.2703" ry="18.2703"/>
<text text-anchor="middle" x="439.5" y="-16.1848" font-family="Times New Roman,serif" font-size="9.00">34</text>
</g>
<!-- 5&#45;&gt;34 -->
<g id="edge8" class="edge"><title>5&#45;&gt;34</title>
<path fill="none" stroke="green" stroke-width="0.500736" d="M439.5,-72.7446C439.5,-66.1804 439.5,-56.491 439.5,-47.1637"/>
<polygon fill="green" stroke="green" stroke-width="0.500736" points="443,-46.9726 439.5,-36.9726 436,-46.9727 443,-46.9726"/>
</g>
<!-- 6 -->
<g id="node7" class="node"><title>6</title>
<polygon fill="lightgrey" stroke="black" points="489,-90.7696 468,-90.7696 468,-72.7696 489,-72.7696 489,-90.7696"/>
<text text-anchor="middle" x="478.5" y="-79.5696" font-family="Times New Roman,serif" font-size="9.00">6</text>
</g>
<!-- 6&#45;&gt;34 -->
<g id="edge11" class="edge"><title>6&#45;&gt;34</title>
<path fill="none" stroke="green" stroke-width="0.926516" d="M473.401,-72.7446C468.562,-65.1278 461.049,-53.303 454.325,-42.7188"/>
<polygon fill="green" stroke="green" stroke-width="0.926516" points="457.255,-40.8031 448.938,-34.2394 451.346,-44.5569 457.255,-40.8031"/>
</g>
<!-- 7 -->
<g id="node8" class="node"><title>7</title>
<polygon fill="lightgrey" stroke="black" points="366,-90.7696 345,-90.7696 345,-72.7696 366,-72.7696 366,-90.7696"/>
<text text-anchor="middle" x="355.5" y="-79.5696" font-family="Times New Roman,serif" font-size="9.00">7</text>
</g>
<!-- 7&#45;&gt;30 -->
<g id="edge10" class="edge"><title>7&#45;&gt;30</title>
<path fill="none" stroke="red" stroke-width="0.460955" d="M344.926,-76.5026C341.887,-75.2865 338.565,-73.967 335.5,-72.7696 296.225,-57.4276 250.558,-40.1113 222.34,-29.4717"/>
<polygon fill="red" stroke="red" stroke-width="0.460955" points="223.369,-26.1193 212.777,-25.8699 220.902,-32.6701 223.369,-26.1193"/>
</g>
<!-- 31 -->
<g id="node32" class="node"><title>31</title>
<ellipse fill="lightblue" stroke="lightblue" cx="291.5" cy="-18.3848" rx="18.2703" ry="18.2703"/>
<text text-anchor="middle" x="291.5" y="-16.1848" font-family="Times New Roman,serif" font-size="9.00">31</text>
</g>
<!-- 7&#45;&gt;31 -->
<g id="edge14" class="edge"><title>7&#45;&gt;31</title>
<path fill="none" stroke="green" stroke-width="0.255639" d="M347.133,-72.7446C338.239,-64.2138 323.841,-50.4044 311.921,-38.9715"/>
<polygon fill="green" stroke="green" stroke-width="0.255639" points="314.168,-36.277 304.528,-31.8809 309.323,-41.329 314.168,-36.277"/>
</g>
<!-- 7&#45;&gt;34 -->
<g id="edge13" class="edge"><title>7&#45;&gt;34</title>
<path fill="none" stroke="green" stroke-width="0.569909" d="M366.139,-72.9951C378.845,-63.7094 400.45,-47.9215 416.932,-35.8765"/>
<polygon fill="green" stroke="green" stroke-width="0.569909" points="419.002,-38.6993 425.011,-29.9732 414.872,-33.0476 419.002,-38.6993"/>
</g>
<!-- 8 -->
<g id="node9" class="node"><title>8</title>
<polygon fill="lightgrey" stroke="black" points="606,-90.7696 585,-90.7696 585,-72.7696 606,-72.7696 606,-90.7696"/>
<text text-anchor="middle" x="595.5" y="-79.5696" font-family="Times New Roman,serif" font-size="9.00">8</text>
</g>
<!-- 9 -->
<g id="node10" class="node"><title>9</title>
<polygon fill="lightgrey" stroke="black" points="528,-90.7696 507,-90.7696 507,-72.7696 528,-72.7696 528,-90.7696"/>
<text text-anchor="middle" x="517.5" y="-79.5696" font-family="Times New Roman,serif" font-size="9.00">9</text>
</g>
<!-- 9&#45;&gt;34 -->
<g id="edge1" class="edge"><title>9&#45;&gt;34</title>
<path fill="none" stroke="red" stroke-width="0.653014" d="M507.303,-72.7446C495.842,-63.7253 476.884,-48.8056 461.924,-37.0322"/>
<polygon fill="red" stroke="red" stroke-width="0.653014" points="463.688,-33.9662 453.665,-30.5322 459.359,-39.4671 463.688,-33.9662"/>
</g>
<!-- 10 -->
<g id="node11" class="node"><title>10</title>
<polygon fill="lightgrey" stroke="black" points="650.5,-90.7696 624.5,-90.7696 624.5,-72.7696 650.5,-72.7696 650.5,-90.7696"/>
<text text-anchor="middle" x="637.5" y="-79.5696" font-family="Times New Roman,serif" font-size="9.00">10</text>
</g>
<!-- 11 -->
<g id="node12" class="node"><title>11</title>
<polygon fill="lightgrey" stroke="black" points="694.5,-90.7696 668.5,-90.7696 668.5,-72.7696 694.5,-72.7696 694.5,-90.7696"/>
<text text-anchor="middle" x="681.5" y="-79.5696" font-family="Times New Roman,serif" font-size="9.00">11</text>
</g>
<!-- 12 -->
<g id="node13" class="node"><title>12</title>
<polygon fill="lightgrey" stroke="black" points="738.5,-90.7696 712.5,-90.7696 712.5,-72.7696 738.5,-72.7696 738.5,-90.7696"/>
<text text-anchor="middle" x="725.5" y="-79.5696" font-family="Times New Roman,serif" font-size="9.00">12</text>
</g>
<!-- 13 -->
<g id="node14" class="node"><title>13</title>
<polygon fill="lightgrey" stroke="black" points="782.5,-90.7696 756.5,-90.7696 756.5,-72.7696 782.5,-72.7696 782.5,-90.7696"/>
<text text-anchor="middle" x="769.5" y="-79.5696" font-family="Times New Roman,serif" font-size="9.00">13</text>
</g>
<!-- 14 -->
<g id="node15" class="node"><title>14</title>
<polygon fill="lightgrey" stroke="black" points="104.5,-90.7696 78.5,-90.7696 78.5,-72.7696 104.5,-72.7696 104.5,-90.7696"/>
<text text-anchor="middle" x="91.5" y="-79.5696" font-family="Times New Roman,serif" font-size="9.00">14</text>
</g>
<!-- 14&#45;&gt;32 -->
<g id="edge12" class="edge"><title>14&#45;&gt;32</title>
<path fill="none" stroke="red" stroke-width="1.23643" d="M87.8395,-72.7446C84.6042,-65.6518 79.7045,-54.9102 75.1472,-44.9192"/>
<polygon fill="red" stroke="red" stroke-width="1.23643" points="78.2828,-43.3595 70.9483,-35.7139 71.9141,-46.2646 78.2828,-43.3595"/>
</g>
<!-- 15 -->
<g id="node16" class="node"><title>15</title>
<polygon fill="lightgrey" stroke="black" points="826.5,-90.7696 800.5,-90.7696 800.5,-72.7696 826.5,-72.7696 826.5,-90.7696"/>
<text text-anchor="middle" x="813.5" y="-79.5696" font-family="Times New Roman,serif" font-size="9.00">15</text>
</g>
<!-- 16 -->
<g id="node17" class="node"><title>16</title>
<polygon fill="lightgrey" stroke="black" points="870.5,-90.7696 844.5,-90.7696 844.5,-72.7696 870.5,-72.7696 870.5,-90.7696"/>
<text text-anchor="middle" x="857.5" y="-79.5696" font-family="Times New Roman,serif" font-size="9.00">16</text>
</g>
<!-- 17 -->
<g id="node18" class="node"><title>17</title>
<polygon fill="lightgrey" stroke="black" points="914.5,-90.7696 888.5,-90.7696 888.5,-72.7696 914.5,-72.7696 914.5,-90.7696"/>
<text text-anchor="middle" x="901.5" y="-79.5696" font-family="Times New Roman,serif" font-size="9.00">17</text>
</g>
<!-- 18 -->
<g id="node19" class="node"><title>18</title>
<polygon fill="lightgrey" stroke="black" points="958.5,-90.7696 932.5,-90.7696 932.5,-72.7696 958.5,-72.7696 958.5,-90.7696"/>
<text text-anchor="middle" x="945.5" y="-79.5696" font-family="Times New Roman,serif" font-size="9.00">18</text>
</g>
<!-- 19 -->
<g id="node20" class="node"><title>19</title>
<polygon fill="lightgrey" stroke="black" points="1002.5,-90.7696 976.5,-90.7696 976.5,-72.7696 1002.5,-72.7696 1002.5,-90.7696"/>
<text text-anchor="middle" x="989.5" y="-79.5696" font-family="Times New Roman,serif" font-size="9.00">19</text>
</g>
<!-- 20 -->
<g id="node21" class="node"><title>20</title>
<polygon fill="lightgrey" stroke="black" points="282.5,-90.7696 256.5,-90.7696 256.5,-72.7696 282.5,-72.7696 282.5,-90.7696"/>
<text text-anchor="middle" x="269.5" y="-79.5696" font-family="Times New Roman,serif" font-size="9.00">20</text>
</g>
<!-- 20&#45;&gt;31 -->
<g id="edge4" class="edge"><title>20&#45;&gt;31</title>
<path fill="none" stroke="green" stroke-width="1.66852" d="M272.376,-72.7446C274.874,-65.7737 278.636,-55.2782 282.164,-45.4348"/>
<polygon fill="green" stroke="green" stroke-width="1.66852" points="285.479,-46.5581 285.558,-35.9635 278.89,-44.1963 285.479,-46.5581"/>
</g>
<!-- 21 -->
<g id="node22" class="node"><title>21</title>
<polygon fill="lightgrey" stroke="black" points="1046.5,-90.7696 1020.5,-90.7696 1020.5,-72.7696 1046.5,-72.7696 1046.5,-90.7696"/>
<text text-anchor="middle" x="1033.5" y="-79.5696" font-family="Times New Roman,serif" font-size="9.00">21</text>
</g>
<!-- 22 -->
<g id="node23" class="node"><title>22</title>
<polygon fill="lightgrey" stroke="black" points="1090.5,-90.7696 1064.5,-90.7696 1064.5,-72.7696 1090.5,-72.7696 1090.5,-90.7696"/>
<text text-anchor="middle" x="1077.5" y="-79.5696" font-family="Times New Roman,serif" font-size="9.00">22</text>
</g>
<!-- 23 -->
<g id="node24" class="node"><title>23</title>
<polygon fill="lightgrey" stroke="black" points="410.5,-90.7696 384.5,-90.7696 384.5,-72.7696 410.5,-72.7696 410.5,-90.7696"/>
<text text-anchor="middle" x="397.5" y="-79.5696" font-family="Times New Roman,serif" font-size="9.00">23</text>
</g>
<!-- 23&#45;&gt;34 -->
<g id="edge6" class="edge"><title>23&#45;&gt;34</title>
<path fill="none" stroke="red" stroke-width="0.654122" d="M402.991,-72.7446C408.202,-65.1278 416.293,-53.303 423.535,-42.7188"/>
<polygon fill="red" stroke="red" stroke-width="0.654122" points="426.578,-44.4689 429.336,-34.2394 420.801,-40.5161 426.578,-44.4689"/>
</g>
<!-- 24 -->
<g id="node25" class="node"><title>24</title>
<polygon fill="lightgrey" stroke="black" points="1134.5,-90.7696 1108.5,-90.7696 1108.5,-72.7696 1134.5,-72.7696 1134.5,-90.7696"/>
<text text-anchor="middle" x="1121.5" y="-79.5696" font-family="Times New Roman,serif" font-size="9.00">24</text>
</g>
<!-- 25 -->
<g id="node26" class="node"><title>25</title>
<polygon fill="lightgrey" stroke="black" points="1178.5,-90.7696 1152.5,-90.7696 1152.5,-72.7696 1178.5,-72.7696 1178.5,-90.7696"/>
<text text-anchor="middle" x="1165.5" y="-79.5696" font-family="Times New Roman,serif" font-size="9.00">25</text>
</g>
<!-- 26 -->
<g id="node27" class="node"><title>26</title>
<polygon fill="lightgrey" stroke="black" points="1222.5,-90.7696 1196.5,-90.7696 1196.5,-72.7696 1222.5,-72.7696 1222.5,-90.7696"/>
<text text-anchor="middle" x="1209.5" y="-79.5696" font-family="Times New Roman,serif" font-size="9.00">26</text>
</g>
<!-- 27 -->
<g id="node28" class="node"><title>27</title>
<polygon fill="lightgrey" stroke="black" points="326.5,-90.7696 300.5,-90.7696 300.5,-72.7696 326.5,-72.7696 326.5,-90.7696"/>
<text text-anchor="middle" x="313.5" y="-79.5696" font-family="Times New Roman,serif" font-size="9.00">27</text>
</g>
<!-- 27&#45;&gt;31 -->
<g id="edge7" class="edge"><title>27&#45;&gt;31</title>
<path fill="none" stroke="green" stroke-width="0.679187" d="M310.624,-72.7446C308.126,-65.7737 304.364,-55.2782 300.836,-45.4348"/>
<polygon fill="green" stroke="green" stroke-width="0.679187" points="304.11,-44.1963 297.442,-35.9635 297.521,-46.5581 304.11,-44.1963"/>
</g>
<!-- 28 -->
<g id="node29" class="node"><title>28</title>
<polygon fill="lightgrey" stroke="black" points="238.5,-90.7696 212.5,-90.7696 212.5,-72.7696 238.5,-72.7696 238.5,-90.7696"/>
<text text-anchor="middle" x="225.5" y="-79.5696" font-family="Times New Roman,serif" font-size="9.00">28</text>
</g>
<!-- 28&#45;&gt;31 -->
<g id="edge3" class="edge"><title>28&#45;&gt;31</title>
<path fill="none" stroke="red" stroke-width="0.127316" d="M234.128,-72.7446C243.301,-64.2138 258.148,-50.4044 270.441,-38.9715"/>
<polygon fill="red" stroke="red" stroke-width="0.127316" points="273.126,-41.2542 278.064,-31.8809 268.358,-36.1285 273.126,-41.2542"/>
</g>
<!-- 29 -->
<g id="node30" class="node"><title>29</title>
<polygon fill="lightgrey" stroke="black" points="1266.5,-90.7696 1240.5,-90.7696 1240.5,-72.7696 1266.5,-72.7696 1266.5,-90.7696"/>
<text text-anchor="middle" x="1253.5" y="-79.5696" font-family="Times New Roman,serif" font-size="9.00">29</text>
</g>
</g>
</svg>
