<?xml version="1.0" encoding="UTF-8" standalone="no"?>
<!DOCTYPE svg PUBLIC "-//W3C//DTD SVG 1.1//EN"
 "http://www.w3.org/Graphics/SVG/1.1/DTD/svg11.dtd">
<!-- Generated by graphviz version 2.38.0 (20140413.2041)
 -->
<!-- Title: %3 Pages: 1 -->
<svg width="1266pt" height="99pt"
 viewBox="0.00 0.00 1265.50 98.77" xmlns="http://www.w3.org/2000/svg" xmlns:xlink="http://www.w3.org/1999/xlink">
<g id="graph0" class="graph" transform="scale(1 1) rotate(0) translate(4 94.7696)">
<title>%3</title>
<polygon fill="white" stroke="none" points="-4,4 -4,-94.7696 1261.5,-94.7696 1261.5,4 -4,4"/>
<!-- 0 -->
<g id="node1" class="node"><title>0</title>
<polygon fill="lightgrey" stroke="black" points="21,-90.7696 0,-90.7696 0,-72.7696 21,-72.7696 21,-90.7696"/>
<text text-anchor="middle" x="10.5" y="-79.5696" font-family="Times New Roman,serif" font-size="9.00">0</text>
</g>
<!-- 33 -->
<g id="node34" class="node"><title>33</title>
<ellipse fill="lightblue" stroke="lightblue" cx="91.5" cy="-18.3848" rx="18.2703" ry="18.2703"/>
<text text-anchor="middle" x="91.5" y="-16.1848" font-family="Times New Roman,serif" font-size="9.00">33</text>
</g>
<!-- 0&#45;&gt;33 -->
<g id="edge11" class="edge"><title>0&#45;&gt;33</title>
<path fill="none" stroke="red" stroke-width="0.101698" stroke-dasharray="1,5" d="M21.0893,-72.7446C33.1743,-63.5862 53.2871,-48.3439 68.9293,-36.4897"/>
<polygon fill="red" stroke="red" stroke-width="0.101698" points="71.2241,-39.1421 77.0801,-30.3127 66.9962,-33.5632 71.2241,-39.1421"/>
</g>
<!-- 1 -->
<g id="node2" class="node"><title>1</title>
<polygon fill="lightgrey" stroke="black" points="606,-90.7696 585,-90.7696 585,-72.7696 606,-72.7696 606,-90.7696"/>
<text text-anchor="middle" x="595.5" y="-79.5696" font-family="Times New Roman,serif" font-size="9.00">1</text>
</g>
<!-- 32 -->
<g id="node33" class="node"><title>32</title>
<ellipse fill="lightblue" stroke="lightblue" cx="574.5" cy="-18.3848" rx="18.2703" ry="18.2703"/>
<text text-anchor="middle" x="574.5" y="-16.1848" font-family="Times New Roman,serif" font-size="9.00">32</text>
</g>
<!-- 1&#45;&gt;32 -->
<g id="edge10" class="edge"><title>1&#45;&gt;32</title>
<path fill="none" stroke="green" stroke-width="0.517664" d="M592.755,-72.7446C590.37,-65.7737 586.779,-55.2782 583.412,-45.4348"/>
<polygon fill="green" stroke="green" stroke-width="0.517664" points="586.72,-44.2922 580.172,-35.9635 580.097,-46.5581 586.72,-44.2922"/>
</g>
<!-- 2 -->
<g id="node3" class="node"><title>2</title>
<polygon fill="lightgrey" stroke="black" points="60,-90.7696 39,-90.7696 39,-72.7696 60,-72.7696 60,-90.7696"/>
<text text-anchor="middle" x="49.5" y="-79.5696" font-family="Times New Roman,serif" font-size="9.00">2</text>
</g>
<!-- 2&#45;&gt;33 -->
<g id="edge18" class="edge"><title>2&#45;&gt;33</title>
<path fill="none" stroke="red" stroke-width="0.775037" d="M54.9908,-72.7446C60.2022,-65.1278 68.2929,-53.303 75.5347,-42.7188"/>
<polygon fill="red" stroke="red" stroke-width="0.775037" points="78.578,-44.4689 81.3363,-34.2394 72.8009,-40.5161 78.578,-44.4689"/>
</g>
<!-- 3 -->
<g id="node4" class="node"><title>3</title>
<polygon fill="lightgrey" stroke="black" points="478,-90.7696 457,-90.7696 457,-72.7696 478,-72.7696 478,-90.7696"/>
<text text-anchor="middle" x="467.5" y="-79.5696" font-family="Times New Roman,serif" font-size="9.00">3</text>
</g>
<!-- 30 -->
<g id="node31" class="node"><title>30</title>
<ellipse fill="lightblue" stroke="lightblue" cx="456.5" cy="-18.3848" rx="18.2703" ry="18.2703"/>
<text text-anchor="middle" x="456.5" y="-16.1848" font-family="Times New Roman,serif" font-size="9.00">30</text>
</g>
<!-- 3&#45;&gt;30 -->
<g id="edge14" class="edge"><title>3&#45;&gt;30</title>
<path fill="none" stroke="green" stroke-width="0.288583" d="M466.062,-72.7446C464.864,-66.0621 463.087,-56.1407 461.388,-46.6597"/>
<polygon fill="green" stroke="green" stroke-width="0.288583" points="464.815,-45.9446 459.606,-36.7188 457.925,-47.1794 464.815,-45.9446"/>
</g>
<!-- 4 -->
<g id="node5" class="node"><title>4</title>
<polygon fill="lightgrey" stroke="black" points="690,-90.7696 669,-90.7696 669,-72.7696 690,-72.7696 690,-90.7696"/>
<text text-anchor="middle" x="679.5" y="-79.5696" font-family="Times New Roman,serif" font-size="9.00">4</text>
</g>
<!-- 5 -->
<g id="node6" class="node"><title>5</title>
<polygon fill="lightgrey" stroke="black" points="316,-90.7696 295,-90.7696 295,-72.7696 316,-72.7696 316,-90.7696"/>
<text text-anchor="middle" x="305.5" y="-79.5696" font-family="Times New Roman,serif" font-size="9.00">5</text>
</g>
<!-- 31 -->
<g id="node32" class="node"><title>31</title>
<ellipse fill="lightblue" stroke="lightblue" cx="284.5" cy="-18.3848" rx="18.2703" ry="18.2703"/>
<text text-anchor="middle" x="284.5" y="-16.1848" font-family="Times New Roman,serif" font-size="9.00">31</text>
</g>
<!-- 5&#45;&gt;31 -->
<g id="edge1" class="edge"><title>5&#45;&gt;31</title>
<path fill="none" stroke="red" stroke-width="0.330918" stroke-dasharray="1,5" d="M302.755,-72.7446C300.37,-65.7737 296.779,-55.2782 293.412,-45.4348"/>
<polygon fill="red" stroke="red" stroke-width="0.330918" points="296.72,-44.2922 290.172,-35.9635 290.097,-46.5581 296.72,-44.2922"/>
</g>
<!-- 34 -->
<g id="node35" class="node"><title>34</title>
<ellipse fill="lightblue" stroke="lightblue" cx="389.5" cy="-18.3848" rx="18.2703" ry="18.2703"/>
<text text-anchor="middle" x="389.5" y="-16.1848" font-family="Times New Roman,serif" font-size="9.00">34</text>
</g>
<!-- 5&#45;&gt;34 -->
<g id="edge17" class="edge"><title>5&#45;&gt;34</title>
<path fill="none" stroke="green" stroke-width="0.500736" d="M316.139,-72.9951C328.845,-63.7094 350.45,-47.9215 366.932,-35.8765"/>
<polygon fill="green" stroke="green" stroke-width="0.500736" points="369.002,-38.6993 375.011,-29.9732 364.872,-33.0476 369.002,-38.6993"/>
</g>
<!-- 6 -->
<g id="node7" class="node"><title>6</title>
<polygon fill="lightgrey" stroke="black" points="400,-90.7696 379,-90.7696 379,-72.7696 400,-72.7696 400,-90.7696"/>
<text text-anchor="middle" x="389.5" y="-79.5696" font-family="Times New Roman,serif" font-size="9.00">6</text>
</g>
<!-- 6&#45;&gt;34 -->
<g id="edge21" class="edge"><title>6&#45;&gt;34</title>
<path fill="none" stroke="green" stroke-width="0.926516" d="M389.5,-72.7446C389.5,-66.1804 389.5,-56.491 389.5,-47.1637"/>
<polygon fill="green" stroke="green" stroke-width="0.926516" points="393,-46.9726 389.5,-36.9726 386,-46.9727 393,-46.9726"/>
</g>
<!-- 7 -->
<g id="node8" class="node"><title>7</title>
<polygon fill="lightgrey" stroke="black" points="439,-90.7696 418,-90.7696 418,-72.7696 439,-72.7696 439,-90.7696"/>
<text text-anchor="middle" x="428.5" y="-79.5696" font-family="Times New Roman,serif" font-size="9.00">7</text>
</g>
<!-- 7&#45;&gt;30 -->
<g id="edge20" class="edge"><title>7&#45;&gt;30</title>
<path fill="none" stroke="red" stroke-width="0.460955" d="M432.161,-72.7446C435.396,-65.6518 440.295,-54.9102 444.853,-44.9192"/>
<polygon fill="red" stroke="red" stroke-width="0.460955" points="448.086,-46.2646 449.052,-35.7139 441.717,-43.3595 448.086,-46.2646"/>
</g>
<!-- 7&#45;&gt;31 -->
<g id="edge24" class="edge"><title>7&#45;&gt;31</title>
<path fill="none" stroke="green" stroke-width="0.255639" d="M417.677,-76.1557C395.131,-66.5448 342.581,-44.1437 310.645,-30.53"/>
<polygon fill="green" stroke="green" stroke-width="0.255639" points="311.636,-27.1478 301.065,-26.446 308.891,-33.5872 311.636,-27.1478"/>
</g>
<!-- 7&#45;&gt;34 -->
<g id="edge23" class="edge"><title>7&#45;&gt;34</title>
<path fill="none" stroke="green" stroke-width="0.569909" d="M423.401,-72.7446C418.562,-65.1278 411.049,-53.303 404.325,-42.7188"/>
<polygon fill="green" stroke="green" stroke-width="0.569909" points="407.255,-40.8031 398.938,-34.2394 401.346,-44.5569 407.255,-40.8031"/>
</g>
<!-- 8 -->
<g id="node9" class="node"><title>8</title>
<polygon fill="lightgrey" stroke="black" points="729,-90.7696 708,-90.7696 708,-72.7696 729,-72.7696 729,-90.7696"/>
<text text-anchor="middle" x="718.5" y="-79.5696" font-family="Times New Roman,serif" font-size="9.00">8</text>
</g>
<!-- 9 -->
<g id="node10" class="node"><title>9</title>
<polygon fill="lightgrey" stroke="black" points="232,-90.7696 211,-90.7696 211,-72.7696 232,-72.7696 232,-90.7696"/>
<text text-anchor="middle" x="221.5" y="-79.5696" font-family="Times New Roman,serif" font-size="9.00">9</text>
</g>
<!-- 9&#45;&gt;33 -->
<g id="edge8" class="edge"><title>9&#45;&gt;33</title>
<path fill="none" stroke="green" stroke-width="0.730706" stroke-dasharray="1,5" d="M210.862,-75.7462C190.574,-66.1666 145.836,-45.0417 117.263,-31.5497"/>
<polygon fill="green" stroke="green" stroke-width="0.730706" points="118.434,-28.2321 107.897,-27.1271 115.445,-34.5619 118.434,-28.2321"/>
</g>
<!-- 9&#45;&gt;34 -->
<g id="edge2" class="edge"><title>9&#45;&gt;34</title>
<path fill="none" stroke="red" stroke-width="0.653014" d="M232.061,-76.4667C235.099,-75.25 238.424,-73.9392 241.5,-72.7696 283.523,-56.7912 332.689,-39.2911 362.442,-28.8312"/>
<polygon fill="red" stroke="red" stroke-width="0.653014" points="363.834,-32.0518 372.112,-25.4391 361.517,-25.4464 363.834,-32.0518"/>
</g>
<!-- 10 -->
<g id="node11" class="node"><title>10</title>
<polygon fill="lightgrey" stroke="black" points="773.5,-90.7696 747.5,-90.7696 747.5,-72.7696 773.5,-72.7696 773.5,-90.7696"/>
<text text-anchor="middle" x="760.5" y="-79.5696" font-family="Times New Roman,serif" font-size="9.00">10</text>
</g>
<!-- 11 -->
<g id="node12" class="node"><title>11</title>
<polygon fill="lightgrey" stroke="black" points="522.5,-90.7696 496.5,-90.7696 496.5,-72.7696 522.5,-72.7696 522.5,-90.7696"/>
<text text-anchor="middle" x="509.5" y="-79.5696" font-family="Times New Roman,serif" font-size="9.00">11</text>
</g>
<!-- 11&#45;&gt;32 -->
<g id="edge19" class="edge"><title>11&#45;&gt;32</title>
<path fill="none" stroke="red" stroke-width="0.130896" stroke-dasharray="1,5" d="M517.998,-72.7446C527.031,-64.2138 541.653,-50.4044 553.76,-38.9715"/>
<polygon fill="red" stroke="red" stroke-width="0.130896" points="556.401,-41.2915 561.268,-31.8809 551.594,-36.2023 556.401,-41.2915"/>
</g>
<!-- 11&#45;&gt;34 -->
<g id="edge9" class="edge"><title>11&#45;&gt;34</title>
<path fill="none" stroke="green" stroke-width="0.575494" stroke-dasharray="1,5" d="M496.199,-73.9658C476.59,-63.9349 439.565,-44.9951 414.71,-32.2806"/>
<polygon fill="green" stroke="green" stroke-width="0.575494" points="416.021,-29.02 405.524,-27.5818 412.833,-35.252 416.021,-29.02"/>
</g>
<!-- 12 -->
<g id="node13" class="node"><title>12</title>
<polygon fill="lightgrey" stroke="black" points="276.5,-90.7696 250.5,-90.7696 250.5,-72.7696 276.5,-72.7696 276.5,-90.7696"/>
<text text-anchor="middle" x="263.5" y="-79.5696" font-family="Times New Roman,serif" font-size="9.00">12</text>
</g>
<!-- 12&#45;&gt;31 -->
<g id="edge4" class="edge"><title>12&#45;&gt;31</title>
<path fill="none" stroke="red" stroke-width="0.128375" stroke-dasharray="1,5" d="M266.245,-72.7446C268.63,-65.7737 272.221,-55.2782 275.588,-45.4348"/>
<polygon fill="red" stroke="red" stroke-width="0.128375" points="278.903,-46.5581 278.828,-35.9635 272.28,-44.2922 278.903,-46.5581"/>
</g>
<!-- 13 -->
<g id="node14" class="node"><title>13</title>
<polygon fill="lightgrey" stroke="black" points="817.5,-90.7696 791.5,-90.7696 791.5,-72.7696 817.5,-72.7696 817.5,-90.7696"/>
<text text-anchor="middle" x="804.5" y="-79.5696" font-family="Times New Roman,serif" font-size="9.00">13</text>
</g>
<!-- 14 -->
<g id="node15" class="node"><title>14</title>
<polygon fill="lightgrey" stroke="black" points="650.5,-90.7696 624.5,-90.7696 624.5,-72.7696 650.5,-72.7696 650.5,-90.7696"/>
<text text-anchor="middle" x="637.5" y="-79.5696" font-family="Times New Roman,serif" font-size="9.00">14</text>
</g>
<!-- 14&#45;&gt;32 -->
<g id="edge22" class="edge"><title>14&#45;&gt;32</title>
<path fill="none" stroke="red" stroke-width="1.23643" d="M629.264,-72.7446C620.509,-64.2138 606.336,-50.4044 594.602,-38.9715"/>
<polygon fill="red" stroke="red" stroke-width="1.23643" points="596.93,-36.3528 587.325,-31.8809 592.045,-41.3664 596.93,-36.3528"/>
</g>
<!-- 15 -->
<g id="node16" class="node"><title>15</title>
<polygon fill="lightgrey" stroke="black" points="861.5,-90.7696 835.5,-90.7696 835.5,-72.7696 861.5,-72.7696 861.5,-90.7696"/>
<text text-anchor="middle" x="848.5" y="-79.5696" font-family="Times New Roman,serif" font-size="9.00">15</text>
</g>
<!-- 16 -->
<g id="node17" class="node"><title>16</title>
<polygon fill="lightgrey" stroke="black" points="905.5,-90.7696 879.5,-90.7696 879.5,-72.7696 905.5,-72.7696 905.5,-90.7696"/>
<text text-anchor="middle" x="892.5" y="-79.5696" font-family="Times New Roman,serif" font-size="9.00">16</text>
</g>
<!-- 17 -->
<g id="node18" class="node"><title>17</title>
<polygon fill="lightgrey" stroke="black" points="949.5,-90.7696 923.5,-90.7696 923.5,-72.7696 949.5,-72.7696 949.5,-90.7696"/>
<text text-anchor="middle" x="936.5" y="-79.5696" font-family="Times New Roman,serif" font-size="9.00">17</text>
</g>
<!-- 18 -->
<g id="node19" class="node"><title>18</title>
<polygon fill="lightgrey" stroke="black" points="993.5,-90.7696 967.5,-90.7696 967.5,-72.7696 993.5,-72.7696 993.5,-90.7696"/>
<text text-anchor="middle" x="980.5" y="-79.5696" font-family="Times New Roman,serif" font-size="9.00">18</text>
</g>
<!-- 19 -->
<g id="node20" class="node"><title>19</title>
<polygon fill="lightgrey" stroke="black" points="104.5,-90.7696 78.5,-90.7696 78.5,-72.7696 104.5,-72.7696 104.5,-90.7696"/>
<text text-anchor="middle" x="91.5" y="-79.5696" font-family="Times New Roman,serif" font-size="9.00">19</text>
</g>
<!-- 19&#45;&gt;33 -->
<g id="edge6" class="edge"><title>19&#45;&gt;33</title>
<path fill="none" stroke="red" stroke-width="0.513878" stroke-dasharray="1,5" d="M91.5,-72.7446C91.5,-66.1804 91.5,-56.491 91.5,-47.1637"/>
<polygon fill="red" stroke="red" stroke-width="0.513878" points="95.0001,-46.9726 91.5,-36.9726 88.0001,-46.9727 95.0001,-46.9726"/>
</g>
<!-- 20 -->
<g id="node21" class="node"><title>20</title>
<polygon fill="lightgrey" stroke="black" points="360.5,-90.7696 334.5,-90.7696 334.5,-72.7696 360.5,-72.7696 360.5,-90.7696"/>
<text text-anchor="middle" x="347.5" y="-79.5696" font-family="Times New Roman,serif" font-size="9.00">20</text>
</g>
<!-- 20&#45;&gt;31 -->
<g id="edge13" class="edge"><title>20&#45;&gt;31</title>
<path fill="none" stroke="green" stroke-width="1.66852" d="M339.264,-72.7446C330.509,-64.2138 316.336,-50.4044 304.602,-38.9715"/>
<polygon fill="green" stroke="green" stroke-width="1.66852" points="306.93,-36.3528 297.325,-31.8809 302.045,-41.3664 306.93,-36.3528"/>
</g>
<!-- 20&#45;&gt;34 -->
<g id="edge3" class="edge"><title>20&#45;&gt;34</title>
<path fill="none" stroke="red" stroke-width="0.803728" stroke-dasharray="1,5" d="M352.991,-72.7446C358.202,-65.1278 366.293,-53.303 373.535,-42.7188"/>
<polygon fill="red" stroke="red" stroke-width="0.803728" points="376.578,-44.4689 379.336,-34.2394 370.801,-40.5161 376.578,-44.4689"/>
</g>
<!-- 21 -->
<g id="node22" class="node"><title>21</title>
<polygon fill="lightgrey" stroke="black" points="1037.5,-90.7696 1011.5,-90.7696 1011.5,-72.7696 1037.5,-72.7696 1037.5,-90.7696"/>
<text text-anchor="middle" x="1024.5" y="-79.5696" font-family="Times New Roman,serif" font-size="9.00">21</text>
</g>
<!-- 22 -->
<g id="node23" class="node"><title>22</title>
<polygon fill="lightgrey" stroke="black" points="1081.5,-90.7696 1055.5,-90.7696 1055.5,-72.7696 1081.5,-72.7696 1081.5,-90.7696"/>
<text text-anchor="middle" x="1068.5" y="-79.5696" font-family="Times New Roman,serif" font-size="9.00">22</text>
</g>
<!-- 23 -->
<g id="node24" class="node"><title>23</title>
<polygon fill="lightgrey" stroke="black" points="566.5,-90.7696 540.5,-90.7696 540.5,-72.7696 566.5,-72.7696 566.5,-90.7696"/>
<text text-anchor="middle" x="553.5" y="-79.5696" font-family="Times New Roman,serif" font-size="9.00">23</text>
</g>
<!-- 23&#45;&gt;32 -->
<g id="edge5" class="edge"><title>23&#45;&gt;32</title>
<path fill="none" stroke="red" stroke-width="1.12156" stroke-dasharray="1,5" d="M556.245,-72.7446C558.63,-65.7737 562.221,-55.2782 565.588,-45.4348"/>
<polygon fill="red" stroke="red" stroke-width="1.12156" points="568.903,-46.5581 568.828,-35.9635 562.28,-44.2922 568.903,-46.5581"/>
</g>
<!-- 23&#45;&gt;34 -->
<g id="edge15" class="edge"><title>23&#45;&gt;34</title>
<path fill="none" stroke="red" stroke-width="0.654122" d="M540.478,-76.0113C537.528,-74.9396 534.408,-73.8113 531.5,-72.7696 486.243,-56.5549 474.24,-54.3617 429.5,-36.7696 424.898,-34.9598 420.04,-32.9419 415.357,-30.9399"/>
<polygon fill="red" stroke="red" stroke-width="0.654122" points="416.693,-27.7045 406.127,-26.9245 413.901,-34.1234 416.693,-27.7045"/>
</g>
<!-- 24 -->
<g id="node25" class="node"><title>24</title>
<polygon fill="lightgrey" stroke="black" points="1125.5,-90.7696 1099.5,-90.7696 1099.5,-72.7696 1125.5,-72.7696 1125.5,-90.7696"/>
<text text-anchor="middle" x="1112.5" y="-79.5696" font-family="Times New Roman,serif" font-size="9.00">24</text>
</g>
<!-- 25 -->
<g id="node26" class="node"><title>25</title>
<polygon fill="lightgrey" stroke="black" points="1169.5,-90.7696 1143.5,-90.7696 1143.5,-72.7696 1169.5,-72.7696 1169.5,-90.7696"/>
<text text-anchor="middle" x="1156.5" y="-79.5696" font-family="Times New Roman,serif" font-size="9.00">25</text>
</g>
<!-- 26 -->
<g id="node27" class="node"><title>26</title>
<polygon fill="lightgrey" stroke="black" points="1213.5,-90.7696 1187.5,-90.7696 1187.5,-72.7696 1213.5,-72.7696 1213.5,-90.7696"/>
<text text-anchor="middle" x="1200.5" y="-79.5696" font-family="Times New Roman,serif" font-size="9.00">26</text>
</g>
<!-- 27 -->
<g id="node28" class="node"><title>27</title>
<polygon fill="lightgrey" stroke="black" points="148.5,-90.7696 122.5,-90.7696 122.5,-72.7696 148.5,-72.7696 148.5,-90.7696"/>
<text text-anchor="middle" x="135.5" y="-79.5696" font-family="Times New Roman,serif" font-size="9.00">27</text>
</g>
<!-- 27&#45;&gt;31 -->
<g id="edge16" class="edge"><title>27&#45;&gt;31</title>
<path fill="none" stroke="green" stroke-width="0.679187" d="M148.723,-75.3221C173.144,-65.2609 225.753,-43.5875 257.84,-30.3679"/>
<polygon fill="green" stroke="green" stroke-width="0.679187" points="259.563,-33.4437 267.476,-26.3984 256.897,-26.9715 259.563,-33.4437"/>
</g>
<!-- 27&#45;&gt;33 -->
<g id="edge7" class="edge"><title>27&#45;&gt;33</title>
<path fill="none" stroke="green" stroke-width="1.05333" stroke-dasharray="1,5" d="M129.748,-72.7446C124.16,-64.9491 115.413,-52.7457 107.693,-41.9758"/>
<polygon fill="green" stroke="green" stroke-width="1.05333" points="110.473,-39.8461 101.802,-33.7574 104.783,-43.9242 110.473,-39.8461"/>
</g>
<!-- 28 -->
<g id="node29" class="node"><title>28</title>
<polygon fill="lightgrey" stroke="black" points="192.5,-90.7696 166.5,-90.7696 166.5,-72.7696 192.5,-72.7696 192.5,-90.7696"/>
<text text-anchor="middle" x="179.5" y="-79.5696" font-family="Times New Roman,serif" font-size="9.00">28</text>
</g>
<!-- 28&#45;&gt;31 -->
<g id="edge12" class="edge"><title>28&#45;&gt;31</title>
<path fill="none" stroke="red" stroke-width="0.127316" d="M192.798,-72.9951C209.719,-63.103 239.262,-45.8317 260.24,-33.5674"/>
<polygon fill="red" stroke="red" stroke-width="0.127316" points="262.056,-36.5604 268.922,-28.4919 258.523,-30.5174 262.056,-36.5604"/>
</g>
<!-- 29 -->
<g id="node30" class="node"><title>29</title>
<polygon fill="lightgrey" stroke="black" points="1257.5,-90.7696 1231.5,-90.7696 1231.5,-72.7696 1257.5,-72.7696 1257.5,-90.7696"/>
<text text-anchor="middle" x="1244.5" y="-79.5696" font-family="Times New Roman,serif" font-size="9.00">29</text>
</g>
</g>
</svg>
