<?xml version="1.0" encoding="UTF-8" standalone="no"?>
<!DOCTYPE svg PUBLIC "-//W3C//DTD SVG 1.1//EN"
 "http://www.w3.org/Graphics/SVG/1.1/DTD/svg11.dtd">
<!-- Generated by graphviz version 2.38.0 (20140413.2041)
 -->
<!-- Title: %3 Pages: 1 -->
<svg width="1289pt" height="172pt"
 viewBox="0.00 0.00 1289.00 171.54" xmlns="http://www.w3.org/2000/svg" xmlns:xlink="http://www.w3.org/1999/xlink">
<g id="graph0" class="graph" transform="scale(1 1) rotate(0) translate(4 167.539)">
<title>%3</title>
<polygon fill="white" stroke="none" points="-4,4 -4,-167.539 1285,-167.539 1285,4 -4,4"/>
<!-- 0 -->
<g id="node1" class="node"><title>0</title>
<polygon fill="lightgrey" stroke="black" points="233.5,-100.154 212.5,-100.154 212.5,-82.1543 233.5,-82.1543 233.5,-100.154"/>
<text text-anchor="middle" x="223" y="-88.9543" font-family="Times New Roman,serif" font-size="9.00">0</text>
</g>
<!-- 31 -->
<g id="node32" class="node"><title>31</title>
<ellipse fill="lightblue" stroke="lightblue" cx="223" cy="-18.3848" rx="18.2703" ry="18.2703"/>
<text text-anchor="middle" x="223" y="-16.1848" font-family="Times New Roman,serif" font-size="9.00">31</text>
</g>
<!-- 0&#45;&gt;31 -->
<g id="edge13" class="edge"><title>0&#45;&gt;31</title>
<path fill="none" stroke="red" stroke-width="0.431361" d="M223,-82.0362C223,-73.4701 223,-59.4947 223,-46.9144"/>
<polygon fill="red" stroke="red" stroke-width="0.431361" points="226.5,-46.8244 223,-36.8245 219.5,-46.8245 226.5,-46.8244"/>
</g>
<!-- 1 -->
<g id="node2" class="node"><title>1</title>
<polygon fill="lightgrey" stroke="black" points="65.5,-100.154 44.5,-100.154 44.5,-82.1543 65.5,-82.1543 65.5,-100.154"/>
<text text-anchor="middle" x="55" y="-88.9543" font-family="Times New Roman,serif" font-size="9.00">1</text>
</g>
<!-- 32 -->
<g id="node33" class="node"><title>32</title>
<ellipse fill="lightblue" stroke="lightblue" cx="76" cy="-18.3848" rx="18.2703" ry="18.2703"/>
<text text-anchor="middle" x="76" y="-16.1848" font-family="Times New Roman,serif" font-size="9.00">32</text>
</g>
<!-- 1&#45;&gt;32 -->
<g id="edge10" class="edge"><title>1&#45;&gt;32</title>
<path fill="none" stroke="green" stroke-width="0.405354" d="M57.409,-82.0362C60.0103,-73.2699 64.2926,-58.8384 68.092,-46.0345"/>
<polygon fill="green" stroke="green" stroke-width="0.405354" points="71.5047,-46.8369 70.9942,-36.2544 64.7939,-44.8455 71.5047,-46.8369"/>
</g>
<!-- 2 -->
<g id="node3" class="node"><title>2</title>
<polygon fill="lightgrey" stroke="black" points="483.5,-100.154 462.5,-100.154 462.5,-82.1543 483.5,-82.1543 483.5,-100.154"/>
<text text-anchor="middle" x="473" y="-88.9543" font-family="Times New Roman,serif" font-size="9.00">2</text>
</g>
<!-- 33 -->
<g id="node34" class="node"><title>33</title>
<ellipse fill="lightblue" stroke="lightblue" cx="452" cy="-18.3848" rx="18.2703" ry="18.2703"/>
<text text-anchor="middle" x="452" y="-16.1848" font-family="Times New Roman,serif" font-size="9.00">33</text>
</g>
<!-- 2&#45;&gt;33 -->
<g id="edge20" class="edge"><title>2&#45;&gt;33</title>
<path fill="none" stroke="red" stroke-width="0.188213" d="M470.591,-82.0362C467.99,-73.2699 463.707,-58.8384 459.908,-46.0345"/>
<polygon fill="red" stroke="red" stroke-width="0.188213" points="463.206,-44.8455 457.006,-36.2544 456.495,-46.8369 463.206,-44.8455"/>
</g>
<!-- 3 -->
<g id="node4" class="node"><title>3</title>
<polygon fill="lightgrey" stroke="black" points="713.5,-163.539 692.5,-163.539 692.5,-145.539 713.5,-145.539 713.5,-163.539"/>
<text text-anchor="middle" x="703" y="-152.339" font-family="Times New Roman,serif" font-size="9.00">3</text>
</g>
<!-- 4 -->
<g id="node5" class="node"><title>4</title>
<polygon fill="lightgrey" stroke="black" points="149.5,-100.154 128.5,-100.154 128.5,-82.1543 149.5,-82.1543 149.5,-100.154"/>
<text text-anchor="middle" x="139" y="-88.9543" font-family="Times New Roman,serif" font-size="9.00">4</text>
</g>
<!-- 4&#45;&gt;31 -->
<g id="edge5" class="edge"><title>4&#45;&gt;31</title>
<path fill="none" stroke="green" stroke-width="0.30743" d="M148.327,-81.978C151.679,-79.0574 155.497,-75.7523 159,-72.7696 172.963,-60.8795 188.788,-47.6766 201.209,-37.3756"/>
<polygon fill="green" stroke="green" stroke-width="0.30743" points="203.729,-39.833 209.199,-30.7595 199.265,-34.4414 203.729,-39.833"/>
</g>
<!-- 4&#45;&gt;32 -->
<g id="edge24" class="edge"><title>4&#45;&gt;32</title>
<path fill="none" stroke="green" stroke-width="0.18727" d="M131.773,-82.0362C122.803,-71.96 107.17,-54.3991 94.7333,-40.4284"/>
<polygon fill="green" stroke="green" stroke-width="0.18727" points="97.1179,-37.8432 87.8544,-32.7012 91.8894,-42.4976 97.1179,-37.8432"/>
</g>
<!-- 5 -->
<g id="node6" class="node"><title>5</title>
<polygon fill="lightgrey" stroke="black" points="674.5,-163.539 653.5,-163.539 653.5,-145.539 674.5,-145.539 674.5,-163.539"/>
<text text-anchor="middle" x="664" y="-152.339" font-family="Times New Roman,serif" font-size="9.00">5</text>
</g>
<!-- 34 -->
<g id="node35" class="node"><title>34</title>
<ellipse fill="lightblue" stroke="lightblue" cx="596" cy="-18.3848" rx="18.2703" ry="18.2703"/>
<text text-anchor="middle" x="596" y="-16.1848" font-family="Times New Roman,serif" font-size="9.00">34</text>
</g>
<!-- 5&#45;&gt;34 -->
<g id="edge17" class="edge"><title>5&#45;&gt;34</title>
<path fill="none" stroke="red" stroke-width="0.318668" d="M667.07,-145.429C672.292,-130.229 681.209,-96.8232 669,-72.7696 659.258,-53.5755 639.015,-39.6292 622.311,-30.8147"/>
<polygon fill="red" stroke="red" stroke-width="0.318668" points="623.509,-27.5026 612.992,-26.2169 620.411,-33.7802 623.509,-27.5026"/>
</g>
<!-- 35 -->
<g id="node36" class="node"><title>35</title>
<ellipse fill="none" stroke="black" cx="642" cy="-91.1543" rx="18.2703" ry="18.2703"/>
<text text-anchor="middle" x="642" y="-88.9543" font-family="Times New Roman,serif" font-size="9.00">35</text>
</g>
<!-- 5&#45;&gt;35 -->
<g id="edge11" class="edge"><title>5&#45;&gt;35</title>
<path fill="none" stroke="green" stroke-width="0.3" d="M661.124,-145.514C658.626,-138.543 654.864,-128.048 651.336,-118.204"/>
<polygon fill="green" stroke="green" stroke-width="0.3" points="654.61,-116.966 647.942,-108.733 648.021,-119.328 654.61,-116.966"/>
</g>
<!-- 6 -->
<g id="node7" class="node"><title>6</title>
<polygon fill="lightgrey" stroke="black" points="272.5,-100.154 251.5,-100.154 251.5,-82.1543 272.5,-82.1543 272.5,-100.154"/>
<text text-anchor="middle" x="262" y="-88.9543" font-family="Times New Roman,serif" font-size="9.00">6</text>
</g>
<!-- 6&#45;&gt;31 -->
<g id="edge19" class="edge"><title>6&#45;&gt;31</title>
<path fill="none" stroke="green" stroke-width="0.20087" d="M257.526,-82.0362C252.389,-72.7145 243.722,-56.987 236.357,-43.6225"/>
<polygon fill="green" stroke="green" stroke-width="0.20087" points="239.417,-41.9242 231.526,-34.8553 233.287,-45.3028 239.417,-41.9242"/>
</g>
<!-- 7 -->
<g id="node8" class="node"><title>7</title>
<polygon fill="lightgrey" stroke="black" points="752.5,-163.539 731.5,-163.539 731.5,-145.539 752.5,-145.539 752.5,-163.539"/>
<text text-anchor="middle" x="742" y="-152.339" font-family="Times New Roman,serif" font-size="9.00">7</text>
</g>
<!-- 8 -->
<g id="node9" class="node"><title>8</title>
<polygon fill="lightgrey" stroke="black" points="311.5,-100.154 290.5,-100.154 290.5,-82.1543 311.5,-82.1543 311.5,-100.154"/>
<text text-anchor="middle" x="301" y="-88.9543" font-family="Times New Roman,serif" font-size="9.00">8</text>
</g>
<!-- 8&#45;&gt;31 -->
<g id="edge4" class="edge"><title>8&#45;&gt;31</title>
<path fill="none" stroke="green" stroke-width="0.368188" d="M292.052,-82.0362C280.398,-71.4625 259.66,-52.6468 243.943,-38.3865"/>
<polygon fill="green" stroke="green" stroke-width="0.368188" points="246.014,-35.5398 236.256,-31.4124 241.311,-40.724 246.014,-35.5398"/>
</g>
<!-- 9 -->
<g id="node10" class="node"><title>9</title>
<polygon fill="lightgrey" stroke="black" points="567.5,-100.154 546.5,-100.154 546.5,-82.1543 567.5,-82.1543 567.5,-100.154"/>
<text text-anchor="middle" x="557" y="-88.9543" font-family="Times New Roman,serif" font-size="9.00">9</text>
</g>
<!-- 9&#45;&gt;34 -->
<g id="edge2" class="edge"><title>9&#45;&gt;34</title>
<path fill="none" stroke="green" stroke-width="0.335706" d="M561.474,-82.0362C566.611,-72.7145 575.278,-56.987 582.643,-43.6225"/>
<polygon fill="green" stroke="green" stroke-width="0.335706" points="585.713,-45.3028 587.474,-34.8553 579.583,-41.9242 585.713,-45.3028"/>
</g>
<!-- 10 -->
<g id="node11" class="node"><title>10</title>
<polygon fill="lightgrey" stroke="black" points="797,-163.539 771,-163.539 771,-145.539 797,-145.539 797,-163.539"/>
<text text-anchor="middle" x="784" y="-152.339" font-family="Times New Roman,serif" font-size="9.00">10</text>
</g>
<!-- 11 -->
<g id="node12" class="node"><title>11</title>
<polygon fill="lightgrey" stroke="black" points="528,-100.154 502,-100.154 502,-82.1543 528,-82.1543 528,-100.154"/>
<text text-anchor="middle" x="515" y="-88.9543" font-family="Times New Roman,serif" font-size="9.00">11</text>
</g>
<!-- 11&#45;&gt;33 -->
<g id="edge16" class="edge"><title>11&#45;&gt;33</title>
<path fill="none" stroke="red" stroke-width="0.708259" d="M507.773,-82.0362C498.803,-71.96 483.17,-54.3991 470.733,-40.4284"/>
<polygon fill="red" stroke="red" stroke-width="0.708259" points="473.118,-37.8432 463.854,-32.7012 467.889,-42.4976 473.118,-37.8432"/>
</g>
<!-- 11&#45;&gt;34 -->
<g id="edge9" class="edge"><title>11&#45;&gt;34</title>
<path fill="none" stroke="red" stroke-width="0.470848" d="M524.292,-82.0362C536.576,-71.3031 558.581,-52.0775 574.986,-37.7447"/>
<polygon fill="red" stroke="red" stroke-width="0.470848" points="577.294,-40.3756 582.522,-31.1603 572.689,-35.1041 577.294,-40.3756"/>
</g>
<!-- 12 -->
<g id="node13" class="node"><title>12</title>
<polygon fill="lightgrey" stroke="black" points="841,-163.539 815,-163.539 815,-145.539 841,-145.539 841,-163.539"/>
<text text-anchor="middle" x="828" y="-152.339" font-family="Times New Roman,serif" font-size="9.00">12</text>
</g>
<!-- 13 -->
<g id="node14" class="node"><title>13</title>
<polygon fill="lightgrey" stroke="black" points="633,-163.539 607,-163.539 607,-145.539 633,-145.539 633,-163.539"/>
<text text-anchor="middle" x="620" y="-152.339" font-family="Times New Roman,serif" font-size="9.00">13</text>
</g>
<!-- 13&#45;&gt;34 -->
<g id="edge18" class="edge"><title>13&#45;&gt;34</title>
<path fill="none" stroke="green" stroke-width="0.315138" d="M618.499,-145.147C615.047,-125.854 606.421,-77.6365 600.909,-46.8229"/>
<polygon fill="green" stroke="green" stroke-width="0.315138" points="604.309,-45.9529 599.102,-36.7255 597.418,-47.1856 604.309,-45.9529"/>
</g>
<!-- 13&#45;&gt;35 -->
<g id="edge14" class="edge"><title>13&#45;&gt;35</title>
<path fill="none" stroke="red" stroke-width="0.212884" d="M622.876,-145.514C625.374,-138.543 629.136,-128.048 632.664,-118.204"/>
<polygon fill="red" stroke="red" stroke-width="0.212884" points="635.979,-119.328 636.058,-108.733 629.39,-116.966 635.979,-119.328"/>
</g>
<!-- 14 -->
<g id="node15" class="node"><title>14</title>
<polygon fill="lightgrey" stroke="black" points="110,-100.154 84,-100.154 84,-82.1543 110,-82.1543 110,-100.154"/>
<text text-anchor="middle" x="97" y="-88.9543" font-family="Times New Roman,serif" font-size="9.00">14</text>
</g>
<!-- 14&#45;&gt;31 -->
<g id="edge7" class="edge"><title>14&#45;&gt;31</title>
<path fill="none" stroke="red" stroke-width="0.104161" d="M106.554,-81.942C110.312,-78.8906 114.742,-75.5079 119,-72.7696 144.461,-56.3958 175.558,-40.9795 197.08,-30.9634"/>
<polygon fill="red" stroke="red" stroke-width="0.104161" points="198.613,-34.111 206.24,-26.7573 195.692,-27.7496 198.613,-34.111"/>
</g>
<!-- 14&#45;&gt;32 -->
<g id="edge22" class="edge"><title>14&#45;&gt;32</title>
<path fill="none" stroke="red" stroke-width="0.528767" d="M94.591,-82.0362C91.9897,-73.2699 87.7074,-58.8384 83.908,-46.0345"/>
<polygon fill="red" stroke="red" stroke-width="0.528767" points="87.2061,-44.8455 81.0058,-36.2544 80.4953,-46.8369 87.2061,-44.8455"/>
</g>
<!-- 15 -->
<g id="node16" class="node"><title>15</title>
<polygon fill="lightgrey" stroke="black" points="26,-100.154 0,-100.154 0,-82.1543 26,-82.1543 26,-100.154"/>
<text text-anchor="middle" x="13" y="-88.9543" font-family="Times New Roman,serif" font-size="9.00">15</text>
</g>
<!-- 15&#45;&gt;32 -->
<g id="edge3" class="edge"><title>15&#45;&gt;32</title>
<path fill="none" stroke="red" stroke-width="0.211897" d="M20.2269,-82.0362C29.1968,-71.96 44.8297,-54.3991 57.2667,-40.4284"/>
<polygon fill="red" stroke="red" stroke-width="0.211897" points="60.1106,-42.4976 64.1456,-32.7012 54.8821,-37.8432 60.1106,-42.4976"/>
</g>
<!-- 16 -->
<g id="node17" class="node"><title>16</title>
<polygon fill="lightgrey" stroke="black" points="885,-163.539 859,-163.539 859,-145.539 885,-145.539 885,-163.539"/>
<text text-anchor="middle" x="872" y="-152.339" font-family="Times New Roman,serif" font-size="9.00">16</text>
</g>
<!-- 17 -->
<g id="node18" class="node"><title>17</title>
<polygon fill="lightgrey" stroke="black" points="929,-163.539 903,-163.539 903,-145.539 929,-145.539 929,-163.539"/>
<text text-anchor="middle" x="916" y="-152.339" font-family="Times New Roman,serif" font-size="9.00">17</text>
</g>
<!-- 18 -->
<g id="node19" class="node"><title>18</title>
<polygon fill="lightgrey" stroke="black" points="444,-100.154 418,-100.154 418,-82.1543 444,-82.1543 444,-100.154"/>
<text text-anchor="middle" x="431" y="-88.9543" font-family="Times New Roman,serif" font-size="9.00">18</text>
</g>
<!-- 18&#45;&gt;33 -->
<g id="edge23" class="edge"><title>18&#45;&gt;33</title>
<path fill="none" stroke="green" stroke-width="0.146804" d="M433.409,-82.0362C436.01,-73.2699 440.293,-58.8384 444.092,-46.0345"/>
<polygon fill="green" stroke="green" stroke-width="0.146804" points="447.505,-46.8369 446.994,-36.2544 440.794,-44.8455 447.505,-46.8369"/>
</g>
<!-- 19 -->
<g id="node20" class="node"><title>19</title>
<polygon fill="lightgrey" stroke="black" points="973,-163.539 947,-163.539 947,-145.539 973,-145.539 973,-163.539"/>
<text text-anchor="middle" x="960" y="-152.339" font-family="Times New Roman,serif" font-size="9.00">19</text>
</g>
<!-- 20 -->
<g id="node21" class="node"><title>20</title>
<polygon fill="lightgrey" stroke="black" points="1017,-163.539 991,-163.539 991,-145.539 1017,-145.539 1017,-163.539"/>
<text text-anchor="middle" x="1004" y="-152.339" font-family="Times New Roman,serif" font-size="9.00">20</text>
</g>
<!-- 21 -->
<g id="node22" class="node"><title>21</title>
<polygon fill="lightgrey" stroke="black" points="1061,-163.539 1035,-163.539 1035,-145.539 1061,-145.539 1061,-163.539"/>
<text text-anchor="middle" x="1048" y="-152.339" font-family="Times New Roman,serif" font-size="9.00">21</text>
</g>
<!-- 22 -->
<g id="node23" class="node"><title>22</title>
<polygon fill="lightgrey" stroke="black" points="194,-100.154 168,-100.154 168,-82.1543 194,-82.1543 194,-100.154"/>
<text text-anchor="middle" x="181" y="-88.9543" font-family="Times New Roman,serif" font-size="9.00">22</text>
</g>
<!-- 22&#45;&gt;31 -->
<g id="edge6" class="edge"><title>22&#45;&gt;31</title>
<path fill="none" stroke="green" stroke-width="0.114384" d="M185.818,-82.0362C191.385,-72.6555 200.802,-56.7877 208.766,-43.369"/>
<polygon fill="green" stroke="green" stroke-width="0.114384" points="211.888,-44.9661 213.982,-34.5802 205.868,-41.3935 211.888,-44.9661"/>
</g>
<!-- 23 -->
<g id="node24" class="node"><title>23</title>
<polygon fill="lightgrey" stroke="black" points="1105,-163.539 1079,-163.539 1079,-145.539 1105,-145.539 1105,-163.539"/>
<text text-anchor="middle" x="1092" y="-152.339" font-family="Times New Roman,serif" font-size="9.00">23</text>
</g>
<!-- 24 -->
<g id="node25" class="node"><title>24</title>
<polygon fill="lightgrey" stroke="black" points="1149,-163.539 1123,-163.539 1123,-145.539 1149,-145.539 1149,-163.539"/>
<text text-anchor="middle" x="1136" y="-152.339" font-family="Times New Roman,serif" font-size="9.00">24</text>
</g>
<!-- 25 -->
<g id="node26" class="node"><title>25</title>
<polygon fill="lightgrey" stroke="black" points="1193,-163.539 1167,-163.539 1167,-145.539 1193,-145.539 1193,-163.539"/>
<text text-anchor="middle" x="1180" y="-152.339" font-family="Times New Roman,serif" font-size="9.00">25</text>
</g>
<!-- 26 -->
<g id="node27" class="node"><title>26</title>
<polygon fill="lightgrey" stroke="black" points="1237,-163.539 1211,-163.539 1211,-145.539 1237,-145.539 1237,-163.539"/>
<text text-anchor="middle" x="1224" y="-152.339" font-family="Times New Roman,serif" font-size="9.00">26</text>
</g>
<!-- 27 -->
<g id="node28" class="node"><title>27</title>
<polygon fill="lightgrey" stroke="black" points="1281,-163.539 1255,-163.539 1255,-145.539 1281,-145.539 1281,-163.539"/>
<text text-anchor="middle" x="1268" y="-152.339" font-family="Times New Roman,serif" font-size="9.00">27</text>
</g>
<!-- 28 -->
<g id="node29" class="node"><title>28</title>
<polygon fill="lightgrey" stroke="black" points="400,-100.154 374,-100.154 374,-82.1543 400,-82.1543 400,-100.154"/>
<text text-anchor="middle" x="387" y="-88.9543" font-family="Times New Roman,serif" font-size="9.00">28</text>
</g>
<!-- 30 -->
<g id="node31" class="node"><title>30</title>
<ellipse fill="lightblue" stroke="lightblue" cx="365" cy="-18.3848" rx="18.2703" ry="18.2703"/>
<text text-anchor="middle" x="365" y="-16.1848" font-family="Times New Roman,serif" font-size="9.00">30</text>
</g>
<!-- 28&#45;&gt;30 -->
<g id="edge8" class="edge"><title>28&#45;&gt;30</title>
<path fill="none" stroke="red" stroke-width="0.24335" d="M384.476,-82.0362C381.751,-73.2699 377.265,-58.8384 373.285,-46.0345"/>
<polygon fill="red" stroke="red" stroke-width="0.24335" points="376.555,-44.7646 370.244,-36.2544 369.871,-46.8426 376.555,-44.7646"/>
</g>
<!-- 28&#45;&gt;31 -->
<g id="edge12" class="edge"><title>28&#45;&gt;31</title>
<path fill="none" stroke="green" stroke-width="0.362844" d="M378.033,-82.0339C374.208,-78.8534 369.578,-75.3553 365,-72.7696 327.461,-51.5653 279.867,-35.6503 250.427,-26.9305"/>
<polygon fill="green" stroke="green" stroke-width="0.362844" points="251.396,-23.5674 240.817,-24.1494 249.45,-30.2915 251.396,-23.5674"/>
</g>
<!-- 28&#45;&gt;33 -->
<g id="edge21" class="edge"><title>28&#45;&gt;33</title>
<path fill="none" stroke="red" stroke-width="0.10793" d="M394.456,-82.0362C403.767,-71.8993 420.035,-54.1873 432.904,-40.1763"/>
<polygon fill="red" stroke="red" stroke-width="0.10793" points="435.823,-42.1722 440.009,-32.4397 430.667,-37.4371 435.823,-42.1722"/>
</g>
<!-- 29 -->
<g id="node30" class="node"><title>29</title>
<polygon fill="lightgrey" stroke="black" points="356,-100.154 330,-100.154 330,-82.1543 356,-82.1543 356,-100.154"/>
<text text-anchor="middle" x="343" y="-88.9543" font-family="Times New Roman,serif" font-size="9.00">29</text>
</g>
<!-- 29&#45;&gt;30 -->
<g id="edge15" class="edge"><title>29&#45;&gt;30</title>
<path fill="none" stroke="red" stroke-width="0.103704" d="M345.524,-82.0362C348.249,-73.2699 352.735,-58.8384 356.715,-46.0345"/>
<polygon fill="red" stroke="red" stroke-width="0.103704" points="360.129,-46.8426 359.756,-36.2544 353.445,-44.7646 360.129,-46.8426"/>
</g>
<!-- 35&#45;&gt;34 -->
<g id="edge1" class="edge"><title>35&#45;&gt;34</title>
<path fill="none" stroke="red" stroke-width="0.318668" d="M632.245,-75.1459C626.146,-65.7632 618.162,-53.481 611.241,-42.8325"/>
<polygon fill="red" stroke="red" stroke-width="0.318668" points="614.126,-40.8485 605.741,-34.3715 608.257,-44.6635 614.126,-40.8485"/>
</g>
</g>
</svg>
