<?xml version="1.0" encoding="UTF-8" standalone="no"?>
<!DOCTYPE svg PUBLIC "-//W3C//DTD SVG 1.1//EN"
 "http://www.w3.org/Graphics/SVG/1.1/DTD/svg11.dtd">
<!-- Generated by graphviz version 2.38.0 (20140413.2041)
 -->
<!-- Title: %3 Pages: 1 -->
<svg width="1289pt" height="172pt"
 viewBox="0.00 0.00 1289.00 171.54" xmlns="http://www.w3.org/2000/svg" xmlns:xlink="http://www.w3.org/1999/xlink">
<g id="graph0" class="graph" transform="scale(1 1) rotate(0) translate(4 167.539)">
<title>%3</title>
<polygon fill="white" stroke="none" points="-4,4 -4,-167.539 1285,-167.539 1285,4 -4,4"/>
<!-- 0 -->
<g id="node1" class="node"><title>0</title>
<polygon fill="lightgrey" stroke="black" points="188.5,-100.154 167.5,-100.154 167.5,-82.1543 188.5,-82.1543 188.5,-100.154"/>
<text text-anchor="middle" x="178" y="-88.9543" font-family="Times New Roman,serif" font-size="9.00">0</text>
</g>
<!-- 31 -->
<g id="node32" class="node"><title>31</title>
<ellipse fill="lightblue" stroke="lightblue" cx="262" cy="-18.3848" rx="18.2703" ry="18.2703"/>
<text text-anchor="middle" x="262" y="-16.1848" font-family="Times New Roman,serif" font-size="9.00">31</text>
</g>
<!-- 0&#45;&gt;31 -->
<g id="edge19" class="edge"><title>0&#45;&gt;31</title>
<path fill="none" stroke="red" stroke-width="0.431361" d="M187.327,-81.978C190.679,-79.0574 194.497,-75.7523 198,-72.7696 211.963,-60.8795 227.788,-47.6766 240.209,-37.3756"/>
<polygon fill="red" stroke="red" stroke-width="0.431361" points="242.729,-39.833 248.199,-30.7595 238.265,-34.4414 242.729,-39.833"/>
</g>
<!-- 1 -->
<g id="node2" class="node"><title>1</title>
<polygon fill="lightgrey" stroke="black" points="65.5,-100.154 44.5,-100.154 44.5,-82.1543 65.5,-82.1543 65.5,-100.154"/>
<text text-anchor="middle" x="55" y="-88.9543" font-family="Times New Roman,serif" font-size="9.00">1</text>
</g>
<!-- 1&#45;&gt;31 -->
<g id="edge27" class="edge"><title>1&#45;&gt;31</title>
<path fill="none" stroke="red" stroke-width="0.330254" stroke-dasharray="1,5" d="M62.4802,-81.8C65.7426,-78.5837 69.7831,-75.122 74,-72.7696 126.272,-43.609 195.779,-29.287 233.944,-23.2004"/>
<polygon fill="red" stroke="red" stroke-width="0.330254" points="234.477,-26.6598 243.837,-21.6966 233.424,-19.7393 234.477,-26.6598"/>
</g>
<!-- 32 -->
<g id="node33" class="node"><title>32</title>
<ellipse fill="lightblue" stroke="lightblue" cx="94" cy="-18.3848" rx="18.2703" ry="18.2703"/>
<text text-anchor="middle" x="94" y="-16.1848" font-family="Times New Roman,serif" font-size="9.00">32</text>
</g>
<!-- 1&#45;&gt;32 -->
<g id="edge14" class="edge"><title>1&#45;&gt;32</title>
<path fill="none" stroke="green" stroke-width="0.405354" d="M59.4738,-82.0362C64.6108,-72.7145 73.278,-56.987 80.643,-43.6225"/>
<polygon fill="green" stroke="green" stroke-width="0.405354" points="83.7133,-45.3028 85.4744,-34.8553 77.5825,-41.9242 83.7133,-45.3028"/>
</g>
<!-- 2 -->
<g id="node3" class="node"><title>2</title>
<polygon fill="lightgrey" stroke="black" points="567.5,-100.154 546.5,-100.154 546.5,-82.1543 567.5,-82.1543 567.5,-100.154"/>
<text text-anchor="middle" x="557" y="-88.9543" font-family="Times New Roman,serif" font-size="9.00">2</text>
</g>
<!-- 33 -->
<g id="node34" class="node"><title>33</title>
<ellipse fill="lightblue" stroke="lightblue" cx="536" cy="-18.3848" rx="18.2703" ry="18.2703"/>
<text text-anchor="middle" x="536" y="-16.1848" font-family="Times New Roman,serif" font-size="9.00">33</text>
</g>
<!-- 2&#45;&gt;33 -->
<g id="edge30" class="edge"><title>2&#45;&gt;33</title>
<path fill="none" stroke="red" stroke-width="0.188213" d="M554.591,-82.0362C551.99,-73.2699 547.707,-58.8384 543.908,-46.0345"/>
<polygon fill="red" stroke="red" stroke-width="0.188213" points="547.206,-44.8455 541.006,-36.2544 540.495,-46.8369 547.206,-44.8455"/>
</g>
<!-- 3 -->
<g id="node4" class="node"><title>3</title>
<polygon fill="lightgrey" stroke="black" points="606.5,-100.154 585.5,-100.154 585.5,-82.1543 606.5,-82.1543 606.5,-100.154"/>
<text text-anchor="middle" x="596" y="-88.9543" font-family="Times New Roman,serif" font-size="9.00">3</text>
</g>
<!-- 3&#45;&gt;33 -->
<g id="edge22" class="edge"><title>3&#45;&gt;33</title>
<path fill="none" stroke="red" stroke-width="0.215395" stroke-dasharray="1,5" d="M589.117,-82.0362C580.626,-72.0207 565.865,-54.6104 554.056,-40.6812"/>
<polygon fill="red" stroke="red" stroke-width="0.215395" points="556.65,-38.3286 547.513,-32.9644 551.31,-42.8554 556.65,-38.3286"/>
</g>
<!-- 4 -->
<g id="node5" class="node"><title>4</title>
<polygon fill="lightgrey" stroke="black" points="104.5,-100.154 83.5,-100.154 83.5,-82.1543 104.5,-82.1543 104.5,-100.154"/>
<text text-anchor="middle" x="94" y="-88.9543" font-family="Times New Roman,serif" font-size="9.00">4</text>
</g>
<!-- 4&#45;&gt;31 -->
<g id="edge6" class="edge"><title>4&#45;&gt;31</title>
<path fill="none" stroke="green" stroke-width="0.30743" d="M102.028,-81.9636C105.486,-78.7723 109.715,-75.2851 114,-72.7696 152.982,-49.884 203.411,-34.2781 234.199,-26.1036"/>
<polygon fill="green" stroke="green" stroke-width="0.30743" points="235.408,-29.4065 244.218,-23.5224 233.661,-22.6278 235.408,-29.4065"/>
</g>
<!-- 4&#45;&gt;32 -->
<g id="edge36" class="edge"><title>4&#45;&gt;32</title>
<path fill="none" stroke="green" stroke-width="0.18727" d="M94,-82.0362C94,-73.4701 94,-59.4947 94,-46.9144"/>
<polygon fill="green" stroke="green" stroke-width="0.18727" points="97.5001,-46.8244 94,-36.8245 90.5001,-46.8245 97.5001,-46.8244"/>
</g>
<!-- 5 -->
<g id="node6" class="node"><title>5</title>
<polygon fill="lightgrey" stroke="black" points="796.5,-163.539 775.5,-163.539 775.5,-145.539 796.5,-145.539 796.5,-163.539"/>
<text text-anchor="middle" x="786" y="-152.339" font-family="Times New Roman,serif" font-size="9.00">5</text>
</g>
<!-- 34 -->
<g id="node35" class="node"><title>34</title>
<ellipse fill="lightblue" stroke="lightblue" cx="634" cy="-18.3848" rx="18.2703" ry="18.2703"/>
<text text-anchor="middle" x="634" y="-16.1848" font-family="Times New Roman,serif" font-size="9.00">34</text>
</g>
<!-- 5&#45;&gt;34 -->
<g id="edge26" class="edge"><title>5&#45;&gt;34</title>
<path fill="none" stroke="red" stroke-width="0.318668" d="M789.53,-145.52C795.816,-129.887 806.87,-94.9284 791,-72.7696 761.706,-31.8678 699.249,-21.931 662.553,-19.7436"/>
<polygon fill="red" stroke="red" stroke-width="0.318668" points="662.641,-16.2442 652.496,-19.3 662.333,-23.2374 662.641,-16.2442"/>
</g>
<!-- 35 -->
<g id="node36" class="node"><title>35</title>
<ellipse fill="none" stroke="black" cx="764" cy="-91.1543" rx="18.2703" ry="18.2703"/>
<text text-anchor="middle" x="764" y="-88.9543" font-family="Times New Roman,serif" font-size="9.00">35</text>
</g>
<!-- 5&#45;&gt;35 -->
<g id="edge15" class="edge"><title>5&#45;&gt;35</title>
<path fill="none" stroke="green" stroke-width="0.3" d="M783.124,-145.514C780.626,-138.543 776.864,-128.048 773.336,-118.204"/>
<polygon fill="green" stroke="green" stroke-width="0.3" points="776.61,-116.966 769.942,-108.733 770.021,-119.328 776.61,-116.966"/>
</g>
<!-- 6 -->
<g id="node7" class="node"><title>6</title>
<polygon fill="lightgrey" stroke="black" points="311.5,-100.154 290.5,-100.154 290.5,-82.1543 311.5,-82.1543 311.5,-100.154"/>
<text text-anchor="middle" x="301" y="-88.9543" font-family="Times New Roman,serif" font-size="9.00">6</text>
</g>
<!-- 6&#45;&gt;31 -->
<g id="edge29" class="edge"><title>6&#45;&gt;31</title>
<path fill="none" stroke="green" stroke-width="0.20087" d="M296.526,-82.0362C291.389,-72.7145 282.722,-56.987 275.357,-43.6225"/>
<polygon fill="green" stroke="green" stroke-width="0.20087" points="278.417,-41.9242 270.526,-34.8553 272.287,-45.3028 278.417,-41.9242"/>
</g>
<!-- 6&#45;&gt;34 -->
<g id="edge31" class="edge"><title>6&#45;&gt;34</title>
<path fill="none" stroke="red" stroke-width="0.220338" stroke-dasharray="1,5" d="M308.423,-81.8867C311.907,-78.5221 316.32,-74.9251 321,-72.7696 419.767,-27.2796 456.299,-57.7227 563,-36.7696 577.444,-33.9331 593.375,-30.098 606.48,-26.7516"/>
<polygon fill="red" stroke="red" stroke-width="0.220338" points="607.503,-30.1022 616.302,-24.2009 605.743,-23.3269 607.503,-30.1022"/>
</g>
<!-- 7 -->
<g id="node8" class="node"><title>7</title>
<polygon fill="lightgrey" stroke="black" points="645.5,-100.154 624.5,-100.154 624.5,-82.1543 645.5,-82.1543 645.5,-100.154"/>
<text text-anchor="middle" x="635" y="-88.9543" font-family="Times New Roman,serif" font-size="9.00">7</text>
</g>
<!-- 7&#45;&gt;33 -->
<g id="edge11" class="edge"><title>7&#45;&gt;33</title>
<path fill="none" stroke="green" stroke-width="0.270029" stroke-dasharray="1,5" d="M626.73,-82.0794C623.482,-79.0448 619.66,-75.6379 616,-72.7696 598.093,-58.7352 576.584,-44.5169 560.381,-34.2863"/>
<polygon fill="green" stroke="green" stroke-width="0.270029" points="561.858,-31.0819 551.521,-28.755 558.15,-37.0197 561.858,-31.0819"/>
</g>
<!-- 8 -->
<g id="node9" class="node"><title>8</title>
<polygon fill="lightgrey" stroke="black" points="272.5,-100.154 251.5,-100.154 251.5,-82.1543 272.5,-82.1543 272.5,-100.154"/>
<text text-anchor="middle" x="262" y="-88.9543" font-family="Times New Roman,serif" font-size="9.00">8</text>
</g>
<!-- 8&#45;&gt;31 -->
<g id="edge5" class="edge"><title>8&#45;&gt;31</title>
<path fill="none" stroke="green" stroke-width="0.368188" d="M262,-82.0362C262,-73.4701 262,-59.4947 262,-46.9144"/>
<polygon fill="green" stroke="green" stroke-width="0.368188" points="265.5,-46.8244 262,-36.8245 258.5,-46.8245 265.5,-46.8244"/>
</g>
<!-- 8&#45;&gt;33 -->
<g id="edge13" class="edge"><title>8&#45;&gt;33</title>
<path fill="none" stroke="red" stroke-width="0.179498" stroke-dasharray="1,5" d="M269.042,-82.009C272.35,-78.667 276.544,-75.0539 281,-72.7696 301.166,-62.4318 446.031,-35.5636 507.999,-24.3816"/>
<polygon fill="red" stroke="red" stroke-width="0.179498" points="508.658,-27.8192 517.881,-22.6046 507.42,-20.9297 508.658,-27.8192"/>
</g>
<!-- 9 -->
<g id="node10" class="node"><title>9</title>
<polygon fill="lightgrey" stroke="black" points="483.5,-100.154 462.5,-100.154 462.5,-82.1543 483.5,-82.1543 483.5,-100.154"/>
<text text-anchor="middle" x="473" y="-88.9543" font-family="Times New Roman,serif" font-size="9.00">9</text>
</g>
<!-- 9&#45;&gt;31 -->
<g id="edge25" class="edge"><title>9&#45;&gt;31</title>
<path fill="none" stroke="green" stroke-width="0.180164" stroke-dasharray="1,5" d="M465.062,-81.8037C461.618,-78.588 457.375,-75.1257 453,-72.7696 399.384,-43.892 328.682,-29.4346 290.097,-23.2561"/>
<polygon fill="green" stroke="green" stroke-width="0.180164" points="290.52,-19.7802 280.106,-21.7278 289.462,-26.6998 290.52,-19.7802"/>
</g>
<!-- 9&#45;&gt;34 -->
<g id="edge2" class="edge"><title>9&#45;&gt;34</title>
<path fill="none" stroke="green" stroke-width="0.335706" d="M481.048,-81.9973C484.509,-78.8112 488.735,-75.3188 493,-72.7696 529.618,-50.8818 576.762,-35.2254 606.186,-26.7378"/>
<polygon fill="green" stroke="green" stroke-width="0.335706" points="607.489,-30.0074 616.173,-23.9368 605.599,-23.2675 607.489,-30.0074"/>
</g>
<!-- 10 -->
<g id="node11" class="node"><title>10</title>
<polygon fill="lightgrey" stroke="black" points="841,-163.539 815,-163.539 815,-145.539 841,-145.539 841,-163.539"/>
<text text-anchor="middle" x="828" y="-152.339" font-family="Times New Roman,serif" font-size="9.00">10</text>
</g>
<!-- 11 -->
<g id="node12" class="node"><title>11</title>
<polygon fill="lightgrey" stroke="black" points="690,-100.154 664,-100.154 664,-82.1543 690,-82.1543 690,-100.154"/>
<text text-anchor="middle" x="677" y="-88.9543" font-family="Times New Roman,serif" font-size="9.00">11</text>
</g>
<!-- 11&#45;&gt;33 -->
<g id="edge24" class="edge"><title>11&#45;&gt;33</title>
<path fill="none" stroke="red" stroke-width="0.708259" d="M667.521,-81.8227C663.771,-78.7566 659.329,-75.3951 655,-72.7696 624.882,-54.5013 587.424,-38.7218 562.669,-29.1524"/>
<polygon fill="red" stroke="red" stroke-width="0.708259" points="563.804,-25.8396 553.213,-25.5605 561.318,-32.3834 563.804,-25.8396"/>
</g>
<!-- 11&#45;&gt;34 -->
<g id="edge12" class="edge"><title>11&#45;&gt;34</title>
<path fill="none" stroke="red" stroke-width="0.470848" d="M672.067,-82.0362C666.368,-72.6555 656.726,-56.7877 648.573,-43.369"/>
<polygon fill="red" stroke="red" stroke-width="0.470848" points="651.417,-41.3089 643.233,-34.5802 645.434,-44.9438 651.417,-41.3089"/>
</g>
<!-- 12 -->
<g id="node13" class="node"><title>12</title>
<polygon fill="lightgrey" stroke="black" points="885,-163.539 859,-163.539 859,-145.539 885,-145.539 885,-163.539"/>
<text text-anchor="middle" x="872" y="-152.339" font-family="Times New Roman,serif" font-size="9.00">12</text>
</g>
<!-- 13 -->
<g id="node14" class="node"><title>13</title>
<polygon fill="lightgrey" stroke="black" points="755,-163.539 729,-163.539 729,-145.539 755,-145.539 755,-163.539"/>
<text text-anchor="middle" x="742" y="-152.339" font-family="Times New Roman,serif" font-size="9.00">13</text>
</g>
<!-- 13&#45;&gt;34 -->
<g id="edge28" class="edge"><title>13&#45;&gt;34</title>
<path fill="none" stroke="green" stroke-width="0.315138" d="M738.905,-145.343C732.85,-130.001 718.326,-96.3667 699,-72.7696 687.084,-58.2195 670.706,-44.7979 657.372,-35.0519"/>
<polygon fill="green" stroke="green" stroke-width="0.315138" points="659.308,-32.1341 649.127,-29.2033 655.258,-37.8436 659.308,-32.1341"/>
</g>
<!-- 13&#45;&gt;35 -->
<g id="edge20" class="edge"><title>13&#45;&gt;35</title>
<path fill="none" stroke="red" stroke-width="0.212884" d="M744.876,-145.514C747.374,-138.543 751.136,-128.048 754.664,-118.204"/>
<polygon fill="red" stroke="red" stroke-width="0.212884" points="757.979,-119.328 758.058,-108.733 751.39,-116.966 757.979,-119.328"/>
</g>
<!-- 14 -->
<g id="node15" class="node"><title>14</title>
<polygon fill="lightgrey" stroke="black" points="149,-100.154 123,-100.154 123,-82.1543 149,-82.1543 149,-100.154"/>
<text text-anchor="middle" x="136" y="-88.9543" font-family="Times New Roman,serif" font-size="9.00">14</text>
</g>
<!-- 14&#45;&gt;31 -->
<g id="edge9" class="edge"><title>14&#45;&gt;31</title>
<path fill="none" stroke="red" stroke-width="0.104161" d="M145.554,-81.942C149.312,-78.8906 153.742,-75.5079 158,-72.7696 183.461,-56.3958 214.558,-40.9795 236.08,-30.9634"/>
<polygon fill="red" stroke="red" stroke-width="0.104161" points="237.613,-34.111 245.24,-26.7573 234.692,-27.7496 237.613,-34.111"/>
</g>
<!-- 14&#45;&gt;32 -->
<g id="edge33" class="edge"><title>14&#45;&gt;32</title>
<path fill="none" stroke="red" stroke-width="0.528767" d="M131.182,-82.0362C125.615,-72.6555 116.198,-56.7877 108.234,-43.369"/>
<polygon fill="red" stroke="red" stroke-width="0.528767" points="111.132,-41.3935 103.018,-34.5802 105.112,-44.9661 111.132,-41.3935"/>
</g>
<!-- 15 -->
<g id="node16" class="node"><title>15</title>
<polygon fill="lightgrey" stroke="black" points="26,-100.154 0,-100.154 0,-82.1543 26,-82.1543 26,-100.154"/>
<text text-anchor="middle" x="13" y="-88.9543" font-family="Times New Roman,serif" font-size="9.00">15</text>
</g>
<!-- 15&#45;&gt;32 -->
<g id="edge3" class="edge"><title>15&#45;&gt;32</title>
<path fill="none" stroke="red" stroke-width="0.211897" d="M22.2917,-82.0362C34.5764,-71.3031 56.5812,-52.0775 72.9859,-37.7447"/>
<polygon fill="red" stroke="red" stroke-width="0.211897" points="75.2944,-40.3756 80.5222,-31.1603 70.6887,-35.1041 75.2944,-40.3756"/>
</g>
<!-- 16 -->
<g id="node17" class="node"><title>16</title>
<polygon fill="lightgrey" stroke="black" points="929,-163.539 903,-163.539 903,-145.539 929,-145.539 929,-163.539"/>
<text text-anchor="middle" x="916" y="-152.339" font-family="Times New Roman,serif" font-size="9.00">16</text>
</g>
<!-- 17 -->
<g id="node18" class="node"><title>17</title>
<polygon fill="lightgrey" stroke="black" points="973,-163.539 947,-163.539 947,-145.539 973,-145.539 973,-163.539"/>
<text text-anchor="middle" x="960" y="-152.339" font-family="Times New Roman,serif" font-size="9.00">17</text>
</g>
<!-- 18 -->
<g id="node19" class="node"><title>18</title>
<polygon fill="lightgrey" stroke="black" points="444,-100.154 418,-100.154 418,-82.1543 444,-82.1543 444,-100.154"/>
<text text-anchor="middle" x="431" y="-88.9543" font-family="Times New Roman,serif" font-size="9.00">18</text>
</g>
<!-- 30 -->
<g id="node31" class="node"><title>30</title>
<ellipse fill="lightblue" stroke="lightblue" cx="409" cy="-18.3848" rx="18.2703" ry="18.2703"/>
<text text-anchor="middle" x="409" y="-16.1848" font-family="Times New Roman,serif" font-size="9.00">30</text>
</g>
<!-- 18&#45;&gt;30 -->
<g id="edge7" class="edge"><title>18&#45;&gt;30</title>
<path fill="none" stroke="green" stroke-width="0.17244" stroke-dasharray="1,5" d="M428.476,-82.0362C425.751,-73.2699 421.265,-58.8384 417.285,-46.0345"/>
<polygon fill="green" stroke="green" stroke-width="0.17244" points="420.555,-44.7646 414.244,-36.2544 413.871,-46.8426 420.555,-44.7646"/>
</g>
<!-- 18&#45;&gt;33 -->
<g id="edge35" class="edge"><title>18&#45;&gt;33</title>
<path fill="none" stroke="green" stroke-width="0.146804" d="M441.139,-81.8069C444.815,-78.8703 449.038,-75.5987 453,-72.7696 472.293,-58.9914 494.979,-44.5108 511.754,-34.1126"/>
<polygon fill="green" stroke="green" stroke-width="0.146804" points="513.725,-37.0093 520.406,-28.7863 510.055,-31.0484 513.725,-37.0093"/>
</g>
<!-- 19 -->
<g id="node20" class="node"><title>19</title>
<polygon fill="lightgrey" stroke="black" points="1017,-163.539 991,-163.539 991,-145.539 1017,-145.539 1017,-163.539"/>
<text text-anchor="middle" x="1004" y="-152.339" font-family="Times New Roman,serif" font-size="9.00">19</text>
</g>
<!-- 20 -->
<g id="node21" class="node"><title>20</title>
<polygon fill="lightgrey" stroke="black" points="1061,-163.539 1035,-163.539 1035,-145.539 1061,-145.539 1061,-163.539"/>
<text text-anchor="middle" x="1048" y="-152.339" font-family="Times New Roman,serif" font-size="9.00">20</text>
</g>
<!-- 21 -->
<g id="node22" class="node"><title>21</title>
<polygon fill="lightgrey" stroke="black" points="1105,-163.539 1079,-163.539 1079,-145.539 1105,-145.539 1105,-163.539"/>
<text text-anchor="middle" x="1092" y="-152.339" font-family="Times New Roman,serif" font-size="9.00">21</text>
</g>
<!-- 22 -->
<g id="node23" class="node"><title>22</title>
<polygon fill="lightgrey" stroke="black" points="356,-100.154 330,-100.154 330,-82.1543 356,-82.1543 356,-100.154"/>
<text text-anchor="middle" x="343" y="-88.9543" font-family="Times New Roman,serif" font-size="9.00">22</text>
</g>
<!-- 22&#45;&gt;31 -->
<g id="edge8" class="edge"><title>22&#45;&gt;31</title>
<path fill="none" stroke="green" stroke-width="0.114384" d="M333.708,-82.0362C321.424,-71.3031 299.419,-52.0775 283.014,-37.7447"/>
<polygon fill="green" stroke="green" stroke-width="0.114384" points="285.311,-35.1041 275.478,-31.1603 280.706,-40.3756 285.311,-35.1041"/>
</g>
<!-- 22&#45;&gt;34 -->
<g id="edge18" class="edge"><title>22&#45;&gt;34</title>
<path fill="none" stroke="green" stroke-width="0.195283" stroke-dasharray="1,5" d="M351.335,-81.9712C355.199,-78.6223 360.031,-75.0141 365,-72.7696 446.512,-35.9475 475.522,-55.4141 563,-36.7696 577.397,-33.7011 593.323,-29.8443 606.438,-26.5434"/>
<polygon fill="green" stroke="green" stroke-width="0.195283" points="607.442,-29.8995 616.269,-24.041 605.715,-23.1158 607.442,-29.8995"/>
</g>
<!-- 23 -->
<g id="node24" class="node"><title>23</title>
<polygon fill="lightgrey" stroke="black" points="1149,-163.539 1123,-163.539 1123,-145.539 1149,-145.539 1149,-163.539"/>
<text text-anchor="middle" x="1136" y="-152.339" font-family="Times New Roman,serif" font-size="9.00">23</text>
</g>
<!-- 24 -->
<g id="node25" class="node"><title>24</title>
<polygon fill="lightgrey" stroke="black" points="1193,-163.539 1167,-163.539 1167,-145.539 1193,-145.539 1193,-163.539"/>
<text text-anchor="middle" x="1180" y="-152.339" font-family="Times New Roman,serif" font-size="9.00">24</text>
</g>
<!-- 25 -->
<g id="node26" class="node"><title>25</title>
<polygon fill="lightgrey" stroke="black" points="1237,-163.539 1211,-163.539 1211,-145.539 1237,-145.539 1237,-163.539"/>
<text text-anchor="middle" x="1224" y="-152.339" font-family="Times New Roman,serif" font-size="9.00">25</text>
</g>
<!-- 26 -->
<g id="node27" class="node"><title>26</title>
<polygon fill="lightgrey" stroke="black" points="1281,-163.539 1255,-163.539 1255,-145.539 1281,-145.539 1281,-163.539"/>
<text text-anchor="middle" x="1268" y="-152.339" font-family="Times New Roman,serif" font-size="9.00">26</text>
</g>
<!-- 27 -->
<g id="node28" class="node"><title>27</title>
<polygon fill="lightgrey" stroke="black" points="233,-100.154 207,-100.154 207,-82.1543 233,-82.1543 233,-100.154"/>
<text text-anchor="middle" x="220" y="-88.9543" font-family="Times New Roman,serif" font-size="9.00">27</text>
</g>
<!-- 27&#45;&gt;30 -->
<g id="edge34" class="edge"><title>27&#45;&gt;30</title>
<path fill="none" stroke="red" stroke-width="0.305826" stroke-dasharray="1,5" d="M228.904,-81.9179C232.718,-78.7196 237.359,-75.2396 242,-72.7696 287.825,-48.3815 346.709,-32.7951 380.915,-25.1067"/>
<polygon fill="red" stroke="red" stroke-width="0.305826" points="382.08,-28.4351 391.106,-22.8869 380.591,-21.5955 382.08,-28.4351"/>
</g>
<!-- 27&#45;&gt;32 -->
<g id="edge16" class="edge"><title>27&#45;&gt;32</title>
<path fill="none" stroke="green" stroke-width="0.13851" stroke-dasharray="1,5" d="M209.96,-81.983C206.024,-78.9365 201.403,-75.5466 197,-72.7696 171.705,-56.8151 141.102,-41.4087 119.858,-31.2819"/>
<polygon fill="green" stroke="green" stroke-width="0.13851" points="121.065,-27.9818 110.527,-26.8866 118.082,-34.3144 121.065,-27.9818"/>
</g>
<!-- 28 -->
<g id="node29" class="node"><title>28</title>
<polygon fill="lightgrey" stroke="black" points="400,-100.154 374,-100.154 374,-82.1543 400,-82.1543 400,-100.154"/>
<text text-anchor="middle" x="387" y="-88.9543" font-family="Times New Roman,serif" font-size="9.00">28</text>
</g>
<!-- 28&#45;&gt;30 -->
<g id="edge10" class="edge"><title>28&#45;&gt;30</title>
<path fill="none" stroke="red" stroke-width="0.24335" d="M389.524,-82.0362C392.249,-73.2699 396.735,-58.8384 400.715,-46.0345"/>
<polygon fill="red" stroke="red" stroke-width="0.24335" points="404.129,-46.8426 403.756,-36.2544 397.445,-44.7646 404.129,-46.8426"/>
</g>
<!-- 28&#45;&gt;31 -->
<g id="edge17" class="edge"><title>28&#45;&gt;31</title>
<path fill="none" stroke="green" stroke-width="0.362844" d="M377.44,-81.9509C373.681,-78.9005 369.253,-75.5163 365,-72.7696 339.764,-56.4706 308.97,-41.0419 287.661,-31.0025"/>
<polygon fill="green" stroke="green" stroke-width="0.362844" points="289.135,-27.8282 278.592,-26.7852 286.183,-34.1755 289.135,-27.8282"/>
</g>
<!-- 28&#45;&gt;33 -->
<g id="edge32" class="edge"><title>28&#45;&gt;33</title>
<path fill="none" stroke="red" stroke-width="0.10793" d="M396.018,-82.1214C399.85,-78.9543 404.473,-75.4425 409,-72.7696 441.546,-53.5542 482.303,-37.7199 508.733,-28.4143"/>
<polygon fill="red" stroke="red" stroke-width="0.10793" points="510.138,-31.6322 518.449,-25.061 507.854,-25.0153 510.138,-31.6322"/>
</g>
<!-- 28&#45;&gt;34 -->
<g id="edge4" class="edge"><title>28&#45;&gt;34</title>
<path fill="none" stroke="green" stroke-width="0.157971" stroke-dasharray="1,5" d="M395.39,-82.0879C399.264,-78.7606 404.089,-75.1371 409,-72.7696 472.317,-42.2469 494.64,-53.1283 563,-36.7696 577.316,-33.3437 593.235,-29.4533 606.365,-26.2227"/>
<polygon fill="green" stroke="green" stroke-width="0.157971" points="607.342,-29.5867 616.214,-23.7947 605.666,-22.7902 607.342,-29.5867"/>
</g>
<!-- 29 -->
<g id="node30" class="node"><title>29</title>
<polygon fill="lightgrey" stroke="black" points="528,-100.154 502,-100.154 502,-82.1543 528,-82.1543 528,-100.154"/>
<text text-anchor="middle" x="515" y="-88.9543" font-family="Times New Roman,serif" font-size="9.00">29</text>
</g>
<!-- 29&#45;&gt;30 -->
<g id="edge21" class="edge"><title>29&#45;&gt;30</title>
<path fill="none" stroke="red" stroke-width="0.103704" d="M504.359,-81.8469C500.512,-78.914 496.104,-75.6345 492,-72.7696 472.56,-59.1997 449.886,-44.7021 433.153,-34.2445"/>
<polygon fill="red" stroke="red" stroke-width="0.103704" points="434.867,-31.1891 424.527,-28.8819 431.172,-37.134 434.867,-31.1891"/>
</g>
<!-- 29&#45;&gt;33 -->
<g id="edge23" class="edge"><title>29&#45;&gt;33</title>
<path fill="none" stroke="red" stroke-width="0.116997" stroke-dasharray="1,5" d="M517.409,-82.0362C520.01,-73.2699 524.293,-58.8384 528.092,-46.0345"/>
<polygon fill="red" stroke="red" stroke-width="0.116997" points="531.505,-46.8369 530.994,-36.2544 524.794,-44.8455 531.505,-46.8369"/>
</g>
<!-- 35&#45;&gt;34 -->
<g id="edge1" class="edge"><title>35&#45;&gt;34</title>
<path fill="none" stroke="red" stroke-width="0.318668" d="M748.059,-81.4766C725.838,-69.3796 685.327,-47.3264 659.048,-33.0207"/>
<polygon fill="red" stroke="red" stroke-width="0.318668" points="660.527,-29.8408 650.071,-28.1335 657.18,-35.9888 660.527,-29.8408"/>
</g>
</g>
</svg>
